<svg id="my-svg" width="100%" xmlns="http://www.w3.org/2000/svg" xmlns:xlink="http://www.w3.org/1999/xlink" class="erDiagram" style="max-width: 1004.95px; background-color: white;" viewBox="4 4 1004.953125 808" role="graphics-document document" aria-roledescription="er"><g class="edges edgePaths"><path d="M112,354L112,535" id="my-svg-id_entity-NomenclaturalType-0_entity-ScientificName_EXT-1_0" class="edge-thickness-normal edge-pattern-solid relationshipLine" style="undefined;;;undefined" data-edge="true" data-et="edge" data-id="id_entity-NomenclaturalType-0_entity-ScientificName_EXT-1_0" data-points="W3sieCI6MTEyLCJ5IjozNTR9LHsieCI6MTEyLCJ5Ijo1MzV9XQ==" data-look="classic" marker-start="url(#my-svg_er-oneOrMoreStart)" marker-end="url(#my-svg_er-zeroOrOneEnd)"/><path d="M163.328125,354L163.328125,446.9289321881345Q163.328125,454 170.39919281186548,454L261.4289321881345,454Q268.5,454 268.5,461.0710678118655L268.5,507.9289321881345Q268.5,515 261.4289321881345,515L185.32106781186548,515Q178.25,515 178.25,522.0710678118655L178.25,535" id="my-svg-id_entity-NomenclaturalType-0_entity-ScientificName_EXT-1_1" class="edge-thickness-normal edge-pattern-solid relationshipLine" style="undefined;;;undefined" data-edge="true" data-et="edge" data-id="id_entity-NomenclaturalType-0_entity-ScientificName_EXT-1_1" data-points="W3sieCI6MTYzLjMyODEyNSwieSI6MzU0fSx7IngiOjE2My4zMjgxMjUsInkiOjQ1NH0seyJ4IjoyNjguNSwieSI6NDU0fSx7IngiOjI2OC41LCJ5Ijo1MTV9LHsieCI6MTc4LjI1LCJ5Ijo1MTV9LHsieCI6MTc4LjI1LCJ5Ijo1MzV9XQ==" data-look="classic" marker-start="url(#my-svg_er-zeroOrMoreStart)" marker-end="url(#my-svg_er-zeroOrOneEnd)"/><path d="M145.125,619L145.125,720" id="my-svg-id_entity-ScientificName_EXT-1_entity-TaxonName-2_2" class="edge-thickness-normal edge-pattern-solid relationshipLine" style="undefined;;;undefined" data-edge="true" data-et="edge" data-id="id_entity-ScientificName_EXT-1_entity-TaxonName-2_2" data-points="W3sieCI6MTQ1LjEyNSwieSI6NjE5fSx7IngiOjE0NS4xMjUsInkiOjcyMH1d" data-look="classic" marker-start="url(#my-svg_er-zeroOrOneStart)" marker-end="url(#my-svg_er-onlyOneEnd)"/><path d="M214.65625,354L214.65625,426.9289321881345Q214.65625,434 221.72731781186548,434L368.0070571881345,434Q375.078125,434 375.078125,441.0710678118655L375.078125,535" id="my-svg-id_entity-NomenclaturalType-0_entity-Specimen-3_3" class="edge-thickness-normal edge-pattern-solid relationshipLine" style="undefined;;;undefined" data-edge="true" data-et="edge" data-id="id_entity-NomenclaturalType-0_entity-Specimen-3_3" data-points="W3sieCI6MjE0LjY1NjI1LCJ5IjozNTR9LHsieCI6MjE0LjY1NjI1LCJ5Ijo0MzR9LHsieCI6Mzc1LjA3ODEyNSwieSI6NDM0fSx7IngiOjM3NS4wNzgxMjUsInkiOjUzNX1d" data-look="classic" marker-start="url(#my-svg_er-zeroOrMoreStart)" marker-end="url(#my-svg_er-zeroOrOneEnd)"/><path d="M265.984375,354L265.984375,406.9289321881345Q265.984375,414 273.0554428118655,414L508.4914321881345,414Q515.5625,414 515.5625,421.0710678118655L515.5625,484.5L515.5625,669.5L515.5625,692.9289321881345Q515.5625,700 522.6335678118655,700L643.0812759381345,700Q650.15234375,700 650.15234375,707.0710678118655L650.15234375,720" id="my-svg-id_entity-NomenclaturalType-0_entity-Reference-4_4" class="edge-thickness-normal edge-pattern-solid relationshipLine" style="undefined;;;undefined" data-edge="true" data-et="edge" data-id="id_entity-NomenclaturalType-0_entity-Reference-4_4" data-points="W3sieCI6MjY1Ljk4NDM3NSwieSI6MzU0fSx7IngiOjI2NS45ODQzNzUsInkiOjQxNH0seyJ4Ijo1MTUuNTYyNSwieSI6NDE0fSx7IngiOjUxNS41NjI1LCJ5Ijo0ODQuNX0seyJ4Ijo1MTUuNTYyNSwieSI6NjY5LjV9LHsieCI6NTE1LjU2MjUsInkiOjcwMH0seyJ4Ijo2NTAuMTUyMzQzNzUsInkiOjcwMH0seyJ4Ijo2NTAuMTUyMzQzNzUsInkiOjcyMH1d" data-look="classic" marker-start="url(#my-svg_er-zeroOrMoreStart)" marker-end="url(#my-svg_er-zeroOrOneEnd)"/><path d="M317.3125,354L317.3125,386.9289321881345Q317.3125,394 324.3835678118655,394L673.2258071881345,394Q680.296875,394 680.296875,401.0710678118655L680.296875,535" id="my-svg-id_entity-NomenclaturalType-0_entity-Typification_EXT-5_5" class="edge-thickness-normal edge-pattern-solid relationshipLine" style="undefined;;;undefined" data-edge="true" data-et="edge" data-id="id_entity-NomenclaturalType-0_entity-Typification_EXT-5_5" data-points="W3sieCI6MzE3LjMxMjUsInkiOjM1NH0seyJ4IjozMTcuMzEyNSwieSI6Mzk0fSx7IngiOjY4MC4yOTY4NzUsInkiOjM5NH0seyJ4Ijo2ODAuMjk2ODc1LCJ5Ijo1MzV9XQ==" data-look="classic" marker-start="url(#my-svg_er-zeroOrOneStart)" marker-end="url(#my-svg_er-onlyOneEnd)"/><path d="M680.296875,619L680.296875,720" id="my-svg-id_entity-Typification_EXT-5_entity-Reference-4_6" class="edge-thickness-normal edge-pattern-solid relationshipLine" style="undefined;;;undefined" data-edge="true" data-et="edge" data-id="id_entity-Typification_EXT-5_entity-Reference-4_6" data-points="W3sieCI6NjgwLjI5Njg3NSwieSI6NjE5fSx7IngiOjY4MC4yOTY4NzUsInkiOjcyMH1d" data-look="classic" marker-start="url(#my-svg_er-onlyOneStart)" marker-end="url(#my-svg_er-zeroOrOneEnd)"/><path d="M368.640625,354L368.640625,366.9289321881345Q368.640625,374 375.7116928118655,374L893.8820571881345,374Q900.953125,374 900.953125,381.0710678118655L900.953125,535" id="my-svg-id_entity-NomenclaturalType-0_entity-Entity_Source_MAP-6_7" class="edge-thickness-normal edge-pattern-solid relationshipLine" style="undefined;;;undefined" data-edge="true" data-et="edge" data-id="id_entity-NomenclaturalType-0_entity-Entity_Source_MAP-6_7" data-points="W3sieCI6MzY4LjY0MDYyNSwieSI6MzU0fSx7IngiOjM2OC42NDA2MjUsInkiOjM3NH0seyJ4Ijo5MDAuOTUzMTI1LCJ5IjozNzR9LHsieCI6OTAwLjk1MzEyNSwieSI6NTM1fV0=" data-look="classic" marker-start="url(#my-svg_er-zeroOrMoreStart)" marker-end="url(#my-svg_er-zeroOrOneEnd)"/><path d="M900.953125,619L900.953125,692.9289321881345Q900.953125,700 893.8820571881345,700L717.5124740618655,700Q710.44140625,700 710.44140625,707.0710678118655L710.44140625,720" id="my-svg-id_entity-Entity_Source_MAP-6_entity-Reference-4_8" class="edge-thickness-normal edge-pattern-solid relationshipLine" style="undefined;;;undefined" data-edge="true" data-et="edge" data-id="id_entity-Entity_Source_MAP-6_entity-Reference-4_8" data-points="W3sieCI6OTAwLjk1MzEyNSwieSI6NjE5fSx7IngiOjkwMC45NTMxMjUsInkiOjcwMH0seyJ4Ijo3MTAuNDQxNDA2MjUsInkiOjcwMH0seyJ4Ijo3MTAuNDQxNDA2MjUsInkiOjcyMH1d" data-look="classic" marker-start="url(#my-svg_er-oneOrMoreStart)" marker-end="url(#my-svg_er-zeroOrOneEnd)"/></g><style>#my-svg{font-family:"trebuchet ms",verdana,arial,sans-serif;font-size:16px;fill:#333;}@keyframes edge-animation-frame{from{stroke-dashoffset:0;}}@keyframes dash{to{stroke-dashoffset:0;}}#my-svg .edge-animation-slow{stroke-dasharray:9,5!important;stroke-dashoffset:900;animation:dash 50s linear infinite;stroke-linecap:round;}#my-svg .edge-animation-fast{stroke-dasharray:9,5!important;stroke-dashoffset:900;animation:dash 20s linear infinite;stroke-linecap:round;}#my-svg .error-icon{fill:hsl(210, 100%, 96.7647058824%);}#my-svg .error-text{fill:rgb(16.4999999998, 8.2499999999, 0);stroke:rgb(16.4999999998, 8.2499999999, 0);}#my-svg .edge-thickness-normal{stroke-width:1px;}#my-svg .edge-thickness-thick{stroke-width:3.5px;}#my-svg .edge-pattern-solid{stroke-dasharray:0;}#my-svg .edge-thickness-invisible{stroke-width:0;fill:none;}#my-svg .edge-pattern-dashed{stroke-dasharray:3;}#my-svg .edge-pattern-dotted{stroke-dasharray:2;}#my-svg .marker{fill:#e74b0f;stroke:#e74b0f;}#my-svg .marker.cross{stroke:#e74b0f;}#my-svg svg{font-family:"trebuchet ms",verdana,arial,sans-serif;font-size:16px;}#my-svg p{margin:0;}#my-svg .entityBox{fill:#ffead5;stroke:#fbb176;}#my-svg .relationshipLabelBox{fill:hsl(210, 100%, 96.7647058824%);opacity:0.7;background-color:hsl(210, 100%, 96.7647058824%);}#my-svg .relationshipLabelBox rect{opacity:0.5;}#my-svg .labelBkg{background-color:rgba(238.5000000002, 246.7500000001, 255, 0.5);}#my-svg .edgeLabel{background-color:hsl(-90, 100%, 91.7647058824%);}#my-svg .edgeLabel .label rect{fill:hsl(-90, 100%, 91.7647058824%);}#my-svg .edgeLabel .label text{fill:#333;}#my-svg .edgeLabel .label{fill:#fbb176;font-size:14px;}#my-svg .label{font-family:"trebuchet ms",verdana,arial,sans-serif;color:#333;}#my-svg .edge-pattern-dashed{stroke-dasharray:8,8;}#my-svg .node rect,#my-svg .node circle,#my-svg .node ellipse,#my-svg .node polygon{fill:#ffead5;stroke:#fbb176;stroke-width:1px;}#my-svg .relationshipLine{stroke:#e74b0f;stroke-width:1px;fill:none;}#my-svg .marker{fill:none!important;stroke:#e74b0f!important;stroke-width:1;}#my-svg [data-look=neo].labelBkg{background-color:rgba(238.5000000002, 246.7500000001, 255, 0.5);}#my-svg .node .neo-node{stroke:#fbb176;}#my-svg [data-look="neo"].node rect,#my-svg [data-look="neo"].cluster rect,#my-svg [data-look="neo"].node polygon{stroke:url(#my-svg-gradient);filter:drop-shadow( 1px 2px 2px rgba(185,185,185,1));}#my-svg [data-look="neo"].node path{stroke:url(#my-svg-gradient);stroke-width:1px;}#my-svg [data-look="neo"].node .outer-path{filter:drop-shadow( 1px 2px 2px rgba(185,185,185,1));}#my-svg [data-look="neo"].node .neo-line path{stroke:#fbb176;filter:none;}#my-svg [data-look="neo"].node circle{stroke:url(#my-svg-gradient);filter:drop-shadow( 1px 2px 2px rgba(185,185,185,1));}#my-svg [data-look="neo"].node circle .state-start{fill:#000000;}#my-svg [data-look="neo"].icon-shape .icon{fill:url(#my-svg-gradient);filter:drop-shadow( 1px 2px 2px rgba(185,185,185,1));}#my-svg [data-look="neo"].icon-shape .icon-neo path{stroke:url(#my-svg-gradient);filter:drop-shadow( 1px 2px 2px rgba(185,185,185,1));}#my-svg :root{--mermaid-font-family:"trebuchet ms",verdana,arial,sans-serif;}</style><g><defs><marker id="my-svg_er-onlyOneStart" class="marker onlyOne er" refX="0" refY="9" markerWidth="18" markerHeight="18" orient="auto"><path d="M9,0 L9,18 M15,0 L15,18"/></marker></defs><defs><marker id="my-svg_er-onlyOneEnd" class="marker onlyOne er" refX="18" refY="9" markerWidth="18" markerHeight="18" orient="auto"><path d="M3,0 L3,18 M9,0 L9,18"/></marker></defs><defs><marker id="my-svg_er-zeroOrOneStart" class="marker zeroOrOne er" refX="0" refY="9" markerWidth="30" markerHeight="18" orient="auto"><circle fill="white" cx="21" cy="9" r="6"/><path d="M9,0 L9,18"/></marker></defs><defs><marker id="my-svg_er-zeroOrOneEnd" class="marker zeroOrOne er" refX="30" refY="9" markerWidth="30" markerHeight="18" orient="auto"><circle fill="white" cx="9" cy="9" r="6"/><path d="M21,0 L21,18"/></marker></defs><defs><marker id="my-svg_er-oneOrMoreStart" class="marker oneOrMore er" refX="18" refY="18" markerWidth="45" markerHeight="36" orient="auto"><path d="M0,18 Q 18,0 36,18 Q 18,36 0,18 M42,9 L42,27"/></marker></defs><defs><marker id="my-svg_er-oneOrMoreEnd" class="marker oneOrMore er" refX="27" refY="18" markerWidth="45" markerHeight="36" orient="auto"><path d="M3,9 L3,27 M9,18 Q27,0 45,18 Q27,36 9,18"/></marker></defs><defs><marker id="my-svg_er-zeroOrMoreStart" class="marker zeroOrMore er" refX="18" refY="18" markerWidth="57" markerHeight="36" orient="auto"><circle fill="white" cx="48" cy="18" r="6"/><path d="M0,18 Q18,0 36,18 Q18,36 0,18"/></marker></defs><defs><marker id="my-svg_er-zeroOrMoreEnd" class="marker zeroOrMore er" refX="39" refY="18" markerWidth="57" markerHeight="36" orient="auto"><circle fill="white" cx="9" cy="18" r="6"/><path d="M21,18 Q39,0 57,18 Q39,36 21,18"/></marker></defs></g><defs><filter id="my-svg-drop-shadow" height="130%" width="130%"><feDropShadow dx="4" dy="4" stdDeviation="0" flood-opacity="0.06" flood-color="#000000"/></filter></defs><defs><filter id="my-svg-drop-shadow-small" height="150%" width="150%"><feDropShadow dx="2" dy="2" stdDeviation="0" flood-opacity="0.06" flood-color="#000000"/></filter></defs><linearGradient id="my-svg-gradient" gradientUnits="objectBoundingBox" x1="0%" y1="0%" x2="100%" y2="0%"><stop offset="0%" stop-color="#fbb176" stop-opacity="1"/><stop offset="100%" stop-color="hsl(-90, 60%, 81.7647058824%)" stop-opacity="1"/></linearGradient><g class="subgraphs"/><g class="nodes"><g class="node default" id="my-svg-entity-NomenclaturalType-0" data-look="classic" transform="translate(240.3203125, 183)"><g class="outer-path" style=""><path d="M-179.6484375 -171 L179.6484375 -171 L179.6484375 171 L-179.6484375 171" stroke="none" stroke-width="0" fill="#ffead5"/><path d="M-179.6484375 -171 C-87.14621022057061 -171, 5.356017058858782 -171, 179.6484375 -171 M-179.6484375 -171 C-50.73945731795712 -171, 78.16952286408576 -171, 179.6484375 -171 M179.6484375 -171 C179.6484375 -42.562153747038934, 179.6484375 85.87569250592213, 179.6484375 171 M179.6484375 -171 C179.6484375 -52.859127816458255, 179.6484375 65.28174436708349, 179.6484375 171 M179.6484375 171 C105.78499647242542 171, 31.92155544485084 171, -179.6484375 171 M179.6484375 171 C53.28866644488815 171, -73.0711046102237 171, -179.6484375 171 M-179.6484375 171 C-179.6484375 79.61349070277579, -179.6484375 -11.773018594448416, -179.6484375 -171 M-179.6484375 171 C-179.6484375 101.50665988051169, -179.6484375 32.01331976102338, -179.6484375 -171" stroke="#fbb176" stroke-width="1.3" fill="none" stroke-dasharray="0 0"/></g><g style="" class="row-rect-odd"><path d="M-179.6484375 -128.25 L179.6484375 -128.25 L179.6484375 -85.5 L-179.6484375 -85.5" stroke="none" stroke-width="0" fill="hsl(30, 100%, 100%)"/><path d="M-179.6484375 -128.25 C-38.88319227214896 -128.25, 101.88205295570208 -128.25, 179.6484375 -128.25 M-179.6484375 -128.25 C-69.87436113259574 -128.25, 39.899715234808525 -128.25, 179.6484375 -128.25 M179.6484375 -128.25 C179.6484375 -116.41948187996388, 179.6484375 -104.58896375992776, 179.6484375 -85.5 M179.6484375 -128.25 C179.6484375 -113.22424824642829, 179.6484375 -98.19849649285658, 179.6484375 -85.5 M179.6484375 -85.5 C59.881569569312376 -85.5, -59.88529836137525 -85.5, -179.6484375 -85.5 M179.6484375 -85.5 C75.68990218316371 -85.5, -28.26863313367258 -85.5, -179.6484375 -85.5 M-179.6484375 -85.5 C-179.6484375 -99.56704927140771, -179.6484375 -113.63409854281542, -179.6484375 -128.25 M-179.6484375 -85.5 C-179.6484375 -101.65895303088755, -179.6484375 -117.8179060617751, -179.6484375 -128.25" stroke="#fbb176" stroke-width="1.3" fill="none" stroke-dasharray="0 0"/></g><g style="" class="row-rect-even"><path d="M-179.6484375 -85.5 L179.6484375 -85.5 L179.6484375 -42.75 L-179.6484375 -42.75" stroke="none" stroke-width="0" fill="hsl(30, 100%, 96.7647058824%)"/><path d="M-179.6484375 -85.5 C-70.23738996788815 -85.5, 39.1736575642237 -85.5, 179.6484375 -85.5 M-179.6484375 -85.5 C-78.29988571118159 -85.5, 23.048666077636824 -85.5, 179.6484375 -85.5 M179.6484375 -85.5 C179.6484375 -71.82567634374934, 179.6484375 -58.151352687498665, 179.6484375 -42.75 M179.6484375 -85.5 C179.6484375 -75.84798402942917, 179.6484375 -66.19596805885834, 179.6484375 -42.75 M179.6484375 -42.75 C40.06454567872291 -42.75, -99.51934614255418 -42.75, -179.6484375 -42.75 M179.6484375 -42.75 C92.9490302808109 -42.75, 6.249623061621804 -42.75, -179.6484375 -42.75 M-179.6484375 -42.75 C-179.6484375 -59.05657106288466, -179.6484375 -75.36314212576931, -179.6484375 -85.5 M-179.6484375 -42.75 C-179.6484375 -52.2684944995531, -179.6484375 -61.7869889991062, -179.6484375 -85.5" stroke="#fbb176" stroke-width="1.3" fill="none" stroke-dasharray="0 0"/></g><g style="" class="row-rect-odd"><path d="M-179.6484375 -42.75 L179.6484375 -42.75 L179.6484375 0 L-179.6484375 0" stroke="none" stroke-width="0" fill="hsl(30, 100%, 100%)"/><path d="M-179.6484375 -42.75 C-41.89503665668403 -42.75, 95.85836418663195 -42.75, 179.6484375 -42.75 M-179.6484375 -42.75 C-63.83773538101239 -42.75, 51.97296673797521 -42.75, 179.6484375 -42.75 M179.6484375 -42.75 C179.6484375 -27.242325337668795, 179.6484375 -11.734650675337587, 179.6484375 0 M179.6484375 -42.75 C179.6484375 -30.931148578238783, 179.6484375 -19.112297156477563, 179.6484375 0 M179.6484375 0 C100.50502544489335 0, 21.361613389786697 0, -179.6484375 0 M179.6484375 0 C102.03229653471524 0, 24.416155569430487 0, -179.6484375 0 M-179.6484375 0 C-179.6484375 -14.820355952733102, -179.6484375 -29.640711905466205, -179.6484375 -42.75 M-179.6484375 0 C-179.6484375 -11.83606339113589, -179.6484375 -23.67212678227178, -179.6484375 -42.75" stroke="#fbb176" stroke-width="1.3" fill="none" stroke-dasharray="0 0"/></g><g style="" class="row-rect-even"><path d="M-179.6484375 0 L179.6484375 0 L179.6484375 42.75 L-179.6484375 42.75" stroke="none" stroke-width="0" fill="hsl(30, 100%, 96.7647058824%)"/><path d="M-179.6484375 0 C-88.76308512612333 0, 2.122267247753342 0, 179.6484375 0 M-179.6484375 0 C-63.893054675375524 0, 51.86232814924895 0, 179.6484375 0 M179.6484375 0 C179.6484375 15.63266448307002, 179.6484375 31.26532896614004, 179.6484375 42.75 M179.6484375 0 C179.6484375 15.05464071980739, 179.6484375 30.10928143961478, 179.6484375 42.75 M179.6484375 42.75 C96.1475865783788 42.75, 12.646735656757613 42.75, -179.6484375 42.75 M179.6484375 42.75 C95.79533741831175 42.75, 11.942237336623492 42.75, -179.6484375 42.75 M-179.6484375 42.75 C-179.6484375 29.314808746103303, -179.6484375 15.879617492206606, -179.6484375 0 M-179.6484375 42.75 C-179.6484375 31.03289881726236, -179.6484375 19.31579763452472, -179.6484375 0" stroke="#fbb176" stroke-width="1.3" fill="none" stroke-dasharray="0 0"/></g><g style="" class="row-rect-odd"><path d="M-179.6484375 42.75 L179.6484375 42.75 L179.6484375 85.5 L-179.6484375 85.5" stroke="none" stroke-width="0" fill="hsl(30, 100%, 100%)"/><path d="M-179.6484375 42.75 C-39.6923766236836 42.75, 100.2636842526328 42.75, 179.6484375 42.75 M-179.6484375 42.75 C-94.31482452034018 42.75, -8.981211540680363 42.75, 179.6484375 42.75 M179.6484375 42.75 C179.6484375 59.53610694576588, 179.6484375 76.32221389153176, 179.6484375 85.5 M179.6484375 42.75 C179.6484375 58.50110934708531, 179.6484375 74.25221869417062, 179.6484375 85.5 M179.6484375 85.5 C47.948844496173365 85.5, -83.75074850765327 85.5, -179.6484375 85.5 M179.6484375 85.5 C91.78852995909796 85.5, 3.928622418195914 85.5, -179.6484375 85.5 M-179.6484375 85.5 C-179.6484375 68.71347671104073, -179.6484375 51.92695342208144, -179.6484375 42.75 M-179.6484375 85.5 C-179.6484375 76.61396399176039, -179.6484375 67.72792798352079, -179.6484375 42.75" stroke="#fbb176" stroke-width="1.3" fill="none" stroke-dasharray="0 0"/></g><g style="" class="row-rect-even"><path d="M-179.6484375 85.5 L179.6484375 85.5 L179.6484375 128.25 L-179.6484375 128.25" stroke="none" stroke-width="0" fill="hsl(30, 100%, 96.7647058824%)"/><path d="M-179.6484375 85.5 C-94.51523558209831 85.5, -9.382033664196626 85.5, 179.6484375 85.5 M-179.6484375 85.5 C-81.95727448795272 85.5, 15.733888524094567 85.5, 179.6484375 85.5 M179.6484375 85.5 C179.6484375 101.47455029422773, 179.6484375 117.44910058845545, 179.6484375 128.25 M179.6484375 85.5 C179.6484375 99.20182243166525, 179.6484375 112.9036448633305, 179.6484375 128.25 M179.6484375 128.25 C36.48132611182365 128.25, -106.6857852763527 128.25, -179.6484375 128.25 M179.6484375 128.25 C43.36414372403436 128.25, -92.92015005193127 128.25, -179.6484375 128.25 M-179.6484375 128.25 C-179.6484375 118.94204259577111, -179.6484375 109.63408519154221, -179.6484375 85.5 M-179.6484375 128.25 C-179.6484375 113.82223313414372, -179.6484375 99.39446626828743, -179.6484375 85.5" stroke="#fbb176" stroke-width="1.3" fill="none" stroke-dasharray="0 0"/></g><g style="" class="row-rect-odd"><path d="M-179.6484375 128.25 L179.6484375 128.25 L179.6484375 171 L-179.6484375 171" stroke="none" stroke-width="0" fill="hsl(30, 100%, 100%)"/><path d="M-179.6484375 128.25 C-94.10877518422765 128.25, -8.569112868455306 128.25, 179.6484375 128.25 M-179.6484375 128.25 C-105.65809476422257 128.25, -31.667752028445136 128.25, 179.6484375 128.25 M179.6484375 128.25 C179.6484375 144.67666789244814, 179.6484375 161.10333578489627, 179.6484375 171 M179.6484375 128.25 C179.6484375 138.31612092785844, 179.6484375 148.38224185571687, 179.6484375 171 M179.6484375 171 C69.62677509390817 171, -40.39488731218367 171, -179.6484375 171 M179.6484375 171 C55.55327893000606 171, -68.54187963998788 171, -179.6484375 171 M-179.6484375 171 C-179.6484375 156.65182447903624, -179.6484375 142.30364895807247, -179.6484375 128.25 M-179.6484375 171 C-179.6484375 157.91094077641426, -179.6484375 144.82188155282853, -179.6484375 128.25" stroke="#fbb176" stroke-width="1.3" fill="none" stroke-dasharray="0 0"/></g><a href="/vicflora-docs/resources/nomenclatural-type" target="_top"><g class="label name" transform="translate(-77.1875, -161.625)" style=""><foreignObject width="154.375" height="24"><div xmlns="http://www.w3.org/1999/xhtml" style="display: table-cell; white-space: nowrap; line-height: 1.5; max-width: 255px; text-align: start;"><span class="nodeLabel"><p style="color: #e74b0f; font-weight: bold;">NomenclaturalType</p></span></div></foreignObject></g></a><g class="label attribute-type" transform="translate(-167.1484375, -118.875)" style=""><foreignObject width="20.859375" height="24"><div xmlns="http://www.w3.org/1999/xhtml" style="display: table-cell; white-space: nowrap; line-height: 1.5; max-width: 120px; text-align: start;"><span class="nodeLabel"><p>int</p></span></div></foreignObject></g><g class="label attribute-name" transform="translate(-110.5703125, -118.875)" style=""><foreignObject width="14.609375" height="24"><div xmlns="http://www.w3.org/1999/xhtml" style="display: table-cell; white-space: nowrap; line-height: 1.5; max-width: 114px; text-align: start;"><span class="nodeLabel"><p>id</p></span></div></foreignObject></g><g class="label attribute-keys" transform="translate(58.5859375, -118.875)" style=""><foreignObject width="20.140625" height="24"><div xmlns="http://www.w3.org/1999/xhtml" style="display: table-cell; white-space: nowrap; line-height: 1.5; max-width: 121px; text-align: start;"><span class="nodeLabel"><p>PK</p></span></div></foreignObject></g><g class="label attribute-comment" transform="translate(103.7265625, -118.875)" style=""><foreignObject width="0" height="0"><div xmlns="http://www.w3.org/1999/xhtml" style="display: table-cell; white-space: nowrap; line-height: 1.5; max-width: 100px; text-align: start;"><span class="nodeLabel"></span></div></foreignObject></g><g class="label attribute-type" transform="translate(-167.1484375, -76.125)" style=""><foreignObject width="20.859375" height="24"><div xmlns="http://www.w3.org/1999/xhtml" style="display: table-cell; white-space: nowrap; line-height: 1.5; max-width: 120px; text-align: start;"><span class="nodeLabel"><p>int</p></span></div></foreignObject></g><g class="label attribute-name" transform="translate(-110.5703125, -76.125)" style=""><foreignObject width="136.40625" height="24"><div xmlns="http://www.w3.org/1999/xhtml" style="display: table-cell; white-space: nowrap; line-height: 1.5; max-width: 236px; text-align: start;"><span class="nodeLabel"><p>typified_name_id</p></span></div></foreignObject></g><g class="label attribute-keys" transform="translate(58.5859375, -76.125)" style=""><foreignObject width="19.703125" height="24"><div xmlns="http://www.w3.org/1999/xhtml" style="display: table-cell; white-space: nowrap; line-height: 1.5; max-width: 120px; text-align: start;"><span class="nodeLabel"><p>FK</p></span></div></foreignObject></g><g class="label attribute-comment" transform="translate(103.7265625, -76.125)" style=""><foreignObject width="0" height="0"><div xmlns="http://www.w3.org/1999/xhtml" style="display: table-cell; white-space: nowrap; line-height: 1.5; max-width: 100px; text-align: start;"><span class="nodeLabel"></span></div></foreignObject></g><g class="label attribute-type" transform="translate(-167.1484375, -33.375)" style=""><foreignObject width="20.859375" height="24"><div xmlns="http://www.w3.org/1999/xhtml" style="display: table-cell; white-space: nowrap; line-height: 1.5; max-width: 120px; text-align: start;"><span class="nodeLabel"><p>int</p></span></div></foreignObject></g><g class="label attribute-name" transform="translate(-110.5703125, -33.375)" style=""><foreignObject width="111.71875" height="24"><div xmlns="http://www.w3.org/1999/xhtml" style="display: table-cell; white-space: nowrap; line-height: 1.5; max-width: 212px; text-align: start;"><span class="nodeLabel"><p>type_name_id</p></span></div></foreignObject></g><g class="label attribute-keys" transform="translate(58.5859375, -33.375)" style=""><foreignObject width="19.703125" height="24"><div xmlns="http://www.w3.org/1999/xhtml" style="display: table-cell; white-space: nowrap; line-height: 1.5; max-width: 120px; text-align: start;"><span class="nodeLabel"><p>FK</p></span></div></foreignObject></g><g class="label attribute-comment" transform="translate(103.7265625, -33.375)" style=""><foreignObject width="63.421875" height="24"><div xmlns="http://www.w3.org/1999/xhtml" style="display: table-cell; white-space: nowrap; line-height: 1.5; max-width: 162px; text-align: start;"><span class="nodeLabel"><p>nullable</p></span></div></foreignObject></g><g class="label attribute-type" transform="translate(-167.1484375, 9.375)" style=""><foreignObject width="20.859375" height="24"><div xmlns="http://www.w3.org/1999/xhtml" style="display: table-cell; white-space: nowrap; line-height: 1.5; max-width: 120px; text-align: start;"><span class="nodeLabel"><p>int</p></span></div></foreignObject></g><g class="label attribute-name" transform="translate(-110.5703125, 9.375)" style=""><foreignObject width="143.5" height="24"><div xmlns="http://www.w3.org/1999/xhtml" style="display: table-cell; white-space: nowrap; line-height: 1.5; max-width: 244px; text-align: start;"><span class="nodeLabel"><p>type_specimen_id</p></span></div></foreignObject></g><g class="label attribute-keys" transform="translate(58.5859375, 9.375)" style=""><foreignObject width="19.703125" height="24"><div xmlns="http://www.w3.org/1999/xhtml" style="display: table-cell; white-space: nowrap; line-height: 1.5; max-width: 120px; text-align: start;"><span class="nodeLabel"><p>FK</p></span></div></foreignObject></g><g class="label attribute-comment" transform="translate(103.7265625, 9.375)" style=""><foreignObject width="0" height="0"><div xmlns="http://www.w3.org/1999/xhtml" style="display: table-cell; white-space: nowrap; line-height: 1.5; max-width: 100px; text-align: start;"><span class="nodeLabel"></span></div></foreignObject></g><g class="label attribute-type" transform="translate(-167.1484375, 52.125)" style=""><foreignObject width="20.859375" height="24"><div xmlns="http://www.w3.org/1999/xhtml" style="display: table-cell; white-space: nowrap; line-height: 1.5; max-width: 120px; text-align: start;"><span class="nodeLabel"><p>int</p></span></div></foreignObject></g><g class="label attribute-name" transform="translate(-110.5703125, 52.125)" style=""><foreignObject width="125.515625" height="24"><div xmlns="http://www.w3.org/1999/xhtml" style="display: table-cell; white-space: nowrap; line-height: 1.5; max-width: 226px; text-align: start;"><span class="nodeLabel"><p>type_of_type_id</p></span></div></foreignObject></g><g class="label attribute-keys" transform="translate(58.5859375, 52.125)" style=""><foreignObject width="19.703125" height="24"><div xmlns="http://www.w3.org/1999/xhtml" style="display: table-cell; white-space: nowrap; line-height: 1.5; max-width: 120px; text-align: start;"><span class="nodeLabel"><p>FK</p></span></div></foreignObject></g><g class="label attribute-comment" transform="translate(103.7265625, 52.125)" style=""><foreignObject width="63.421875" height="24"><div xmlns="http://www.w3.org/1999/xhtml" style="display: table-cell; white-space: nowrap; line-height: 1.5; max-width: 162px; text-align: start;"><span class="nodeLabel"><p>nullable</p></span></div></foreignObject></g><g class="label attribute-type" transform="translate(-167.1484375, 94.875)" style=""><foreignObject width="20.859375" height="24"><div xmlns="http://www.w3.org/1999/xhtml" style="display: table-cell; white-space: nowrap; line-height: 1.5; max-width: 120px; text-align: start;"><span class="nodeLabel"><p>int</p></span></div></foreignObject></g><g class="label attribute-name" transform="translate(-110.5703125, 94.875)" style=""><foreignObject width="144.15625" height="24"><div xmlns="http://www.w3.org/1999/xhtml" style="display: table-cell; white-space: nowrap; line-height: 1.5; max-width: 244px; text-align: start;"><span class="nodeLabel"><p>type_published_in</p></span></div></foreignObject></g><g class="label attribute-keys" transform="translate(58.5859375, 94.875)" style=""><foreignObject width="19.703125" height="24"><div xmlns="http://www.w3.org/1999/xhtml" style="display: table-cell; white-space: nowrap; line-height: 1.5; max-width: 120px; text-align: start;"><span class="nodeLabel"><p>FK</p></span></div></foreignObject></g><g class="label attribute-comment" transform="translate(103.7265625, 94.875)" style=""><foreignObject width="63.421875" height="24"><div xmlns="http://www.w3.org/1999/xhtml" style="display: table-cell; white-space: nowrap; line-height: 1.5; max-width: 162px; text-align: start;"><span class="nodeLabel"><p>nullable</p></span></div></foreignObject></g><g class="label attribute-type" transform="translate(-167.1484375, 137.625)" style=""><foreignObject width="31.578125" height="24"><div xmlns="http://www.w3.org/1999/xhtml" style="display: table-cell; white-space: nowrap; line-height: 1.5; max-width: 131px; text-align: start;"><span class="nodeLabel"><p>text</p></span></div></foreignObject></g><g class="label attribute-name" transform="translate(-110.5703125, 137.625)" style=""><foreignObject width="65.640625" height="24"><div xmlns="http://www.w3.org/1999/xhtml" style="display: table-cell; white-space: nowrap; line-height: 1.5; max-width: 167px; text-align: start;"><span class="nodeLabel"><p>remarks</p></span></div></foreignObject></g><g class="label attribute-keys" transform="translate(58.5859375, 137.625)" style=""><foreignObject width="0" height="0"><div xmlns="http://www.w3.org/1999/xhtml" style="display: table-cell; white-space: nowrap; line-height: 1.5; max-width: 100px; text-align: start;"><span class="nodeLabel"></span></div></foreignObject></g><g class="label attribute-comment" transform="translate(103.7265625, 137.625)" style=""><foreignObject width="63.421875" height="24"><div xmlns="http://www.w3.org/1999/xhtml" style="display: table-cell; white-space: nowrap; line-height: 1.5; max-width: 162px; text-align: start;"><span class="nodeLabel"><p>nullable</p></span></div></foreignObject></g><g class="divider"><path d="M-179.6484375 -128.25005 L-179.6484375 -128.24995 L179.6484375 -128.24995 L179.6484375 -128.25005" stroke="none" stroke-width="0" fill="#ffead5" fill-rule="evenodd"/><path d="M-179.6484375 -128.25005 C-179.6484375 -128.25001072586605, -179.6484375 -128.2499714517321, -179.6484375 -128.24995 M-179.6484375 -128.25005 C-179.6484375 -128.25001536401518, -179.6484375 -128.24998072803035, -179.6484375 -128.24995 M-179.6484375 -128.24995 C-76.13690553234763 -128.24995, 27.374626435304748 -128.24995, 179.6484375 -128.24995 M-179.6484375 -128.24995 C-41.39208131618486 -128.24995, 96.86427486763029 -128.24995, 179.6484375 -128.24995 M179.6484375 -128.24995 C179.6484375 -128.24997071886236, 179.6484375 -128.2499914377247, 179.6484375 -128.25005 M179.6484375 -128.24995 C179.6484375 -128.24997495031963, 179.6484375 -128.24999990063924, 179.6484375 -128.25005 M179.6484375 -128.25005 C75.03434491330458 -128.25005, -29.57974767339084 -128.25005, -179.6484375 -128.25005 M179.6484375 -128.25005 C36.25398901098109 -128.25005, -107.14045947803783 -128.25005, -179.6484375 -128.25005" stroke="#fbb176" stroke-width="1.3" fill="none" stroke-dasharray="0 0"/></g><g class="divider"><path d="M-123.0703625 -128.25 L-123.0702625 -128.25 L-123.0702625 171 L-123.0703625 171" stroke="none" stroke-width="0" fill="#ffead5" fill-rule="evenodd"/><path d="M-123.0703625 -128.25 C-123.07032494265322 -128.25, -123.07028738530644 -128.25, -123.0702625 -128.25 M-123.0703625 -128.25 C-123.07032290254311 -128.25, -123.07028330508622 -128.25, -123.0702625 -128.25 M-123.0702625 -128.25 C-123.0702625 -49.73300456560273, -123.0702625 28.783990868794547, -123.0702625 171 M-123.0702625 -128.25 C-123.0702625 -19.214011270322217, -123.0702625 89.82197745935557, -123.0702625 171 M-123.0702625 171 C-123.07028591621227 171, -123.07030933242454 171, -123.0703625 171 M-123.0702625 171 C-123.0702865356787 171, -123.0703105713574 171, -123.0703625 171 M-123.0703625 171 C-123.0703625 54.72562601310739, -123.0703625 -61.548747973785225, -123.0703625 -128.25 M-123.0703625 171 C-123.0703625 75.15212984566274, -123.0703625 -20.695740308674516, -123.0703625 -128.25" stroke="#fbb176" stroke-width="1.3" fill="none" stroke-dasharray="0 0"/></g><g class="divider"><path d="M46.0858875 -128.25 L46.0859875 -128.25 L46.0859875 171 L46.0858875 171" stroke="none" stroke-width="0" fill="#ffead5" fill-rule="evenodd"/><path d="M46.0858875 -128.25 C46.08591794431666 -128.25, 46.08594838863333 -128.25, 46.0859875 -128.25 M46.0858875 -128.25 C46.085918320977655 -128.25, 46.085949141955304 -128.25, 46.0859875 -128.25 M46.0859875 -128.25 C46.0859875 -65.57632857136318, 46.0859875 -2.9026571427263548, 46.0859875 171 M46.0859875 -128.25 C46.0859875 -33.292806182986695, 46.0859875 61.66438763402661, 46.0859875 171 M46.0859875 171 C46.08595346731417 171, 46.08591943462834 171, 46.0858875 171 M46.0859875 171 C46.085948672737096 171, 46.085909845474184 171, 46.0858875 171 M46.0858875 171 C46.0858875 105.20078623429352, 46.0858875 39.401572468587034, 46.0858875 -128.25 M46.0858875 171 C46.0858875 67.02086740522529, 46.0858875 -36.95826518954942, 46.0858875 -128.25" stroke="#fbb176" stroke-width="1.3" fill="none" stroke-dasharray="0 0"/></g><g class="divider"><path d="M91.2265125 -128.25 L91.2266125 -128.25 L91.2266125 171 L91.2265125 171" stroke="none" stroke-width="0" fill="#ffead5" fill-rule="evenodd"/><path d="M91.2265125 -128.25 C91.22653467713558 -128.25, 91.22655685427115 -128.25, 91.2266125 -128.25 M91.2265125 -128.25 C91.22654843173582 -128.25, 91.22658436347164 -128.25, 91.2266125 -128.25 M91.2266125 -128.25 C91.2266125 -63.651677516383955, 91.2266125 0.9466449672320891, 91.2266125 171 M91.2266125 -128.25 C91.2266125 -22.131399321160856, 91.2266125 83.98720135767829, 91.2266125 171 M91.2266125 171 C91.22657331400565 171, 91.2265341280113 171, 91.2265125 171 M91.2266125 171 C91.22658100861268 171, 91.22654951722535 171, 91.2265125 171 M91.2265125 171 C91.2265125 80.44221937445364, 91.2265125 -10.115561251092714, 91.2265125 -128.25 M91.2265125 171 C91.2265125 61.57452466777953, 91.2265125 -47.850950664440944, 91.2265125 -128.25" stroke="#fbb176" stroke-width="1.3" fill="none" stroke-dasharray="0 0"/></g><g class="divider"><path d="M-179.6484375 -128.25005 L-179.6484375 -128.24995 L179.6484375 -128.24995 L179.6484375 -128.25005" stroke="none" stroke-width="0" fill="#ffead5" fill-rule="evenodd"/><path d="M-179.6484375 -128.25005 C-179.6484375 -128.25001975552368, -179.6484375 -128.24998951104737, -179.6484375 -128.24995 M-179.6484375 -128.25005 C-179.6484375 -128.25001050175808, -179.6484375 -128.24997100351618, -179.6484375 -128.24995 M-179.6484375 -128.24995 C-68.09580268450793 -128.24995, 43.45683213098414 -128.24995, 179.6484375 -128.24995 M-179.6484375 -128.24995 C-96.31546679118534 -128.24995, -12.982496082370687 -128.24995, 179.6484375 -128.24995 M179.6484375 -128.24995 C179.6484375 -128.24997011875337, 179.6484375 -128.24999023750675, 179.6484375 -128.25005 M179.6484375 -128.24995 C179.6484375 -128.24997700152372, 179.6484375 -128.25000400304745, 179.6484375 -128.25005 M179.6484375 -128.25005 C94.91865662614119 -128.25005, 10.188875752282371 -128.25005, -179.6484375 -128.25005 M179.6484375 -128.25005 C104.91928121942632 -128.25005, 30.190124938852648 -128.25005, -179.6484375 -128.25005" stroke="#fbb176" stroke-width="1.3" fill="none" stroke-dasharray="0 0"/></g></g><g class="node default" id="my-svg-entity-ScientificName_EXT-1" data-look="classic" transform="translate(145.125, 577)"><rect class="basic label-container" style="" x="-99.375" y="-42" width="198.75" height="84"/><a href="/vicflora-docs/resources/scientific-name_-e-x-t" target="_top"><g class="label" style="" transform="translate(-79.375, -12)"><rect/><foreignObject width="158.75" height="24"><div xmlns="http://www.w3.org/1999/xhtml" style="display: table-cell; white-space: nowrap; line-height: 1.5; max-width: 200px; text-align: center;"><span class="nodeLabel markdown-node-label"><p style="color: #e74b0f; font-weight: bold;">ScientificName_EXT</p></span></div></foreignObject></g></a></g><g class="node default" id="my-svg-entity-TaxonName-2" data-look="classic" transform="translate(145.125, 762)"><rect class="basic label-container" style="" x="-66.5234375" y="-42" width="133.046875" height="84"/><a href="/vicflora-docs/resources/taxon-name" target="_top"><g class="label" style="" transform="translate(-46.5234375, -12)"><rect/><foreignObject width="93.046875" height="24"><div xmlns="http://www.w3.org/1999/xhtml" style="display: table-cell; white-space: nowrap; line-height: 1.5; max-width: 200px; text-align: center;"><span class="nodeLabel markdown-node-label"><p style="color: #e74b0f; font-weight: bold;">TaxonName</p></span></div></foreignObject></g></a></g><g class="node default" id="my-svg-entity-Specimen-3" data-look="classic" transform="translate(375.078125, 577)"><rect class="basic label-container" style="" x="-59.484375" y="-42" width="118.96875" height="84"/><a href="/vicflora-docs/resources/specimen" target="_top"><g class="label" style="" transform="translate(-39.484375, -12)"><rect/><foreignObject width="78.96875" height="24"><div xmlns="http://www.w3.org/1999/xhtml" style="display: table-cell; white-space: nowrap; line-height: 1.5; max-width: 200px; text-align: center;"><span class="nodeLabel markdown-node-label"><p style="color: #e74b0f; font-weight: bold;">Specimen</p></span></div></foreignObject></g></a></g><g class="node default" id="my-svg-entity-Reference-4" data-look="classic" transform="translate(680.296875, 762)"><rect class="basic label-container" style="" x="-60.2890625" y="-42" width="120.578125" height="84"/><a href="/vicflora-docs/resources/reference" target="_top"><g class="label" style="" transform="translate(-40.2890625, -12)"><rect/><foreignObject width="80.578125" height="24"><div xmlns="http://www.w3.org/1999/xhtml" style="display: table-cell; white-space: nowrap; line-height: 1.5; max-width: 200px; text-align: center;"><span class="nodeLabel markdown-node-label"><p style="color: #e74b0f; font-weight: bold;">Reference</p></span></div></foreignObject></g></a></g><g class="node default" id="my-svg-entity-Typification_EXT-5" data-look="classic" transform="translate(680.296875, 577)"><rect class="basic label-container" style="" x="-84.625" y="-42" width="169.25" height="84"/><a href="/vicflora-docs/resources/typification_-e-x-t" target="_top"><g class="label" style="" transform="translate(-64.625, -12)"><rect/><foreignObject width="129.25" height="24"><div xmlns="http://www.w3.org/1999/xhtml" style="display: table-cell; white-space: nowrap; line-height: 1.5; max-width: 200px; text-align: center;"><span class="nodeLabel markdown-node-label"><p style="color: #e74b0f; font-weight: bold;">Typification_EXT</p></span></div></foreignObject></g></a></g><g class="node default" id="my-svg-entity-Entity_Source_MAP-6" data-look="classic" transform="translate(900.953125, 577)"><rect class="basic label-container" style="" x="-96.03125" y="-42" width="192.0625" height="84"/><a href="/vicflora-docs/resources/entity_-source_-m-a-p" target="_top"><g class="label" style="" transform="translate(-76.03125, -12)"><rect/><foreignObject width="152.0625" height="24"><div xmlns="http://www.w3.org/1999/xhtml" style="display: table-cell; white-space: nowrap; line-height: 1.5; max-width: 200px; text-align: center;"><span class="nodeLabel markdown-node-label"><p style="color: #e74b0f; font-weight: bold;">Entity_Source_MAP</p></span></div></foreignObject></g></a></g></g><g class="edgeLabels"><g class="edgeLabel" transform="translate(112, 484.5)"><g class="label" data-id="id_entity-NomenclaturalType-0_entity-ScientificName_EXT-1_0" transform="translate(-100, -10.5)"><foreignObject width="200" height="21"><div xmlns="http://www.w3.org/1999/xhtml" class="labelBkg" style="display: table; white-space: break-spaces; line-height: 1.5; max-width: 200px; text-align: center; width: 200px;"><span class="edgeLabel"><p>typifiedName / typification</p></span></div></foreignObject></g></g><g class="edgeLabel" transform="translate(268.2890625, 484.5)"><g class="label" data-id="id_entity-NomenclaturalType-0_entity-ScientificName_EXT-1_1" transform="translate(-36.2890625, -10.5)"><foreignObject width="72.578125" height="21"><div xmlns="http://www.w3.org/1999/xhtml" class="labelBkg" style="display: table-cell; white-space: nowrap; line-height: 1.5; max-width: 200px; text-align: center;"><span class="edgeLabel"><p>typeName</p></span></div></foreignObject></g></g><g class="edgeLabel" transform="translate(145.125, 669.5)"><g class="label" data-id="id_entity-ScientificName_EXT-1_entity-TaxonName-2_2" transform="translate(-100, -10.5)"><foreignObject width="200" height="21"><div xmlns="http://www.w3.org/1999/xhtml" class="labelBkg" style="display: table; white-space: break-spaces; line-height: 1.5; max-width: 200px; text-align: center; width: 200px;"><span class="edgeLabel"><p>taxonName / scientificName</p></span></div></foreignObject></g></g><g class="edgeLabel" transform="translate(374.765625, 484.5)"><g class="label" data-id="id_entity-NomenclaturalType-0_entity-Specimen-3_3" transform="translate(-50.1875, -10.5)"><foreignObject width="100.375" height="21"><div xmlns="http://www.w3.org/1999/xhtml" class="labelBkg" style="display: table-cell; white-space: nowrap; line-height: 1.5; max-width: 200px; text-align: center;"><span class="edgeLabel"><p>typeSpecimen</p></span></div></foreignObject></g></g><g class="edgeLabel" transform="translate(515.1171875, 577)"><g class="label" data-id="id_entity-NomenclaturalType-0_entity-Reference-4_4" transform="translate(-40.5546875, -10.5)"><foreignObject width="81.109375" height="21"><div xmlns="http://www.w3.org/1999/xhtml" class="labelBkg" style="display: table-cell; white-space: nowrap; line-height: 1.5; max-width: 200px; text-align: center;"><span class="edgeLabel"><p>publishedIn</p></span></div></foreignObject></g></g><g class="edgeLabel" transform="translate(679.8515625, 484.5)"><g class="label" data-id="id_entity-NomenclaturalType-0_entity-Typification_EXT-5_5" transform="translate(-40.5546875, -10.5)"><foreignObject width="81.109375" height="21"><div xmlns="http://www.w3.org/1999/xhtml" class="labelBkg" style="display: table-cell; white-space: nowrap; line-height: 1.5; max-width: 200px; text-align: center;"><span class="edgeLabel"><p>publishedIn</p></span></div></foreignObject></g></g><g class="edgeLabel" transform="translate(680.265625, 669.5)"><g class="label" data-id="id_entity-Typification_EXT-5_entity-Reference-4_6" transform="translate(-79.46875, -10.5)"><foreignObject width="158.9375" height="21"><div xmlns="http://www.w3.org/1999/xhtml" class="labelBkg" style="display: table-cell; white-space: nowrap; line-height: 1.5; max-width: 200px; text-align: center;"><span class="edgeLabel"><p>reference / typification</p></span></div></foreignObject></g></g><g class="edgeLabel" transform="translate(900.953125, 484.5)"><g class="label" data-id="id_entity-NomenclaturalType-0_entity-Entity_Source_MAP-6_7" transform="translate(-100, -10.5)"><foreignObject width="200" height="21"><div xmlns="http://www.w3.org/1999/xhtml" class="labelBkg" style="display: table; white-space: break-spaces; line-height: 1.5; max-width: 200px; text-align: center; width: 200px;"><span class="edgeLabel"><p>morphs as 'provenanceable'</p></span></div></foreignObject></g></g><g class="edgeLabel" transform="translate(900.8828125, 669.5)"><g class="label" data-id="id_entity-Entity_Source_MAP-6_entity-Reference-4_8" transform="translate(-33.4296875, -10.5)"><foreignObject width="66.859375" height="21"><div xmlns="http://www.w3.org/1999/xhtml" class="labelBkg" style="display: table-cell; white-space: nowrap; line-height: 1.5; max-width: 200px; text-align: center;"><span class="edgeLabel"><p>reference</p></span></div></foreignObject></g></g></g></svg>