<svg id="my-svg" width="100%" xmlns="http://www.w3.org/2000/svg" xmlns:xlink="http://www.w3.org/1999/xlink" class="erDiagram" style="max-width: 387.891px; background-color: white;" viewBox="4 4 387.890625 585.75" role="graphics-document document" aria-roledescription="er"><g class="edges edgePaths"><path d="M197.9453125,396.75L197.9453125,497.75" id="my-svg-id_entity-AuditLog-0_entity-Agent-1_0" class="edge-thickness-normal edge-pattern-solid relationshipLine" style="undefined;;;undefined" data-edge="true" data-et="edge" data-id="id_entity-AuditLog-0_entity-Agent-1_0" data-points="W3sieCI6MTk3Ljk0NTMxMjUsInkiOjM5Ni43NX0seyJ4IjoxOTcuOTQ1MzEyNSwieSI6NDk3Ljc1fV0=" data-look="classic" marker-start="url(#my-svg_er-oneOrMoreStart)" marker-end="url(#my-svg_er-onlyOneEnd)"/></g><style>#my-svg{font-family:"trebuchet ms",verdana,arial,sans-serif;font-size:16px;fill:#333;}@keyframes edge-animation-frame{from{stroke-dashoffset:0;}}@keyframes dash{to{stroke-dashoffset:0;}}#my-svg .edge-animation-slow{stroke-dasharray:9,5!important;stroke-dashoffset:900;animation:dash 50s linear infinite;stroke-linecap:round;}#my-svg .edge-animation-fast{stroke-dasharray:9,5!important;stroke-dashoffset:900;animation:dash 20s linear infinite;stroke-linecap:round;}#my-svg .error-icon{fill:hsl(210, 100%, 96.7647058824%);}#my-svg .error-text{fill:rgb(16.4999999998, 8.2499999999, 0);stroke:rgb(16.4999999998, 8.2499999999, 0);}#my-svg .edge-thickness-normal{stroke-width:1px;}#my-svg .edge-thickness-thick{stroke-width:3.5px;}#my-svg .edge-pattern-solid{stroke-dasharray:0;}#my-svg .edge-thickness-invisible{stroke-width:0;fill:none;}#my-svg .edge-pattern-dashed{stroke-dasharray:3;}#my-svg .edge-pattern-dotted{stroke-dasharray:2;}#my-svg .marker{fill:#e74b0f;stroke:#e74b0f;}#my-svg .marker.cross{stroke:#e74b0f;}#my-svg svg{font-family:"trebuchet ms",verdana,arial,sans-serif;font-size:16px;}#my-svg p{margin:0;}#my-svg .entityBox{fill:#ffead5;stroke:#fbb176;}#my-svg .relationshipLabelBox{fill:hsl(210, 100%, 96.7647058824%);opacity:0.7;background-color:hsl(210, 100%, 96.7647058824%);}#my-svg .relationshipLabelBox rect{opacity:0.5;}#my-svg .labelBkg{background-color:rgba(238.5000000002, 246.7500000001, 255, 0.5);}#my-svg .edgeLabel{background-color:hsl(-90, 100%, 91.7647058824%);}#my-svg .edgeLabel .label rect{fill:hsl(-90, 100%, 91.7647058824%);}#my-svg .edgeLabel .label text{fill:#333;}#my-svg .edgeLabel .label{fill:#fbb176;font-size:14px;}#my-svg .label{font-family:"trebuchet ms",verdana,arial,sans-serif;color:#333;}#my-svg .edge-pattern-dashed{stroke-dasharray:8,8;}#my-svg .node rect,#my-svg .node circle,#my-svg .node ellipse,#my-svg .node polygon{fill:#ffead5;stroke:#fbb176;stroke-width:1px;}#my-svg .relationshipLine{stroke:#e74b0f;stroke-width:1px;fill:none;}#my-svg .marker{fill:none!important;stroke:#e74b0f!important;stroke-width:1;}#my-svg [data-look=neo].labelBkg{background-color:rgba(238.5000000002, 246.7500000001, 255, 0.5);}#my-svg .node .neo-node{stroke:#fbb176;}#my-svg [data-look="neo"].node rect,#my-svg [data-look="neo"].cluster rect,#my-svg [data-look="neo"].node polygon{stroke:url(#my-svg-gradient);filter:drop-shadow( 1px 2px 2px rgba(185,185,185,1));}#my-svg [data-look="neo"].node path{stroke:url(#my-svg-gradient);stroke-width:1px;}#my-svg [data-look="neo"].node .outer-path{filter:drop-shadow( 1px 2px 2px rgba(185,185,185,1));}#my-svg [data-look="neo"].node .neo-line path{stroke:#fbb176;filter:none;}#my-svg [data-look="neo"].node circle{stroke:url(#my-svg-gradient);filter:drop-shadow( 1px 2px 2px rgba(185,185,185,1));}#my-svg [data-look="neo"].node circle .state-start{fill:#000000;}#my-svg [data-look="neo"].icon-shape .icon{fill:url(#my-svg-gradient);filter:drop-shadow( 1px 2px 2px rgba(185,185,185,1));}#my-svg [data-look="neo"].icon-shape .icon-neo path{stroke:url(#my-svg-gradient);filter:drop-shadow( 1px 2px 2px rgba(185,185,185,1));}#my-svg :root{--mermaid-font-family:"trebuchet ms",verdana,arial,sans-serif;}</style><g><defs><marker id="my-svg_er-onlyOneStart" class="marker onlyOne er" refX="0" refY="9" markerWidth="18" markerHeight="18" orient="auto"><path d="M9,0 L9,18 M15,0 L15,18"/></marker></defs><defs><marker id="my-svg_er-onlyOneEnd" class="marker onlyOne er" refX="18" refY="9" markerWidth="18" markerHeight="18" orient="auto"><path d="M3,0 L3,18 M9,0 L9,18"/></marker></defs><defs><marker id="my-svg_er-zeroOrOneStart" class="marker zeroOrOne er" refX="0" refY="9" markerWidth="30" markerHeight="18" orient="auto"><circle fill="white" cx="21" cy="9" r="6"/><path d="M9,0 L9,18"/></marker></defs><defs><marker id="my-svg_er-zeroOrOneEnd" class="marker zeroOrOne er" refX="30" refY="9" markerWidth="30" markerHeight="18" orient="auto"><circle fill="white" cx="9" cy="9" r="6"/><path d="M21,0 L21,18"/></marker></defs><defs><marker id="my-svg_er-oneOrMoreStart" class="marker oneOrMore er" refX="18" refY="18" markerWidth="45" markerHeight="36" orient="auto"><path d="M0,18 Q 18,0 36,18 Q 18,36 0,18 M42,9 L42,27"/></marker></defs><defs><marker id="my-svg_er-oneOrMoreEnd" class="marker oneOrMore er" refX="27" refY="18" markerWidth="45" markerHeight="36" orient="auto"><path d="M3,9 L3,27 M9,18 Q27,0 45,18 Q27,36 9,18"/></marker></defs><defs><marker id="my-svg_er-zeroOrMoreStart" class="marker zeroOrMore er" refX="18" refY="18" markerWidth="57" markerHeight="36" orient="auto"><circle fill="white" cx="48" cy="18" r="6"/><path d="M0,18 Q18,0 36,18 Q18,36 0,18"/></marker></defs><defs><marker id="my-svg_er-zeroOrMoreEnd" class="marker zeroOrMore er" refX="39" refY="18" markerWidth="57" markerHeight="36" orient="auto"><circle fill="white" cx="9" cy="18" r="6"/><path d="M21,18 Q39,0 57,18 Q39,36 21,18"/></marker></defs></g><defs><filter id="my-svg-drop-shadow" height="130%" width="130%"><feDropShadow dx="4" dy="4" stdDeviation="0" flood-opacity="0.06" flood-color="#000000"/></filter></defs><defs><filter id="my-svg-drop-shadow-small" height="150%" width="150%"><feDropShadow dx="2" dy="2" stdDeviation="0" flood-opacity="0.06" flood-color="#000000"/></filter></defs><linearGradient id="my-svg-gradient" gradientUnits="objectBoundingBox" x1="0%" y1="0%" x2="100%" y2="0%"><stop offset="0%" stop-color="#fbb176" stop-opacity="1"/><stop offset="100%" stop-color="hsl(-90, 60%, 81.7647058824%)" stop-opacity="1"/></linearGradient><g class="subgraphs"/><g class="nodes"><g class="node default" id="my-svg-entity-AuditLog-0" data-look="classic" transform="translate(197.9453125, 204.375)"><g class="outer-path" style=""><path d="M-185.9453125 -192.375 L185.9453125 -192.375 L185.9453125 192.375 L-185.9453125 192.375" stroke="none" stroke-width="0" fill="#ffead5"/><path d="M-185.9453125 -192.375 C-86.63434740246012 -192.375, 12.676617695079756 -192.375, 185.9453125 -192.375 M-185.9453125 -192.375 C-56.11672703855294 -192.375, 73.71185842289412 -192.375, 185.9453125 -192.375 M185.9453125 -192.375 C185.9453125 -84.558053461831, 185.9453125 23.258893076338012, 185.9453125 192.375 M185.9453125 -192.375 C185.9453125 -53.815212149400736, 185.9453125 84.74457570119853, 185.9453125 192.375 M185.9453125 192.375 C46.551534361945585 192.375, -92.84224377610883 192.375, -185.9453125 192.375 M185.9453125 192.375 C109.91179811630933 192.375, 33.878283732618655 192.375, -185.9453125 192.375 M-185.9453125 192.375 C-185.9453125 110.70229724409565, -185.9453125 29.029594488191293, -185.9453125 -192.375 M-185.9453125 192.375 C-185.9453125 54.97622312177381, -185.9453125 -82.42255375645237, -185.9453125 -192.375" stroke="#fbb176" stroke-width="1.3" fill="none" stroke-dasharray="0 0"/></g><g style="" class="row-rect-odd"><path d="M-185.9453125 -149.625 L185.9453125 -149.625 L185.9453125 -106.875 L-185.9453125 -106.875" stroke="none" stroke-width="0" fill="hsl(30, 100%, 100%)"/><path d="M-185.9453125 -149.625 C-81.4622044101121 -149.625, 23.020903679775813 -149.625, 185.9453125 -149.625 M-185.9453125 -149.625 C-54.437684678367276 -149.625, 77.06994314326545 -149.625, 185.9453125 -149.625 M185.9453125 -149.625 C185.9453125 -139.69073235811967, 185.9453125 -129.75646471623935, 185.9453125 -106.875 M185.9453125 -149.625 C185.9453125 -132.99107266975508, 185.9453125 -116.35714533951018, 185.9453125 -106.875 M185.9453125 -106.875 C90.68157812326024 -106.875, -4.582156253479525 -106.875, -185.9453125 -106.875 M185.9453125 -106.875 C109.84216094633888 -106.875, 33.73900939267776 -106.875, -185.9453125 -106.875 M-185.9453125 -106.875 C-185.9453125 -119.7773368961323, -185.9453125 -132.6796737922646, -185.9453125 -149.625 M-185.9453125 -106.875 C-185.9453125 -118.03691651695462, -185.9453125 -129.19883303390924, -185.9453125 -149.625" stroke="#fbb176" stroke-width="1.3" fill="none" stroke-dasharray="0 0"/></g><g style="" class="row-rect-even"><path d="M-185.9453125 -106.875 L185.9453125 -106.875 L185.9453125 -64.125 L-185.9453125 -64.125" stroke="none" stroke-width="0" fill="hsl(30, 100%, 96.7647058824%)"/><path d="M-185.9453125 -106.875 C-75.725608955809 -106.875, 34.49409458838201 -106.875, 185.9453125 -106.875 M-185.9453125 -106.875 C-111.10541844666422 -106.875, -36.265524393328434 -106.875, 185.9453125 -106.875 M185.9453125 -106.875 C185.9453125 -91.99802380936431, 185.9453125 -77.12104761872862, 185.9453125 -64.125 M185.9453125 -106.875 C185.9453125 -93.58758695974247, 185.9453125 -80.30017391948493, 185.9453125 -64.125 M185.9453125 -64.125 C48.86397634777731 -64.125, -88.21735980444538 -64.125, -185.9453125 -64.125 M185.9453125 -64.125 C83.84319271812136 -64.125, -18.258927063757284 -64.125, -185.9453125 -64.125 M-185.9453125 -64.125 C-185.9453125 -73.3996500061062, -185.9453125 -82.6743000122124, -185.9453125 -106.875 M-185.9453125 -64.125 C-185.9453125 -79.20941816735821, -185.9453125 -94.29383633471643, -185.9453125 -106.875" stroke="#fbb176" stroke-width="1.3" fill="none" stroke-dasharray="0 0"/></g><g style="" class="row-rect-odd"><path d="M-185.9453125 -64.125 L185.9453125 -64.125 L185.9453125 -21.375 L-185.9453125 -21.375" stroke="none" stroke-width="0" fill="hsl(30, 100%, 100%)"/><path d="M-185.9453125 -64.125 C-101.75116586373791 -64.125, -17.55701922747582 -64.125, 185.9453125 -64.125 M-185.9453125 -64.125 C-42.28418160393235 -64.125, 101.3769492921353 -64.125, 185.9453125 -64.125 M185.9453125 -64.125 C185.9453125 -50.13904205255068, 185.9453125 -36.15308410510136, 185.9453125 -21.375 M185.9453125 -64.125 C185.9453125 -48.09763612827484, 185.9453125 -32.070272256549686, 185.9453125 -21.375 M185.9453125 -21.375 C60.12473957883759 -21.375, -65.69583334232482 -21.375, -185.9453125 -21.375 M185.9453125 -21.375 C76.81857347886988 -21.375, -32.30816554226024 -21.375, -185.9453125 -21.375 M-185.9453125 -21.375 C-185.9453125 -37.828587980684134, -185.9453125 -54.28217596136826, -185.9453125 -64.125 M-185.9453125 -21.375 C-185.9453125 -34.108354199525955, -185.9453125 -46.84170839905191, -185.9453125 -64.125" stroke="#fbb176" stroke-width="1.3" fill="none" stroke-dasharray="0 0"/></g><g style="" class="row-rect-even"><path d="M-185.9453125 -21.375 L185.9453125 -21.375 L185.9453125 21.375 L-185.9453125 21.375" stroke="none" stroke-width="0" fill="hsl(30, 100%, 96.7647058824%)"/><path d="M-185.9453125 -21.375 C-103.1810482872385 -21.375, -20.416784074476993 -21.375, 185.9453125 -21.375 M-185.9453125 -21.375 C-66.84499573863053 -21.375, 52.25532102273894 -21.375, 185.9453125 -21.375 M185.9453125 -21.375 C185.9453125 -11.291017057483876, 185.9453125 -1.207034114967751, 185.9453125 21.375 M185.9453125 -21.375 C185.9453125 -7.800413782005235, 185.9453125 5.774172435989531, 185.9453125 21.375 M185.9453125 21.375 C108.30841625893696 21.375, 30.671520017873917 21.375, -185.9453125 21.375 M185.9453125 21.375 C63.50228159876454 21.375, -58.94074930247092 21.375, -185.9453125 21.375 M-185.9453125 21.375 C-185.9453125 12.508370262391352, -185.9453125 3.641740524782705, -185.9453125 -21.375 M-185.9453125 21.375 C-185.9453125 10.017137065542412, -185.9453125 -1.3407258689151753, -185.9453125 -21.375" stroke="#fbb176" stroke-width="1.3" fill="none" stroke-dasharray="0 0"/></g><g style="" class="row-rect-odd"><path d="M-185.9453125 21.375 L185.9453125 21.375 L185.9453125 64.125 L-185.9453125 64.125" stroke="none" stroke-width="0" fill="hsl(30, 100%, 100%)"/><path d="M-185.9453125 21.375 C-51.80469404277042 21.375, 82.33592441445916 21.375, 185.9453125 21.375 M-185.9453125 21.375 C-52.86058528077959 21.375, 80.22414193844082 21.375, 185.9453125 21.375 M185.9453125 21.375 C185.9453125 37.44990853093487, 185.9453125 53.52481706186974, 185.9453125 64.125 M185.9453125 21.375 C185.9453125 34.292767397365864, 185.9453125 47.21053479473173, 185.9453125 64.125 M185.9453125 64.125 C50.82617565462402 64.125, -84.29296119075195 64.125, -185.9453125 64.125 M185.9453125 64.125 C65.16727058040178 64.125, -55.61077133919645 64.125, -185.9453125 64.125 M-185.9453125 64.125 C-185.9453125 52.87006568667183, -185.9453125 41.61513137334366, -185.9453125 21.375 M-185.9453125 64.125 C-185.9453125 50.74302355652708, -185.9453125 37.361047113054155, -185.9453125 21.375" stroke="#fbb176" stroke-width="1.3" fill="none" stroke-dasharray="0 0"/></g><g style="" class="row-rect-even"><path d="M-185.9453125 64.125 L185.9453125 64.125 L185.9453125 106.875 L-185.9453125 106.875" stroke="none" stroke-width="0" fill="hsl(30, 100%, 96.7647058824%)"/><path d="M-185.9453125 64.125 C-46.951816330047365 64.125, 92.04167983990527 64.125, 185.9453125 64.125 M-185.9453125 64.125 C-101.90431468819665 64.125, -17.8633168763933 64.125, 185.9453125 64.125 M185.9453125 64.125 C185.9453125 80.51009823921743, 185.9453125 96.89519647843485, 185.9453125 106.875 M185.9453125 64.125 C185.9453125 78.19857950368906, 185.9453125 92.27215900737811, 185.9453125 106.875 M185.9453125 106.875 C54.07567808502881 106.875, -77.79395632994238 106.875, -185.9453125 106.875 M185.9453125 106.875 C52.79863663641939 106.875, -80.34803922716122 106.875, -185.9453125 106.875 M-185.9453125 106.875 C-185.9453125 93.60787213011893, -185.9453125 80.34074426023787, -185.9453125 64.125 M-185.9453125 106.875 C-185.9453125 98.2439424112245, -185.9453125 89.612884822449, -185.9453125 64.125" stroke="#fbb176" stroke-width="1.3" fill="none" stroke-dasharray="0 0"/></g><g style="" class="row-rect-odd"><path d="M-185.9453125 106.875 L185.9453125 106.875 L185.9453125 149.625 L-185.9453125 149.625" stroke="none" stroke-width="0" fill="hsl(30, 100%, 100%)"/><path d="M-185.9453125 106.875 C-73.0358610295846 106.875, 39.87359044083081 106.875, 185.9453125 106.875 M-185.9453125 106.875 C-86.93128557246524 106.875, 12.082741355069516 106.875, 185.9453125 106.875 M185.9453125 106.875 C185.9453125 120.50243771683749, 185.9453125 134.12987543367498, 185.9453125 149.625 M185.9453125 106.875 C185.9453125 116.91913356173896, 185.9453125 126.96326712347792, 185.9453125 149.625 M185.9453125 149.625 C44.747348814254224 149.625, -96.45061487149155 149.625, -185.9453125 149.625 M185.9453125 149.625 C85.9305743666489 149.625, -14.084163766702204 149.625, -185.9453125 149.625 M-185.9453125 149.625 C-185.9453125 135.04927154938267, -185.9453125 120.47354309876532, -185.9453125 106.875 M-185.9453125 149.625 C-185.9453125 140.30295735668983, -185.9453125 130.98091471337966, -185.9453125 106.875" stroke="#fbb176" stroke-width="1.3" fill="none" stroke-dasharray="0 0"/></g><g style="" class="row-rect-even"><path d="M-185.9453125 149.625 L185.9453125 149.625 L185.9453125 192.375 L-185.9453125 192.375" stroke="none" stroke-width="0" fill="hsl(30, 100%, 96.7647058824%)"/><path d="M-185.9453125 149.625 C-61.506767654719965 149.625, 62.93177719056007 149.625, 185.9453125 149.625 M-185.9453125 149.625 C-91.79200232021546 149.625, 2.361307859569081 149.625, 185.9453125 149.625 M185.9453125 149.625 C185.9453125 162.78084492036223, 185.9453125 175.93668984072448, 185.9453125 192.375 M185.9453125 149.625 C185.9453125 164.13215858089546, 185.9453125 178.63931716179093, 185.9453125 192.375 M185.9453125 192.375 C42.190079873553486 192.375, -101.56515275289303 192.375, -185.9453125 192.375 M185.9453125 192.375 C70.21870861229138 192.375, -45.50789527541724 192.375, -185.9453125 192.375 M-185.9453125 192.375 C-185.9453125 176.40880783946068, -185.9453125 160.44261567892138, -185.9453125 149.625 M-185.9453125 192.375 C-185.9453125 179.6724939497085, -185.9453125 166.96998789941702, -185.9453125 149.625" stroke="#fbb176" stroke-width="1.3" fill="none" stroke-dasharray="0 0"/></g><a href="/resources/audit-log" target="_top"><g class="label name" transform="translate(-35.2734375, -183)" style=""><foreignObject width="70.546875" height="24"><div xmlns="http://www.w3.org/1999/xhtml" style="display: table-cell; white-space: nowrap; line-height: 1.5; max-width: 170px; text-align: start;"><span class="nodeLabel"><p style="color: #e74b0f; font-weight: bold;">AuditLog</p></span></div></foreignObject></g></a><g class="label attribute-type" transform="translate(-173.4453125, -140.25)" style=""><foreignObject width="45.625" height="24"><div xmlns="http://www.w3.org/1999/xhtml" style="display: table-cell; white-space: nowrap; line-height: 1.5; max-width: 144px; text-align: start;"><span class="nodeLabel"><p>bigint</p></span></div></foreignObject></g><g class="label attribute-name" transform="translate(-102.5078125, -140.25)" style=""><foreignObject width="14.609375" height="24"><div xmlns="http://www.w3.org/1999/xhtml" style="display: table-cell; white-space: nowrap; line-height: 1.5; max-width: 114px; text-align: start;"><span class="nodeLabel"><p>id</p></span></div></foreignObject></g><g class="label attribute-keys" transform="translate(64.8828125, -140.25)" style=""><foreignObject width="20.140625" height="24"><div xmlns="http://www.w3.org/1999/xhtml" style="display: table-cell; white-space: nowrap; line-height: 1.5; max-width: 121px; text-align: start;"><span class="nodeLabel"><p>PK</p></span></div></foreignObject></g><g class="label attribute-comment" transform="translate(110.0234375, -140.25)" style=""><foreignObject width="0" height="0"><div xmlns="http://www.w3.org/1999/xhtml" style="display: table-cell; white-space: nowrap; line-height: 1.5; max-width: 100px; text-align: start;"><span class="nodeLabel"></span></div></foreignObject></g><g class="label attribute-type" transform="translate(-173.4453125, -97.5)" style=""><foreignObject width="20.859375" height="24"><div xmlns="http://www.w3.org/1999/xhtml" style="display: table-cell; white-space: nowrap; line-height: 1.5; max-width: 120px; text-align: start;"><span class="nodeLabel"><p>int</p></span></div></foreignObject></g><g class="label attribute-name" transform="translate(-102.5078125, -97.5)" style=""><foreignObject width="68.828125" height="24"><div xmlns="http://www.w3.org/1999/xhtml" style="display: table-cell; white-space: nowrap; line-height: 1.5; max-width: 169px; text-align: start;"><span class="nodeLabel"><p>agent_id</p></span></div></foreignObject></g><g class="label attribute-keys" transform="translate(64.8828125, -97.5)" style=""><foreignObject width="19.703125" height="24"><div xmlns="http://www.w3.org/1999/xhtml" style="display: table-cell; white-space: nowrap; line-height: 1.5; max-width: 120px; text-align: start;"><span class="nodeLabel"><p>FK</p></span></div></foreignObject></g><g class="label attribute-comment" transform="translate(110.0234375, -97.5)" style=""><foreignObject width="0" height="0"><div xmlns="http://www.w3.org/1999/xhtml" style="display: table-cell; white-space: nowrap; line-height: 1.5; max-width: 100px; text-align: start;"><span class="nodeLabel"></span></div></foreignObject></g><g class="label attribute-type" transform="translate(-173.4453125, -54.75)" style=""><foreignObject width="20.859375" height="24"><div xmlns="http://www.w3.org/1999/xhtml" style="display: table-cell; white-space: nowrap; line-height: 1.5; max-width: 120px; text-align: start;"><span class="nodeLabel"><p>int</p></span></div></foreignObject></g><g class="label attribute-name" transform="translate(-102.5078125, -54.75)" style=""><foreignObject width="111.921875" height="24"><div xmlns="http://www.w3.org/1999/xhtml" style="display: table-cell; white-space: nowrap; line-height: 1.5; max-width: 212px; text-align: start;"><span class="nodeLabel"><p>event_type_id</p></span></div></foreignObject></g><g class="label attribute-keys" transform="translate(64.8828125, -54.75)" style=""><foreignObject width="19.703125" height="24"><div xmlns="http://www.w3.org/1999/xhtml" style="display: table-cell; white-space: nowrap; line-height: 1.5; max-width: 120px; text-align: start;"><span class="nodeLabel"><p>FK</p></span></div></foreignObject></g><g class="label attribute-comment" transform="translate(110.0234375, -54.75)" style=""><foreignObject width="0" height="0"><div xmlns="http://www.w3.org/1999/xhtml" style="display: table-cell; white-space: nowrap; line-height: 1.5; max-width: 100px; text-align: start;"><span class="nodeLabel"></span></div></foreignObject></g><g class="label attribute-type" transform="translate(-173.4453125, -12)" style=""><foreignObject width="45.9375" height="24"><div xmlns="http://www.w3.org/1999/xhtml" style="display: table-cell; white-space: nowrap; line-height: 1.5; max-width: 145px; text-align: start;"><span class="nodeLabel"><p>string</p></span></div></foreignObject></g><g class="label attribute-name" transform="translate(-102.5078125, -12)" style=""><foreignObject width="93.90625" height="24"><div xmlns="http://www.w3.org/1999/xhtml" style="display: table-cell; white-space: nowrap; line-height: 1.5; max-width: 194px; text-align: start;"><span class="nodeLabel"><p>table_name</p></span></div></foreignObject></g><g class="label attribute-keys" transform="translate(64.8828125, -12)" style=""><foreignObject width="0" height="0"><div xmlns="http://www.w3.org/1999/xhtml" style="display: table-cell; white-space: nowrap; line-height: 1.5; max-width: 100px; text-align: start;"><span class="nodeLabel"></span></div></foreignObject></g><g class="label attribute-comment" transform="translate(110.0234375, -12)" style=""><foreignObject width="0" height="0"><div xmlns="http://www.w3.org/1999/xhtml" style="display: table-cell; white-space: nowrap; line-height: 1.5; max-width: 100px; text-align: start;"><span class="nodeLabel"></span></div></foreignObject></g><g class="label attribute-type" transform="translate(-173.4453125, 30.75)" style=""><foreignObject width="20.859375" height="24"><div xmlns="http://www.w3.org/1999/xhtml" style="display: table-cell; white-space: nowrap; line-height: 1.5; max-width: 120px; text-align: start;"><span class="nodeLabel"><p>int</p></span></div></foreignObject></g><g class="label attribute-name" transform="translate(-102.5078125, 30.75)" style=""><foreignObject width="73.71875" height="24"><div xmlns="http://www.w3.org/1999/xhtml" style="display: table-cell; white-space: nowrap; line-height: 1.5; max-width: 175px; text-align: start;"><span class="nodeLabel"><p>record_id</p></span></div></foreignObject></g><g class="label attribute-keys" transform="translate(64.8828125, 30.75)" style=""><foreignObject width="0" height="0"><div xmlns="http://www.w3.org/1999/xhtml" style="display: table-cell; white-space: nowrap; line-height: 1.5; max-width: 100px; text-align: start;"><span class="nodeLabel"></span></div></foreignObject></g><g class="label attribute-comment" transform="translate(110.0234375, 30.75)" style=""><foreignObject width="0" height="0"><div xmlns="http://www.w3.org/1999/xhtml" style="display: table-cell; white-space: nowrap; line-height: 1.5; max-width: 100px; text-align: start;"><span class="nodeLabel"></span></div></foreignObject></g><g class="label attribute-type" transform="translate(-173.4453125, 73.5)" style=""><foreignObject width="42.875" height="24"><div xmlns="http://www.w3.org/1999/xhtml" style="display: table-cell; white-space: nowrap; line-height: 1.5; max-width: 143px; text-align: start;"><span class="nodeLabel"><p>jsonb</p></span></div></foreignObject></g><g class="label attribute-name" transform="translate(-102.5078125, 73.5)" style=""><foreignObject width="84.4375" height="24"><div xmlns="http://www.w3.org/1999/xhtml" style="display: table-cell; white-space: nowrap; line-height: 1.5; max-width: 184px; text-align: start;"><span class="nodeLabel"><p>old_values</p></span></div></foreignObject></g><g class="label attribute-keys" transform="translate(64.8828125, 73.5)" style=""><foreignObject width="0" height="0"><div xmlns="http://www.w3.org/1999/xhtml" style="display: table-cell; white-space: nowrap; line-height: 1.5; max-width: 100px; text-align: start;"><span class="nodeLabel"></span></div></foreignObject></g><g class="label attribute-comment" transform="translate(110.0234375, 73.5)" style=""><foreignObject width="63.421875" height="24"><div xmlns="http://www.w3.org/1999/xhtml" style="display: table-cell; white-space: nowrap; line-height: 1.5; max-width: 162px; text-align: start;"><span class="nodeLabel"><p>nullable</p></span></div></foreignObject></g><g class="label attribute-type" transform="translate(-173.4453125, 116.25)" style=""><foreignObject width="42.875" height="24"><div xmlns="http://www.w3.org/1999/xhtml" style="display: table-cell; white-space: nowrap; line-height: 1.5; max-width: 143px; text-align: start;"><span class="nodeLabel"><p>jsonb</p></span></div></foreignObject></g><g class="label attribute-name" transform="translate(-102.5078125, 116.25)" style=""><foreignObject width="93.109375" height="24"><div xmlns="http://www.w3.org/1999/xhtml" style="display: table-cell; white-space: nowrap; line-height: 1.5; max-width: 193px; text-align: start;"><span class="nodeLabel"><p>new_values</p></span></div></foreignObject></g><g class="label attribute-keys" transform="translate(64.8828125, 116.25)" style=""><foreignObject width="0" height="0"><div xmlns="http://www.w3.org/1999/xhtml" style="display: table-cell; white-space: nowrap; line-height: 1.5; max-width: 100px; text-align: start;"><span class="nodeLabel"></span></div></foreignObject></g><g class="label attribute-comment" transform="translate(110.0234375, 116.25)" style=""><foreignObject width="63.421875" height="24"><div xmlns="http://www.w3.org/1999/xhtml" style="display: table-cell; white-space: nowrap; line-height: 1.5; max-width: 162px; text-align: start;"><span class="nodeLabel"><p>nullable</p></span></div></foreignObject></g><g class="label attribute-type" transform="translate(-173.4453125, 159)" style=""><foreignObject width="31.578125" height="24"><div xmlns="http://www.w3.org/1999/xhtml" style="display: table-cell; white-space: nowrap; line-height: 1.5; max-width: 131px; text-align: start;"><span class="nodeLabel"><p>text</p></span></div></foreignObject></g><g class="label attribute-name" transform="translate(-102.5078125, 159)" style=""><foreignObject width="142.390625" height="24"><div xmlns="http://www.w3.org/1999/xhtml" style="display: table-cell; white-space: nowrap; line-height: 1.5; max-width: 243px; text-align: start;"><span class="nodeLabel"><p>change_summary</p></span></div></foreignObject></g><g class="label attribute-keys" transform="translate(64.8828125, 159)" style=""><foreignObject width="0" height="0"><div xmlns="http://www.w3.org/1999/xhtml" style="display: table-cell; white-space: nowrap; line-height: 1.5; max-width: 100px; text-align: start;"><span class="nodeLabel"></span></div></foreignObject></g><g class="label attribute-comment" transform="translate(110.0234375, 159)" style=""><foreignObject width="63.421875" height="24"><div xmlns="http://www.w3.org/1999/xhtml" style="display: table-cell; white-space: nowrap; line-height: 1.5; max-width: 162px; text-align: start;"><span class="nodeLabel"><p>nullable</p></span></div></foreignObject></g><g class="divider"><path d="M-185.9453125 -149.62505 L-185.9453125 -149.62495 L185.9453125 -149.62495 L185.9453125 -149.62505" stroke="none" stroke-width="0" fill="#ffead5" fill-rule="evenodd"/><path d="M-185.9453125 -149.62505 C-185.9453125 -149.62502598079723, -185.9453125 -149.62500196159448, -185.9453125 -149.62495 M-185.9453125 -149.62505 C-185.9453125 -149.6250181414659, -185.9453125 -149.6249862829318, -185.9453125 -149.62495 M-185.9453125 -149.62495 C-70.20158166535894 -149.62495, 45.54214916928211 -149.62495, 185.9453125 -149.62495 M-185.9453125 -149.62495 C-43.0791628138482 -149.62495, 99.7869868723036 -149.62495, 185.9453125 -149.62495 M185.9453125 -149.62495 C185.9453125 -149.62497481596253, 185.9453125 -149.62499963192505, 185.9453125 -149.62505 M185.9453125 -149.62495 C185.9453125 -149.6249732112376, 185.9453125 -149.6249964224752, 185.9453125 -149.62505 M185.9453125 -149.62505 C87.33804522374781 -149.62505, -11.269222052504375 -149.62505, -185.9453125 -149.62505 M185.9453125 -149.62505 C101.06322357251412 -149.62505, 16.181134645028237 -149.62505, -185.9453125 -149.62505" stroke="#fbb176" stroke-width="1.3" fill="none" stroke-dasharray="0 0"/></g><g class="divider"><path d="M-115.0078625 -149.625 L-115.0077625 -149.625 L-115.0077625 192.375 L-115.0078625 192.375" stroke="none" stroke-width="0" fill="#ffead5" fill-rule="evenodd"/><path d="M-115.0078625 -149.625 C-115.00782382004172 -149.625, -115.00778514008346 -149.625, -115.0077625 -149.625 M-115.0078625 -149.625 C-115.00782415773564 -149.625, -115.00778581547128 -149.625, -115.0077625 -149.625 M-115.0077625 -149.625 C-115.0077625 -47.33999722010722, -115.0077625 54.94500555978556, -115.0077625 192.375 M-115.0077625 -149.625 C-115.0077625 -26.703474851423053, -115.0077625 96.2180502971539, -115.0077625 192.375 M-115.0077625 192.375 C-115.00779119906323 192.375, -115.00781989812647 192.375, -115.0078625 192.375 M-115.0077625 192.375 C-115.00779444043349 192.375, -115.00782638086699 192.375, -115.0078625 192.375 M-115.0078625 192.375 C-115.0078625 92.77702966493459, -115.0078625 -6.820940670130824, -115.0078625 -149.625 M-115.0078625 192.375 C-115.0078625 115.31090329690669, -115.0078625 38.246806593813375, -115.0078625 -149.625" stroke="#fbb176" stroke-width="1.3" fill="none" stroke-dasharray="0 0"/></g><g class="divider"><path d="M52.3827625 -149.625 L52.3828625 -149.625 L52.3828625 192.375 L52.3827625 192.375" stroke="none" stroke-width="0" fill="#ffead5" fill-rule="evenodd"/><path d="M52.3827625 -149.625 C52.38279680044903 -149.625, 52.38283110089806 -149.625, 52.3828625 -149.625 M52.3827625 -149.625 C52.38279873933177 -149.625, 52.38283497866353 -149.625, 52.3828625 -149.625 M52.3828625 -149.625 C52.3828625 -77.65246750741727, 52.3828625 -5.679935014834541, 52.3828625 192.375 M52.3828625 -149.625 C52.3828625 -24.610995525445887, 52.3828625 100.40300894910823, 52.3828625 192.375 M52.3828625 192.375 C52.382833728209896 192.375, 52.38280495641978 192.375, 52.3827625 192.375 M52.3828625 192.375 C52.382832558214595 192.375, 52.382802616429196 192.375, 52.3827625 192.375 M52.3827625 192.375 C52.3827625 119.4286524166295, 52.3827625 46.48230483325901, 52.3827625 -149.625 M52.3827625 192.375 C52.3827625 85.103636759418, 52.3827625 -22.16772648116401, 52.3827625 -149.625" stroke="#fbb176" stroke-width="1.3" fill="none" stroke-dasharray="0 0"/></g><g class="divider"><path d="M97.5233875 -149.625 L97.5234875 -149.625 L97.5234875 192.375 L97.5233875 192.375" stroke="none" stroke-width="0" fill="#ffead5" fill-rule="evenodd"/><path d="M97.5233875 -149.625 C97.52342630249382 -149.625, 97.52346510498765 -149.625, 97.5234875 -149.625 M97.5233875 -149.625 C97.52340804470423 -149.625, 97.52342858940845 -149.625, 97.5234875 -149.625 M97.5234875 -149.625 C97.5234875 -75.31077098428743, 97.5234875 -0.99654196857486, 97.5234875 192.375 M97.5234875 -149.625 C97.5234875 -14.789819424876299, 97.5234875 120.0453611502474, 97.5234875 192.375 M97.5234875 192.375 C97.52345550831646 192.375, 97.52342351663292 192.375, 97.5233875 192.375 M97.5234875 192.375 C97.5234482264518 192.375, 97.52340895290361 192.375, 97.5233875 192.375 M97.5233875 192.375 C97.5233875 122.74887894905619, 97.5233875 53.12275789811238, 97.5233875 -149.625 M97.5233875 192.375 C97.5233875 69.18485545180665, 97.5233875 -54.00528909638669, 97.5233875 -149.625" stroke="#fbb176" stroke-width="1.3" fill="none" stroke-dasharray="0 0"/></g><g class="divider"><path d="M-185.9453125 -149.62505 L-185.9453125 -149.62495 L185.9453125 -149.62495 L185.9453125 -149.62505" stroke="none" stroke-width="0" fill="#ffead5" fill-rule="evenodd"/><path d="M-185.9453125 -149.62505 C-185.9453125 -149.62501908696615, -185.9453125 -149.6249881739323, -185.9453125 -149.62495 M-185.9453125 -149.62505 C-185.9453125 -149.62501289787886, -185.9453125 -149.6249757957577, -185.9453125 -149.62495 M-185.9453125 -149.62495 C-68.75198164573787 -149.62495, 48.44134920852426 -149.62495, 185.9453125 -149.62495 M-185.9453125 -149.62495 C-70.92604915510962 -149.62495, 44.09321418978075 -149.62495, 185.9453125 -149.62495 M185.9453125 -149.62495 C185.9453125 -149.62498147462654, 185.9453125 -149.62501294925306, 185.9453125 -149.62505 M185.9453125 -149.62495 C185.9453125 -149.62498787405679, 185.9453125 -149.62502574811356, 185.9453125 -149.62505 M185.9453125 -149.62505 C106.3827392291907 -149.62505, 26.82016595838141 -149.62505, -185.9453125 -149.62505 M185.9453125 -149.62505 C55.26797131757732 -149.62505, -75.40936986484536 -149.62505, -185.9453125 -149.62505" stroke="#fbb176" stroke-width="1.3" fill="none" stroke-dasharray="0 0"/></g></g><g class="node default" id="my-svg-entity-Agent-1" data-look="classic" transform="translate(197.9453125, 539.75)"><rect class="basic label-container" style="" x="-50" y="-42" width="100" height="84"/><a href="/resources/agent" target="_top"><g class="label" style="" transform="translate(-23.6796875, -12)"><rect/><foreignObject width="47.359375" height="24"><div xmlns="http://www.w3.org/1999/xhtml" style="display: table-cell; white-space: nowrap; line-height: 1.5; max-width: 100px; text-align: center;"><span class="nodeLabel markdown-node-label"><p style="color: #e74b0f; font-weight: bold;">Agent</p></span></div></foreignObject></g></a></g></g><g class="edgeLabels"><g class="edgeLabel" transform="translate(197.59375, 447.25)"><g class="label" data-id="id_entity-AuditLog-0_entity-Agent-1_0" transform="translate(-45.6484375, -10.5)"><foreignObject width="91.296875" height="21"><div xmlns="http://www.w3.org/1999/xhtml" class="labelBkg" style="display: table-cell; white-space: nowrap; line-height: 1.5; max-width: 200px; text-align: center;"><span class="edgeLabel"><p>performedBy</p></span></div></foreignObject></g></g></g></svg>