<svg id="my-svg" width="100%" xmlns="http://www.w3.org/2000/svg" xmlns:xlink="http://www.w3.org/1999/xlink" class="erDiagram" style="max-width: 673.719px; background-color: white;" viewBox="4 4 673.71875 1162.25" role="graphics-document document" aria-roledescription="er"><g class="edges edgePaths"><path d="M200.97265625,96L200.97265625,197" id="my-svg-id_entity-Profile-0_entity-Profile_Specimen_MAP-1_0" class="edge-thickness-normal edge-pattern-solid relationshipLine" style="undefined;;;undefined" data-edge="true" data-et="edge" data-id="id_entity-Profile-0_entity-Profile_Specimen_MAP-1_0" data-points="W3sieCI6MjAwLjk3MjY1NjI1LCJ5Ijo5Nn0seyJ4IjoyMDAuOTcyNjU2MjUsInkiOjE5N31d" data-look="classic" marker-start="url(#my-svg_er-zeroOrOneStart)" marker-end="url(#my-svg_er-oneOrMoreEnd)"/><path d="M200.97265625,410.75L200.97265625,511.75" id="my-svg-id_entity-Profile_Specimen_MAP-1_entity-Specimen-2_1" class="edge-thickness-normal edge-pattern-solid relationshipLine" style="undefined;;;undefined" data-edge="true" data-et="edge" data-id="id_entity-Profile_Specimen_MAP-1_entity-Specimen-2_1" data-points="W3sieCI6MjAwLjk3MjY1NjI1LCJ5Ijo0MTAuNzV9LHsieCI6MjAwLjk3MjY1NjI1LCJ5Ijo1MTEuNzV9XQ==" data-look="classic" marker-start="url(#my-svg_er-zeroOrMoreStart)" marker-end="url(#my-svg_er-onlyOneEnd)"/><path d="M111.21875000000001,768.25L111.21875,889.25" id="my-svg-id_entity-Specimen-2_entity-Entity_Identity_MAP-3_2" class="edge-thickness-normal edge-pattern-solid relationshipLine" style="undefined;;;undefined" data-edge="true" data-et="edge" data-id="id_entity-Specimen-2_entity-Entity_Identity_MAP-3_2" data-points="W3sieCI6MTExLjIxODc1MDAwMDAwMDAxLCJ5Ijo3NjguMjV9LHsieCI6MTExLjIxODc1LCJ5Ijo4ODkuMjV9XQ==" data-look="classic" marker-start="url(#my-svg_er-zeroOrOneStart)" marker-end="url(#my-svg_er-oneOrMoreEnd)"/><path d="M111.21875,973.25L111.21875,1074.25" id="my-svg-id_entity-Entity_Identity_MAP-3_entity-ExternalIdentity-4_3" class="edge-thickness-normal edge-pattern-solid relationshipLine" style="undefined;;;undefined" data-edge="true" data-et="edge" data-id="id_entity-Entity_Identity_MAP-3_entity-ExternalIdentity-4_3" data-points="W3sieCI6MTExLjIxODc1LCJ5Ijo5NzMuMjV9LHsieCI6MTExLjIxODc1LCJ5IjoxMDc0LjI1fV0=" data-look="classic" marker-start="url(#my-svg_er-oneOrMoreStart)" marker-end="url(#my-svg_er-zeroOrOneEnd)"/><path d="M200.97265625,768.25L200.97265625,801.1789321881345Q200.97265625,808.25 208.04372406186548,808.25L339.3976821881345,808.25Q346.46875,808.25 346.46875,815.3210678118655L346.46875,889.25" id="my-svg-id_entity-Specimen-2_entity-Entity_Source_MAP-5_4" class="edge-thickness-normal edge-pattern-solid relationshipLine" style="undefined;;;undefined" data-edge="true" data-et="edge" data-id="id_entity-Specimen-2_entity-Entity_Source_MAP-5_4" data-points="W3sieCI6MjAwLjk3MjY1NjI1LCJ5Ijo3NjguMjV9LHsieCI6MjAwLjk3MjY1NjI1LCJ5Ijo4MDguMjV9LHsieCI6MzQ2LjQ2ODc1LCJ5Ijo4MDguMjV9LHsieCI6MzQ2LjQ2ODc1LCJ5Ijo4ODkuMjV9XQ==" data-look="classic" marker-start="url(#my-svg_er-zeroOrOneStart)" marker-end="url(#my-svg_er-oneOrMoreEnd)"/><path d="M346.46875,973.25L346.46875,1074.25" id="my-svg-id_entity-Entity_Source_MAP-5_entity-Reference-6_5" class="edge-thickness-normal edge-pattern-solid relationshipLine" style="undefined;;;undefined" data-edge="true" data-et="edge" data-id="id_entity-Entity_Source_MAP-5_entity-Reference-6_5" data-points="W3sieCI6MzQ2LjQ2ODc1LCJ5Ijo5NzMuMjV9LHsieCI6MzQ2LjQ2ODc1LCJ5IjoxMDc0LjI1fV0=" data-look="classic" marker-start="url(#my-svg_er-oneOrMoreStart)" marker-end="url(#my-svg_er-zeroOrOneEnd)"/><path d="M290.7265625,768.25L290.7265625,781.1789321881345Q290.7265625,788.25 297.7976303118655,788.25L569.0383071881345,788.25Q576.109375,788.25 576.109375,795.3210678118655L576.109375,889.25" id="my-svg-id_entity-Specimen-2_entity-Entity_Image_MAP-7_6" class="edge-thickness-normal edge-pattern-solid relationshipLine" style="undefined;;;undefined" data-edge="true" data-et="edge" data-id="id_entity-Specimen-2_entity-Entity_Image_MAP-7_6" data-points="W3sieCI6MjkwLjcyNjU2MjUsInkiOjc2OC4yNX0seyJ4IjoyOTAuNzI2NTYyNSwieSI6Nzg4LjI1fSx7IngiOjU3Ni4xMDkzNzUsInkiOjc4OC4yNX0seyJ4Ijo1NzYuMTA5Mzc1LCJ5Ijo4ODkuMjV9XQ==" data-look="classic" marker-start="url(#my-svg_er-zeroOrOneStart)" marker-end="url(#my-svg_er-oneOrMoreEnd)"/><path d="M576.109375,973.25L576.109375,1074.25" id="my-svg-id_entity-Entity_Image_MAP-7_entity-Image-8_7" class="edge-thickness-normal edge-pattern-solid relationshipLine" style="undefined;;;undefined" data-edge="true" data-et="edge" data-id="id_entity-Entity_Image_MAP-7_entity-Image-8_7" data-points="W3sieCI6NTc2LjEwOTM3NSwieSI6OTczLjI1fSx7IngiOjU3Ni4xMDkzNzUsInkiOjEwNzQuMjV9XQ==" data-look="classic" marker-start="url(#my-svg_er-oneOrMoreStart)" marker-end="url(#my-svg_er-onlyOneEnd)"/></g><style>#my-svg{font-family:"trebuchet ms",verdana,arial,sans-serif;font-size:16px;fill:#333;}@keyframes edge-animation-frame{from{stroke-dashoffset:0;}}@keyframes dash{to{stroke-dashoffset:0;}}#my-svg .edge-animation-slow{stroke-dasharray:9,5!important;stroke-dashoffset:900;animation:dash 50s linear infinite;stroke-linecap:round;}#my-svg .edge-animation-fast{stroke-dasharray:9,5!important;stroke-dashoffset:900;animation:dash 20s linear infinite;stroke-linecap:round;}#my-svg .error-icon{fill:hsl(210, 100%, 96.7647058824%);}#my-svg .error-text{fill:rgb(16.4999999998, 8.2499999999, 0);stroke:rgb(16.4999999998, 8.2499999999, 0);}#my-svg .edge-thickness-normal{stroke-width:1px;}#my-svg .edge-thickness-thick{stroke-width:3.5px;}#my-svg .edge-pattern-solid{stroke-dasharray:0;}#my-svg .edge-thickness-invisible{stroke-width:0;fill:none;}#my-svg .edge-pattern-dashed{stroke-dasharray:3;}#my-svg .edge-pattern-dotted{stroke-dasharray:2;}#my-svg .marker{fill:#e74b0f;stroke:#e74b0f;}#my-svg .marker.cross{stroke:#e74b0f;}#my-svg svg{font-family:"trebuchet ms",verdana,arial,sans-serif;font-size:16px;}#my-svg p{margin:0;}#my-svg .entityBox{fill:#ffead5;stroke:#fbb176;}#my-svg .relationshipLabelBox{fill:hsl(210, 100%, 96.7647058824%);opacity:0.7;background-color:hsl(210, 100%, 96.7647058824%);}#my-svg .relationshipLabelBox rect{opacity:0.5;}#my-svg .labelBkg{background-color:rgba(238.5000000002, 246.7500000001, 255, 0.5);}#my-svg .edgeLabel{background-color:hsl(-90, 100%, 91.7647058824%);}#my-svg .edgeLabel .label rect{fill:hsl(-90, 100%, 91.7647058824%);}#my-svg .edgeLabel .label text{fill:#333;}#my-svg .edgeLabel .label{fill:#fbb176;font-size:14px;}#my-svg .label{font-family:"trebuchet ms",verdana,arial,sans-serif;color:#333;}#my-svg .edge-pattern-dashed{stroke-dasharray:8,8;}#my-svg .node rect,#my-svg .node circle,#my-svg .node ellipse,#my-svg .node polygon{fill:#ffead5;stroke:#fbb176;stroke-width:1px;}#my-svg .relationshipLine{stroke:#e74b0f;stroke-width:1px;fill:none;}#my-svg .marker{fill:none!important;stroke:#e74b0f!important;stroke-width:1;}#my-svg [data-look=neo].labelBkg{background-color:rgba(238.5000000002, 246.7500000001, 255, 0.5);}#my-svg .node .neo-node{stroke:#fbb176;}#my-svg [data-look="neo"].node rect,#my-svg [data-look="neo"].cluster rect,#my-svg [data-look="neo"].node polygon{stroke:url(#my-svg-gradient);filter:drop-shadow( 1px 2px 2px rgba(185,185,185,1));}#my-svg [data-look="neo"].node path{stroke:url(#my-svg-gradient);stroke-width:1px;}#my-svg [data-look="neo"].node .outer-path{filter:drop-shadow( 1px 2px 2px rgba(185,185,185,1));}#my-svg [data-look="neo"].node .neo-line path{stroke:#fbb176;filter:none;}#my-svg [data-look="neo"].node circle{stroke:url(#my-svg-gradient);filter:drop-shadow( 1px 2px 2px rgba(185,185,185,1));}#my-svg [data-look="neo"].node circle .state-start{fill:#000000;}#my-svg [data-look="neo"].icon-shape .icon{fill:url(#my-svg-gradient);filter:drop-shadow( 1px 2px 2px rgba(185,185,185,1));}#my-svg [data-look="neo"].icon-shape .icon-neo path{stroke:url(#my-svg-gradient);filter:drop-shadow( 1px 2px 2px rgba(185,185,185,1));}#my-svg :root{--mermaid-font-family:"trebuchet ms",verdana,arial,sans-serif;}</style><g><defs><marker id="my-svg_er-onlyOneStart" class="marker onlyOne er" refX="0" refY="9" markerWidth="18" markerHeight="18" orient="auto"><path d="M9,0 L9,18 M15,0 L15,18"/></marker></defs><defs><marker id="my-svg_er-onlyOneEnd" class="marker onlyOne er" refX="18" refY="9" markerWidth="18" markerHeight="18" orient="auto"><path d="M3,0 L3,18 M9,0 L9,18"/></marker></defs><defs><marker id="my-svg_er-zeroOrOneStart" class="marker zeroOrOne er" refX="0" refY="9" markerWidth="30" markerHeight="18" orient="auto"><circle fill="white" cx="21" cy="9" r="6"/><path d="M9,0 L9,18"/></marker></defs><defs><marker id="my-svg_er-zeroOrOneEnd" class="marker zeroOrOne er" refX="30" refY="9" markerWidth="30" markerHeight="18" orient="auto"><circle fill="white" cx="9" cy="9" r="6"/><path d="M21,0 L21,18"/></marker></defs><defs><marker id="my-svg_er-oneOrMoreStart" class="marker oneOrMore er" refX="18" refY="18" markerWidth="45" markerHeight="36" orient="auto"><path d="M0,18 Q 18,0 36,18 Q 18,36 0,18 M42,9 L42,27"/></marker></defs><defs><marker id="my-svg_er-oneOrMoreEnd" class="marker oneOrMore er" refX="27" refY="18" markerWidth="45" markerHeight="36" orient="auto"><path d="M3,9 L3,27 M9,18 Q27,0 45,18 Q27,36 9,18"/></marker></defs><defs><marker id="my-svg_er-zeroOrMoreStart" class="marker zeroOrMore er" refX="18" refY="18" markerWidth="57" markerHeight="36" orient="auto"><circle fill="white" cx="48" cy="18" r="6"/><path d="M0,18 Q18,0 36,18 Q18,36 0,18"/></marker></defs><defs><marker id="my-svg_er-zeroOrMoreEnd" class="marker zeroOrMore er" refX="39" refY="18" markerWidth="57" markerHeight="36" orient="auto"><circle fill="white" cx="9" cy="18" r="6"/><path d="M21,18 Q39,0 57,18 Q39,36 21,18"/></marker></defs></g><defs><filter id="my-svg-drop-shadow" height="130%" width="130%"><feDropShadow dx="4" dy="4" stdDeviation="0" flood-opacity="0.06" flood-color="#000000"/></filter></defs><defs><filter id="my-svg-drop-shadow-small" height="150%" width="150%"><feDropShadow dx="2" dy="2" stdDeviation="0" flood-opacity="0.06" flood-color="#000000"/></filter></defs><linearGradient id="my-svg-gradient" gradientUnits="objectBoundingBox" x1="0%" y1="0%" x2="100%" y2="0%"><stop offset="0%" stop-color="#fbb176" stop-opacity="1"/><stop offset="100%" stop-color="hsl(-90, 60%, 81.7647058824%)" stop-opacity="1"/></linearGradient><g class="subgraphs"/><g class="nodes"><g class="node default" id="my-svg-entity-Profile-0" data-look="classic" transform="translate(200.97265625, 54)"><rect class="basic label-container" style="" x="-50" y="-42" width="100" height="84"/><a href="/vicflora-docs/resources/profile" target="_top"><g class="label" style="" transform="translate(-24.875, -12)"><rect/><foreignObject width="49.75" height="24"><div xmlns="http://www.w3.org/1999/xhtml" style="display: table-cell; white-space: nowrap; line-height: 1.5; max-width: 100px; text-align: center;"><span class="nodeLabel markdown-node-label"><p style="color: #e74b0f; font-weight: bold;">Profile</p></span></div></foreignObject></g></a></g><g class="node default" id="my-svg-entity-Profile_Specimen_MAP-1" data-look="classic" transform="translate(200.97265625, 303.875)"><g class="outer-path" style=""><path d="M-152.0859375 -106.875 L152.0859375 -106.875 L152.0859375 106.875 L-152.0859375 106.875" stroke="none" stroke-width="0" fill="#ffead5"/><path d="M-152.0859375 -106.875 C-59.77283823751736 -106.875, 32.540261024965275 -106.875, 152.0859375 -106.875 M-152.0859375 -106.875 C-58.95057726487234 -106.875, 34.18478297025533 -106.875, 152.0859375 -106.875 M152.0859375 -106.875 C152.0859375 -28.478594410822467, 152.0859375 49.917811178355066, 152.0859375 106.875 M152.0859375 -106.875 C152.0859375 -46.497454362433196, 152.0859375 13.880091275133609, 152.0859375 106.875 M152.0859375 106.875 C62.4556777380476 106.875, -27.174582023904804 106.875, -152.0859375 106.875 M152.0859375 106.875 C44.715264988794445 106.875, -62.65540752241111 106.875, -152.0859375 106.875 M-152.0859375 106.875 C-152.0859375 62.030938335041114, -152.0859375 17.186876670082228, -152.0859375 -106.875 M-152.0859375 106.875 C-152.0859375 35.10770743481726, -152.0859375 -36.659585130365485, -152.0859375 -106.875" stroke="#fbb176" stroke-width="1.3" fill="none" stroke-dasharray="0 0"/></g><g style="" class="row-rect-odd"><path d="M-152.0859375 -64.125 L152.0859375 -64.125 L152.0859375 -21.375 L-152.0859375 -21.375" stroke="none" stroke-width="0" fill="hsl(30, 100%, 100%)"/><path d="M-152.0859375 -64.125 C-52.92236378459884 -64.125, 46.24120993080231 -64.125, 152.0859375 -64.125 M-152.0859375 -64.125 C-42.77104391910771 -64.125, 66.54384966178458 -64.125, 152.0859375 -64.125 M152.0859375 -64.125 C152.0859375 -48.085813825867554, 152.0859375 -32.04662765173511, 152.0859375 -21.375 M152.0859375 -64.125 C152.0859375 -54.9976090196957, 152.0859375 -45.8702180393914, 152.0859375 -21.375 M152.0859375 -21.375 C36.35085145541247 -21.375, -79.38423458917507 -21.375, -152.0859375 -21.375 M152.0859375 -21.375 C63.84508756768382 -21.375, -24.39576236463236 -21.375, -152.0859375 -21.375 M-152.0859375 -21.375 C-152.0859375 -37.87255739449539, -152.0859375 -54.37011478899078, -152.0859375 -64.125 M-152.0859375 -21.375 C-152.0859375 -37.308104573990086, -152.0859375 -53.24120914798017, -152.0859375 -64.125" stroke="#fbb176" stroke-width="1.3" fill="none" stroke-dasharray="0 0"/></g><g style="" class="row-rect-even"><path d="M-152.0859375 -21.375 L152.0859375 -21.375 L152.0859375 21.375 L-152.0859375 21.375" stroke="none" stroke-width="0" fill="hsl(30, 100%, 96.7647058824%)"/><path d="M-152.0859375 -21.375 C-65.61832726524447 -21.375, 20.84928296951105 -21.375, 152.0859375 -21.375 M-152.0859375 -21.375 C-43.41173709541299 -21.375, 65.26246330917402 -21.375, 152.0859375 -21.375 M152.0859375 -21.375 C152.0859375 -6.539830298724903, 152.0859375 8.295339402550194, 152.0859375 21.375 M152.0859375 -21.375 C152.0859375 -8.28371498457535, 152.0859375 4.807570030849298, 152.0859375 21.375 M152.0859375 21.375 C46.276390488467314 21.375, -59.53315652306537 21.375, -152.0859375 21.375 M152.0859375 21.375 C59.80946647587487 21.375, -32.46700454825026 21.375, -152.0859375 21.375 M-152.0859375 21.375 C-152.0859375 11.190697267588623, -152.0859375 1.0063945351772468, -152.0859375 -21.375 M-152.0859375 21.375 C-152.0859375 6.955174142626703, -152.0859375 -7.464651714746594, -152.0859375 -21.375" stroke="#fbb176" stroke-width="1.3" fill="none" stroke-dasharray="0 0"/></g><g style="" class="row-rect-odd"><path d="M-152.0859375 21.375 L152.0859375 21.375 L152.0859375 64.125 L-152.0859375 64.125" stroke="none" stroke-width="0" fill="hsl(30, 100%, 100%)"/><path d="M-152.0859375 21.375 C-40.487970642973025 21.375, 71.10999621405395 21.375, 152.0859375 21.375 M-152.0859375 21.375 C-87.01299516076904 21.375, -21.940052821538075 21.375, 152.0859375 21.375 M152.0859375 21.375 C152.0859375 30.671186437020246, 152.0859375 39.96737287404049, 152.0859375 64.125 M152.0859375 21.375 C152.0859375 34.8225792424317, 152.0859375 48.2701584848634, 152.0859375 64.125 M152.0859375 64.125 C51.613023650569005 64.125, -48.85989019886199 64.125, -152.0859375 64.125 M152.0859375 64.125 C62.36878519188282 64.125, -27.348367116234357 64.125, -152.0859375 64.125 M-152.0859375 64.125 C-152.0859375 51.93438587830391, -152.0859375 39.74377175660781, -152.0859375 21.375 M-152.0859375 64.125 C-152.0859375 53.32175054091905, -152.0859375 42.518501081838096, -152.0859375 21.375" stroke="#fbb176" stroke-width="1.3" fill="none" stroke-dasharray="0 0"/></g><g style="" class="row-rect-even"><path d="M-152.0859375 64.125 L152.0859375 64.125 L152.0859375 106.875 L-152.0859375 106.875" stroke="none" stroke-width="0" fill="hsl(30, 100%, 96.7647058824%)"/><path d="M-152.0859375 64.125 C-35.95705181431967 64.125, 80.17183387136066 64.125, 152.0859375 64.125 M-152.0859375 64.125 C-32.08950730946569 64.125, 87.90692288106862 64.125, 152.0859375 64.125 M152.0859375 64.125 C152.0859375 76.50540378023456, 152.0859375 88.88580756046913, 152.0859375 106.875 M152.0859375 64.125 C152.0859375 74.343764616973, 152.0859375 84.56252923394602, 152.0859375 106.875 M152.0859375 106.875 C36.919941707692786 106.875, -78.24605408461443 106.875, -152.0859375 106.875 M152.0859375 106.875 C60.82116267734173 106.875, -30.443612145316536 106.875, -152.0859375 106.875 M-152.0859375 106.875 C-152.0859375 96.58403335757336, -152.0859375 86.29306671514672, -152.0859375 64.125 M-152.0859375 106.875 C-152.0859375 95.49862535726511, -152.0859375 84.12225071453022, -152.0859375 64.125" stroke="#fbb176" stroke-width="1.3" fill="none" stroke-dasharray="0 0"/></g><a href="/vicflora-docs/resources/profile-specimen-map" target="_top"><g class="label name" transform="translate(-89.5625, -97.5)" style=""><foreignObject width="179.125" height="24"><div xmlns="http://www.w3.org/1999/xhtml" style="display: table-cell; white-space: nowrap; line-height: 1.5; max-width: 281px; text-align: start;"><span class="nodeLabel"><p style="color: #e74b0f; font-weight: bold;">Profile_Specimen_MAP</p></span></div></foreignObject></g></a><g class="label attribute-type" transform="translate(-139.5859375, -54.75)" style=""><foreignObject width="20.859375" height="24"><div xmlns="http://www.w3.org/1999/xhtml" style="display: table-cell; white-space: nowrap; line-height: 1.5; max-width: 120px; text-align: start;"><span class="nodeLabel"><p>int</p></span></div></foreignObject></g><g class="label attribute-name" transform="translate(-93.7265625, -54.75)" style=""><foreignObject width="14.609375" height="24"><div xmlns="http://www.w3.org/1999/xhtml" style="display: table-cell; white-space: nowrap; line-height: 1.5; max-width: 114px; text-align: start;"><span class="nodeLabel"><p>id</p></span></div></foreignObject></g><g class="label attribute-keys" transform="translate(31.0234375, -54.75)" style=""><foreignObject width="20.140625" height="24"><div xmlns="http://www.w3.org/1999/xhtml" style="display: table-cell; white-space: nowrap; line-height: 1.5; max-width: 121px; text-align: start;"><span class="nodeLabel"><p>PK</p></span></div></foreignObject></g><g class="label attribute-comment" transform="translate(76.1640625, -54.75)" style=""><foreignObject width="0" height="0"><div xmlns="http://www.w3.org/1999/xhtml" style="display: table-cell; white-space: nowrap; line-height: 1.5; max-width: 100px; text-align: start;"><span class="nodeLabel"></span></div></foreignObject></g><g class="label attribute-type" transform="translate(-139.5859375, -12)" style=""><foreignObject width="20.859375" height="24"><div xmlns="http://www.w3.org/1999/xhtml" style="display: table-cell; white-space: nowrap; line-height: 1.5; max-width: 120px; text-align: start;"><span class="nodeLabel"><p>int</p></span></div></foreignObject></g><g class="label attribute-name" transform="translate(-93.7265625, -12)" style=""><foreignObject width="73.140625" height="24"><div xmlns="http://www.w3.org/1999/xhtml" style="display: table-cell; white-space: nowrap; line-height: 1.5; max-width: 173px; text-align: start;"><span class="nodeLabel"><p>profile_id</p></span></div></foreignObject></g><g class="label attribute-keys" transform="translate(31.0234375, -12)" style=""><foreignObject width="19.703125" height="24"><div xmlns="http://www.w3.org/1999/xhtml" style="display: table-cell; white-space: nowrap; line-height: 1.5; max-width: 120px; text-align: start;"><span class="nodeLabel"><p>FK</p></span></div></foreignObject></g><g class="label attribute-comment" transform="translate(76.1640625, -12)" style=""><foreignObject width="0" height="0"><div xmlns="http://www.w3.org/1999/xhtml" style="display: table-cell; white-space: nowrap; line-height: 1.5; max-width: 100px; text-align: start;"><span class="nodeLabel"></span></div></foreignObject></g><g class="label attribute-type" transform="translate(-139.5859375, 30.75)" style=""><foreignObject width="20.859375" height="24"><div xmlns="http://www.w3.org/1999/xhtml" style="display: table-cell; white-space: nowrap; line-height: 1.5; max-width: 120px; text-align: start;"><span class="nodeLabel"><p>int</p></span></div></foreignObject></g><g class="label attribute-name" transform="translate(-93.7265625, 30.75)" style=""><foreignObject width="99.75" height="24"><div xmlns="http://www.w3.org/1999/xhtml" style="display: table-cell; white-space: nowrap; line-height: 1.5; max-width: 200px; text-align: start;"><span class="nodeLabel"><p>specimen_id</p></span></div></foreignObject></g><g class="label attribute-keys" transform="translate(31.0234375, 30.75)" style=""><foreignObject width="19.703125" height="24"><div xmlns="http://www.w3.org/1999/xhtml" style="display: table-cell; white-space: nowrap; line-height: 1.5; max-width: 120px; text-align: start;"><span class="nodeLabel"><p>FK</p></span></div></foreignObject></g><g class="label attribute-comment" transform="translate(76.1640625, 30.75)" style=""><foreignObject width="0" height="0"><div xmlns="http://www.w3.org/1999/xhtml" style="display: table-cell; white-space: nowrap; line-height: 1.5; max-width: 100px; text-align: start;"><span class="nodeLabel"></span></div></foreignObject></g><g class="label attribute-type" transform="translate(-139.5859375, 73.5)" style=""><foreignObject width="20.859375" height="24"><div xmlns="http://www.w3.org/1999/xhtml" style="display: table-cell; white-space: nowrap; line-height: 1.5; max-width: 120px; text-align: start;"><span class="nodeLabel"><p>int</p></span></div></foreignObject></g><g class="label attribute-name" transform="translate(-93.7265625, 73.5)" style=""><foreignObject width="81.640625" height="24"><div xmlns="http://www.w3.org/1999/xhtml" style="display: table-cell; white-space: nowrap; line-height: 1.5; max-width: 183px; text-align: start;"><span class="nodeLabel"><p>sort_order</p></span></div></foreignObject></g><g class="label attribute-keys" transform="translate(31.0234375, 73.5)" style=""><foreignObject width="0" height="0"><div xmlns="http://www.w3.org/1999/xhtml" style="display: table-cell; white-space: nowrap; line-height: 1.5; max-width: 100px; text-align: start;"><span class="nodeLabel"></span></div></foreignObject></g><g class="label attribute-comment" transform="translate(76.1640625, 73.5)" style=""><foreignObject width="63.421875" height="24"><div xmlns="http://www.w3.org/1999/xhtml" style="display: table-cell; white-space: nowrap; line-height: 1.5; max-width: 162px; text-align: start;"><span class="nodeLabel"><p>nullable</p></span></div></foreignObject></g><g class="divider"><path d="M-152.0859375 -64.12505 L-152.0859375 -64.12495 L152.0859375 -64.12495 L152.0859375 -64.12505" stroke="none" stroke-width="0" fill="#ffead5" fill-rule="evenodd"/><path d="M-152.0859375 -64.12505 C-152.0859375 -64.12501869394396, -152.0859375 -64.12498738788791, -152.0859375 -64.12495 M-152.0859375 -64.12505 C-152.0859375 -64.1250193539629, -152.0859375 -64.12498870792581, -152.0859375 -64.12495 M-152.0859375 -64.12495 C-34.0026742949764 -64.12495, 84.0805889100472 -64.12495, 152.0859375 -64.12495 M-152.0859375 -64.12495 C-48.65102229450051 -64.12495, 54.783892910998986 -64.12495, 152.0859375 -64.12495 M152.0859375 -64.12495 C152.0859375 -64.12498497332598, 152.0859375 -64.12501994665196, 152.0859375 -64.12505 M152.0859375 -64.12495 C152.0859375 -64.12498508194139, 152.0859375 -64.12502016388277, 152.0859375 -64.12505 M152.0859375 -64.12505 C44.52869388763564 -64.12505, -63.02854972472872 -64.12505, -152.0859375 -64.12505 M152.0859375 -64.12505 C43.148382767084456 -64.12505, -65.78917196583109 -64.12505, -152.0859375 -64.12505" stroke="#fbb176" stroke-width="1.3" fill="none" stroke-dasharray="0 0"/></g><g class="divider"><path d="M-106.2266125 -64.125 L-106.2265125 -64.125 L-106.2265125 106.875 L-106.2266125 106.875" stroke="none" stroke-width="0" fill="#ffead5" fill-rule="evenodd"/><path d="M-106.2266125 -64.125 C-106.22658812599549 -64.125, -106.22656375199098 -64.125, -106.2265125 -64.125 M-106.2266125 -64.125 C-106.22658805481088 -64.125, -106.22656360962175 -64.125, -106.2265125 -64.125 M-106.2265125 -64.125 C-106.2265125 -4.172228361911394, -106.2265125 55.78054327617721, -106.2265125 106.875 M-106.2265125 -64.125 C-106.2265125 -14.683302455886732, -106.2265125 34.758395088226536, -106.2265125 106.875 M-106.2265125 106.875 C-106.22655097541048 106.875, -106.22658945082095 106.875, -106.2266125 106.875 M-106.2265125 106.875 C-106.2265463369651 106.875, -106.22658017393022 106.875, -106.2266125 106.875 M-106.2266125 106.875 C-106.2266125 70.2675528497879, -106.2266125 33.66010569957581, -106.2266125 -64.125 M-106.2266125 106.875 C-106.2266125 38.90952454965736, -106.2266125 -29.055950900685275, -106.2266125 -64.125" stroke="#fbb176" stroke-width="1.3" fill="none" stroke-dasharray="0 0"/></g><g class="divider"><path d="M18.5233875 -64.125 L18.5234875 -64.125 L18.5234875 106.875 L18.5233875 106.875" stroke="none" stroke-width="0" fill="#ffead5" fill-rule="evenodd"/><path d="M18.5233875 -64.125 C18.523421403393737 -64.125, 18.523455306787476 -64.125, 18.5234875 -64.125 M18.5233875 -64.125 C18.523416694963213 -64.125, 18.523445889926432 -64.125, 18.5234875 -64.125 M18.5234875 -64.125 C18.5234875 -7.18092294867126, 18.5234875 49.76315410265748, 18.5234875 106.875 M18.5234875 -64.125 C18.5234875 -15.4187191317382, 18.5234875 33.2875617365236, 18.5234875 106.875 M18.5234875 106.875 C18.52346648849087 106.875, 18.523445476981742 106.875, 18.5233875 106.875 M18.5234875 106.875 C18.52345773469982 106.875, 18.523427969399645 106.875, 18.5233875 106.875 M18.5233875 106.875 C18.5233875 69.97926873577717, 18.5233875 33.08353747155434, 18.5233875 -64.125 M18.5233875 106.875 C18.5233875 62.644007752214854, 18.5233875 18.41301550442971, 18.5233875 -64.125" stroke="#fbb176" stroke-width="1.3" fill="none" stroke-dasharray="0 0"/></g><g class="divider"><path d="M63.6640125 -64.125 L63.6641125 -64.125 L63.6641125 106.875 L63.6640125 106.875" stroke="none" stroke-width="0" fill="#ffead5" fill-rule="evenodd"/><path d="M63.6640125 -64.125 C63.66404012450472 -64.125, 63.664067749009455 -64.125, 63.6641125 -64.125 M63.6640125 -64.125 C63.66404709429407 -64.125, 63.66408168858814 -64.125, 63.6641125 -64.125 M63.6641125 -64.125 C63.6641125 -22.572431569502086, 63.6641125 18.980136860995827, 63.6641125 106.875 M63.6641125 -64.125 C63.6641125 -20.414371011509175, 63.6641125 23.29625797698165, 63.6641125 106.875 M63.6641125 106.875 C63.66407665493924 106.875, 63.66404080987847 106.875, 63.6640125 106.875 M63.6641125 106.875 C63.66408539390324 106.875, 63.66405828780648 106.875, 63.6640125 106.875 M63.6640125 106.875 C63.6640125 67.60225337355375, 63.6640125 28.3295067471075, 63.6640125 -64.125 M63.6640125 106.875 C63.6640125 39.079441114142426, 63.6640125 -28.716117771715147, 63.6640125 -64.125" stroke="#fbb176" stroke-width="1.3" fill="none" stroke-dasharray="0 0"/></g><g class="divider"><path d="M-152.0859375 -64.12505 L-152.0859375 -64.12495 L152.0859375 -64.12495 L152.0859375 -64.12505" stroke="none" stroke-width="0" fill="#ffead5" fill-rule="evenodd"/><path d="M-152.0859375 -64.12505 C-152.0859375 -64.12501835167849, -152.0859375 -64.12498670335698, -152.0859375 -64.12495 M-152.0859375 -64.12505 C-152.0859375 -64.12501320416388, -152.0859375 -64.12497640832775, -152.0859375 -64.12495 M-152.0859375 -64.12495 C-68.27692219011153 -64.12495, 15.532093119776931 -64.12495, 152.0859375 -64.12495 M-152.0859375 -64.12495 C-84.2055815666695 -64.12495, -16.325225633338988 -64.12495, 152.0859375 -64.12495 M152.0859375 -64.12495 C152.0859375 -64.12497441236486, 152.0859375 -64.12499882472974, 152.0859375 -64.12505 M152.0859375 -64.12495 C152.0859375 -64.12497270405115, 152.0859375 -64.12499540810228, 152.0859375 -64.12505 M152.0859375 -64.12505 C61.31203910624808 -64.12505, -29.46185928750384 -64.12505, -152.0859375 -64.12505 M152.0859375 -64.12505 C46.52521673398486 -64.12505, -59.035504032030275 -64.12505, -152.0859375 -64.12505" stroke="#fbb176" stroke-width="1.3" fill="none" stroke-dasharray="0 0"/></g></g><g class="node default" id="my-svg-entity-Specimen-2" data-look="classic" transform="translate(200.97265625, 640)"><g class="outer-path" style=""><path d="M-179.5078125 -128.25 L179.5078125 -128.25 L179.5078125 128.25 L-179.5078125 128.25" stroke="none" stroke-width="0" fill="#ffead5"/><path d="M-179.5078125 -128.25 C-99.10970224769348 -128.25, -18.711591995386954 -128.25, 179.5078125 -128.25 M-179.5078125 -128.25 C-65.22702806002117 -128.25, 49.05375637995766 -128.25, 179.5078125 -128.25 M179.5078125 -128.25 C179.5078125 -50.025877512936944, 179.5078125 28.198244974126112, 179.5078125 128.25 M179.5078125 -128.25 C179.5078125 -64.90778426659259, 179.5078125 -1.5655685331851714, 179.5078125 128.25 M179.5078125 128.25 C93.91198952912855 128.25, 8.316166558257095 128.25, -179.5078125 128.25 M179.5078125 128.25 C41.89892724570703 128.25, -95.70995800858594 128.25, -179.5078125 128.25 M-179.5078125 128.25 C-179.5078125 32.308397513311604, -179.5078125 -63.63320497337679, -179.5078125 -128.25 M-179.5078125 128.25 C-179.5078125 36.804110398613844, -179.5078125 -54.64177920277231, -179.5078125 -128.25" stroke="#fbb176" stroke-width="1.3" fill="none" stroke-dasharray="0 0"/></g><g style="" class="row-rect-odd"><path d="M-179.5078125 -85.5 L179.5078125 -85.5 L179.5078125 -42.75 L-179.5078125 -42.75" stroke="none" stroke-width="0" fill="hsl(30, 100%, 100%)"/><path d="M-179.5078125 -85.5 C-82.34608629027557 -85.5, 14.81563991944887 -85.5, 179.5078125 -85.5 M-179.5078125 -85.5 C-97.76964817418965 -85.5, -16.03148384837931 -85.5, 179.5078125 -85.5 M179.5078125 -85.5 C179.5078125 -75.29967179499705, 179.5078125 -65.09934358999409, 179.5078125 -42.75 M179.5078125 -85.5 C179.5078125 -76.17267958311105, 179.5078125 -66.84535916622208, 179.5078125 -42.75 M179.5078125 -42.75 C71.85055295412472 -42.75, -35.806706591750554 -42.75, -179.5078125 -42.75 M179.5078125 -42.75 C64.90287652259981 -42.75, -49.70205945480038 -42.75, -179.5078125 -42.75 M-179.5078125 -42.75 C-179.5078125 -52.739150320406424, -179.5078125 -62.728300640812854, -179.5078125 -85.5 M-179.5078125 -42.75 C-179.5078125 -57.261384475385135, -179.5078125 -71.77276895077027, -179.5078125 -85.5" stroke="#fbb176" stroke-width="1.3" fill="none" stroke-dasharray="0 0"/></g><g style="" class="row-rect-even"><path d="M-179.5078125 -42.75 L179.5078125 -42.75 L179.5078125 0 L-179.5078125 0" stroke="none" stroke-width="0" fill="hsl(30, 100%, 96.7647058824%)"/><path d="M-179.5078125 -42.75 C-97.59029787563027 -42.75, -15.67278325126054 -42.75, 179.5078125 -42.75 M-179.5078125 -42.75 C-42.449270718490254 -42.75, 94.60927106301949 -42.75, 179.5078125 -42.75 M179.5078125 -42.75 C179.5078125 -31.92625177249304, 179.5078125 -21.102503544986075, 179.5078125 0 M179.5078125 -42.75 C179.5078125 -33.515209439551874, 179.5078125 -24.280418879103745, 179.5078125 0 M179.5078125 0 C68.35079866249207 0, -42.806215175015865 0, -179.5078125 0 M179.5078125 0 C54.8947514645141 0, -69.7183095709718 0, -179.5078125 0 M-179.5078125 0 C-179.5078125 -11.382240515319028, -179.5078125 -22.764481030638056, -179.5078125 -42.75 M-179.5078125 0 C-179.5078125 -16.83171492595522, -179.5078125 -33.66342985191044, -179.5078125 -42.75" stroke="#fbb176" stroke-width="1.3" fill="none" stroke-dasharray="0 0"/></g><g style="" class="row-rect-odd"><path d="M-179.5078125 0 L179.5078125 0 L179.5078125 42.75 L-179.5078125 42.75" stroke="none" stroke-width="0" fill="hsl(30, 100%, 100%)"/><path d="M-179.5078125 0 C-90.19706440117605 0, -0.8863163023520997 0, 179.5078125 0 M-179.5078125 0 C-65.97085773473096 0, 47.56609703053809 0, 179.5078125 0 M179.5078125 0 C179.5078125 9.802572415998807, 179.5078125 19.605144831997613, 179.5078125 42.75 M179.5078125 0 C179.5078125 11.997403885350968, 179.5078125 23.994807770701936, 179.5078125 42.75 M179.5078125 42.75 C72.7409559438699 42.75, -34.02590061226019 42.75, -179.5078125 42.75 M179.5078125 42.75 C37.09668616521054 42.75, -105.31444016957892 42.75, -179.5078125 42.75 M-179.5078125 42.75 C-179.5078125 31.366721105058616, -179.5078125 19.98344221011723, -179.5078125 0 M-179.5078125 42.75 C-179.5078125 27.395883222885825, -179.5078125 12.04176644577165, -179.5078125 0" stroke="#fbb176" stroke-width="1.3" fill="none" stroke-dasharray="0 0"/></g><g style="" class="row-rect-even"><path d="M-179.5078125 42.75 L179.5078125 42.75 L179.5078125 85.5 L-179.5078125 85.5" stroke="none" stroke-width="0" fill="hsl(30, 100%, 96.7647058824%)"/><path d="M-179.5078125 42.75 C-104.28959915800968 42.75, -29.071385816019358 42.75, 179.5078125 42.75 M-179.5078125 42.75 C-40.548003369902034 42.75, 98.41180576019593 42.75, 179.5078125 42.75 M179.5078125 42.75 C179.5078125 57.22667548205503, 179.5078125 71.70335096411006, 179.5078125 85.5 M179.5078125 42.75 C179.5078125 52.21597177556306, 179.5078125 61.68194355112613, 179.5078125 85.5 M179.5078125 85.5 C70.46079242560447 85.5, -38.586227648791066 85.5, -179.5078125 85.5 M179.5078125 85.5 C97.96738448444637 85.5, 16.42695646889274 85.5, -179.5078125 85.5 M-179.5078125 85.5 C-179.5078125 69.53922679043177, -179.5078125 53.57845358086353, -179.5078125 42.75 M-179.5078125 85.5 C-179.5078125 75.93056570096566, -179.5078125 66.36113140193132, -179.5078125 42.75" stroke="#fbb176" stroke-width="1.3" fill="none" stroke-dasharray="0 0"/></g><g style="" class="row-rect-odd"><path d="M-179.5078125 85.5 L179.5078125 85.5 L179.5078125 128.25 L-179.5078125 128.25" stroke="none" stroke-width="0" fill="hsl(30, 100%, 100%)"/><path d="M-179.5078125 85.5 C-107.56228069038862 85.5, -35.61674888077724 85.5, 179.5078125 85.5 M-179.5078125 85.5 C-71.4867929593665 85.5, 36.534226581267006 85.5, 179.5078125 85.5 M179.5078125 85.5 C179.5078125 97.69903513560217, 179.5078125 109.89807027120436, 179.5078125 128.25 M179.5078125 85.5 C179.5078125 94.17332646601463, 179.5078125 102.84665293202926, 179.5078125 128.25 M179.5078125 128.25 C87.30921760800841 128.25, -4.88937728398318 128.25, -179.5078125 128.25 M179.5078125 128.25 C47.86446296438535 128.25, -83.7788865712293 128.25, -179.5078125 128.25 M-179.5078125 128.25 C-179.5078125 114.2668640212114, -179.5078125 100.28372804242281, -179.5078125 85.5 M-179.5078125 128.25 C-179.5078125 111.53327031243046, -179.5078125 94.81654062486093, -179.5078125 85.5" stroke="#fbb176" stroke-width="1.3" fill="none" stroke-dasharray="0 0"/></g><a href="/vicflora-docs/resources/specimen" target="_top"><g class="label name" transform="translate(-39.484375, -118.875)" style=""><foreignObject width="78.96875" height="24"><div xmlns="http://www.w3.org/1999/xhtml" style="display: table-cell; white-space: nowrap; line-height: 1.5; max-width: 179px; text-align: start;"><span class="nodeLabel"><p style="color: #e74b0f; font-weight: bold;">Specimen</p></span></div></foreignObject></g></a><g class="label attribute-type" transform="translate(-167.0078125, -76.125)" style=""><foreignObject width="20.859375" height="24"><div xmlns="http://www.w3.org/1999/xhtml" style="display: table-cell; white-space: nowrap; line-height: 1.5; max-width: 120px; text-align: start;"><span class="nodeLabel"><p>int</p></span></div></foreignObject></g><g class="label attribute-name" transform="translate(-96.0703125, -76.125)" style=""><foreignObject width="14.609375" height="24"><div xmlns="http://www.w3.org/1999/xhtml" style="display: table-cell; white-space: nowrap; line-height: 1.5; max-width: 114px; text-align: start;"><span class="nodeLabel"><p>id</p></span></div></foreignObject></g><g class="label attribute-keys" transform="translate(58.4453125, -76.125)" style=""><foreignObject width="20.140625" height="24"><div xmlns="http://www.w3.org/1999/xhtml" style="display: table-cell; white-space: nowrap; line-height: 1.5; max-width: 121px; text-align: start;"><span class="nodeLabel"><p>PK</p></span></div></foreignObject></g><g class="label attribute-comment" transform="translate(103.5859375, -76.125)" style=""><foreignObject width="0" height="0"><div xmlns="http://www.w3.org/1999/xhtml" style="display: table-cell; white-space: nowrap; line-height: 1.5; max-width: 100px; text-align: start;"><span class="nodeLabel"></span></div></foreignObject></g><g class="label attribute-type" transform="translate(-167.0078125, -33.375)" style=""><foreignObject width="45.9375" height="24"><div xmlns="http://www.w3.org/1999/xhtml" style="display: table-cell; white-space: nowrap; line-height: 1.5; max-width: 145px; text-align: start;"><span class="nodeLabel"><p>string</p></span></div></foreignObject></g><g class="label attribute-name" transform="translate(-96.0703125, -33.375)" style=""><foreignObject width="127.296875" height="24"><div xmlns="http://www.w3.org/1999/xhtml" style="display: table-cell; white-space: nowrap; line-height: 1.5; max-width: 227px; text-align: start;"><span class="nodeLabel"><p>institution_code</p></span></div></foreignObject></g><g class="label attribute-keys" transform="translate(58.4453125, -33.375)" style=""><foreignObject width="0" height="0"><div xmlns="http://www.w3.org/1999/xhtml" style="display: table-cell; white-space: nowrap; line-height: 1.5; max-width: 100px; text-align: start;"><span class="nodeLabel"></span></div></foreignObject></g><g class="label attribute-comment" transform="translate(103.5859375, -33.375)" style=""><foreignObject width="63.421875" height="24"><div xmlns="http://www.w3.org/1999/xhtml" style="display: table-cell; white-space: nowrap; line-height: 1.5; max-width: 162px; text-align: start;"><span class="nodeLabel"><p>nullable</p></span></div></foreignObject></g><g class="label attribute-type" transform="translate(-167.0078125, 9.375)" style=""><foreignObject width="45.9375" height="24"><div xmlns="http://www.w3.org/1999/xhtml" style="display: table-cell; white-space: nowrap; line-height: 1.5; max-width: 145px; text-align: start;"><span class="nodeLabel"><p>string</p></span></div></foreignObject></g><g class="label attribute-name" transform="translate(-96.0703125, 9.375)" style=""><foreignObject width="123.359375" height="24"><div xmlns="http://www.w3.org/1999/xhtml" style="display: table-cell; white-space: nowrap; line-height: 1.5; max-width: 223px; text-align: start;"><span class="nodeLabel"><p>collection_code</p></span></div></foreignObject></g><g class="label attribute-keys" transform="translate(58.4453125, 9.375)" style=""><foreignObject width="0" height="0"><div xmlns="http://www.w3.org/1999/xhtml" style="display: table-cell; white-space: nowrap; line-height: 1.5; max-width: 100px; text-align: start;"><span class="nodeLabel"></span></div></foreignObject></g><g class="label attribute-comment" transform="translate(103.5859375, 9.375)" style=""><foreignObject width="63.421875" height="24"><div xmlns="http://www.w3.org/1999/xhtml" style="display: table-cell; white-space: nowrap; line-height: 1.5; max-width: 162px; text-align: start;"><span class="nodeLabel"><p>nullable</p></span></div></foreignObject></g><g class="label attribute-type" transform="translate(-167.0078125, 52.125)" style=""><foreignObject width="45.9375" height="24"><div xmlns="http://www.w3.org/1999/xhtml" style="display: table-cell; white-space: nowrap; line-height: 1.5; max-width: 145px; text-align: start;"><span class="nodeLabel"><p>string</p></span></div></foreignObject></g><g class="label attribute-name" transform="translate(-96.0703125, 52.125)" style=""><foreignObject width="129.515625" height="24"><div xmlns="http://www.w3.org/1999/xhtml" style="display: table-cell; white-space: nowrap; line-height: 1.5; max-width: 230px; text-align: start;"><span class="nodeLabel"><p>catalog_number</p></span></div></foreignObject></g><g class="label attribute-keys" transform="translate(58.4453125, 52.125)" style=""><foreignObject width="0" height="0"><div xmlns="http://www.w3.org/1999/xhtml" style="display: table-cell; white-space: nowrap; line-height: 1.5; max-width: 100px; text-align: start;"><span class="nodeLabel"></span></div></foreignObject></g><g class="label attribute-comment" transform="translate(103.5859375, 52.125)" style=""><foreignObject width="63.421875" height="24"><div xmlns="http://www.w3.org/1999/xhtml" style="display: table-cell; white-space: nowrap; line-height: 1.5; max-width: 162px; text-align: start;"><span class="nodeLabel"><p>nullable</p></span></div></foreignObject></g><g class="label attribute-type" transform="translate(-167.0078125, 94.875)" style=""><foreignObject width="42.875" height="24"><div xmlns="http://www.w3.org/1999/xhtml" style="display: table-cell; white-space: nowrap; line-height: 1.5; max-width: 143px; text-align: start;"><span class="nodeLabel"><p>jsonb</p></span></div></foreignObject></g><g class="label attribute-name" transform="translate(-96.0703125, 94.875)" style=""><foreignObject width="77.546875" height="24"><div xmlns="http://www.w3.org/1999/xhtml" style="display: table-cell; white-space: nowrap; line-height: 1.5; max-width: 178px; text-align: start;"><span class="nodeLabel"><p>metadata</p></span></div></foreignObject></g><g class="label attribute-keys" transform="translate(58.4453125, 94.875)" style=""><foreignObject width="0" height="0"><div xmlns="http://www.w3.org/1999/xhtml" style="display: table-cell; white-space: nowrap; line-height: 1.5; max-width: 100px; text-align: start;"><span class="nodeLabel"></span></div></foreignObject></g><g class="label attribute-comment" transform="translate(103.5859375, 94.875)" style=""><foreignObject width="63.421875" height="24"><div xmlns="http://www.w3.org/1999/xhtml" style="display: table-cell; white-space: nowrap; line-height: 1.5; max-width: 162px; text-align: start;"><span class="nodeLabel"><p>nullable</p></span></div></foreignObject></g><g class="divider"><path d="M-179.5078125 -85.50005 L-179.5078125 -85.49995 L179.5078125 -85.49995 L179.5078125 -85.50005" stroke="none" stroke-width="0" fill="#ffead5" fill-rule="evenodd"/><path d="M-179.5078125 -85.50005 C-179.5078125 -85.50002261179785, -179.5078125 -85.49999522359569, -179.5078125 -85.49995 M-179.5078125 -85.50005 C-179.5078125 -85.50001708767361, -179.5078125 -85.49998417534721, -179.5078125 -85.49995 M-179.5078125 -85.49995 C-47.6447049672401 -85.49995, 84.2184025655198 -85.49995, 179.5078125 -85.49995 M-179.5078125 -85.49995 C-91.95759698209095 -85.49995, -4.407381464181896 -85.49995, 179.5078125 -85.49995 M179.5078125 -85.49995 C179.5078125 -85.49998538922817, 179.5078125 -85.50002077845635, 179.5078125 -85.50005 M179.5078125 -85.49995 C179.5078125 -85.49998132520405, 179.5078125 -85.5000126504081, 179.5078125 -85.50005 M179.5078125 -85.50005 C81.43970846760152 -85.50005, -16.62839556479696 -85.50005, -179.5078125 -85.50005 M179.5078125 -85.50005 C65.62578382435326 -85.50005, -48.256244851293474 -85.50005, -179.5078125 -85.50005" stroke="#fbb176" stroke-width="1.3" fill="none" stroke-dasharray="0 0"/></g><g class="divider"><path d="M-108.5703625 -85.5 L-108.5702625 -85.5 L-108.5702625 128.25 L-108.5703625 128.25" stroke="none" stroke-width="0" fill="#ffead5" fill-rule="evenodd"/><path d="M-108.5703625 -85.5 C-108.57033005460606 -85.5, -108.5702976092121 -85.5, -108.5702625 -85.5 M-108.5703625 -85.5 C-108.57033218130495 -85.5, -108.5703018626099 -85.5, -108.5702625 -85.5 M-108.5702625 -85.5 C-108.5702625 -31.332075392943025, -108.5702625 22.83584921411395, -108.5702625 128.25 M-108.5702625 -85.5 C-108.5702625 -39.64014073257242, -108.5702625 6.219718534855161, -108.5702625 128.25 M-108.5702625 128.25 C-108.57029234686452 128.25, -108.57032219372904 128.25, -108.5703625 128.25 M-108.5702625 128.25 C-108.57030199619794 128.25, -108.57034149239588 128.25, -108.5703625 128.25 M-108.5703625 128.25 C-108.5703625 75.9251098523894, -108.5703625 23.60021970477878, -108.5703625 -85.5 M-108.5703625 128.25 C-108.5703625 73.60083964612878, -108.5703625 18.951679292257538, -108.5703625 -85.5" stroke="#fbb176" stroke-width="1.3" fill="none" stroke-dasharray="0 0"/></g><g class="divider"><path d="M45.9452625 -85.5 L45.9453625 -85.5 L45.9453625 128.25 L45.9452625 128.25" stroke="none" stroke-width="0" fill="#ffead5" fill-rule="evenodd"/><path d="M45.9452625 -85.5 C45.94528784372658 -85.5, 45.945313187453166 -85.5, 45.9453625 -85.5 M45.9452625 -85.5 C45.94529276540235 -85.5, 45.945323030804694 -85.5, 45.9453625 -85.5 M45.9453625 -85.5 C45.9453625 -32.43643735280014, 45.9453625 20.62712529439972, 45.9453625 128.25 M45.9453625 -85.5 C45.9453625 -42.22157067895469, 45.9453625 1.0568586420906172, 45.9453625 128.25 M45.9453625 128.25 C45.9453384665374 128.25, 45.9453144330748 128.25, 45.9452625 128.25 M45.9453625 128.25 C45.94533355990932 128.25, 45.94530461981865 128.25, 45.9452625 128.25 M45.9452625 128.25 C45.9452625 45.33602128866711, 45.9452625 -37.577957422665776, 45.9452625 -85.5 M45.9452625 128.25 C45.9452625 64.60171982458188, 45.9452625 0.9534396491637551, 45.9452625 -85.5" stroke="#fbb176" stroke-width="1.3" fill="none" stroke-dasharray="0 0"/></g><g class="divider"><path d="M91.0858875 -85.5 L91.0859875 -85.5 L91.0859875 128.25 L91.0858875 128.25" stroke="none" stroke-width="0" fill="#ffead5" fill-rule="evenodd"/><path d="M91.0858875 -85.5 C91.08591888872338 -85.5, 91.08595027744677 -85.5, 91.0859875 -85.5 M91.0858875 -85.5 C91.08592211306 -85.5, 91.08595672611999 -85.5, 91.0859875 -85.5 M91.0859875 -85.5 C91.0859875 -19.297046690974298, 91.0859875 46.905906618051404, 91.0859875 128.25 M91.0859875 -85.5 C91.0859875 -25.990389748567033, 91.0859875 33.519220502865934, 91.0859875 128.25 M91.0859875 128.25 C91.08595677143285 128.25, 91.0859260428657 128.25, 91.0858875 128.25 M91.0859875 128.25 C91.08596623504806 128.25, 91.08594497009614 128.25, 91.0858875 128.25 M91.0858875 128.25 C91.0858875 51.52304869368764, 91.0858875 -25.203902612624717, 91.0858875 -85.5 M91.0858875 128.25 C91.0858875 73.44779706416776, 91.0858875 18.64559412833553, 91.0858875 -85.5" stroke="#fbb176" stroke-width="1.3" fill="none" stroke-dasharray="0 0"/></g><g class="divider"><path d="M-179.5078125 -85.50005 L-179.5078125 -85.49995 L179.5078125 -85.49995 L179.5078125 -85.50005" stroke="none" stroke-width="0" fill="#ffead5" fill-rule="evenodd"/><path d="M-179.5078125 -85.50005 C-179.5078125 -85.50001723995517, -179.5078125 -85.49998447991034, -179.5078125 -85.49995 M-179.5078125 -85.50005 C-179.5078125 -85.500019872015, -179.5078125 -85.49998974403, -179.5078125 -85.49995 M-179.5078125 -85.49995 C-56.18372433382348 -85.49995, 67.14036383235305 -85.49995, 179.5078125 -85.49995 M-179.5078125 -85.49995 C-49.39173114087586 -85.49995, 80.72435021824828 -85.49995, 179.5078125 -85.49995 M179.5078125 -85.49995 C179.5078125 -85.49997566141577, 179.5078125 -85.50000132283155, 179.5078125 -85.50005 M179.5078125 -85.49995 C179.5078125 -85.49998809441661, 179.5078125 -85.5000261888332, 179.5078125 -85.50005 M179.5078125 -85.50005 C66.91915464300025 -85.50005, -45.66950321399949 -85.50005, -179.5078125 -85.50005 M179.5078125 -85.50005 C70.94686888374082 -85.50005, -37.61407473251836 -85.50005, -179.5078125 -85.50005" stroke="#fbb176" stroke-width="1.3" fill="none" stroke-dasharray="0 0"/></g></g><g class="node default" id="my-svg-entity-Entity_Identity_MAP-3" data-look="classic" transform="translate(111.21875, 931.25)"><rect class="basic label-container" style="" x="-99.21875" y="-42" width="198.4375" height="84"/><a href="/vicflora-docs/resources/entity-identity-map" target="_top"><g class="label" style="" transform="translate(-79.21875, -12)"><rect/><foreignObject width="158.4375" height="24"><div xmlns="http://www.w3.org/1999/xhtml" style="display: table-cell; white-space: nowrap; line-height: 1.5; max-width: 200px; text-align: center;"><span class="nodeLabel markdown-node-label"><p style="color: #e74b0f; font-weight: bold;">Entity_Identity_MAP</p></span></div></foreignObject></g></a></g><g class="node default" id="my-svg-entity-ExternalIdentity-4" data-look="classic" transform="translate(111.21875, 1116.25)"><rect class="basic label-container" style="" x="-83.8515625" y="-42" width="167.703125" height="84"/><a href="/vicflora-docs/resources/external-identity" target="_top"><g class="label" style="" transform="translate(-63.8515625, -12)"><rect/><foreignObject width="127.703125" height="24"><div xmlns="http://www.w3.org/1999/xhtml" style="display: table-cell; white-space: nowrap; line-height: 1.5; max-width: 200px; text-align: center;"><span class="nodeLabel markdown-node-label"><p style="color: #e74b0f; font-weight: bold;">ExternalIdentity</p></span></div></foreignObject></g></a></g><g class="node default" id="my-svg-entity-Entity_Source_MAP-5" data-look="classic" transform="translate(346.46875, 931.25)"><rect class="basic label-container" style="" x="-96.03125" y="-42" width="192.0625" height="84"/><a href="/vicflora-docs/resources/entity-source-map" target="_top"><g class="label" style="" transform="translate(-76.03125, -12)"><rect/><foreignObject width="152.0625" height="24"><div xmlns="http://www.w3.org/1999/xhtml" style="display: table-cell; white-space: nowrap; line-height: 1.5; max-width: 200px; text-align: center;"><span class="nodeLabel markdown-node-label"><p style="color: #e74b0f; font-weight: bold;">Entity_Source_MAP</p></span></div></foreignObject></g></a></g><g class="node default" id="my-svg-entity-Reference-6" data-look="classic" transform="translate(346.46875, 1116.25)"><rect class="basic label-container" style="" x="-60.2890625" y="-42" width="120.578125" height="84"/><a href="/vicflora-docs/resources/reference" target="_top"><g class="label" style="" transform="translate(-40.2890625, -12)"><rect/><foreignObject width="80.578125" height="24"><div xmlns="http://www.w3.org/1999/xhtml" style="display: table-cell; white-space: nowrap; line-height: 1.5; max-width: 200px; text-align: center;"><span class="nodeLabel markdown-node-label"><p style="color: #e74b0f; font-weight: bold;">Reference</p></span></div></foreignObject></g></a></g><g class="node default" id="my-svg-entity-Entity_Image_MAP-7" data-look="classic" transform="translate(576.109375, 931.25)"><rect class="basic label-container" style="" x="-93.609375" y="-42" width="187.21875" height="84"/><a href="/vicflora-docs/resources/entity-image-map" target="_top"><g class="label" style="" transform="translate(-73.609375, -12)"><rect/><foreignObject width="147.21875" height="24"><div xmlns="http://www.w3.org/1999/xhtml" style="display: table-cell; white-space: nowrap; line-height: 1.5; max-width: 200px; text-align: center;"><span class="nodeLabel markdown-node-label"><p style="color: #e74b0f; font-weight: bold;">Entity_Image_MAP</p></span></div></foreignObject></g></a></g><g class="node default" id="my-svg-entity-Image-8" data-look="classic" transform="translate(576.109375, 1116.25)"><rect class="basic label-container" style="" x="-50" y="-42" width="100" height="84"/><a href="/vicflora-docs/resources/image" target="_top"><g class="label" style="" transform="translate(-25.0546875, -12)"><rect/><foreignObject width="50.109375" height="24"><div xmlns="http://www.w3.org/1999/xhtml" style="display: table-cell; white-space: nowrap; line-height: 1.5; max-width: 100px; text-align: center;"><span class="nodeLabel markdown-node-label"><p style="color: #e74b0f; font-weight: bold;">Image</p></span></div></foreignObject></g></a></g></g><g class="edgeLabels"><g class="edgeLabel" transform="translate(200.58984375, 146.5)"><g class="label" data-id="id_entity-Profile-0_entity-Profile_Specimen_MAP-1_0" transform="translate(-22.1171875, -10.5)"><foreignObject width="44.234375" height="21"><div xmlns="http://www.w3.org/1999/xhtml" class="labelBkg" style="display: table-cell; white-space: nowrap; line-height: 1.5; max-width: 200px; text-align: center;"><span class="edgeLabel"><p>profile</p></span></div></foreignObject></g></g><g class="edgeLabel" transform="translate(200.73046875, 461.25)"><g class="label" data-id="id_entity-Profile_Specimen_MAP-1_entity-Specimen-2_1" transform="translate(-33.7578125, -10.5)"><foreignObject width="67.515625" height="21"><div xmlns="http://www.w3.org/1999/xhtml" class="labelBkg" style="display: table-cell; white-space: nowrap; line-height: 1.5; max-width: 200px; text-align: center;"><span class="edgeLabel"><p>specimen</p></span></div></foreignObject></g></g><g class="edgeLabel" transform="translate(111.203125, 838.75)"><g class="label" data-id="id_entity-Specimen-2_entity-Entity_Identity_MAP-3_2" transform="translate(-69.984375, -10.5)"><foreignObject width="139.96875" height="21"><div xmlns="http://www.w3.org/1999/xhtml" class="labelBkg" style="display: table-cell; white-space: nowrap; line-height: 1.5; max-width: 200px; text-align: center;"><span class="edgeLabel"><p>morphs as 'linkable'</p></span></div></foreignObject></g></g><g class="edgeLabel" transform="translate(110.8515625, 1023.75)"><g class="label" data-id="id_entity-Entity_Identity_MAP-3_entity-ExternalIdentity-4_3" transform="translate(-55.6328125, -10.5)"><foreignObject width="111.265625" height="21"><div xmlns="http://www.w3.org/1999/xhtml" class="labelBkg" style="display: table-cell; white-space: nowrap; line-height: 1.5; max-width: 200px; text-align: center;"><span class="edgeLabel"><p>externalIdentity</p></span></div></foreignObject></g></g><g class="edgeLabel" transform="translate(346.46875, 838.75)"><g class="label" data-id="id_entity-Specimen-2_entity-Entity_Source_MAP-5_4" transform="translate(-100, -10.5)"><foreignObject width="200" height="21"><div xmlns="http://www.w3.org/1999/xhtml" class="labelBkg" style="display: table; white-space: break-spaces; line-height: 1.5; max-width: 200px; text-align: center; width: 200px;"><span class="edgeLabel"><p>morphs as 'provenanceable'</p></span></div></foreignObject></g></g><g class="edgeLabel" transform="translate(346.3984375, 1023.75)"><g class="label" data-id="id_entity-Entity_Source_MAP-5_entity-Reference-6_5" transform="translate(-33.4296875, -10.5)"><foreignObject width="66.859375" height="21"><div xmlns="http://www.w3.org/1999/xhtml" class="labelBkg" style="display: table-cell; white-space: nowrap; line-height: 1.5; max-width: 200px; text-align: center;"><span class="edgeLabel"><p>reference</p></span></div></foreignObject></g></g><g class="edgeLabel" transform="translate(576.0703125, 838.75)"><g class="label" data-id="id_entity-Specimen-2_entity-Entity_Image_MAP-7_6" transform="translate(-79.4609375, -10.5)"><foreignObject width="158.921875" height="21"><div xmlns="http://www.w3.org/1999/xhtml" class="labelBkg" style="display: table-cell; white-space: nowrap; line-height: 1.5; max-width: 200px; text-align: center;"><span class="edgeLabel"><p>morphs as 'depictable'</p></span></div></foreignObject></g></g><g class="edgeLabel" transform="translate(575.9140625, 1023.75)"><g class="label" data-id="id_entity-Entity_Image_MAP-7_entity-Image-8_7" transform="translate(-21.8046875, -10.5)"><foreignObject width="43.609375" height="21"><div xmlns="http://www.w3.org/1999/xhtml" class="labelBkg" style="display: table-cell; white-space: nowrap; line-height: 1.5; max-width: 200px; text-align: center;"><span class="edgeLabel"><p>image</p></span></div></foreignObject></g></g></g></svg>