<svg id="my-svg" width="100%" xmlns="http://www.w3.org/2000/svg" xmlns:xlink="http://www.w3.org/1999/xlink" class="erDiagram" style="max-width: 445.188px; background-color: white;" viewBox="4 4 445.1875 793.5" role="graphics-document document" aria-roledescription="er"><g class="edges edgePaths"><path d="M226.594,96L226.594,187" id="my-svg-id_entity-TraitDataset-0_entity-TraitRule-1_0_0" class="edge-thickness-normal edge-pattern-solid relationshipLine" style="undefined;;;undefined" data-edge="true" data-et="edge" data-id="id_entity-TraitDataset-0_entity-TraitRule-1_0_0" data-points="W3sieCI6MjI2LjU5Mzc1LCJ5Ijo5Nn0seyJ4IjoyMjYuNTkzNzUsInkiOjE4N31d" data-look="classic" marker-start="url(#my-svg_er-zeroOrOneStart)" marker-end="url(#my-svg_er-zeroOrMoreEnd)"/><path d="M226.594,614.5L226.594,625.917C226.594,637.333,226.594,660.167,226.232,672.055C225.87,683.943,225.146,684.886,224.313,685.719C223.479,686.552,222.537,687.276,211.405,687.638C200.273,688,178.951,688,167.819,688.362C156.687,688.724,155.745,689.448,154.911,690.281C154.078,691.114,153.354,692.057,152.992,694.612C152.63,697.167,152.63,701.333,152.63,703.417L152.63,705.5" id="my-svg-id_entity-TraitRule-1_entity-Trait-2_1_0" class="edge-thickness-normal edge-pattern-solid relationshipLine" style="undefined;;;undefined" data-edge="true" data-et="edge" data-id="id_entity-TraitRule-1_entity-Trait-2_1_0" data-points="W3sieCI6MjI2LjU5Mzc1LCJ5Ijo2MTQuNX0seyJ4IjoyMjYuNTkzNzUsInkiOjY4OH0seyJ4IjoxNTIuNjMwMjA4MzMzMzMzMzEsInkiOjY4OH0seyJ4IjoxNTIuNjMwMjA4MzMzMzMzMzEsInkiOjcwNS41fV0=" data-look="classic" marker-start="url(#my-svg_er-zeroOrMoreStart)" marker-end="url(#my-svg_er-onlyOneEnd)"/><path d="M119.297,614.5L119.297,705.5" id="my-svg-id_entity-TraitRule-1_entity-Trait-2_2_0" class="edge-thickness-normal edge-pattern-solid relationshipLine" style="undefined;;;undefined" data-edge="true" data-et="edge" data-id="id_entity-TraitRule-1_entity-Trait-2_2_0" data-points="W3sieCI6MTE5LjI5Njg3NSwieSI6NjE0LjV9LHsieCI6MTE5LjI5Njg3NSwieSI6NzA1LjV9XQ==" data-look="classic" marker-start="url(#my-svg_er-zeroOrMoreStart)" marker-end="url(#my-svg_er-onlyOneEnd)"/><path d="M333.891,614.5L333.891,705.5" id="my-svg-id_entity-TraitRule-1_entity-TraitState-3_3_0" class="edge-thickness-normal edge-pattern-solid relationshipLine" style="undefined;;;undefined" data-edge="true" data-et="edge" data-id="id_entity-TraitRule-1_entity-TraitState-3_3_0" data-points="W3sieCI6MzMzLjg5MDYyNSwieSI6NjE0LjV9LHsieCI6MzMzLjg5MDYyNSwieSI6NzA1LjV9XQ==" data-look="classic" marker-start="url(#my-svg_er-zeroOrMoreStart)" marker-end="url(#my-svg_er-onlyOneEnd)"/></g><style>#my-svg{font-family:"trebuchet ms",verdana,arial,sans-serif;font-size:16px;fill:#333;}@keyframes edge-animation-frame{from{stroke-dashoffset:0;}}@keyframes dash{to{stroke-dashoffset:0;}}#my-svg .edge-animation-slow{stroke-dasharray:9,5!important;stroke-dashoffset:900;animation:dash 50s linear infinite;stroke-linecap:round;}#my-svg .edge-animation-fast{stroke-dasharray:9,5!important;stroke-dashoffset:900;animation:dash 20s linear infinite;stroke-linecap:round;}#my-svg .error-icon{fill:#552222;}#my-svg .error-text{fill:#552222;stroke:#552222;}#my-svg .edge-thickness-normal{stroke-width:1px;}#my-svg .edge-thickness-thick{stroke-width:3.5px;}#my-svg .edge-pattern-solid{stroke-dasharray:0;}#my-svg .edge-thickness-invisible{stroke-width:0;fill:none;}#my-svg .edge-pattern-dashed{stroke-dasharray:3;}#my-svg .edge-pattern-dotted{stroke-dasharray:2;}#my-svg .marker{fill:#333333;stroke:#333333;}#my-svg .marker.cross{stroke:#333333;}#my-svg svg{font-family:"trebuchet ms",verdana,arial,sans-serif;font-size:16px;}#my-svg p{margin:0;}#my-svg .entityBox{fill:#ECECFF;stroke:#9370DB;}#my-svg .relationshipLabelBox{fill:hsl(80, 100%, 96.2745098039%);opacity:0.7;background-color:hsl(80, 100%, 96.2745098039%);}#my-svg .relationshipLabelBox rect{opacity:0.5;}#my-svg .labelBkg{background-color:rgba(248.6666666666, 255, 235.9999999999, 0.5);}#my-svg .edgeLabel{background-color:rgba(232,232,232, 0.8);}#my-svg .edgeLabel .label rect{fill:rgba(232,232,232, 0.8);}#my-svg .edgeLabel .label text{fill:#333;}#my-svg .edgeLabel .label{fill:#9370DB;font-size:14px;}#my-svg .label{font-family:"trebuchet ms",verdana,arial,sans-serif;color:#333;}#my-svg .edge-pattern-dashed{stroke-dasharray:8,8;}#my-svg .node rect,#my-svg .node circle,#my-svg .node ellipse,#my-svg .node polygon{fill:#ECECFF;stroke:#9370DB;stroke-width:1px;}#my-svg .relationshipLine{stroke:#333333;stroke-width:1px;fill:none;}#my-svg .marker{fill:none!important;stroke:#333333!important;stroke-width:1;}#my-svg [data-look=neo].labelBkg{background-color:rgba(248.6666666666, 255, 235.9999999999, 0.5);}#my-svg .node .neo-node{stroke:#9370DB;}#my-svg [data-look="neo"].node rect,#my-svg [data-look="neo"].cluster rect,#my-svg [data-look="neo"].node polygon{stroke:#9370DB;filter:drop-shadow(1px 2px 2px rgba(185, 185, 185, 1));}#my-svg [data-look="neo"].node path{stroke:#9370DB;stroke-width:1px;}#my-svg [data-look="neo"].node .outer-path{filter:drop-shadow(1px 2px 2px rgba(185, 185, 185, 1));}#my-svg [data-look="neo"].node .neo-line path{stroke:#9370DB;filter:none;}#my-svg [data-look="neo"].node circle{stroke:#9370DB;filter:drop-shadow(1px 2px 2px rgba(185, 185, 185, 1));}#my-svg [data-look="neo"].node circle .state-start{fill:#000000;}#my-svg [data-look="neo"].icon-shape .icon{fill:#9370DB;filter:drop-shadow(1px 2px 2px rgba(185, 185, 185, 1));}#my-svg [data-look="neo"].icon-shape .icon-neo path{stroke:#9370DB;filter:drop-shadow(1px 2px 2px rgba(185, 185, 185, 1));}#my-svg :root{--mermaid-font-family:"trebuchet ms",verdana,arial,sans-serif;}</style><g><defs><marker id="my-svg_er-onlyOneStart" class="marker onlyOne er" refX="0" refY="9" markerWidth="18" markerHeight="18" orient="auto"><path d="M9,0 L9,18 M15,0 L15,18"/></marker></defs><defs><marker id="my-svg_er-onlyOneEnd" class="marker onlyOne er" refX="18" refY="9" markerWidth="18" markerHeight="18" orient="auto"><path d="M3,0 L3,18 M9,0 L9,18"/></marker></defs><defs><marker id="my-svg_er-zeroOrOneStart" class="marker zeroOrOne er" refX="0" refY="9" markerWidth="30" markerHeight="18" orient="auto"><circle fill="white" cx="21" cy="9" r="6"/><path d="M9,0 L9,18"/></marker></defs><defs><marker id="my-svg_er-zeroOrOneEnd" class="marker zeroOrOne er" refX="30" refY="9" markerWidth="30" markerHeight="18" orient="auto"><circle fill="white" cx="9" cy="9" r="6"/><path d="M21,0 L21,18"/></marker></defs><defs><marker id="my-svg_er-oneOrMoreStart" class="marker oneOrMore er" refX="18" refY="18" markerWidth="45" markerHeight="36" orient="auto"><path d="M0,18 Q 18,0 36,18 Q 18,36 0,18 M42,9 L42,27"/></marker></defs><defs><marker id="my-svg_er-oneOrMoreEnd" class="marker oneOrMore er" refX="27" refY="18" markerWidth="45" markerHeight="36" orient="auto"><path d="M3,9 L3,27 M9,18 Q27,0 45,18 Q27,36 9,18"/></marker></defs><defs><marker id="my-svg_er-zeroOrMoreStart" class="marker zeroOrMore er" refX="18" refY="18" markerWidth="57" markerHeight="36" orient="auto"><circle fill="white" cx="48" cy="18" r="6"/><path d="M0,18 Q18,0 36,18 Q18,36 0,18"/></marker></defs><defs><marker id="my-svg_er-zeroOrMoreEnd" class="marker zeroOrMore er" refX="39" refY="18" markerWidth="57" markerHeight="36" orient="auto"><circle fill="white" cx="9" cy="18" r="6"/><path d="M21,18 Q39,0 57,18 Q39,36 21,18"/></marker></defs></g><defs><filter id="my-svg-drop-shadow" height="130%" width="130%"><feDropShadow dx="4" dy="4" stdDeviation="0" flood-opacity="0.06" flood-color="#000000"/></filter></defs><defs><filter id="my-svg-drop-shadow-small" height="150%" width="150%"><feDropShadow dx="2" dy="2" stdDeviation="0" flood-opacity="0.06" flood-color="#000000"/></filter></defs><g class="subgraphs"/><g class="nodes"><g class="node default" id="my-svg-entity-TraitDataset-0" data-look="classic" transform="translate(226.59375, 54)"><rect class="basic label-container" style="" x="-68.59375" y="-42" width="137.1875" height="84"/><g class="label" style="" transform="translate(-48.59375, -12)"><rect/><foreignObject width="97.1875" height="24"><div xmlns="http://www.w3.org/1999/xhtml" style="display: table-cell; white-space: nowrap; line-height: 1.5; max-width: 200px; text-align: center;"><span class="nodeLabel markdown-node-label"><p>TraitDataset</p></span></div></foreignObject></g></g><g class="node default" id="my-svg-entity-TraitRule-1" data-look="classic" transform="translate(226.59375, 400.75)"><g class="outer-path" style=""><path d="M-214.59375 -213.75 L214.59375 -213.75 L214.59375 213.75 L-214.59375 213.75" stroke="none" stroke-width="0" fill="#ECECFF"/><path d="M-214.59375 -213.75 C-67.17793266303067 -213.75, 80.23788467393865 -213.75, 214.59375 -213.75 M-214.59375 -213.75 C-125.04693250231739 -213.75, -35.50011500463478 -213.75, 214.59375 -213.75 M214.59375 -213.75 C214.59375 -76.87261275876864, 214.59375 60.00477448246272, 214.59375 213.75 M214.59375 -213.75 C214.59375 -118.53836246748668, 214.59375 -23.326724934973356, 214.59375 213.75 M214.59375 213.75 C104.7182833860842 213.75, -5.157183227831609 213.75, -214.59375 213.75 M214.59375 213.75 C106.22992888846186 213.75, -2.1338922230762876 213.75, -214.59375 213.75 M-214.59375 213.75 C-214.59375 111.97851454215748, -214.59375 10.207029084314968, -214.59375 -213.75 M-214.59375 213.75 C-214.59375 104.41807276120481, -214.59375 -4.913854477590377, -214.59375 -213.75" stroke="#9370DB" stroke-width="1.3" fill="none" stroke-dasharray="0 0"/></g><g style="" class="row-rect-odd"><path d="M-214.59375 -171 L214.59375 -171 L214.59375 -128.25 L-214.59375 -128.25" stroke="none" stroke-width="0" fill="hsl(240, 100%, 100%)"/><path d="M-214.59375 -171 C-56.7947376065942 -171, 101.0042747868116 -171, 214.59375 -171 M-214.59375 -171 C-127.17169969596232 -171, -39.749649391924635 -171, 214.59375 -171 M214.59375 -171 C214.59375 -155.54413188170233, 214.59375 -140.08826376340468, 214.59375 -128.25 M214.59375 -171 C214.59375 -158.71958390815715, 214.59375 -146.4391678163143, 214.59375 -128.25 M214.59375 -128.25 C45.591915819707424 -128.25, -123.40991836058515 -128.25, -214.59375 -128.25 M214.59375 -128.25 C46.83562088241055 -128.25, -120.9225082351789 -128.25, -214.59375 -128.25 M-214.59375 -128.25 C-214.59375 -139.30555630888117, -214.59375 -150.36111261776233, -214.59375 -171 M-214.59375 -128.25 C-214.59375 -145.1869743745312, -214.59375 -162.1239487490624, -214.59375 -171" stroke="#9370DB" stroke-width="1.3" fill="none" stroke-dasharray="0 0"/></g><g style="" class="row-rect-even"><path d="M-214.59375 -128.25 L214.59375 -128.25 L214.59375 -85.5 L-214.59375 -85.5" stroke="none" stroke-width="0" fill="hsl(240, 100%, 97.2745098039%)"/><path d="M-214.59375 -128.25 C-104.52989879826463 -128.25, 5.5339524034707495 -128.25, 214.59375 -128.25 M-214.59375 -128.25 C-45.72702128852319 -128.25, 123.13970742295362 -128.25, 214.59375 -128.25 M214.59375 -128.25 C214.59375 -117.1658360870209, 214.59375 -106.08167217404181, 214.59375 -85.5 M214.59375 -128.25 C214.59375 -117.66491983593562, 214.59375 -107.07983967187123, 214.59375 -85.5 M214.59375 -85.5 C55.209779897580205 -85.5, -104.17419020483959 -85.5, -214.59375 -85.5 M214.59375 -85.5 C45.99238005155374 -85.5, -122.60898989689252 -85.5, -214.59375 -85.5 M-214.59375 -85.5 C-214.59375 -101.73070033399677, -214.59375 -117.96140066799353, -214.59375 -128.25 M-214.59375 -85.5 C-214.59375 -94.1854009251597, -214.59375 -102.8708018503194, -214.59375 -128.25" stroke="#9370DB" stroke-width="1.3" fill="none" stroke-dasharray="0 0"/></g><g style="" class="row-rect-odd"><path d="M-214.59375 -85.5 L214.59375 -85.5 L214.59375 -42.75 L-214.59375 -42.75" stroke="none" stroke-width="0" fill="hsl(240, 100%, 100%)"/><path d="M-214.59375 -85.5 C-49.754367146665004 -85.5, 115.08501570666999 -85.5, 214.59375 -85.5 M-214.59375 -85.5 C-87.00315697341337 -85.5, 40.58743605317326 -85.5, 214.59375 -85.5 M214.59375 -85.5 C214.59375 -76.21830668084837, 214.59375 -66.93661336169676, 214.59375 -42.75 M214.59375 -85.5 C214.59375 -69.24515104023631, 214.59375 -52.99030208047262, 214.59375 -42.75 M214.59375 -42.75 C50.728866784644794 -42.75, -113.13601643071041 -42.75, -214.59375 -42.75 M214.59375 -42.75 C62.17834124022187 -42.75, -90.23706751955626 -42.75, -214.59375 -42.75 M-214.59375 -42.75 C-214.59375 -55.51960557810331, -214.59375 -68.28921115620662, -214.59375 -85.5 M-214.59375 -42.75 C-214.59375 -55.949327004031765, -214.59375 -69.14865400806353, -214.59375 -85.5" stroke="#9370DB" stroke-width="1.3" fill="none" stroke-dasharray="0 0"/></g><g style="" class="row-rect-even"><path d="M-214.59375 -42.75 L214.59375 -42.75 L214.59375 0 L-214.59375 0" stroke="none" stroke-width="0" fill="hsl(240, 100%, 97.2745098039%)"/><path d="M-214.59375 -42.75 C-109.68397142868984 -42.75, -4.774192857379688 -42.75, 214.59375 -42.75 M-214.59375 -42.75 C-106.87326965002855 -42.75, 0.8472106999429059 -42.75, 214.59375 -42.75 M214.59375 -42.75 C214.59375 -26.224165137610356, 214.59375 -9.698330275220712, 214.59375 0 M214.59375 -42.75 C214.59375 -33.76864004332951, 214.59375 -24.787280086659027, 214.59375 0 M214.59375 0 C108.54017061375968 0, 2.4865912275193693 0, -214.59375 0 M214.59375 0 C100.18757529260024 0, -14.218599414799513 0, -214.59375 0 M-214.59375 0 C-214.59375 -13.60562092405242, -214.59375 -27.21124184810484, -214.59375 -42.75 M-214.59375 0 C-214.59375 -10.540948131694002, -214.59375 -21.081896263388003, -214.59375 -42.75" stroke="#9370DB" stroke-width="1.3" fill="none" stroke-dasharray="0 0"/></g><g style="" class="row-rect-odd"><path d="M-214.59375 0 L214.59375 0 L214.59375 42.75 L-214.59375 42.75" stroke="none" stroke-width="0" fill="hsl(240, 100%, 100%)"/><path d="M-214.59375 0 C-53.190485590901744 0, 108.21277881819651 0, 214.59375 0 M-214.59375 0 C-45.9623536792235 0, 122.669042641553 0, 214.59375 0 M214.59375 0 C214.59375 13.461486125898045, 214.59375 26.92297225179609, 214.59375 42.75 M214.59375 0 C214.59375 13.221391389797963, 214.59375 26.442782779595927, 214.59375 42.75 M214.59375 42.75 C101.19615187910674 42.75, -12.201446241786527 42.75, -214.59375 42.75 M214.59375 42.75 C107.31550097073803 42.75, 0.03725194147605748 42.75, -214.59375 42.75 M-214.59375 42.75 C-214.59375 32.716054729306904, -214.59375 22.6821094586138, -214.59375 0 M-214.59375 42.75 C-214.59375 30.19716401533882, -214.59375 17.644328030677645, -214.59375 0" stroke="#9370DB" stroke-width="1.3" fill="none" stroke-dasharray="0 0"/></g><g style="" class="row-rect-even"><path d="M-214.59375 42.75 L214.59375 42.75 L214.59375 85.5 L-214.59375 85.5" stroke="none" stroke-width="0" fill="hsl(240, 100%, 97.2745098039%)"/><path d="M-214.59375 42.75 C-65.52396107368327 42.75, 83.54582785263347 42.75, 214.59375 42.75 M-214.59375 42.75 C-78.50802363378713 42.75, 57.577702732425735 42.75, 214.59375 42.75 M214.59375 42.75 C214.59375 58.78530269295186, 214.59375 74.82060538590372, 214.59375 85.5 M214.59375 42.75 C214.59375 52.12854158864397, 214.59375 61.50708317728794, 214.59375 85.5 M214.59375 85.5 C43.35542732240046 85.5, -127.88289535519908 85.5, -214.59375 85.5 M214.59375 85.5 C89.5373129865451 85.5, -35.51912402690979 85.5, -214.59375 85.5 M-214.59375 85.5 C-214.59375 70.1764428170072, -214.59375 54.8528856340144, -214.59375 42.75 M-214.59375 85.5 C-214.59375 75.70872573087013, -214.59375 65.91745146174024, -214.59375 42.75" stroke="#9370DB" stroke-width="1.3" fill="none" stroke-dasharray="0 0"/></g><g style="" class="row-rect-odd"><path d="M-214.59375 85.5 L214.59375 85.5 L214.59375 128.25 L-214.59375 128.25" stroke="none" stroke-width="0" fill="hsl(240, 100%, 100%)"/><path d="M-214.59375 85.5 C-57.50284411887185 85.5, 99.5880617622563 85.5, 214.59375 85.5 M-214.59375 85.5 C-88.87451434004053 85.5, 36.84472131991893 85.5, 214.59375 85.5 M214.59375 85.5 C214.59375 100.72930156846365, 214.59375 115.95860313692731, 214.59375 128.25 M214.59375 85.5 C214.59375 101.53703019929567, 214.59375 117.57406039859134, 214.59375 128.25 M214.59375 128.25 C66.49983346508824 128.25, -81.59408306982351 128.25, -214.59375 128.25 M214.59375 128.25 C64.65213767679117 128.25, -85.28947464641766 128.25, -214.59375 128.25 M-214.59375 128.25 C-214.59375 113.09915973530383, -214.59375 97.94831947060767, -214.59375 85.5 M-214.59375 128.25 C-214.59375 114.199381060352, -214.59375 100.14876212070399, -214.59375 85.5" stroke="#9370DB" stroke-width="1.3" fill="none" stroke-dasharray="0 0"/></g><g style="" class="row-rect-even"><path d="M-214.59375 128.25 L214.59375 128.25 L214.59375 171 L-214.59375 171" stroke="none" stroke-width="0" fill="hsl(240, 100%, 97.2745098039%)"/><path d="M-214.59375 128.25 C-87.35443849676784 128.25, 39.88487300646432 128.25, 214.59375 128.25 M-214.59375 128.25 C-91.16667109608052 128.25, 32.26040780783896 128.25, 214.59375 128.25 M214.59375 128.25 C214.59375 138.98589292599075, 214.59375 149.72178585198148, 214.59375 171 M214.59375 128.25 C214.59375 142.29402973196702, 214.59375 156.33805946393403, 214.59375 171 M214.59375 171 C87.90846166086025 171, -38.77682667827949 171, -214.59375 171 M214.59375 171 C108.75633033560052 171, 2.918910671201047 171, -214.59375 171 M-214.59375 171 C-214.59375 158.04626968103895, -214.59375 145.09253936207787, -214.59375 128.25 M-214.59375 171 C-214.59375 158.8213749145848, -214.59375 146.64274982916956, -214.59375 128.25" stroke="#9370DB" stroke-width="1.3" fill="none" stroke-dasharray="0 0"/></g><g style="" class="row-rect-odd"><path d="M-214.59375 171 L214.59375 171 L214.59375 213.75 L-214.59375 213.75" stroke="none" stroke-width="0" fill="hsl(240, 100%, 100%)"/><path d="M-214.59375 171 C-105.02472588665574 171, 4.544298226688511 171, 214.59375 171 M-214.59375 171 C-82.89339973652858 171, 48.80695052694284 171, 214.59375 171 M214.59375 171 C214.59375 184.3805232821555, 214.59375 197.76104656431102, 214.59375 213.75 M214.59375 171 C214.59375 187.15023813832767, 214.59375 203.30047627665533, 214.59375 213.75 M214.59375 213.75 C105.38586957583581 213.75, -3.8220108483283752 213.75, -214.59375 213.75 M214.59375 213.75 C111.53078364846387 213.75, 8.467817296927734 213.75, -214.59375 213.75 M-214.59375 213.75 C-214.59375 204.92982949238956, -214.59375 196.10965898477912, -214.59375 171 M-214.59375 213.75 C-214.59375 198.35297733144378, -214.59375 182.95595466288754, -214.59375 171" stroke="#9370DB" stroke-width="1.3" fill="none" stroke-dasharray="0 0"/></g><g class="label name" transform="translate(-34.6796875, -204.375)" style=""><foreignObject width="69.359375" height="24"><div xmlns="http://www.w3.org/1999/xhtml" style="display: table-cell; white-space: nowrap; line-height: 1.5; max-width: 170px; text-align: start;"><span class="nodeLabel"><p>TraitRule</p></span></div></foreignObject></g><g class="label attribute-type" transform="translate(-202.09375, -161.625)" style=""><foreignObject width="20.859375" height="24"><div xmlns="http://www.w3.org/1999/xhtml" style="display: table-cell; white-space: nowrap; line-height: 1.5; max-width: 120px; text-align: start;"><span class="nodeLabel"><p>int</p></span></div></foreignObject></g><g class="label attribute-name" transform="translate(-131.15625, -161.625)" style=""><foreignObject width="14.609375" height="24"><div xmlns="http://www.w3.org/1999/xhtml" style="display: table-cell; white-space: nowrap; line-height: 1.5; max-width: 114px; text-align: start;"><span class="nodeLabel"><p>id</p></span></div></foreignObject></g><g class="label attribute-keys" transform="translate(19.015625, -161.625)" style=""><foreignObject width="20.140625" height="24"><div xmlns="http://www.w3.org/1999/xhtml" style="display: table-cell; white-space: nowrap; line-height: 1.5; max-width: 121px; text-align: start;"><span class="nodeLabel"><p>PK</p></span></div></foreignObject></g><g class="label attribute-comment" transform="translate(64.15625, -161.625)" style=""><foreignObject width="0" height="0"><div xmlns="http://www.w3.org/1999/xhtml" style="display: table-cell; white-space: nowrap; line-height: 1.5; max-width: 100px; text-align: start;"><span class="nodeLabel"></span></div></foreignObject></g><g class="label attribute-type" transform="translate(-202.09375, -118.875)" style=""><foreignObject width="34.890625" height="24"><div xmlns="http://www.w3.org/1999/xhtml" style="display: table-cell; white-space: nowrap; line-height: 1.5; max-width: 134px; text-align: start;"><span class="nodeLabel"><p>uuid</p></span></div></foreignObject></g><g class="label attribute-name" transform="translate(-131.15625, -118.875)" style=""><foreignObject width="34.90625" height="24"><div xmlns="http://www.w3.org/1999/xhtml" style="display: table-cell; white-space: nowrap; line-height: 1.5; max-width: 134px; text-align: start;"><span class="nodeLabel"><p>guid</p></span></div></foreignObject></g><g class="label attribute-keys" transform="translate(19.015625, -118.875)" style=""><foreignObject width="0" height="0"><div xmlns="http://www.w3.org/1999/xhtml" style="display: table-cell; white-space: nowrap; line-height: 1.5; max-width: 100px; text-align: start;"><span class="nodeLabel"></span></div></foreignObject></g><g class="label attribute-comment" transform="translate(64.15625, -118.875)" style=""><foreignObject width="0" height="0"><div xmlns="http://www.w3.org/1999/xhtml" style="display: table-cell; white-space: nowrap; line-height: 1.5; max-width: 100px; text-align: start;"><span class="nodeLabel"></span></div></foreignObject></g><g class="label attribute-type" transform="translate(-202.09375, -76.125)" style=""><foreignObject width="20.859375" height="24"><div xmlns="http://www.w3.org/1999/xhtml" style="display: table-cell; white-space: nowrap; line-height: 1.5; max-width: 120px; text-align: start;"><span class="nodeLabel"><p>int</p></span></div></foreignObject></g><g class="label attribute-name" transform="translate(-131.15625, -76.125)" style=""><foreignObject width="83.09375" height="24"><div xmlns="http://www.w3.org/1999/xhtml" style="display: table-cell; white-space: nowrap; line-height: 1.5; max-width: 183px; text-align: start;"><span class="nodeLabel"><p>dataset_id</p></span></div></foreignObject></g><g class="label attribute-keys" transform="translate(19.015625, -76.125)" style=""><foreignObject width="19.703125" height="24"><div xmlns="http://www.w3.org/1999/xhtml" style="display: table-cell; white-space: nowrap; line-height: 1.5; max-width: 120px; text-align: start;"><span class="nodeLabel"><p>FK</p></span></div></foreignObject></g><g class="label attribute-comment" transform="translate(64.15625, -76.125)" style=""><foreignObject width="63.421875" height="24"><div xmlns="http://www.w3.org/1999/xhtml" style="display: table-cell; white-space: nowrap; line-height: 1.5; max-width: 162px; text-align: start;"><span class="nodeLabel"><p>nullable</p></span></div></foreignObject></g><g class="label attribute-type" transform="translate(-202.09375, -33.375)" style=""><foreignObject width="20.859375" height="24"><div xmlns="http://www.w3.org/1999/xhtml" style="display: table-cell; white-space: nowrap; line-height: 1.5; max-width: 120px; text-align: start;"><span class="nodeLabel"><p>int</p></span></div></foreignObject></g><g class="label attribute-name" transform="translate(-131.15625, -33.375)" style=""><foreignObject width="118.015625" height="24"><div xmlns="http://www.w3.org/1999/xhtml" style="display: table-cell; white-space: nowrap; line-height: 1.5; max-width: 218px; text-align: start;"><span class="nodeLabel"><p>trigger_trait_id</p></span></div></foreignObject></g><g class="label attribute-keys" transform="translate(19.015625, -33.375)" style=""><foreignObject width="19.703125" height="24"><div xmlns="http://www.w3.org/1999/xhtml" style="display: table-cell; white-space: nowrap; line-height: 1.5; max-width: 120px; text-align: start;"><span class="nodeLabel"><p>FK</p></span></div></foreignObject></g><g class="label attribute-comment" transform="translate(64.15625, -33.375)" style=""><foreignObject width="0" height="0"><div xmlns="http://www.w3.org/1999/xhtml" style="display: table-cell; white-space: nowrap; line-height: 1.5; max-width: 100px; text-align: start;"><span class="nodeLabel"></span></div></foreignObject></g><g class="label attribute-type" transform="translate(-202.09375, 9.375)" style=""><foreignObject width="20.859375" height="24"><div xmlns="http://www.w3.org/1999/xhtml" style="display: table-cell; white-space: nowrap; line-height: 1.5; max-width: 120px; text-align: start;"><span class="nodeLabel"><p>int</p></span></div></foreignObject></g><g class="label attribute-name" transform="translate(-131.15625, 9.375)" style=""><foreignObject width="125.171875" height="24"><div xmlns="http://www.w3.org/1999/xhtml" style="display: table-cell; white-space: nowrap; line-height: 1.5; max-width: 225px; text-align: start;"><span class="nodeLabel"><p>trigger_state_id</p></span></div></foreignObject></g><g class="label attribute-keys" transform="translate(19.015625, 9.375)" style=""><foreignObject width="19.703125" height="24"><div xmlns="http://www.w3.org/1999/xhtml" style="display: table-cell; white-space: nowrap; line-height: 1.5; max-width: 120px; text-align: start;"><span class="nodeLabel"><p>FK</p></span></div></foreignObject></g><g class="label attribute-comment" transform="translate(64.15625, 9.375)" style=""><foreignObject width="0" height="0"><div xmlns="http://www.w3.org/1999/xhtml" style="display: table-cell; white-space: nowrap; line-height: 1.5; max-width: 100px; text-align: start;"><span class="nodeLabel"></span></div></foreignObject></g><g class="label attribute-type" transform="translate(-202.09375, 52.125)" style=""><foreignObject width="20.859375" height="24"><div xmlns="http://www.w3.org/1999/xhtml" style="display: table-cell; white-space: nowrap; line-height: 1.5; max-width: 120px; text-align: start;"><span class="nodeLabel"><p>int</p></span></div></foreignObject></g><g class="label attribute-name" transform="translate(-131.15625, 52.125)" style=""><foreignObject width="112.625" height="24"><div xmlns="http://www.w3.org/1999/xhtml" style="display: table-cell; white-space: nowrap; line-height: 1.5; max-width: 213px; text-align: start;"><span class="nodeLabel"><p>target_trait_id</p></span></div></foreignObject></g><g class="label attribute-keys" transform="translate(19.015625, 52.125)" style=""><foreignObject width="19.703125" height="24"><div xmlns="http://www.w3.org/1999/xhtml" style="display: table-cell; white-space: nowrap; line-height: 1.5; max-width: 120px; text-align: start;"><span class="nodeLabel"><p>FK</p></span></div></foreignObject></g><g class="label attribute-comment" transform="translate(64.15625, 52.125)" style=""><foreignObject width="0" height="0"><div xmlns="http://www.w3.org/1999/xhtml" style="display: table-cell; white-space: nowrap; line-height: 1.5; max-width: 100px; text-align: start;"><span class="nodeLabel"></span></div></foreignObject></g><g class="label attribute-type" transform="translate(-202.09375, 94.875)" style=""><foreignObject width="45.9375" height="24"><div xmlns="http://www.w3.org/1999/xhtml" style="display: table-cell; white-space: nowrap; line-height: 1.5; max-width: 145px; text-align: start;"><span class="nodeLabel"><p>string</p></span></div></foreignObject></g><g class="label attribute-name" transform="translate(-131.15625, 94.875)" style=""><foreignObject width="71.859375" height="24"><div xmlns="http://www.w3.org/1999/xhtml" style="display: table-cell; white-space: nowrap; line-height: 1.5; max-width: 172px; text-align: start;"><span class="nodeLabel"><p>action_id</p></span></div></foreignObject></g><g class="label attribute-keys" transform="translate(19.015625, 94.875)" style=""><foreignObject width="19.703125" height="24"><div xmlns="http://www.w3.org/1999/xhtml" style="display: table-cell; white-space: nowrap; line-height: 1.5; max-width: 120px; text-align: start;"><span class="nodeLabel"><p>FK</p></span></div></foreignObject></g><g class="label attribute-comment" transform="translate(64.15625, 94.875)" style=""><foreignObject width="136.859375" height="24"><div xmlns="http://www.w3.org/1999/xhtml" style="display: table-cell; white-space: nowrap; line-height: 1.5; max-width: 236px; text-align: start;"><span class="nodeLabel"><p>ENABLE/DISABLE</p></span></div></foreignObject></g><g class="label attribute-type" transform="translate(-202.09375, 137.625)" style=""><foreignObject width="45.9375" height="24"><div xmlns="http://www.w3.org/1999/xhtml" style="display: table-cell; white-space: nowrap; line-height: 1.5; max-width: 145px; text-align: start;"><span class="nodeLabel"><p>string</p></span></div></foreignObject></g><g class="label attribute-name" transform="translate(-131.15625, 137.625)" style=""><foreignObject width="60.234375" height="24"><div xmlns="http://www.w3.org/1999/xhtml" style="display: table-cell; white-space: nowrap; line-height: 1.5; max-width: 160px; text-align: start;"><span class="nodeLabel"><p>logic_id</p></span></div></foreignObject></g><g class="label attribute-keys" transform="translate(19.015625, 137.625)" style=""><foreignObject width="19.703125" height="24"><div xmlns="http://www.w3.org/1999/xhtml" style="display: table-cell; white-space: nowrap; line-height: 1.5; max-width: 120px; text-align: start;"><span class="nodeLabel"><p>FK</p></span></div></foreignObject></g><g class="label attribute-comment" transform="translate(64.15625, 137.625)" style=""><foreignObject width="137.9375" height="24"><div xmlns="http://www.w3.org/1999/xhtml" style="display: table-cell; white-space: nowrap; line-height: 1.5; max-width: 236px; text-align: start;"><span class="nodeLabel"><p>nullable, AND/OR</p></span></div></foreignObject></g><g class="label attribute-type" transform="translate(-202.09375, 180.375)" style=""><foreignObject width="42.875" height="24"><div xmlns="http://www.w3.org/1999/xhtml" style="display: table-cell; white-space: nowrap; line-height: 1.5; max-width: 143px; text-align: start;"><span class="nodeLabel"><p>jsonb</p></span></div></foreignObject></g><g class="label attribute-name" transform="translate(-131.15625, 180.375)" style=""><foreignObject width="77.546875" height="24"><div xmlns="http://www.w3.org/1999/xhtml" style="display: table-cell; white-space: nowrap; line-height: 1.5; max-width: 178px; text-align: start;"><span class="nodeLabel"><p>metadata</p></span></div></foreignObject></g><g class="label attribute-keys" transform="translate(19.015625, 180.375)" style=""><foreignObject width="0" height="0"><div xmlns="http://www.w3.org/1999/xhtml" style="display: table-cell; white-space: nowrap; line-height: 1.5; max-width: 100px; text-align: start;"><span class="nodeLabel"></span></div></foreignObject></g><g class="label attribute-comment" transform="translate(64.15625, 180.375)" style=""><foreignObject width="63.421875" height="24"><div xmlns="http://www.w3.org/1999/xhtml" style="display: table-cell; white-space: nowrap; line-height: 1.5; max-width: 162px; text-align: start;"><span class="nodeLabel"><p>nullable</p></span></div></foreignObject></g><g class="divider"><path d="M-214.59375 -171.00005 L-214.59375 -170.99995 L214.59375 -170.99995 L214.59375 -171.00005" stroke="none" stroke-width="0" fill="#ECECFF" fill-rule="evenodd"/><path d="M-214.59375 -171.00005 C-214.59375 -171.0000270787948, -214.59375 -171.00000415758964, -214.59375 -170.99995 M-214.59375 -171.00005 C-214.59375 -171.00001778141365, -214.59375 -170.99998556282728, -214.59375 -170.99995 M-214.59375 -170.99995 C-90.7890118328699 -170.99995, 33.015726334260194 -170.99995, 214.59375 -170.99995 M-214.59375 -170.99995 C-83.04125682111675 -170.99995, 48.511236357766506 -170.99995, 214.59375 -170.99995 M214.59375 -170.99995 C214.59375 -170.99997042843702, 214.59375 -170.99999085687404, 214.59375 -171.00005 M214.59375 -170.99995 C214.59375 -170.99998312935193, 214.59375 -171.00001625870382, 214.59375 -171.00005 M214.59375 -171.00005 C58.99313029832666 -171.00005, -96.60748940334668 -171.00005, -214.59375 -171.00005 M214.59375 -171.00005 C84.7839733792699 -171.00005, -45.02580324146021 -171.00005, -214.59375 -171.00005" stroke="#9370DB" stroke-width="1.3" fill="none" stroke-dasharray="0 0"/></g><g class="divider"><path d="M-143.6563 -171 L-143.6562 -171 L-143.6562 213.75 L-143.6563 213.75" stroke="none" stroke-width="0" fill="#ECECFF" fill-rule="evenodd"/><path d="M-143.6563 -171 C-143.656279418969 -171, -143.65625883793803 -171, -143.6562 -171 M-143.6563 -171 C-143.65627500964553 -171, -143.65625001929106 -171, -143.6562 -171 M-143.6562 -171 C-143.6562 -35.09814943149357, -143.6562 100.80370113701287, -143.6562 213.75 M-143.6562 -171 C-143.6562 -80.63314855273629, -143.6562 9.733702894527426, -143.6562 213.75 M-143.6562 213.75 C-143.6562310360552 213.75, -143.6562620721104 213.75, -143.6563 213.75 M-143.6562 213.75 C-143.65622060940296 213.75, -143.65624121880592 213.75, -143.6563 213.75 M-143.6563 213.75 C-143.6563 135.09854567376036, -143.6563 56.44709134752071, -143.6563 -171 M-143.6563 213.75 C-143.6563 70.94751278695634, -143.6563 -71.85497442608732, -143.6563 -171" stroke="#9370DB" stroke-width="1.3" fill="none" stroke-dasharray="0 0"/></g><g class="divider"><path d="M6.515575 -171 L6.515675 -171 L6.515675 213.75 L6.515575 213.75" stroke="none" stroke-width="0" fill="#ECECFF" fill-rule="evenodd"/><path d="M6.515575 -171 C6.51560176573028 -171, 6.515628531460561 -171, 6.515675 -171 M6.515575 -171 C6.515598783680035 -171, 6.5156225673600705 -171, 6.515675 -171 M6.515675 -171 C6.515675 -57.54875834423784, 6.515675 55.90248331152432, 6.515675 213.75 M6.515675 -171 C6.515675 -50.0926542718244, 6.515675 70.8146914563512, 6.515675 213.75 M6.515675 213.75 C6.515639977114707 213.75, 6.515604954229413 213.75, 6.515575 213.75 M6.515675 213.75 C6.515647142054344 213.75, 6.515619284108687 213.75, 6.515575 213.75 M6.515575 213.75 C6.515575 63.220931820206516, 6.515575 -87.30813635958697, 6.515575 -171 M6.515575 213.75 C6.515575 129.4190018933491, 6.515575 45.08800378669824, 6.515575 -171" stroke="#9370DB" stroke-width="1.3" fill="none" stroke-dasharray="0 0"/></g><g class="divider"><path d="M51.6562 -171 L51.6563 -171 L51.6563 213.75 L51.6562 213.75" stroke="none" stroke-width="0" fill="#ECECFF" fill-rule="evenodd"/><path d="M51.6562 -171 C51.65623281016303 -171, 51.65626562032606 -171, 51.6563 -171 M51.6562 -171 C51.656223351828466 -171, 51.65624670365693 -171, 51.6563 -171 M51.6563 -171 C51.6563 -17.53446596218896, 51.6563 135.93106807562208, 51.6563 213.75 M51.6563 -171 C51.6563 -20.010991892118966, 51.6563 130.97801621576207, 51.6563 213.75 M51.6563 213.75 C51.65627897732046 213.75, 51.65625795464092 213.75, 51.6562 213.75 M51.6563 213.75 C51.656276971796466 213.75, 51.65625394359293 213.75, 51.6562 213.75 M51.6562 213.75 C51.6562 70.10467839081323, 51.6562 -73.54064321837353, 51.6562 -171 M51.6562 213.75 C51.6562 64.71712463110927, 51.6562 -84.31575073778146, 51.6562 -171" stroke="#9370DB" stroke-width="1.3" fill="none" stroke-dasharray="0 0"/></g><g class="divider"><path d="M-214.59375 -171.00005 L-214.59375 -170.99995 L214.59375 -170.99995 L214.59375 -171.00005" stroke="none" stroke-width="0" fill="#ECECFF" fill-rule="evenodd"/><path d="M-214.59375 -171.00005 C-214.59375 -171.00001858407992, -214.59375 -170.99998716815986, -214.59375 -170.99995 M-214.59375 -171.00005 C-214.59375 -171.00002773928966, -214.59375 -171.00000547857937, -214.59375 -170.99995 M-214.59375 -170.99995 C-47.119607186882035 -170.99995, 120.35453562623593 -170.99995, 214.59375 -170.99995 M-214.59375 -170.99995 C-50.96964556710367 -170.99995, 112.65445886579266 -170.99995, 214.59375 -170.99995 M214.59375 -170.99995 C214.59375 -170.99997652865943, 214.59375 -171.00000305731885, 214.59375 -171.00005 M214.59375 -170.99995 C214.59375 -170.99998251411276, 214.59375 -171.00001502822548, 214.59375 -171.00005 M214.59375 -171.00005 C105.91579621229332 -171.00005, -2.7621575754133687 -171.00005, -214.59375 -171.00005 M214.59375 -171.00005 C90.61665610730014 -171.00005, -33.36043778539971 -171.00005, -214.59375 -171.00005" stroke="#9370DB" stroke-width="1.3" fill="none" stroke-dasharray="0 0"/></g></g><g class="node default" id="my-svg-entity-Trait-2" data-look="classic" transform="translate(135.96354166666666, 747.5)"><rect class="basic label-container" style="" x="-50" y="-42" width="100" height="84"/><g class="label" style="" transform="translate(-17.265625, -12)"><rect/><foreignObject width="34.53125" height="24"><div xmlns="http://www.w3.org/1999/xhtml" style="display: table-cell; white-space: nowrap; line-height: 1.5; max-width: 100px; text-align: center;"><span class="nodeLabel markdown-node-label"><p>Trait</p></span></div></foreignObject></g></g><g class="node default" id="my-svg-entity-TraitState-3" data-look="classic" transform="translate(333.890625, 747.5)"><rect class="basic label-container" style="" x="-58.4375" y="-42" width="116.875" height="84"/><g class="label" style="" transform="translate(-38.4375, -12)"><rect/><foreignObject width="76.875" height="24"><div xmlns="http://www.w3.org/1999/xhtml" style="display: table-cell; white-space: nowrap; line-height: 1.5; max-width: 200px; text-align: center;"><span class="nodeLabel markdown-node-label"><p>TraitState</p></span></div></foreignObject></g></g></g><g class="edgeLabels"><g class="edgeLabel" transform="translate(226.5625, 141.5)"><g class="label" data-id="id_entity-TraitDataset-0_entity-TraitRule-1_0_0" transform="translate(-26.46875, -10.5)"><foreignObject width="52.9375" height="21"><div xmlns="http://www.w3.org/1999/xhtml" class="labelBkg" style="display: table-cell; white-space: nowrap; line-height: 1.5; max-width: 200px; text-align: center;"><span class="edgeLabel"><p>dataset</p></span></div></foreignObject></g></g><g class="edgeLabel" transform="translate(226.34375, 660)"><g class="label" data-id="id_entity-TraitRule-1_entity-Trait-2_1_0" transform="translate(-38.75, -10.5)"><foreignObject width="77.5" height="21"><div xmlns="http://www.w3.org/1999/xhtml" class="labelBkg" style="display: table-cell; white-space: nowrap; line-height: 1.5; max-width: 200px; text-align: center;"><span class="edgeLabel"><p>triggerTrait</p></span></div></foreignObject></g></g><g class="edgeLabel" transform="translate(119.1875, 660)"><g class="label" data-id="id_entity-TraitRule-1_entity-Trait-2_2_0" transform="translate(-36.390625, -10.5)"><foreignObject width="72.78125" height="21"><div xmlns="http://www.w3.org/1999/xhtml" class="labelBkg" style="display: table-cell; white-space: nowrap; line-height: 1.5; max-width: 200px; text-align: center;"><span class="edgeLabel"><p>targetTrait</p></span></div></foreignObject></g></g><g class="edgeLabel" transform="translate(333.5625, 660)"><g class="label" data-id="id_entity-TraitRule-1_entity-TraitState-3_3_0" transform="translate(-42.171875, -10.5)"><foreignObject width="84.34375" height="21"><div xmlns="http://www.w3.org/1999/xhtml" class="labelBkg" style="display: table-cell; white-space: nowrap; line-height: 1.5; max-width: 200px; text-align: center;"><span class="edgeLabel"><p>triggerState</p></span></div></foreignObject></g></g></g></svg>