<svg id="my-svg" width="100%" xmlns="http://www.w3.org/2000/svg" xmlns:xlink="http://www.w3.org/1999/xlink" class="erDiagram" style="max-width: 545.906px; background-color: white;" viewBox="4 4 545.90625 685.25" role="graphics-document document" aria-roledescription="er"><g class="edges edgePaths"><path d="M144.02734375,311.25L144.02734375,324.1789321881345Q144.02734375,331.25 136.95627593813452,331.25L93.57106781186548,331.25Q86.5,331.25 86.5,338.3210678118655L86.5,412.25" id="my-svg-id_entity-TaxonConceptMapping-0_entity-TaxonConcept-1_0" class="edge-thickness-normal edge-pattern-solid relationshipLine" style="undefined;;;undefined" data-edge="true" data-et="edge" data-id="id_entity-TaxonConceptMapping-0_entity-TaxonConcept-1_0" data-points="W3sieCI6MTQ0LjAyNzM0Mzc1LCJ5IjozMTEuMjV9LHsieCI6MTQ0LjAyNzM0Mzc1LCJ5IjozMzEuMjV9LHsieCI6ODYuNSwieSI6MzMxLjI1fSx7IngiOjg2LjUsInkiOjQxMi4yNX1d" data-look="classic" marker-start="url(#my-svg_er-oneOrMoreStart)" marker-end="url(#my-svg_er-zeroOrOneEnd)"/><path d="M251.75,311.25L251.75,385.1789321881345Q251.75,392.25 244.67893218813452,392.25L144.24294281186548,392.25Q137.171875,392.25 137.171875,399.3210678118655L137.171875,412.25" id="my-svg-id_entity-TaxonConceptMapping-0_entity-TaxonConcept-1_1" class="edge-thickness-normal edge-pattern-solid relationshipLine" style="undefined;;;undefined" data-edge="true" data-et="edge" data-id="id_entity-TaxonConceptMapping-0_entity-TaxonConcept-1_1" data-points="W3sieCI6MjUxLjc1LCJ5IjozMTEuMjV9LHsieCI6MjUxLjc1LCJ5IjozOTIuMjV9LHsieCI6MTM3LjE3MTg3NSwieSI6MzkyLjI1fSx7IngiOjEzNy4xNzE4NzUsInkiOjQxMi4yNX1d" data-look="classic" marker-start="url(#my-svg_er-oneOrMoreStart)" marker-end="url(#my-svg_er-zeroOrOneEnd)"/><path d="M359.47265625000006,311.25L359.47265625,324.1789321881345Q359.47265625,331.25 366.5437240618655,331.25L434.8351821881345,331.25Q441.90625,331.25 441.90625,338.3210678118655L441.90625,412.25" id="my-svg-id_entity-TaxonConceptMapping-0_entity-Entity_Source_MAP-2_2" class="edge-thickness-normal edge-pattern-solid relationshipLine" style="undefined;;;undefined" data-edge="true" data-et="edge" data-id="id_entity-TaxonConceptMapping-0_entity-Entity_Source_MAP-2_2" data-points="W3sieCI6MzU5LjQ3MjY1NjI1MDAwMDA2LCJ5IjozMTEuMjV9LHsieCI6MzU5LjQ3MjY1NjI1LCJ5IjozMzEuMjV9LHsieCI6NDQxLjkwNjI1LCJ5IjozMzEuMjV9LHsieCI6NDQxLjkwNjI1LCJ5Ijo0MTIuMjV9XQ==" data-look="classic" marker-start="url(#my-svg_er-zeroOrMoreStart)" marker-end="url(#my-svg_er-onlyOneEnd)"/><path d="M441.90625,496.25L441.90625,597.25" id="my-svg-id_entity-Entity_Source_MAP-2_entity-Reference-3_3" class="edge-thickness-normal edge-pattern-solid relationshipLine" style="undefined;;;undefined" data-edge="true" data-et="edge" data-id="id_entity-Entity_Source_MAP-2_entity-Reference-3_3" data-points="W3sieCI6NDQxLjkwNjI1LCJ5Ijo0OTYuMjV9LHsieCI6NDQxLjkwNjI1LCJ5Ijo1OTcuMjV9XQ==" data-look="classic" marker-start="url(#my-svg_er-oneOrMoreStart)" marker-end="url(#my-svg_er-zeroOrOneEnd)"/></g><style>#my-svg{font-family:"trebuchet ms",verdana,arial,sans-serif;font-size:16px;fill:#333;}@keyframes edge-animation-frame{from{stroke-dashoffset:0;}}@keyframes dash{to{stroke-dashoffset:0;}}#my-svg .edge-animation-slow{stroke-dasharray:9,5!important;stroke-dashoffset:900;animation:dash 50s linear infinite;stroke-linecap:round;}#my-svg .edge-animation-fast{stroke-dasharray:9,5!important;stroke-dashoffset:900;animation:dash 20s linear infinite;stroke-linecap:round;}#my-svg .error-icon{fill:hsl(210, 100%, 96.7647058824%);}#my-svg .error-text{fill:rgb(16.4999999998, 8.2499999999, 0);stroke:rgb(16.4999999998, 8.2499999999, 0);}#my-svg .edge-thickness-normal{stroke-width:1px;}#my-svg .edge-thickness-thick{stroke-width:3.5px;}#my-svg .edge-pattern-solid{stroke-dasharray:0;}#my-svg .edge-thickness-invisible{stroke-width:0;fill:none;}#my-svg .edge-pattern-dashed{stroke-dasharray:3;}#my-svg .edge-pattern-dotted{stroke-dasharray:2;}#my-svg .marker{fill:#e74b0f;stroke:#e74b0f;}#my-svg .marker.cross{stroke:#e74b0f;}#my-svg svg{font-family:"trebuchet ms",verdana,arial,sans-serif;font-size:16px;}#my-svg p{margin:0;}#my-svg .entityBox{fill:#ffead5;stroke:#fbb176;}#my-svg .relationshipLabelBox{fill:hsl(210, 100%, 96.7647058824%);opacity:0.7;background-color:hsl(210, 100%, 96.7647058824%);}#my-svg .relationshipLabelBox rect{opacity:0.5;}#my-svg .labelBkg{background-color:rgba(238.5000000002, 246.7500000001, 255, 0.5);}#my-svg .edgeLabel{background-color:hsl(-90, 100%, 91.7647058824%);}#my-svg .edgeLabel .label rect{fill:hsl(-90, 100%, 91.7647058824%);}#my-svg .edgeLabel .label text{fill:#333;}#my-svg .edgeLabel .label{fill:#fbb176;font-size:14px;}#my-svg .label{font-family:"trebuchet ms",verdana,arial,sans-serif;color:#333;}#my-svg .edge-pattern-dashed{stroke-dasharray:8,8;}#my-svg .node rect,#my-svg .node circle,#my-svg .node ellipse,#my-svg .node polygon{fill:#ffead5;stroke:#fbb176;stroke-width:1px;}#my-svg .relationshipLine{stroke:#e74b0f;stroke-width:1px;fill:none;}#my-svg .marker{fill:none!important;stroke:#e74b0f!important;stroke-width:1;}#my-svg [data-look=neo].labelBkg{background-color:rgba(238.5000000002, 246.7500000001, 255, 0.5);}#my-svg .node .neo-node{stroke:#fbb176;}#my-svg [data-look="neo"].node rect,#my-svg [data-look="neo"].cluster rect,#my-svg [data-look="neo"].node polygon{stroke:url(#my-svg-gradient);filter:drop-shadow( 1px 2px 2px rgba(185,185,185,1));}#my-svg [data-look="neo"].node path{stroke:url(#my-svg-gradient);stroke-width:1px;}#my-svg [data-look="neo"].node .outer-path{filter:drop-shadow( 1px 2px 2px rgba(185,185,185,1));}#my-svg [data-look="neo"].node .neo-line path{stroke:#fbb176;filter:none;}#my-svg [data-look="neo"].node circle{stroke:url(#my-svg-gradient);filter:drop-shadow( 1px 2px 2px rgba(185,185,185,1));}#my-svg [data-look="neo"].node circle .state-start{fill:#000000;}#my-svg [data-look="neo"].icon-shape .icon{fill:url(#my-svg-gradient);filter:drop-shadow( 1px 2px 2px rgba(185,185,185,1));}#my-svg [data-look="neo"].icon-shape .icon-neo path{stroke:url(#my-svg-gradient);filter:drop-shadow( 1px 2px 2px rgba(185,185,185,1));}#my-svg :root{--mermaid-font-family:"trebuchet ms",verdana,arial,sans-serif;}</style><g><defs><marker id="my-svg_er-onlyOneStart" class="marker onlyOne er" refX="0" refY="9" markerWidth="18" markerHeight="18" orient="auto"><path d="M9,0 L9,18 M15,0 L15,18"/></marker></defs><defs><marker id="my-svg_er-onlyOneEnd" class="marker onlyOne er" refX="18" refY="9" markerWidth="18" markerHeight="18" orient="auto"><path d="M3,0 L3,18 M9,0 L9,18"/></marker></defs><defs><marker id="my-svg_er-zeroOrOneStart" class="marker zeroOrOne er" refX="0" refY="9" markerWidth="30" markerHeight="18" orient="auto"><circle fill="white" cx="21" cy="9" r="6"/><path d="M9,0 L9,18"/></marker></defs><defs><marker id="my-svg_er-zeroOrOneEnd" class="marker zeroOrOne er" refX="30" refY="9" markerWidth="30" markerHeight="18" orient="auto"><circle fill="white" cx="9" cy="9" r="6"/><path d="M21,0 L21,18"/></marker></defs><defs><marker id="my-svg_er-oneOrMoreStart" class="marker oneOrMore er" refX="18" refY="18" markerWidth="45" markerHeight="36" orient="auto"><path d="M0,18 Q 18,0 36,18 Q 18,36 0,18 M42,9 L42,27"/></marker></defs><defs><marker id="my-svg_er-oneOrMoreEnd" class="marker oneOrMore er" refX="27" refY="18" markerWidth="45" markerHeight="36" orient="auto"><path d="M3,9 L3,27 M9,18 Q27,0 45,18 Q27,36 9,18"/></marker></defs><defs><marker id="my-svg_er-zeroOrMoreStart" class="marker zeroOrMore er" refX="18" refY="18" markerWidth="57" markerHeight="36" orient="auto"><circle fill="white" cx="48" cy="18" r="6"/><path d="M0,18 Q18,0 36,18 Q18,36 0,18"/></marker></defs><defs><marker id="my-svg_er-zeroOrMoreEnd" class="marker zeroOrMore er" refX="39" refY="18" markerWidth="57" markerHeight="36" orient="auto"><circle fill="white" cx="9" cy="18" r="6"/><path d="M21,18 Q39,0 57,18 Q39,36 21,18"/></marker></defs></g><defs><filter id="my-svg-drop-shadow" height="130%" width="130%"><feDropShadow dx="4" dy="4" stdDeviation="0" flood-opacity="0.06" flood-color="#000000"/></filter></defs><defs><filter id="my-svg-drop-shadow-small" height="150%" width="150%"><feDropShadow dx="2" dy="2" stdDeviation="0" flood-opacity="0.06" flood-color="#000000"/></filter></defs><linearGradient id="my-svg-gradient" gradientUnits="objectBoundingBox" x1="0%" y1="0%" x2="100%" y2="0%"><stop offset="0%" stop-color="#fbb176" stop-opacity="1"/><stop offset="100%" stop-color="hsl(-90, 60%, 81.7647058824%)" stop-opacity="1"/></linearGradient><g class="subgraphs"/><g class="nodes"><g class="node default" id="my-svg-entity-TaxonConceptMapping-0" data-look="classic" transform="translate(251.75, 161.625)"><g class="outer-path" style=""><path d="M-215.4453125 -149.625 L215.4453125 -149.625 L215.4453125 149.625 L-215.4453125 149.625" stroke="none" stroke-width="0" fill="#ffead5"/><path d="M-215.4453125 -149.625 C-72.36951690046968 -149.625, 70.70627869906065 -149.625, 215.4453125 -149.625 M-215.4453125 -149.625 C-49.96704913741692 -149.625, 115.51121422516616 -149.625, 215.4453125 -149.625 M215.4453125 -149.625 C215.4453125 -84.93523799571895, 215.4453125 -20.2454759914379, 215.4453125 149.625 M215.4453125 -149.625 C215.4453125 -55.531319352774304, 215.4453125 38.56236129445139, 215.4453125 149.625 M215.4453125 149.625 C88.57003588192562 149.625, -38.30524073614876 149.625, -215.4453125 149.625 M215.4453125 149.625 C94.04298188850224 149.625, -27.35934872299552 149.625, -215.4453125 149.625 M-215.4453125 149.625 C-215.4453125 78.09793866290183, -215.4453125 6.57087732580365, -215.4453125 -149.625 M-215.4453125 149.625 C-215.4453125 41.106162109047744, -215.4453125 -67.41267578190451, -215.4453125 -149.625" stroke="#fbb176" stroke-width="1.3" fill="none" stroke-dasharray="0 0"/></g><g style="" class="row-rect-odd"><path d="M-215.4453125 -106.875 L215.4453125 -106.875 L215.4453125 -64.125 L-215.4453125 -64.125" stroke="none" stroke-width="0" fill="hsl(30, 100%, 100%)"/><path d="M-215.4453125 -106.875 C-54.13183478152112 -106.875, 107.18164293695776 -106.875, 215.4453125 -106.875 M-215.4453125 -106.875 C-49.00354654051253 -106.875, 117.43821941897494 -106.875, 215.4453125 -106.875 M215.4453125 -106.875 C215.4453125 -94.43034868268006, 215.4453125 -81.98569736536014, 215.4453125 -64.125 M215.4453125 -106.875 C215.4453125 -91.23378092470024, 215.4453125 -75.59256184940048, 215.4453125 -64.125 M215.4453125 -64.125 C89.0531223587181 -64.125, -37.3390677825638 -64.125, -215.4453125 -64.125 M215.4453125 -64.125 C57.88372964642738 -64.125, -99.67785320714523 -64.125, -215.4453125 -64.125 M-215.4453125 -64.125 C-215.4453125 -80.20850350290449, -215.4453125 -96.29200700580898, -215.4453125 -106.875 M-215.4453125 -64.125 C-215.4453125 -73.00850672056954, -215.4453125 -81.89201344113908, -215.4453125 -106.875" stroke="#fbb176" stroke-width="1.3" fill="none" stroke-dasharray="0 0"/></g><g style="" class="row-rect-even"><path d="M-215.4453125 -64.125 L215.4453125 -64.125 L215.4453125 -21.375 L-215.4453125 -21.375" stroke="none" stroke-width="0" fill="hsl(30, 100%, 96.7647058824%)"/><path d="M-215.4453125 -64.125 C-58.948370763524906 -64.125, 97.54857097295019 -64.125, 215.4453125 -64.125 M-215.4453125 -64.125 C-92.32096461046368 -64.125, 30.803383279072648 -64.125, 215.4453125 -64.125 M215.4453125 -64.125 C215.4453125 -48.29742716102611, 215.4453125 -32.469854322052214, 215.4453125 -21.375 M215.4453125 -64.125 C215.4453125 -55.35829575835369, 215.4453125 -46.59159151670738, 215.4453125 -21.375 M215.4453125 -21.375 C110.60619272489456 -21.375, 5.76707294978911 -21.375, -215.4453125 -21.375 M215.4453125 -21.375 C105.14183529916878 -21.375, -5.161641901662449 -21.375, -215.4453125 -21.375 M-215.4453125 -21.375 C-215.4453125 -36.480503973646265, -215.4453125 -51.58600794729253, -215.4453125 -64.125 M-215.4453125 -21.375 C-215.4453125 -30.986136959247123, -215.4453125 -40.597273918494245, -215.4453125 -64.125" stroke="#fbb176" stroke-width="1.3" fill="none" stroke-dasharray="0 0"/></g><g style="" class="row-rect-odd"><path d="M-215.4453125 -21.375 L215.4453125 -21.375 L215.4453125 21.375 L-215.4453125 21.375" stroke="none" stroke-width="0" fill="hsl(30, 100%, 100%)"/><path d="M-215.4453125 -21.375 C-55.17249338795247 -21.375, 105.10032572409506 -21.375, 215.4453125 -21.375 M-215.4453125 -21.375 C-76.3762421258682 -21.375, 62.692828248263595 -21.375, 215.4453125 -21.375 M215.4453125 -21.375 C215.4453125 -5.705004630466348, 215.4453125 9.964990739067304, 215.4453125 21.375 M215.4453125 -21.375 C215.4453125 -7.500985570132789, 215.4453125 6.373028859734422, 215.4453125 21.375 M215.4453125 21.375 C106.42553689076566 21.375, -2.594238718468688 21.375, -215.4453125 21.375 M215.4453125 21.375 C114.33976723791125 21.375, 13.234221975822493 21.375, -215.4453125 21.375 M-215.4453125 21.375 C-215.4453125 11.321256270295322, -215.4453125 1.2675125405906442, -215.4453125 -21.375 M-215.4453125 21.375 C-215.4453125 7.34128566314574, -215.4453125 -6.69242867370852, -215.4453125 -21.375" stroke="#fbb176" stroke-width="1.3" fill="none" stroke-dasharray="0 0"/></g><g style="" class="row-rect-even"><path d="M-215.4453125 21.375 L215.4453125 21.375 L215.4453125 64.125 L-215.4453125 64.125" stroke="none" stroke-width="0" fill="hsl(30, 100%, 96.7647058824%)"/><path d="M-215.4453125 21.375 C-98.62676136104115 21.375, 18.191789777917705 21.375, 215.4453125 21.375 M-215.4453125 21.375 C-106.2387973879194 21.375, 2.96771772416119 21.375, 215.4453125 21.375 M215.4453125 21.375 C215.4453125 32.714732037510565, 215.4453125 44.05446407502113, 215.4453125 64.125 M215.4453125 21.375 C215.4453125 31.772354398089597, 215.4453125 42.169708796179194, 215.4453125 64.125 M215.4453125 64.125 C59.62427258178488 64.125, -96.19676733643024 64.125, -215.4453125 64.125 M215.4453125 64.125 C125.22108976735778 64.125, 34.996867034715564 64.125, -215.4453125 64.125 M-215.4453125 64.125 C-215.4453125 55.29166899576186, -215.4453125 46.45833799152372, -215.4453125 21.375 M-215.4453125 64.125 C-215.4453125 47.746407278877896, -215.4453125 31.3678145577558, -215.4453125 21.375" stroke="#fbb176" stroke-width="1.3" fill="none" stroke-dasharray="0 0"/></g><g style="" class="row-rect-odd"><path d="M-215.4453125 64.125 L215.4453125 64.125 L215.4453125 106.875 L-215.4453125 106.875" stroke="none" stroke-width="0" fill="hsl(30, 100%, 100%)"/><path d="M-215.4453125 64.125 C-96.1888541830299 64.125, 23.067604133940193 64.125, 215.4453125 64.125 M-215.4453125 64.125 C-83.78433279362812 64.125, 47.87664691274375 64.125, 215.4453125 64.125 M215.4453125 64.125 C215.4453125 74.8463457789953, 215.4453125 85.56769155799061, 215.4453125 106.875 M215.4453125 64.125 C215.4453125 80.43575877368463, 215.4453125 96.74651754736925, 215.4453125 106.875 M215.4453125 106.875 C113.88405140421759 106.875, 12.322790308435174 106.875, -215.4453125 106.875 M215.4453125 106.875 C82.34226634049787 106.875, -50.760779819004256 106.875, -215.4453125 106.875 M-215.4453125 106.875 C-215.4453125 94.45429789786937, -215.4453125 82.03359579573873, -215.4453125 64.125 M-215.4453125 106.875 C-215.4453125 92.74924947042092, -215.4453125 78.62349894084183, -215.4453125 64.125" stroke="#fbb176" stroke-width="1.3" fill="none" stroke-dasharray="0 0"/></g><g style="" class="row-rect-even"><path d="M-215.4453125 106.875 L215.4453125 106.875 L215.4453125 149.625 L-215.4453125 149.625" stroke="none" stroke-width="0" fill="hsl(30, 100%, 96.7647058824%)"/><path d="M-215.4453125 106.875 C-98.6493813344337 106.875, 18.146549831132603 106.875, 215.4453125 106.875 M-215.4453125 106.875 C-43.73096145743847 106.875, 127.98338958512306 106.875, 215.4453125 106.875 M215.4453125 106.875 C215.4453125 120.1204023915471, 215.4453125 133.3658047830942, 215.4453125 149.625 M215.4453125 106.875 C215.4453125 121.68124504131558, 215.4453125 136.48749008263115, 215.4453125 149.625 M215.4453125 149.625 C116.75457863306791 149.625, 18.063844766135816 149.625, -215.4453125 149.625 M215.4453125 149.625 C74.11167368593442 149.625, -67.22196512813116 149.625, -215.4453125 149.625 M-215.4453125 149.625 C-215.4453125 138.86128704323633, -215.4453125 128.09757408647266, -215.4453125 106.875 M-215.4453125 149.625 C-215.4453125 137.21107101287865, -215.4453125 124.79714202575731, -215.4453125 106.875" stroke="#fbb176" stroke-width="1.3" fill="none" stroke-dasharray="0 0"/></g><a href="/vicflora-docs/resources/taxon-concept-mapping" target="_top"><g class="label name" transform="translate(-90.3359375, -140.25)" style=""><foreignObject width="180.671875" height="24"><div xmlns="http://www.w3.org/1999/xhtml" style="display: table-cell; white-space: nowrap; line-height: 1.5; max-width: 281px; text-align: start;"><span class="nodeLabel"><p style="color: #e74b0f; font-weight: bold;">TaxonConceptMapping</p></span></div></foreignObject></g></a><g class="label attribute-type" transform="translate(-202.9453125, -97.5)" style=""><foreignObject width="20.859375" height="24"><div xmlns="http://www.w3.org/1999/xhtml" style="display: table-cell; white-space: nowrap; line-height: 1.5; max-width: 120px; text-align: start;"><span class="nodeLabel"><p>int</p></span></div></foreignObject></g><g class="label attribute-name" transform="translate(-135.9921875, -97.5)" style=""><foreignObject width="14.609375" height="24"><div xmlns="http://www.w3.org/1999/xhtml" style="display: table-cell; white-space: nowrap; line-height: 1.5; max-width: 114px; text-align: start;"><span class="nodeLabel"><p>id</p></span></div></foreignObject></g><g class="label attribute-keys" transform="translate(94.3828125, -97.5)" style=""><foreignObject width="20.140625" height="24"><div xmlns="http://www.w3.org/1999/xhtml" style="display: table-cell; white-space: nowrap; line-height: 1.5; max-width: 121px; text-align: start;"><span class="nodeLabel"><p>PK</p></span></div></foreignObject></g><g class="label attribute-comment" transform="translate(139.5234375, -97.5)" style=""><foreignObject width="0" height="0"><div xmlns="http://www.w3.org/1999/xhtml" style="display: table-cell; white-space: nowrap; line-height: 1.5; max-width: 100px; text-align: start;"><span class="nodeLabel"></span></div></foreignObject></g><g class="label attribute-type" transform="translate(-202.9453125, -54.75)" style=""><foreignObject width="20.859375" height="24"><div xmlns="http://www.w3.org/1999/xhtml" style="display: table-cell; white-space: nowrap; line-height: 1.5; max-width: 120px; text-align: start;"><span class="nodeLabel"><p>int</p></span></div></foreignObject></g><g class="label attribute-name" transform="translate(-135.9921875, -54.75)" style=""><foreignObject width="205.375" height="24"><div xmlns="http://www.w3.org/1999/xhtml" style="display: table-cell; white-space: nowrap; line-height: 1.5; max-width: 305px; text-align: start;"><span class="nodeLabel"><p>subject_taxon_concept_id</p></span></div></foreignObject></g><g class="label attribute-keys" transform="translate(94.3828125, -54.75)" style=""><foreignObject width="19.703125" height="24"><div xmlns="http://www.w3.org/1999/xhtml" style="display: table-cell; white-space: nowrap; line-height: 1.5; max-width: 120px; text-align: start;"><span class="nodeLabel"><p>FK</p></span></div></foreignObject></g><g class="label attribute-comment" transform="translate(139.5234375, -54.75)" style=""><foreignObject width="0" height="0"><div xmlns="http://www.w3.org/1999/xhtml" style="display: table-cell; white-space: nowrap; line-height: 1.5; max-width: 100px; text-align: start;"><span class="nodeLabel"></span></div></foreignObject></g><g class="label attribute-type" transform="translate(-202.9453125, -12)" style=""><foreignObject width="20.859375" height="24"><div xmlns="http://www.w3.org/1999/xhtml" style="display: table-cell; white-space: nowrap; line-height: 1.5; max-width: 120px; text-align: start;"><span class="nodeLabel"><p>int</p></span></div></foreignObject></g><g class="label attribute-name" transform="translate(-135.9921875, -12)" style=""><foreignObject width="196.6875" height="24"><div xmlns="http://www.w3.org/1999/xhtml" style="display: table-cell; white-space: nowrap; line-height: 1.5; max-width: 297px; text-align: start;"><span class="nodeLabel"><p>object_taxon_concept_id</p></span></div></foreignObject></g><g class="label attribute-keys" transform="translate(94.3828125, -12)" style=""><foreignObject width="19.703125" height="24"><div xmlns="http://www.w3.org/1999/xhtml" style="display: table-cell; white-space: nowrap; line-height: 1.5; max-width: 120px; text-align: start;"><span class="nodeLabel"><p>FK</p></span></div></foreignObject></g><g class="label attribute-comment" transform="translate(139.5234375, -12)" style=""><foreignObject width="0" height="0"><div xmlns="http://www.w3.org/1999/xhtml" style="display: table-cell; white-space: nowrap; line-height: 1.5; max-width: 100px; text-align: start;"><span class="nodeLabel"></span></div></foreignObject></g><g class="label attribute-type" transform="translate(-202.9453125, 30.75)" style=""><foreignObject width="20.859375" height="24"><div xmlns="http://www.w3.org/1999/xhtml" style="display: table-cell; white-space: nowrap; line-height: 1.5; max-width: 120px; text-align: start;"><span class="nodeLabel"><p>int</p></span></div></foreignObject></g><g class="label attribute-name" transform="translate(-135.9921875, 30.75)" style=""><foreignObject width="162.015625" height="24"><div xmlns="http://www.w3.org/1999/xhtml" style="display: table-cell; white-space: nowrap; line-height: 1.5; max-width: 262px; text-align: start;"><span class="nodeLabel"><p>mapping_relation_id</p></span></div></foreignObject></g><g class="label attribute-keys" transform="translate(94.3828125, 30.75)" style=""><foreignObject width="19.703125" height="24"><div xmlns="http://www.w3.org/1999/xhtml" style="display: table-cell; white-space: nowrap; line-height: 1.5; max-width: 120px; text-align: start;"><span class="nodeLabel"><p>FK</p></span></div></foreignObject></g><g class="label attribute-comment" transform="translate(139.5234375, 30.75)" style=""><foreignObject width="0" height="0"><div xmlns="http://www.w3.org/1999/xhtml" style="display: table-cell; white-space: nowrap; line-height: 1.5; max-width: 100px; text-align: start;"><span class="nodeLabel"></span></div></foreignObject></g><g class="label attribute-type" transform="translate(-202.9453125, 73.5)" style=""><foreignObject width="41.953125" height="24"><div xmlns="http://www.w3.org/1999/xhtml" style="display: table-cell; white-space: nowrap; line-height: 1.5; max-width: 143px; text-align: start;"><span class="nodeLabel"><p>array</p></span></div></foreignObject></g><g class="label attribute-name" transform="translate(-135.9921875, 73.5)" style=""><foreignObject width="77.546875" height="24"><div xmlns="http://www.w3.org/1999/xhtml" style="display: table-cell; white-space: nowrap; line-height: 1.5; max-width: 178px; text-align: start;"><span class="nodeLabel"><p>metadata</p></span></div></foreignObject></g><g class="label attribute-keys" transform="translate(94.3828125, 73.5)" style=""><foreignObject width="0" height="0"><div xmlns="http://www.w3.org/1999/xhtml" style="display: table-cell; white-space: nowrap; line-height: 1.5; max-width: 100px; text-align: start;"><span class="nodeLabel"></span></div></foreignObject></g><g class="label attribute-comment" transform="translate(139.5234375, 73.5)" style=""><foreignObject width="63.421875" height="24"><div xmlns="http://www.w3.org/1999/xhtml" style="display: table-cell; white-space: nowrap; line-height: 1.5; max-width: 162px; text-align: start;"><span class="nodeLabel"><p>nullable</p></span></div></foreignObject></g><g class="label attribute-type" transform="translate(-202.9453125, 116.25)" style=""><foreignObject width="31.578125" height="24"><div xmlns="http://www.w3.org/1999/xhtml" style="display: table-cell; white-space: nowrap; line-height: 1.5; max-width: 131px; text-align: start;"><span class="nodeLabel"><p>text</p></span></div></foreignObject></g><g class="label attribute-name" transform="translate(-135.9921875, 116.25)" style=""><foreignObject width="65.640625" height="24"><div xmlns="http://www.w3.org/1999/xhtml" style="display: table-cell; white-space: nowrap; line-height: 1.5; max-width: 167px; text-align: start;"><span class="nodeLabel"><p>remarks</p></span></div></foreignObject></g><g class="label attribute-keys" transform="translate(94.3828125, 116.25)" style=""><foreignObject width="0" height="0"><div xmlns="http://www.w3.org/1999/xhtml" style="display: table-cell; white-space: nowrap; line-height: 1.5; max-width: 100px; text-align: start;"><span class="nodeLabel"></span></div></foreignObject></g><g class="label attribute-comment" transform="translate(139.5234375, 116.25)" style=""><foreignObject width="63.421875" height="24"><div xmlns="http://www.w3.org/1999/xhtml" style="display: table-cell; white-space: nowrap; line-height: 1.5; max-width: 162px; text-align: start;"><span class="nodeLabel"><p>nullable</p></span></div></foreignObject></g><g class="divider"><path d="M-215.4453125 -106.87505 L-215.4453125 -106.87495 L215.4453125 -106.87495 L215.4453125 -106.87505" stroke="none" stroke-width="0" fill="#ffead5" fill-rule="evenodd"/><path d="M-215.4453125 -106.87505 C-215.4453125 -106.87501200109782, -215.4453125 -106.87497400219564, -215.4453125 -106.87495 M-215.4453125 -106.87505 C-215.4453125 -106.87501670808781, -215.4453125 -106.87498341617562, -215.4453125 -106.87495 M-215.4453125 -106.87495 C-119.97456012261891 -106.87495, -24.503807745237822 -106.87495, 215.4453125 -106.87495 M-215.4453125 -106.87495 C-66.00002916844818 -106.87495, 83.44525416310364 -106.87495, 215.4453125 -106.87495 M215.4453125 -106.87495 C215.4453125 -106.8749813235398, 215.4453125 -106.87501264707959, 215.4453125 -106.87505 M215.4453125 -106.87495 C215.4453125 -106.87498268775751, 215.4453125 -106.87501537551502, 215.4453125 -106.87505 M215.4453125 -106.87505 C81.21467423398244 -106.87505, -53.01596403203513 -106.87505, -215.4453125 -106.87505 M215.4453125 -106.87505 C68.54429118563237 -106.87505, -78.35673012873525 -106.87505, -215.4453125 -106.87505" stroke="#fbb176" stroke-width="1.3" fill="none" stroke-dasharray="0 0"/></g><g class="divider"><path d="M-148.4922375 -106.875 L-148.4921375 -106.875 L-148.4921375 149.625 L-148.4922375 149.625" stroke="none" stroke-width="0" fill="#ffead5" fill-rule="evenodd"/><path d="M-148.4922375 -106.875 C-148.49221620853956 -106.875, -148.4921949170791 -106.875, -148.4921375 -106.875 M-148.4922375 -106.875 C-148.49219888659945 -106.875, -148.49216027319892 -106.875, -148.4921375 -106.875 M-148.4921375 -106.875 C-148.4921375 -32.79886019963432, -148.4921375 41.27727960073136, -148.4921375 149.625 M-148.4921375 -106.875 C-148.4921375 -53.45311757950078, -148.4921375 -0.031235159001553825, -148.4921375 149.625 M-148.4921375 149.625 C-148.49216481196055 149.625, -148.4921921239211 149.625, -148.4922375 149.625 M-148.4921375 149.625 C-148.4921611346614 149.625, -148.49218476932276 149.625, -148.4922375 149.625 M-148.4922375 149.625 C-148.4922375 59.4325833741851, -148.4922375 -30.7598332516298, -148.4922375 -106.875 M-148.4922375 149.625 C-148.4922375 63.44232597482022, -148.4922375 -22.740348050359557, -148.4922375 -106.875" stroke="#fbb176" stroke-width="1.3" fill="none" stroke-dasharray="0 0"/></g><g class="divider"><path d="M81.8827625 -106.875 L81.8828625 -106.875 L81.8828625 149.625 L81.8827625 149.625" stroke="none" stroke-width="0" fill="#ffead5" fill-rule="evenodd"/><path d="M81.8827625 -106.875 C81.88278865192744 -106.875, 81.8828148038549 -106.875, 81.8828625 -106.875 M81.8827625 -106.875 C81.88279612840918 -106.875, 81.88282975681838 -106.875, 81.8828625 -106.875 M81.8828625 -106.875 C81.8828625 -12.215769386073447, 81.8828625 82.4434612278531, 81.8828625 149.625 M81.8828625 -106.875 C81.8828625 -10.171258064347057, 81.8828625 86.53248387130589, 81.8828625 149.625 M81.8828625 149.625 C81.88283484283637 149.625, 81.88280718567275 149.625, 81.8827625 149.625 M81.8828625 149.625 C81.88283350383779 149.625, 81.88280450767559 149.625, 81.8827625 149.625 M81.8827625 149.625 C81.8827625 67.38134956759636, 81.8827625 -14.862300864807281, 81.8827625 -106.875 M81.8827625 149.625 C81.8827625 94.12005161524056, 81.8827625 38.61510323048111, 81.8827625 -106.875" stroke="#fbb176" stroke-width="1.3" fill="none" stroke-dasharray="0 0"/></g><g class="divider"><path d="M127.0233875 -106.875 L127.0234875 -106.875 L127.0234875 149.625 L127.0233875 149.625" stroke="none" stroke-width="0" fill="#ffead5" fill-rule="evenodd"/><path d="M127.0233875 -106.875 C127.02342242291725 -106.875, 127.02345734583449 -106.875, 127.0234875 -106.875 M127.0233875 -106.875 C127.02340881011312 -106.875, 127.02343012022624 -106.875, 127.0234875 -106.875 M127.0234875 -106.875 C127.0234875 -50.40856249810573, 127.0234875 6.0578750037885385, 127.0234875 149.625 M127.0234875 -106.875 C127.0234875 -11.591380171039447, 127.0234875 83.6922396579211, 127.0234875 149.625 M127.0234875 149.625 C127.02346602321398 149.625, 127.02344454642797 149.625, 127.0233875 149.625 M127.0234875 149.625 C127.0234508454069 149.625, 127.0234141908138 149.625, 127.0233875 149.625 M127.0233875 149.625 C127.0233875 60.274762585362325, 127.0233875 -29.07547482927535, 127.0233875 -106.875 M127.0233875 149.625 C127.0233875 78.73732830371863, 127.0233875 7.849656607437254, 127.0233875 -106.875" stroke="#fbb176" stroke-width="1.3" fill="none" stroke-dasharray="0 0"/></g><g class="divider"><path d="M-215.4453125 -106.87505 L-215.4453125 -106.87495 L215.4453125 -106.87495 L215.4453125 -106.87505" stroke="none" stroke-width="0" fill="#ffead5" fill-rule="evenodd"/><path d="M-215.4453125 -106.87505 C-215.4453125 -106.875011835601, -215.4453125 -106.874973671202, -215.4453125 -106.87495 M-215.4453125 -106.87505 C-215.4453125 -106.87501319025236, -215.4453125 -106.87497638050472, -215.4453125 -106.87495 M-215.4453125 -106.87495 C-89.32290433814187 -106.87495, 36.799503823716265 -106.87495, 215.4453125 -106.87495 M-215.4453125 -106.87495 C-55.71061333106124 -106.87495, 104.02408583787752 -106.87495, 215.4453125 -106.87495 M215.4453125 -106.87495 C215.4453125 -106.87498971389861, 215.4453125 -106.87502942779722, 215.4453125 -106.87505 M215.4453125 -106.87495 C215.4453125 -106.87497369765259, 215.4453125 -106.87499739530519, 215.4453125 -106.87505 M215.4453125 -106.87505 C117.09624147001648 -106.87505, 18.74717044003296 -106.87505, -215.4453125 -106.87505 M215.4453125 -106.87505 C86.67546364677202 -106.87505, -42.09438520645597 -106.87505, -215.4453125 -106.87505" stroke="#fbb176" stroke-width="1.3" fill="none" stroke-dasharray="0 0"/></g></g><g class="node default" id="my-svg-entity-TaxonConcept-1" data-look="classic" transform="translate(111.8359375, 454.25)"><rect class="basic label-container" style="" x="-76.0078125" y="-42" width="152.015625" height="84"/><a href="/vicflora-docs/resources/taxon-concept" target="_top"><g class="label" style="" transform="translate(-56.0078125, -12)"><rect/><foreignObject width="112.015625" height="24"><div xmlns="http://www.w3.org/1999/xhtml" style="display: table-cell; white-space: nowrap; line-height: 1.5; max-width: 200px; text-align: center;"><span class="nodeLabel markdown-node-label"><p style="color: #e74b0f; font-weight: bold;">TaxonConcept</p></span></div></foreignObject></g></a></g><g class="node default" id="my-svg-entity-Entity_Source_MAP-2" data-look="classic" transform="translate(441.90625, 454.25)"><rect class="basic label-container" style="" x="-96.03125" y="-42" width="192.0625" height="84"/><a href="/vicflora-docs/resources/entity-source-map" target="_top"><g class="label" style="" transform="translate(-76.03125, -12)"><rect/><foreignObject width="152.0625" height="24"><div xmlns="http://www.w3.org/1999/xhtml" style="display: table-cell; white-space: nowrap; line-height: 1.5; max-width: 200px; text-align: center;"><span class="nodeLabel markdown-node-label"><p style="color: #e74b0f; font-weight: bold;">Entity_Source_MAP</p></span></div></foreignObject></g></a></g><g class="node default" id="my-svg-entity-Reference-3" data-look="classic" transform="translate(441.90625, 639.25)"><rect class="basic label-container" style="" x="-60.2890625" y="-42" width="120.578125" height="84"/><a href="/vicflora-docs/resources/reference" target="_top"><g class="label" style="" transform="translate(-40.2890625, -12)"><rect/><foreignObject width="80.578125" height="24"><div xmlns="http://www.w3.org/1999/xhtml" style="display: table-cell; white-space: nowrap; line-height: 1.5; max-width: 200px; text-align: center;"><span class="nodeLabel markdown-node-label"><p style="color: #e74b0f; font-weight: bold;">Reference</p></span></div></foreignObject></g></a></g></g><g class="edgeLabels"><g class="edgeLabel" transform="translate(86.375, 361.75)"><g class="label" data-id="id_entity-TaxonConceptMapping-0_entity-TaxonConcept-1_0" transform="translate(-74.375, -10.5)"><foreignObject width="148.75" height="21"><div xmlns="http://www.w3.org/1999/xhtml" class="labelBkg" style="display: table-cell; white-space: nowrap; line-height: 1.5; max-width: 200px; text-align: center;"><span class="edgeLabel"><p>subjectTaxonConcept</p></span></div></foreignObject></g></g><g class="edgeLabel" transform="translate(251.328125, 361.75)"><g class="label" data-id="id_entity-TaxonConceptMapping-0_entity-TaxonConcept-1_1" transform="translate(-70.578125, -10.5)"><foreignObject width="141.15625" height="21"><div xmlns="http://www.w3.org/1999/xhtml" class="labelBkg" style="display: table-cell; white-space: nowrap; line-height: 1.5; max-width: 200px; text-align: center;"><span class="edgeLabel"><p>objectTaxonConcept</p></span></div></foreignObject></g></g><g class="edgeLabel" transform="translate(441.90625, 361.75)"><g class="label" data-id="id_entity-TaxonConceptMapping-0_entity-Entity_Source_MAP-2_2" transform="translate(-100, -10.5)"><foreignObject width="200" height="21"><div xmlns="http://www.w3.org/1999/xhtml" class="labelBkg" style="display: table; white-space: break-spaces; line-height: 1.5; max-width: 200px; text-align: center; width: 200px;"><span class="edgeLabel"><p>morphs as 'provenanceable'</p></span></div></foreignObject></g></g><g class="edgeLabel" transform="translate(441.8359375, 546.75)"><g class="label" data-id="id_entity-Entity_Source_MAP-2_entity-Reference-3_3" transform="translate(-33.4296875, -10.5)"><foreignObject width="66.859375" height="21"><div xmlns="http://www.w3.org/1999/xhtml" class="labelBkg" style="display: table-cell; white-space: nowrap; line-height: 1.5; max-width: 200px; text-align: center;"><span class="edgeLabel"><p>reference</p></span></div></foreignObject></g></g></g></svg>