<svg id="my-svg" width="100%" xmlns="http://www.w3.org/2000/svg" xmlns:xlink="http://www.w3.org/1999/xlink" class="erDiagram" style="max-width: 374.594px; background-color: white;" viewBox="4 4 374.59375 715.5" role="graphics-document document" aria-roledescription="er"><g class="edges edgePaths"><path d="M191.296875,225.75L191.296875,326.75" id="my-svg-id_entity-ControlledVocabulary-0_entity-ControlledTerm-1_0" class="edge-thickness-normal edge-pattern-solid relationshipLine" style="undefined;;;undefined" data-edge="true" data-et="edge" data-id="id_entity-ControlledVocabulary-0_entity-ControlledTerm-1_0" data-points="W3sieCI6MTkxLjI5Njg3NSwieSI6MjI1Ljc1fSx7IngiOjE5MS4yOTY4NzUsInkiOjMyNi43NX1d" data-look="classic" marker-start="url(#my-svg_er-onlyOneStart)" marker-end="url(#my-svg_er-oneOrMoreEnd)"/></g><style>#my-svg{font-family:"trebuchet ms",verdana,arial,sans-serif;font-size:16px;fill:#333;}@keyframes edge-animation-frame{from{stroke-dashoffset:0;}}@keyframes dash{to{stroke-dashoffset:0;}}#my-svg .edge-animation-slow{stroke-dasharray:9,5!important;stroke-dashoffset:900;animation:dash 50s linear infinite;stroke-linecap:round;}#my-svg .edge-animation-fast{stroke-dasharray:9,5!important;stroke-dashoffset:900;animation:dash 20s linear infinite;stroke-linecap:round;}#my-svg .error-icon{fill:hsl(210, 100%, 96.7647058824%);}#my-svg .error-text{fill:rgb(16.4999999998, 8.2499999999, 0);stroke:rgb(16.4999999998, 8.2499999999, 0);}#my-svg .edge-thickness-normal{stroke-width:1px;}#my-svg .edge-thickness-thick{stroke-width:3.5px;}#my-svg .edge-pattern-solid{stroke-dasharray:0;}#my-svg .edge-thickness-invisible{stroke-width:0;fill:none;}#my-svg .edge-pattern-dashed{stroke-dasharray:3;}#my-svg .edge-pattern-dotted{stroke-dasharray:2;}#my-svg .marker{fill:#e74b0f;stroke:#e74b0f;}#my-svg .marker.cross{stroke:#e74b0f;}#my-svg svg{font-family:"trebuchet ms",verdana,arial,sans-serif;font-size:16px;}#my-svg p{margin:0;}#my-svg .entityBox{fill:#ffead5;stroke:#fbb176;}#my-svg .relationshipLabelBox{fill:hsl(210, 100%, 96.7647058824%);opacity:0.7;background-color:hsl(210, 100%, 96.7647058824%);}#my-svg .relationshipLabelBox rect{opacity:0.5;}#my-svg .labelBkg{background-color:rgba(238.5000000002, 246.7500000001, 255, 0.5);}#my-svg .edgeLabel{background-color:hsl(-90, 100%, 91.7647058824%);}#my-svg .edgeLabel .label rect{fill:hsl(-90, 100%, 91.7647058824%);}#my-svg .edgeLabel .label text{fill:#333;}#my-svg .edgeLabel .label{fill:#fbb176;font-size:14px;}#my-svg .label{font-family:"trebuchet ms",verdana,arial,sans-serif;color:#333;}#my-svg .edge-pattern-dashed{stroke-dasharray:8,8;}#my-svg .node rect,#my-svg .node circle,#my-svg .node ellipse,#my-svg .node polygon{fill:#ffead5;stroke:#fbb176;stroke-width:1px;}#my-svg .relationshipLine{stroke:#e74b0f;stroke-width:1px;fill:none;}#my-svg .marker{fill:none!important;stroke:#e74b0f!important;stroke-width:1;}#my-svg [data-look=neo].labelBkg{background-color:rgba(238.5000000002, 246.7500000001, 255, 0.5);}#my-svg .node .neo-node{stroke:#fbb176;}#my-svg [data-look="neo"].node rect,#my-svg [data-look="neo"].cluster rect,#my-svg [data-look="neo"].node polygon{stroke:url(#my-svg-gradient);filter:drop-shadow( 1px 2px 2px rgba(185,185,185,1));}#my-svg [data-look="neo"].node path{stroke:url(#my-svg-gradient);stroke-width:1px;}#my-svg [data-look="neo"].node .outer-path{filter:drop-shadow( 1px 2px 2px rgba(185,185,185,1));}#my-svg [data-look="neo"].node .neo-line path{stroke:#fbb176;filter:none;}#my-svg [data-look="neo"].node circle{stroke:url(#my-svg-gradient);filter:drop-shadow( 1px 2px 2px rgba(185,185,185,1));}#my-svg [data-look="neo"].node circle .state-start{fill:#000000;}#my-svg [data-look="neo"].icon-shape .icon{fill:url(#my-svg-gradient);filter:drop-shadow( 1px 2px 2px rgba(185,185,185,1));}#my-svg [data-look="neo"].icon-shape .icon-neo path{stroke:url(#my-svg-gradient);filter:drop-shadow( 1px 2px 2px rgba(185,185,185,1));}#my-svg :root{--mermaid-font-family:"trebuchet ms",verdana,arial,sans-serif;}</style><g><defs><marker id="my-svg_er-onlyOneStart" class="marker onlyOne er" refX="0" refY="9" markerWidth="18" markerHeight="18" orient="auto"><path d="M9,0 L9,18 M15,0 L15,18"/></marker></defs><defs><marker id="my-svg_er-onlyOneEnd" class="marker onlyOne er" refX="18" refY="9" markerWidth="18" markerHeight="18" orient="auto"><path d="M3,0 L3,18 M9,0 L9,18"/></marker></defs><defs><marker id="my-svg_er-zeroOrOneStart" class="marker zeroOrOne er" refX="0" refY="9" markerWidth="30" markerHeight="18" orient="auto"><circle fill="white" cx="21" cy="9" r="6"/><path d="M9,0 L9,18"/></marker></defs><defs><marker id="my-svg_er-zeroOrOneEnd" class="marker zeroOrOne er" refX="30" refY="9" markerWidth="30" markerHeight="18" orient="auto"><circle fill="white" cx="9" cy="9" r="6"/><path d="M21,0 L21,18"/></marker></defs><defs><marker id="my-svg_er-oneOrMoreStart" class="marker oneOrMore er" refX="18" refY="18" markerWidth="45" markerHeight="36" orient="auto"><path d="M0,18 Q 18,0 36,18 Q 18,36 0,18 M42,9 L42,27"/></marker></defs><defs><marker id="my-svg_er-oneOrMoreEnd" class="marker oneOrMore er" refX="27" refY="18" markerWidth="45" markerHeight="36" orient="auto"><path d="M3,9 L3,27 M9,18 Q27,0 45,18 Q27,36 9,18"/></marker></defs><defs><marker id="my-svg_er-zeroOrMoreStart" class="marker zeroOrMore er" refX="18" refY="18" markerWidth="57" markerHeight="36" orient="auto"><circle fill="white" cx="48" cy="18" r="6"/><path d="M0,18 Q18,0 36,18 Q18,36 0,18"/></marker></defs><defs><marker id="my-svg_er-zeroOrMoreEnd" class="marker zeroOrMore er" refX="39" refY="18" markerWidth="57" markerHeight="36" orient="auto"><circle fill="white" cx="9" cy="18" r="6"/><path d="M21,18 Q39,0 57,18 Q39,36 21,18"/></marker></defs></g><defs><filter id="my-svg-drop-shadow" height="130%" width="130%"><feDropShadow dx="4" dy="4" stdDeviation="0" flood-opacity="0.06" flood-color="#000000"/></filter></defs><defs><filter id="my-svg-drop-shadow-small" height="150%" width="150%"><feDropShadow dx="2" dy="2" stdDeviation="0" flood-opacity="0.06" flood-color="#000000"/></filter></defs><linearGradient id="my-svg-gradient" gradientUnits="objectBoundingBox" x1="0%" y1="0%" x2="100%" y2="0%"><stop offset="0%" stop-color="#fbb176" stop-opacity="1"/><stop offset="100%" stop-color="hsl(-90, 60%, 81.7647058824%)" stop-opacity="1"/></linearGradient><g class="subgraphs"/><g class="nodes"><g class="node default" id="my-svg-entity-ControlledVocabulary-0" data-look="classic" transform="translate(191.296875, 118.875)"><g class="outer-path" style=""><path d="M-110.484375 -106.875 L110.484375 -106.875 L110.484375 106.875 L-110.484375 106.875" stroke="none" stroke-width="0" fill="#ffead5"/><path d="M-110.484375 -106.875 C-65.7591575465895 -106.875, -21.033940093179012 -106.875, 110.484375 -106.875 M-110.484375 -106.875 C-51.79718778316637 -106.875, 6.889999433667256 -106.875, 110.484375 -106.875 M110.484375 -106.875 C110.484375 -56.1134261557077, 110.484375 -5.351852311415399, 110.484375 106.875 M110.484375 -106.875 C110.484375 -60.400612012998565, 110.484375 -13.92622402599713, 110.484375 106.875 M110.484375 106.875 C54.27370837109709 106.875, -1.936958257805827 106.875, -110.484375 106.875 M110.484375 106.875 C38.07936121194571 106.875, -34.32565257610858 106.875, -110.484375 106.875 M-110.484375 106.875 C-110.484375 47.059039157880385, -110.484375 -12.75692168423923, -110.484375 -106.875 M-110.484375 106.875 C-110.484375 49.201711074549316, -110.484375 -8.471577850901369, -110.484375 -106.875" stroke="#fbb176" stroke-width="1.3" fill="none" stroke-dasharray="0 0"/></g><g style="" class="row-rect-odd"><path d="M-110.484375 -64.125 L110.484375 -64.125 L110.484375 -21.375 L-110.484375 -21.375" stroke="none" stroke-width="0" fill="hsl(30, 100%, 100%)"/><path d="M-110.484375 -64.125 C-33.45104300334721 -64.125, 43.58228899330558 -64.125, 110.484375 -64.125 M-110.484375 -64.125 C-29.63495890796625 -64.125, 51.2144571840675 -64.125, 110.484375 -64.125 M110.484375 -64.125 C110.484375 -50.92439041815631, 110.484375 -37.72378083631261, 110.484375 -21.375 M110.484375 -64.125 C110.484375 -52.33579270426811, 110.484375 -40.54658540853622, 110.484375 -21.375 M110.484375 -21.375 C55.85030560770572 -21.375, 1.216236215411442 -21.375, -110.484375 -21.375 M110.484375 -21.375 C54.36966605610547 -21.375, -1.7450428877890545 -21.375, -110.484375 -21.375 M-110.484375 -21.375 C-110.484375 -36.39087531792026, -110.484375 -51.406750635840524, -110.484375 -64.125 M-110.484375 -21.375 C-110.484375 -37.15071240347383, -110.484375 -52.926424806947665, -110.484375 -64.125" stroke="#fbb176" stroke-width="1.3" fill="none" stroke-dasharray="0 0"/></g><g style="" class="row-rect-even"><path d="M-110.484375 -21.375 L110.484375 -21.375 L110.484375 21.375 L-110.484375 21.375" stroke="none" stroke-width="0" fill="hsl(30, 100%, 96.7647058824%)"/><path d="M-110.484375 -21.375 C-65.79962810198286 -21.375, -21.114881203965723 -21.375, 110.484375 -21.375 M-110.484375 -21.375 C-49.78145730649757 -21.375, 10.921460387004856 -21.375, 110.484375 -21.375 M110.484375 -21.375 C110.484375 -7.569168841318669, 110.484375 6.236662317362661, 110.484375 21.375 M110.484375 -21.375 C110.484375 -8.471367628076296, 110.484375 4.4322647438474085, 110.484375 21.375 M110.484375 21.375 C50.617092632639874 21.375, -9.250189734720252 21.375, -110.484375 21.375 M110.484375 21.375 C62.6800000441059 21.375, 14.875625088211805 21.375, -110.484375 21.375 M-110.484375 21.375 C-110.484375 8.76073684502547, -110.484375 -3.8535263099490606, -110.484375 -21.375 M-110.484375 21.375 C-110.484375 4.985906627956666, -110.484375 -11.403186744086668, -110.484375 -21.375" stroke="#fbb176" stroke-width="1.3" fill="none" stroke-dasharray="0 0"/></g><g style="" class="row-rect-odd"><path d="M-110.484375 21.375 L110.484375 21.375 L110.484375 64.125 L-110.484375 64.125" stroke="none" stroke-width="0" fill="hsl(30, 100%, 100%)"/><path d="M-110.484375 21.375 C-25.50695553286171 21.375, 59.47046393427658 21.375, 110.484375 21.375 M-110.484375 21.375 C-51.644019152708665 21.375, 7.196336694582669 21.375, 110.484375 21.375 M110.484375 21.375 C110.484375 31.22470241050598, 110.484375 41.07440482101196, 110.484375 64.125 M110.484375 21.375 C110.484375 32.027234125109004, 110.484375 42.67946825021801, 110.484375 64.125 M110.484375 64.125 C39.62888585243128 64.125, -31.226603295137437 64.125, -110.484375 64.125 M110.484375 64.125 C45.28009842233432 64.125, -19.92417815533136 64.125, -110.484375 64.125 M-110.484375 64.125 C-110.484375 54.468205670761684, -110.484375 44.81141134152337, -110.484375 21.375 M-110.484375 64.125 C-110.484375 52.13543233370571, -110.484375 40.14586466741141, -110.484375 21.375" stroke="#fbb176" stroke-width="1.3" fill="none" stroke-dasharray="0 0"/></g><g style="" class="row-rect-even"><path d="M-110.484375 64.125 L110.484375 64.125 L110.484375 106.875 L-110.484375 106.875" stroke="none" stroke-width="0" fill="hsl(30, 100%, 96.7647058824%)"/><path d="M-110.484375 64.125 C-58.21725297034386 64.125, -5.950130940687714 64.125, 110.484375 64.125 M-110.484375 64.125 C-61.08434417518688 64.125, -11.684313350373756 64.125, 110.484375 64.125 M110.484375 64.125 C110.484375 80.4969542482879, 110.484375 96.86890849657581, 110.484375 106.875 M110.484375 64.125 C110.484375 75.85070550168243, 110.484375 87.57641100336485, 110.484375 106.875 M110.484375 106.875 C24.544974651932336 106.875, -61.39442569613533 106.875, -110.484375 106.875 M110.484375 106.875 C28.827332902014845 106.875, -52.82970919597031 106.875, -110.484375 106.875 M-110.484375 106.875 C-110.484375 95.27368894098042, -110.484375 83.67237788196084, -110.484375 64.125 M-110.484375 106.875 C-110.484375 93.35962478811503, -110.484375 79.84424957623006, -110.484375 64.125" stroke="#fbb176" stroke-width="1.3" fill="none" stroke-dasharray="0 0"/></g><a href="/vicflora-docs/resources/controlled-vocabulary" target="_top"><g class="label name" transform="translate(-85.484375, -97.5)" style=""><foreignObject width="170.96875" height="24"><div xmlns="http://www.w3.org/1999/xhtml" style="display: table-cell; white-space: nowrap; line-height: 1.5; max-width: 271px; text-align: start;"><span class="nodeLabel"><p style="color: #e74b0f; font-weight: bold;">ControlledVocabulary</p></span></div></foreignObject></g></a><g class="label attribute-type" transform="translate(-97.984375, -54.75)" style=""><foreignObject width="20.859375" height="24"><div xmlns="http://www.w3.org/1999/xhtml" style="display: table-cell; white-space: nowrap; line-height: 1.5; max-width: 120px; text-align: start;"><span class="nodeLabel"><p>int</p></span></div></foreignObject></g><g class="label attribute-name" transform="translate(-13.317708333333329, -54.75)" style=""><foreignObject width="14.609375" height="24"><div xmlns="http://www.w3.org/1999/xhtml" style="display: table-cell; white-space: nowrap; line-height: 1.5; max-width: 114px; text-align: start;"><span class="nodeLabel"><p>id</p></span></div></foreignObject></g><g class="label attribute-keys" transform="translate(64.11458333333334, -54.75)" style=""><foreignObject width="20.140625" height="24"><div xmlns="http://www.w3.org/1999/xhtml" style="display: table-cell; white-space: nowrap; line-height: 1.5; max-width: 121px; text-align: start;"><span class="nodeLabel"><p>PK</p></span></div></foreignObject></g><g class="label attribute-comment" transform="translate(122.984375, -54.75)" style=""><foreignObject width="0" height="0"><div xmlns="http://www.w3.org/1999/xhtml" style="display: table-cell; white-space: nowrap; line-height: 1.5; max-width: 100px; text-align: start;"><span class="nodeLabel"></span></div></foreignObject></g><g class="label attribute-type" transform="translate(-97.984375, -12)" style=""><foreignObject width="45.9375" height="24"><div xmlns="http://www.w3.org/1999/xhtml" style="display: table-cell; white-space: nowrap; line-height: 1.5; max-width: 145px; text-align: start;"><span class="nodeLabel"><p>string</p></span></div></foreignObject></g><g class="label attribute-name" transform="translate(-13.317708333333329, -12)" style=""><foreignObject width="38.703125" height="24"><div xmlns="http://www.w3.org/1999/xhtml" style="display: table-cell; white-space: nowrap; line-height: 1.5; max-width: 138px; text-align: start;"><span class="nodeLabel"><p>label</p></span></div></foreignObject></g><g class="label attribute-keys" transform="translate(64.11458333333334, -12)" style=""><foreignObject width="0" height="0"><div xmlns="http://www.w3.org/1999/xhtml" style="display: table-cell; white-space: nowrap; line-height: 1.5; max-width: 100px; text-align: start;"><span class="nodeLabel"></span></div></foreignObject></g><g class="label attribute-comment" transform="translate(122.984375, -12)" style=""><foreignObject width="0" height="0"><div xmlns="http://www.w3.org/1999/xhtml" style="display: table-cell; white-space: nowrap; line-height: 1.5; max-width: 100px; text-align: start;"><span class="nodeLabel"></span></div></foreignObject></g><g class="label attribute-type" transform="translate(-97.984375, 30.75)" style=""><foreignObject width="45.9375" height="24"><div xmlns="http://www.w3.org/1999/xhtml" style="display: table-cell; white-space: nowrap; line-height: 1.5; max-width: 145px; text-align: start;"><span class="nodeLabel"><p>string</p></span></div></foreignObject></g><g class="label attribute-name" transform="translate(-13.317708333333329, 30.75)" style=""><foreignObject width="38.59375" height="24"><div xmlns="http://www.w3.org/1999/xhtml" style="display: table-cell; white-space: nowrap; line-height: 1.5; max-width: 139px; text-align: start;"><span class="nodeLabel"><p>code</p></span></div></foreignObject></g><g class="label attribute-keys" transform="translate(64.11458333333334, 30.75)" style=""><foreignObject width="0" height="0"><div xmlns="http://www.w3.org/1999/xhtml" style="display: table-cell; white-space: nowrap; line-height: 1.5; max-width: 100px; text-align: start;"><span class="nodeLabel"></span></div></foreignObject></g><g class="label attribute-comment" transform="translate(122.984375, 30.75)" style=""><foreignObject width="0" height="0"><div xmlns="http://www.w3.org/1999/xhtml" style="display: table-cell; white-space: nowrap; line-height: 1.5; max-width: 100px; text-align: start;"><span class="nodeLabel"></span></div></foreignObject></g><g class="label attribute-type" transform="translate(-97.984375, 73.5)" style=""><foreignObject width="45.9375" height="24"><div xmlns="http://www.w3.org/1999/xhtml" style="display: table-cell; white-space: nowrap; line-height: 1.5; max-width: 145px; text-align: start;"><span class="nodeLabel"><p>string</p></span></div></foreignObject></g><g class="label attribute-name" transform="translate(-13.317708333333329, 73.5)" style=""><foreignObject width="15.46875" height="24"><div xmlns="http://www.w3.org/1999/xhtml" style="display: table-cell; white-space: nowrap; line-height: 1.5; max-width: 115px; text-align: start;"><span class="nodeLabel"><p>iri</p></span></div></foreignObject></g><g class="label attribute-keys" transform="translate(64.11458333333334, 73.5)" style=""><foreignObject width="0" height="0"><div xmlns="http://www.w3.org/1999/xhtml" style="display: table-cell; white-space: nowrap; line-height: 1.5; max-width: 100px; text-align: start;"><span class="nodeLabel"></span></div></foreignObject></g><g class="label attribute-comment" transform="translate(122.984375, 73.5)" style=""><foreignObject width="0" height="0"><div xmlns="http://www.w3.org/1999/xhtml" style="display: table-cell; white-space: nowrap; line-height: 1.5; max-width: 100px; text-align: start;"><span class="nodeLabel"></span></div></foreignObject></g><g class="divider"><path d="M-110.484375 -64.12505 L-110.484375 -64.12495 L110.484375 -64.12495 L110.484375 -64.12505" stroke="none" stroke-width="0" fill="#ffead5" fill-rule="evenodd"/><path d="M-110.484375 -64.12505 C-110.484375 -64.125015495127, -110.484375 -64.124980990254, -110.484375 -64.12495 M-110.484375 -64.12505 C-110.484375 -64.12502326623274, -110.484375 -64.12499653246549, -110.484375 -64.12495 M-110.484375 -64.12495 C-22.277790395748553 -64.12495, 65.9287942085029 -64.12495, 110.484375 -64.12495 M-110.484375 -64.12495 C-39.02631042909751 -64.12495, 32.43175414180499 -64.12495, 110.484375 -64.12495 M110.484375 -64.12495 C110.484375 -64.12498130151991, 110.484375 -64.12501260303982, 110.484375 -64.12505 M110.484375 -64.12495 C110.484375 -64.12498432787307, 110.484375 -64.12501865574613, 110.484375 -64.12505 M110.484375 -64.12505 C52.80264282974465 -64.12505, -4.879089340510703 -64.12505, -110.484375 -64.12505 M110.484375 -64.12505 C43.05706464726242 -64.12505, -24.370245705475156 -64.12505, -110.484375 -64.12505" stroke="#fbb176" stroke-width="1.3" fill="none" stroke-dasharray="0 0"/></g><g class="divider"><path d="M-25.81775833333333 -64.125 L-25.817658333333327 -64.125 L-25.817658333333327 106.875 L-25.81775833333333 106.875" stroke="none" stroke-width="0" fill="#ffead5" fill-rule="evenodd"/><path d="M-25.81775833333333 -64.125 C-25.81772543673894 -64.125, -25.817692540144552 -64.125, -25.817658333333327 -64.125 M-25.81775833333333 -64.125 C-25.81772318246448 -64.125, -25.81768803159563 -64.125, -25.817658333333327 -64.125 M-25.817658333333327 -64.125 C-25.817658333333327 3.174315103264135, -25.817658333333327 70.47363020652827, -25.817658333333327 106.875 M-25.817658333333327 -64.125 C-25.817658333333327 -4.716429702756926, -25.817658333333327 54.69214059448615, -25.817658333333327 106.875 M-25.817658333333327 106.875 C-25.817686997710936 106.875, -25.817715662088546 106.875, -25.81775833333333 106.875 M-25.817658333333327 106.875 C-25.817686229367396 106.875, -25.817714125401462 106.875, -25.81775833333333 106.875 M-25.81775833333333 106.875 C-25.81775833333333 52.0585867775093, -25.81775833333333 -2.7578264449814043, -25.81775833333333 -64.125 M-25.81775833333333 106.875 C-25.81775833333333 52.4433853081613, -25.81775833333333 -1.9882293836774068, -25.81775833333333 -64.125" stroke="#fbb176" stroke-width="1.3" fill="none" stroke-dasharray="0 0"/></g><g class="divider"><path d="M51.61453333333334 -64.125 L51.614633333333344 -64.125 L51.614633333333344 106.875 L51.61453333333334 106.875" stroke="none" stroke-width="0" fill="#ffead5" fill-rule="evenodd"/><path d="M51.61453333333334 -64.125 C51.61456605937379 -64.125, 51.61459878541425 -64.125, 51.614633333333344 -64.125 M51.61453333333334 -64.125 C51.61457251932124 -64.125, 51.614611705309144 -64.125, 51.614633333333344 -64.125 M51.614633333333344 -64.125 C51.614633333333344 -12.8429437596768, 51.614633333333344 38.4391124806464, 51.614633333333344 106.875 M51.614633333333344 -64.125 C51.614633333333344 -6.797027802910783, 51.614633333333344 50.530944394178434, 51.614633333333344 106.875 M51.614633333333344 106.875 C51.614612016184054 106.875, 51.614590699034764 106.875, 51.61453333333334 106.875 M51.614633333333344 106.875 C51.61459529603614 106.875, 51.614557258738934 106.875, 51.61453333333334 106.875 M51.61453333333334 106.875 C51.61453333333334 52.276957461039444, 51.61453333333334 -2.3210850779211114, 51.61453333333334 -64.125 M51.61453333333334 106.875 C51.61453333333334 64.76550179365921, 51.61453333333334 22.656003587318438, 51.61453333333334 -64.125" stroke="#fbb176" stroke-width="1.3" fill="none" stroke-dasharray="0 0"/></g><g class="divider"><path d="M-110.484375 -64.12505 L-110.484375 -64.12495 L110.484375 -64.12495 L110.484375 -64.12505" stroke="none" stroke-width="0" fill="#ffead5" fill-rule="evenodd"/><path d="M-110.484375 -64.12505 C-110.484375 -64.12502493836915, -110.484375 -64.1249998767383, -110.484375 -64.12495 M-110.484375 -64.12505 C-110.484375 -64.12501590059976, -110.484375 -64.12498180119952, -110.484375 -64.12495 M-110.484375 -64.12495 C-33.51003433867592 -64.12495, 43.464306322648156 -64.12495, 110.484375 -64.12495 M-110.484375 -64.12495 C-63.423710468872045 -64.12495, -16.36304593774409 -64.12495, 110.484375 -64.12495 M110.484375 -64.12495 C110.484375 -64.12497869483822, 110.484375 -64.12500738967643, 110.484375 -64.12505 M110.484375 -64.12495 C110.484375 -64.12498226317979, 110.484375 -64.12501452635958, 110.484375 -64.12505 M110.484375 -64.12505 C50.680889377579994 -64.12505, -9.122596244840011 -64.12505, -110.484375 -64.12505 M110.484375 -64.12505 C55.21665800003486 -64.12505, -0.05105899993027663 -64.12505, -110.484375 -64.12505" stroke="#fbb176" stroke-width="1.3" fill="none" stroke-dasharray="0 0"/></g></g><g class="node default" id="my-svg-entity-ControlledTerm-1" data-look="classic" transform="translate(191.296875, 519.125)"><g class="outer-path" style=""><path d="M-179.296875 -192.375 L179.296875 -192.375 L179.296875 192.375 L-179.296875 192.375" stroke="none" stroke-width="0" fill="#ffead5"/><path d="M-179.296875 -192.375 C-92.23399717623984 -192.375, -5.171119352479678 -192.375, 179.296875 -192.375 M-179.296875 -192.375 C-68.72471532323377 -192.375, 41.84744435353247 -192.375, 179.296875 -192.375 M179.296875 -192.375 C179.296875 -45.70429660315554, 179.296875 100.96640679368892, 179.296875 192.375 M179.296875 -192.375 C179.296875 -68.80822945063056, 179.296875 54.758541098738874, 179.296875 192.375 M179.296875 192.375 C94.76238994173582 192.375, 10.227904883471638 192.375, -179.296875 192.375 M179.296875 192.375 C77.00744640114556 192.375, -25.281982197708885 192.375, -179.296875 192.375 M-179.296875 192.375 C-179.296875 98.68524992834375, -179.296875 4.995499856687502, -179.296875 -192.375 M-179.296875 192.375 C-179.296875 82.71141597174098, -179.296875 -26.952168056518047, -179.296875 -192.375" stroke="#fbb176" stroke-width="1.3" fill="none" stroke-dasharray="0 0"/></g><g style="" class="row-rect-odd"><path d="M-179.296875 -149.625 L179.296875 -149.625 L179.296875 -106.875 L-179.296875 -106.875" stroke="none" stroke-width="0" fill="hsl(30, 100%, 100%)"/><path d="M-179.296875 -149.625 C-46.13613881238902 -149.625, 87.02459737522196 -149.625, 179.296875 -149.625 M-179.296875 -149.625 C-66.22178124571445 -149.625, 46.85331250857109 -149.625, 179.296875 -149.625 M179.296875 -149.625 C179.296875 -136.86545057833357, 179.296875 -124.10590115666713, 179.296875 -106.875 M179.296875 -149.625 C179.296875 -135.28243340183712, 179.296875 -120.93986680367424, 179.296875 -106.875 M179.296875 -106.875 C93.3432620378955 -106.875, 7.389649075790999 -106.875, -179.296875 -106.875 M179.296875 -106.875 C103.81989533177877 -106.875, 28.342915663557534 -106.875, -179.296875 -106.875 M-179.296875 -106.875 C-179.296875 -119.55876044806855, -179.296875 -132.2425208961371, -179.296875 -149.625 M-179.296875 -106.875 C-179.296875 -117.76494797760469, -179.296875 -128.65489595520938, -179.296875 -149.625" stroke="#fbb176" stroke-width="1.3" fill="none" stroke-dasharray="0 0"/></g><g style="" class="row-rect-even"><path d="M-179.296875 -106.875 L179.296875 -106.875 L179.296875 -64.125 L-179.296875 -64.125" stroke="none" stroke-width="0" fill="hsl(30, 100%, 96.7647058824%)"/><path d="M-179.296875 -106.875 C-36.06937181219064 -106.875, 107.15813137561872 -106.875, 179.296875 -106.875 M-179.296875 -106.875 C-82.53357208310553 -106.875, 14.229730833788949 -106.875, 179.296875 -106.875 M179.296875 -106.875 C179.296875 -93.73828450154005, 179.296875 -80.6015690030801, 179.296875 -64.125 M179.296875 -106.875 C179.296875 -94.01957505757157, 179.296875 -81.16415011514314, 179.296875 -64.125 M179.296875 -64.125 C103.1533877977077 -64.125, 27.009900595415388 -64.125, -179.296875 -64.125 M179.296875 -64.125 C61.897276209969874 -64.125, -55.50232258006025 -64.125, -179.296875 -64.125 M-179.296875 -64.125 C-179.296875 -74.5149570594788, -179.296875 -84.90491411895762, -179.296875 -106.875 M-179.296875 -64.125 C-179.296875 -72.68540010609078, -179.296875 -81.24580021218158, -179.296875 -106.875" stroke="#fbb176" stroke-width="1.3" fill="none" stroke-dasharray="0 0"/></g><g style="" class="row-rect-odd"><path d="M-179.296875 -64.125 L179.296875 -64.125 L179.296875 -21.375 L-179.296875 -21.375" stroke="none" stroke-width="0" fill="hsl(30, 100%, 100%)"/><path d="M-179.296875 -64.125 C-47.056882404082444 -64.125, 85.18311019183511 -64.125, 179.296875 -64.125 M-179.296875 -64.125 C-43.19357647943062 -64.125, 92.90972204113876 -64.125, 179.296875 -64.125 M179.296875 -64.125 C179.296875 -53.38031413320344, 179.296875 -42.63562826640689, 179.296875 -21.375 M179.296875 -64.125 C179.296875 -48.9900337951803, 179.296875 -33.855067590360605, 179.296875 -21.375 M179.296875 -21.375 C71.87003094423571 -21.375, -35.556813111528584 -21.375, -179.296875 -21.375 M179.296875 -21.375 C97.7677336828189 -21.375, 16.2385923656378 -21.375, -179.296875 -21.375 M-179.296875 -21.375 C-179.296875 -37.541356738198836, -179.296875 -53.70771347639767, -179.296875 -64.125 M-179.296875 -21.375 C-179.296875 -31.52963552688429, -179.296875 -41.68427105376858, -179.296875 -64.125" stroke="#fbb176" stroke-width="1.3" fill="none" stroke-dasharray="0 0"/></g><g style="" class="row-rect-even"><path d="M-179.296875 -21.375 L179.296875 -21.375 L179.296875 21.375 L-179.296875 21.375" stroke="none" stroke-width="0" fill="hsl(30, 100%, 96.7647058824%)"/><path d="M-179.296875 -21.375 C-81.68336569600346 -21.375, 15.930143607993074 -21.375, 179.296875 -21.375 M-179.296875 -21.375 C-44.92077075345051 -21.375, 89.45533349309898 -21.375, 179.296875 -21.375 M179.296875 -21.375 C179.296875 -7.115325614301225, 179.296875 7.144348771397549, 179.296875 21.375 M179.296875 -21.375 C179.296875 -8.791089685812855, 179.296875 3.7928206283742902, 179.296875 21.375 M179.296875 21.375 C90.08153098479077 21.375, 0.8661869695815483 21.375, -179.296875 21.375 M179.296875 21.375 C85.8408044901088 21.375, -7.6152660197824105 21.375, -179.296875 21.375 M-179.296875 21.375 C-179.296875 7.815906340838392, -179.296875 -5.743187318323216, -179.296875 -21.375 M-179.296875 21.375 C-179.296875 4.61835052696626, -179.296875 -12.13829894606748, -179.296875 -21.375" stroke="#fbb176" stroke-width="1.3" fill="none" stroke-dasharray="0 0"/></g><g style="" class="row-rect-odd"><path d="M-179.296875 21.375 L179.296875 21.375 L179.296875 64.125 L-179.296875 64.125" stroke="none" stroke-width="0" fill="hsl(30, 100%, 100%)"/><path d="M-179.296875 21.375 C-77.2711135445666 21.375, 24.754647910866794 21.375, 179.296875 21.375 M-179.296875 21.375 C-74.40872373758219 21.375, 30.479427524835614 21.375, 179.296875 21.375 M179.296875 21.375 C179.296875 33.75651664253538, 179.296875 46.13803328507076, 179.296875 64.125 M179.296875 21.375 C179.296875 34.468438454406005, 179.296875 47.56187690881201, 179.296875 64.125 M179.296875 64.125 C84.63102700159695 64.125, -10.034820996806104 64.125, -179.296875 64.125 M179.296875 64.125 C89.49747219612723 64.125, -0.3019306077455326 64.125, -179.296875 64.125 M-179.296875 64.125 C-179.296875 55.04172731241629, -179.296875 45.958454624832584, -179.296875 21.375 M-179.296875 64.125 C-179.296875 54.53027089788755, -179.296875 44.935541795775094, -179.296875 21.375" stroke="#fbb176" stroke-width="1.3" fill="none" stroke-dasharray="0 0"/></g><g style="" class="row-rect-even"><path d="M-179.296875 64.125 L179.296875 64.125 L179.296875 106.875 L-179.296875 106.875" stroke="none" stroke-width="0" fill="hsl(30, 100%, 96.7647058824%)"/><path d="M-179.296875 64.125 C-38.207163198045805 64.125, 102.88254860390839 64.125, 179.296875 64.125 M-179.296875 64.125 C-81.49311647057154 64.125, 16.310642058856928 64.125, 179.296875 64.125 M179.296875 64.125 C179.296875 79.76796822344383, 179.296875 95.41093644688765, 179.296875 106.875 M179.296875 64.125 C179.296875 80.38653486959237, 179.296875 96.64806973918472, 179.296875 106.875 M179.296875 106.875 C42.69758792729135 106.875, -93.9016991454173 106.875, -179.296875 106.875 M179.296875 106.875 C74.40747586801092 106.875, -30.48192326397816 106.875, -179.296875 106.875 M-179.296875 106.875 C-179.296875 94.74993922359921, -179.296875 82.62487844719841, -179.296875 64.125 M-179.296875 106.875 C-179.296875 90.56083375290355, -179.296875 74.2466675058071, -179.296875 64.125" stroke="#fbb176" stroke-width="1.3" fill="none" stroke-dasharray="0 0"/></g><g style="" class="row-rect-odd"><path d="M-179.296875 106.875 L179.296875 106.875 L179.296875 149.625 L-179.296875 149.625" stroke="none" stroke-width="0" fill="hsl(30, 100%, 100%)"/><path d="M-179.296875 106.875 C-69.6409429639841 106.875, 40.014989072031796 106.875, 179.296875 106.875 M-179.296875 106.875 C-59.29374048290832 106.875, 60.70939403418336 106.875, 179.296875 106.875 M179.296875 106.875 C179.296875 115.89673333428722, 179.296875 124.91846666857445, 179.296875 149.625 M179.296875 106.875 C179.296875 119.82367523232203, 179.296875 132.77235046464406, 179.296875 149.625 M179.296875 149.625 C78.44163791059425 149.625, -22.413599178811495 149.625, -179.296875 149.625 M179.296875 149.625 C63.143003684054705 149.625, -53.01086763189059 149.625, -179.296875 149.625 M-179.296875 149.625 C-179.296875 139.09368456789443, -179.296875 128.56236913578888, -179.296875 106.875 M-179.296875 149.625 C-179.296875 136.41516198168495, -179.296875 123.20532396336989, -179.296875 106.875" stroke="#fbb176" stroke-width="1.3" fill="none" stroke-dasharray="0 0"/></g><g style="" class="row-rect-even"><path d="M-179.296875 149.625 L179.296875 149.625 L179.296875 192.375 L-179.296875 192.375" stroke="none" stroke-width="0" fill="hsl(30, 100%, 96.7647058824%)"/><path d="M-179.296875 149.625 C-56.34896776430904 149.625, 66.59893947138193 149.625, 179.296875 149.625 M-179.296875 149.625 C-39.88204734320945 149.625, 99.5327803135811 149.625, 179.296875 149.625 M179.296875 149.625 C179.296875 163.47487898535843, 179.296875 177.32475797071686, 179.296875 192.375 M179.296875 149.625 C179.296875 161.189334575235, 179.296875 172.75366915047002, 179.296875 192.375 M179.296875 192.375 C65.85528723863575 192.375, -47.58630052272849 192.375, -179.296875 192.375 M179.296875 192.375 C77.7242870736176 192.375, -23.848300852764794 192.375, -179.296875 192.375 M-179.296875 192.375 C-179.296875 181.6501470995638, -179.296875 170.9252941991276, -179.296875 149.625 M-179.296875 192.375 C-179.296875 176.80669515965266, -179.296875 161.23839031930532, -179.296875 149.625" stroke="#fbb176" stroke-width="1.3" fill="none" stroke-dasharray="0 0"/></g><a href="/vicflora-docs/resources/controlled-term" target="_top"><g class="label name" transform="translate(-60.53125, -183)" style=""><foreignObject width="121.0625" height="24"><div xmlns="http://www.w3.org/1999/xhtml" style="display: table-cell; white-space: nowrap; line-height: 1.5; max-width: 222px; text-align: start;"><span class="nodeLabel"><p style="color: #e74b0f; font-weight: bold;">ControlledTerm</p></span></div></foreignObject></g></a><g class="label attribute-type" transform="translate(-166.796875, -140.25)" style=""><foreignObject width="20.859375" height="24"><div xmlns="http://www.w3.org/1999/xhtml" style="display: table-cell; white-space: nowrap; line-height: 1.5; max-width: 120px; text-align: start;"><span class="nodeLabel"><p>int</p></span></div></foreignObject></g><g class="label attribute-name" transform="translate(-77.828125, -140.25)" style=""><foreignObject width="14.609375" height="24"><div xmlns="http://www.w3.org/1999/xhtml" style="display: table-cell; white-space: nowrap; line-height: 1.5; max-width: 114px; text-align: start;"><span class="nodeLabel"><p>id</p></span></div></foreignObject></g><g class="label attribute-keys" transform="translate(58.234375, -140.25)" style=""><foreignObject width="20.140625" height="24"><div xmlns="http://www.w3.org/1999/xhtml" style="display: table-cell; white-space: nowrap; line-height: 1.5; max-width: 121px; text-align: start;"><span class="nodeLabel"><p>PK</p></span></div></foreignObject></g><g class="label attribute-comment" transform="translate(103.375, -140.25)" style=""><foreignObject width="0" height="0"><div xmlns="http://www.w3.org/1999/xhtml" style="display: table-cell; white-space: nowrap; line-height: 1.5; max-width: 100px; text-align: start;"><span class="nodeLabel"></span></div></foreignObject></g><g class="label attribute-type" transform="translate(-166.796875, -97.5)" style=""><foreignObject width="20.859375" height="24"><div xmlns="http://www.w3.org/1999/xhtml" style="display: table-cell; white-space: nowrap; line-height: 1.5; max-width: 120px; text-align: start;"><span class="nodeLabel"><p>int</p></span></div></foreignObject></g><g class="label attribute-name" transform="translate(-77.828125, -97.5)" style=""><foreignObject width="111.0625" height="24"><div xmlns="http://www.w3.org/1999/xhtml" style="display: table-cell; white-space: nowrap; line-height: 1.5; max-width: 211px; text-align: start;"><span class="nodeLabel"><p>vocabulary_id</p></span></div></foreignObject></g><g class="label attribute-keys" transform="translate(58.234375, -97.5)" style=""><foreignObject width="19.703125" height="24"><div xmlns="http://www.w3.org/1999/xhtml" style="display: table-cell; white-space: nowrap; line-height: 1.5; max-width: 120px; text-align: start;"><span class="nodeLabel"><p>FK</p></span></div></foreignObject></g><g class="label attribute-comment" transform="translate(103.375, -97.5)" style=""><foreignObject width="0" height="0"><div xmlns="http://www.w3.org/1999/xhtml" style="display: table-cell; white-space: nowrap; line-height: 1.5; max-width: 100px; text-align: start;"><span class="nodeLabel"></span></div></foreignObject></g><g class="label attribute-type" transform="translate(-166.796875, -54.75)" style=""><foreignObject width="45.9375" height="24"><div xmlns="http://www.w3.org/1999/xhtml" style="display: table-cell; white-space: nowrap; line-height: 1.5; max-width: 145px; text-align: start;"><span class="nodeLabel"><p>string</p></span></div></foreignObject></g><g class="label attribute-name" transform="translate(-77.828125, -54.75)" style=""><foreignObject width="38.703125" height="24"><div xmlns="http://www.w3.org/1999/xhtml" style="display: table-cell; white-space: nowrap; line-height: 1.5; max-width: 138px; text-align: start;"><span class="nodeLabel"><p>label</p></span></div></foreignObject></g><g class="label attribute-keys" transform="translate(58.234375, -54.75)" style=""><foreignObject width="0" height="0"><div xmlns="http://www.w3.org/1999/xhtml" style="display: table-cell; white-space: nowrap; line-height: 1.5; max-width: 100px; text-align: start;"><span class="nodeLabel"></span></div></foreignObject></g><g class="label attribute-comment" transform="translate(103.375, -54.75)" style=""><foreignObject width="0" height="0"><div xmlns="http://www.w3.org/1999/xhtml" style="display: table-cell; white-space: nowrap; line-height: 1.5; max-width: 100px; text-align: start;"><span class="nodeLabel"></span></div></foreignObject></g><g class="label attribute-type" transform="translate(-166.796875, -12)" style=""><foreignObject width="45.9375" height="24"><div xmlns="http://www.w3.org/1999/xhtml" style="display: table-cell; white-space: nowrap; line-height: 1.5; max-width: 145px; text-align: start;"><span class="nodeLabel"><p>string</p></span></div></foreignObject></g><g class="label attribute-name" transform="translate(-77.828125, -12)" style=""><foreignObject width="38.59375" height="24"><div xmlns="http://www.w3.org/1999/xhtml" style="display: table-cell; white-space: nowrap; line-height: 1.5; max-width: 139px; text-align: start;"><span class="nodeLabel"><p>code</p></span></div></foreignObject></g><g class="label attribute-keys" transform="translate(58.234375, -12)" style=""><foreignObject width="0" height="0"><div xmlns="http://www.w3.org/1999/xhtml" style="display: table-cell; white-space: nowrap; line-height: 1.5; max-width: 100px; text-align: start;"><span class="nodeLabel"></span></div></foreignObject></g><g class="label attribute-comment" transform="translate(103.375, -12)" style=""><foreignObject width="0" height="0"><div xmlns="http://www.w3.org/1999/xhtml" style="display: table-cell; white-space: nowrap; line-height: 1.5; max-width: 100px; text-align: start;"><span class="nodeLabel"></span></div></foreignObject></g><g class="label attribute-type" transform="translate(-166.796875, 30.75)" style=""><foreignObject width="45.9375" height="24"><div xmlns="http://www.w3.org/1999/xhtml" style="display: table-cell; white-space: nowrap; line-height: 1.5; max-width: 145px; text-align: start;"><span class="nodeLabel"><p>string</p></span></div></foreignObject></g><g class="label attribute-name" transform="translate(-77.828125, 30.75)" style=""><foreignObject width="15.46875" height="24"><div xmlns="http://www.w3.org/1999/xhtml" style="display: table-cell; white-space: nowrap; line-height: 1.5; max-width: 115px; text-align: start;"><span class="nodeLabel"><p>iri</p></span></div></foreignObject></g><g class="label attribute-keys" transform="translate(58.234375, 30.75)" style=""><foreignObject width="0" height="0"><div xmlns="http://www.w3.org/1999/xhtml" style="display: table-cell; white-space: nowrap; line-height: 1.5; max-width: 100px; text-align: start;"><span class="nodeLabel"></span></div></foreignObject></g><g class="label attribute-comment" transform="translate(103.375, 30.75)" style=""><foreignObject width="0" height="0"><div xmlns="http://www.w3.org/1999/xhtml" style="display: table-cell; white-space: nowrap; line-height: 1.5; max-width: 100px; text-align: start;"><span class="nodeLabel"></span></div></foreignObject></g><g class="label attribute-type" transform="translate(-166.796875, 73.5)" style=""><foreignObject width="20.859375" height="24"><div xmlns="http://www.w3.org/1999/xhtml" style="display: table-cell; white-space: nowrap; line-height: 1.5; max-width: 120px; text-align: start;"><span class="nodeLabel"><p>int</p></span></div></foreignObject></g><g class="label attribute-name" transform="translate(-77.828125, 73.5)" style=""><foreignObject width="81.640625" height="24"><div xmlns="http://www.w3.org/1999/xhtml" style="display: table-cell; white-space: nowrap; line-height: 1.5; max-width: 183px; text-align: start;"><span class="nodeLabel"><p>sort_order</p></span></div></foreignObject></g><g class="label attribute-keys" transform="translate(58.234375, 73.5)" style=""><foreignObject width="0" height="0"><div xmlns="http://www.w3.org/1999/xhtml" style="display: table-cell; white-space: nowrap; line-height: 1.5; max-width: 100px; text-align: start;"><span class="nodeLabel"></span></div></foreignObject></g><g class="label attribute-comment" transform="translate(103.375, 73.5)" style=""><foreignObject width="63.421875" height="24"><div xmlns="http://www.w3.org/1999/xhtml" style="display: table-cell; white-space: nowrap; line-height: 1.5; max-width: 162px; text-align: start;"><span class="nodeLabel"><p>nullable</p></span></div></foreignObject></g><g class="label attribute-type" transform="translate(-166.796875, 116.25)" style=""><foreignObject width="63.96875" height="24"><div xmlns="http://www.w3.org/1999/xhtml" style="display: table-cell; white-space: nowrap; line-height: 1.5; max-width: 164px; text-align: start;"><span class="nodeLabel"><p>boolean</p></span></div></foreignObject></g><g class="label attribute-name" transform="translate(-77.828125, 116.25)" style=""><foreignObject width="69.421875" height="24"><div xmlns="http://www.w3.org/1999/xhtml" style="display: table-cell; white-space: nowrap; line-height: 1.5; max-width: 169px; text-align: start;"><span class="nodeLabel"><p>is_active</p></span></div></foreignObject></g><g class="label attribute-keys" transform="translate(58.234375, 116.25)" style=""><foreignObject width="0" height="0"><div xmlns="http://www.w3.org/1999/xhtml" style="display: table-cell; white-space: nowrap; line-height: 1.5; max-width: 100px; text-align: start;"><span class="nodeLabel"></span></div></foreignObject></g><g class="label attribute-comment" transform="translate(103.375, 116.25)" style=""><foreignObject width="0" height="0"><div xmlns="http://www.w3.org/1999/xhtml" style="display: table-cell; white-space: nowrap; line-height: 1.5; max-width: 100px; text-align: start;"><span class="nodeLabel"></span></div></foreignObject></g><g class="label attribute-type" transform="translate(-166.796875, 159)" style=""><foreignObject width="42.875" height="24"><div xmlns="http://www.w3.org/1999/xhtml" style="display: table-cell; white-space: nowrap; line-height: 1.5; max-width: 143px; text-align: start;"><span class="nodeLabel"><p>jsonb</p></span></div></foreignObject></g><g class="label attribute-name" transform="translate(-77.828125, 159)" style=""><foreignObject width="77.546875" height="24"><div xmlns="http://www.w3.org/1999/xhtml" style="display: table-cell; white-space: nowrap; line-height: 1.5; max-width: 178px; text-align: start;"><span class="nodeLabel"><p>metadata</p></span></div></foreignObject></g><g class="label attribute-keys" transform="translate(58.234375, 159)" style=""><foreignObject width="0" height="0"><div xmlns="http://www.w3.org/1999/xhtml" style="display: table-cell; white-space: nowrap; line-height: 1.5; max-width: 100px; text-align: start;"><span class="nodeLabel"></span></div></foreignObject></g><g class="label attribute-comment" transform="translate(103.375, 159)" style=""><foreignObject width="63.421875" height="24"><div xmlns="http://www.w3.org/1999/xhtml" style="display: table-cell; white-space: nowrap; line-height: 1.5; max-width: 162px; text-align: start;"><span class="nodeLabel"><p>nullable</p></span></div></foreignObject></g><g class="divider"><path d="M-179.296875 -149.62505 L-179.296875 -149.62495 L179.296875 -149.62495 L179.296875 -149.62505" stroke="none" stroke-width="0" fill="#ffead5" fill-rule="evenodd"/><path d="M-179.296875 -149.62505 C-179.296875 -149.62501713055647, -179.296875 -149.62498426111296, -179.296875 -149.62495 M-179.296875 -149.62505 C-179.296875 -149.62502700328628, -179.296875 -149.62500400657257, -179.296875 -149.62495 M-179.296875 -149.62495 C-45.88122604771655 -149.62495, 87.5344229045669 -149.62495, 179.296875 -149.62495 M-179.296875 -149.62495 C-62.91323427948909 -149.62495, 53.47040644102182 -149.62495, 179.296875 -149.62495 M179.296875 -149.62495 C179.296875 -149.62497445533384, 179.296875 -149.6249989106677, 179.296875 -149.62505 M179.296875 -149.62495 C179.296875 -149.62498831181142, 179.296875 -149.62502662362283, 179.296875 -149.62505 M179.296875 -149.62505 C49.05094448764231 -149.62505, -81.19498602471538 -149.62505, -179.296875 -149.62505 M179.296875 -149.62505 C86.30970363367727 -149.62505, -6.677467732645454 -149.62505, -179.296875 -149.62505" stroke="#fbb176" stroke-width="1.3" fill="none" stroke-dasharray="0 0"/></g><g class="divider"><path d="M-90.328175 -149.625 L-90.328075 -149.625 L-90.328075 192.375 L-90.328175 192.375" stroke="none" stroke-width="0" fill="#ffead5" fill-rule="evenodd"/><path d="M-90.328175 -149.625 C-90.32814662848874 -149.625, -90.32811825697749 -149.625, -90.328075 -149.625 M-90.328175 -149.625 C-90.32814047784758 -149.625, -90.32810595569516 -149.625, -90.328075 -149.625 M-90.328075 -149.625 C-90.328075 -38.71736951579841, -90.328075 72.19026096840318, -90.328075 192.375 M-90.328075 -149.625 C-90.328075 -23.973310588554497, -90.328075 101.678378822891, -90.328075 192.375 M-90.328075 192.375 C-90.32810881549419 192.375, -90.32814263098838 192.375, -90.328175 192.375 M-90.328075 192.375 C-90.32810682530686 192.375, -90.32813865061374 192.375, -90.328175 192.375 M-90.328175 192.375 C-90.328175 109.89665072525972, -90.328175 27.418301450519436, -90.328175 -149.625 M-90.328175 192.375 C-90.328175 107.40067968563176, -90.328175 22.426359371263516, -90.328175 -149.625" stroke="#fbb176" stroke-width="1.3" fill="none" stroke-dasharray="0 0"/></g><g class="divider"><path d="M45.734325 -149.625 L45.734425 -149.625 L45.734425 192.375 L45.734325 192.375" stroke="none" stroke-width="0" fill="#ffead5" fill-rule="evenodd"/><path d="M45.734325 -149.625 C45.73436278622516 -149.625, 45.734400572450326 -149.625, 45.734425 -149.625 M45.734325 -149.625 C45.73436092389204 -149.625, 45.73439684778408 -149.625, 45.734425 -149.625 M45.734425 -149.625 C45.734425 -77.34732898544674, 45.734425 -5.0696579708934735, 45.734425 192.375 M45.734425 -149.625 C45.734425 -47.79208051071524, 45.734425 54.040838978569525, 45.734425 192.375 M45.734425 192.375 C45.73439764838712 192.375, 45.73437029677425 192.375, 45.734325 192.375 M45.734425 192.375 C45.7344049994684 192.375, 45.734384998936804 192.375, 45.734325 192.375 M45.734325 192.375 C45.734325 94.75962048166387, 45.734325 -2.8557590366722536, 45.734325 -149.625 M45.734325 192.375 C45.734325 101.36634216874968, 45.734325 10.357684337499364, 45.734325 -149.625" stroke="#fbb176" stroke-width="1.3" fill="none" stroke-dasharray="0 0"/></g><g class="divider"><path d="M90.87495 -149.625 L90.87505 -149.625 L90.87505 192.375 L90.87495 192.375" stroke="none" stroke-width="0" fill="#ffead5" fill-rule="evenodd"/><path d="M90.87495 -149.625 C90.87497532166759 -149.625, 90.87500064333518 -149.625, 90.87505 -149.625 M90.87495 -149.625 C90.87498002622331 -149.625, 90.87501005244663 -149.625, 90.87505 -149.625 M90.87505 -149.625 C90.87505 -41.732416574541006, 90.87505 66.16016685091799, 90.87505 192.375 M90.87505 -149.625 C90.87505 -33.15100671632632, 90.87505 83.32298656734736, 90.87505 192.375 M90.87505 192.375 C90.87502984207342 192.375, 90.87500968414683 192.375, 90.87495 192.375 M90.87505 192.375 C90.87501633026825 192.375, 90.87498266053649 192.375, 90.87495 192.375 M90.87495 192.375 C90.87495 88.51938144049771, 90.87495 -15.33623711900458, 90.87495 -149.625 M90.87495 192.375 C90.87495 68.82950707183558, 90.87495 -54.71598585632884, 90.87495 -149.625" stroke="#fbb176" stroke-width="1.3" fill="none" stroke-dasharray="0 0"/></g><g class="divider"><path d="M-179.296875 -149.62505 L-179.296875 -149.62495 L179.296875 -149.62495 L179.296875 -149.62505" stroke="none" stroke-width="0" fill="#ffead5" fill-rule="evenodd"/><path d="M-179.296875 -149.62505 C-179.296875 -149.625029686364, -179.296875 -149.62500937272802, -179.296875 -149.62495 M-179.296875 -149.62505 C-179.296875 -149.62501276939471, -179.296875 -149.62497553878944, -179.296875 -149.62495 M-179.296875 -149.62495 C-85.10840795933557 -149.62495, 9.08005908132887 -149.62495, 179.296875 -149.62495 M-179.296875 -149.62495 C-38.441322872176784 -149.62495, 102.41422925564643 -149.62495, 179.296875 -149.62495 M179.296875 -149.62495 C179.296875 -149.62498764976047, 179.296875 -149.6250252995209, 179.296875 -149.62505 M179.296875 -149.62495 C179.296875 -149.62498841764162, 179.296875 -149.6250268352832, 179.296875 -149.62505 M179.296875 -149.62505 C74.09285093629161 -149.62505, -31.111173127416777 -149.62505, -179.296875 -149.62505 M179.296875 -149.62505 C94.02180224746128 -149.62505, 8.746729494922562 -149.62505, -179.296875 -149.62505" stroke="#fbb176" stroke-width="1.3" fill="none" stroke-dasharray="0 0"/></g></g></g><g class="edgeLabels"><g class="edgeLabel" transform="translate(190.9296875, 276.25)"><g class="label" data-id="id_entity-ControlledVocabulary-0_entity-ControlledTerm-1_0" transform="translate(-29.6328125, -10.5)"><foreignObject width="59.265625" height="21"><div xmlns="http://www.w3.org/1999/xhtml" class="labelBkg" style="display: table-cell; white-space: nowrap; line-height: 1.5; max-width: 200px; text-align: center;"><span class="edgeLabel"><p>contains</p></span></div></foreignObject></g></g></g></svg>