<svg id="my-svg" width="100%" xmlns="http://www.w3.org/2000/svg" xmlns:xlink="http://www.w3.org/1999/xlink" class="erDiagram" style="max-width: 545.906px; background-color: white;" viewBox="4 4 545.90625 685.25" role="graphics-document document" aria-roledescription="er"><g class="edges edgePaths"><path d="M144.02734375,311.25L144.02734375,324.1789321881345Q144.02734375,331.25 136.95627593813452,331.25L93.57106781186548,331.25Q86.5,331.25 86.5,338.3210678118655L86.5,412.25" id="my-svg-id_entity-TaxonConceptMapping-0_entity-TaxonConcept-1_0" class="edge-thickness-normal edge-pattern-solid relationshipLine" style="undefined;;;undefined" data-edge="true" data-et="edge" data-id="id_entity-TaxonConceptMapping-0_entity-TaxonConcept-1_0" data-points="W3sieCI6MTQ0LjAyNzM0Mzc1LCJ5IjozMTEuMjV9LHsieCI6MTQ0LjAyNzM0Mzc1LCJ5IjozMzEuMjV9LHsieCI6ODYuNSwieSI6MzMxLjI1fSx7IngiOjg2LjUsInkiOjQxMi4yNX1d" data-look="classic" marker-start="url(#my-svg_er-oneOrMoreStart)" marker-end="url(#my-svg_er-zeroOrOneEnd)"/><path d="M251.75,311.25L251.75,385.1789321881345Q251.75,392.25 244.67893218813452,392.25L144.24294281186548,392.25Q137.171875,392.25 137.171875,399.3210678118655L137.171875,412.25" id="my-svg-id_entity-TaxonConceptMapping-0_entity-TaxonConcept-1_1" class="edge-thickness-normal edge-pattern-solid relationshipLine" style="undefined;;;undefined" data-edge="true" data-et="edge" data-id="id_entity-TaxonConceptMapping-0_entity-TaxonConcept-1_1" data-points="W3sieCI6MjUxLjc1LCJ5IjozMTEuMjV9LHsieCI6MjUxLjc1LCJ5IjozOTIuMjV9LHsieCI6MTM3LjE3MTg3NSwieSI6MzkyLjI1fSx7IngiOjEzNy4xNzE4NzUsInkiOjQxMi4yNX1d" data-look="classic" marker-start="url(#my-svg_er-oneOrMoreStart)" marker-end="url(#my-svg_er-zeroOrOneEnd)"/><path d="M359.47265625000006,311.25L359.47265625,324.1789321881345Q359.47265625,331.25 366.5437240618655,331.25L434.8351821881345,331.25Q441.90625,331.25 441.90625,338.3210678118655L441.90625,412.25" id="my-svg-id_entity-TaxonConceptMapping-0_entity-Entity_Source_MAP-2_2" class="edge-thickness-normal edge-pattern-solid relationshipLine" style="undefined;;;undefined" data-edge="true" data-et="edge" data-id="id_entity-TaxonConceptMapping-0_entity-Entity_Source_MAP-2_2" data-points="W3sieCI6MzU5LjQ3MjY1NjI1MDAwMDA2LCJ5IjozMTEuMjV9LHsieCI6MzU5LjQ3MjY1NjI1LCJ5IjozMzEuMjV9LHsieCI6NDQxLjkwNjI1LCJ5IjozMzEuMjV9LHsieCI6NDQxLjkwNjI1LCJ5Ijo0MTIuMjV9XQ==" data-look="classic" marker-start="url(#my-svg_er-zeroOrMoreStart)" marker-end="url(#my-svg_er-onlyOneEnd)"/><path d="M441.90625,496.25L441.90625,597.25" id="my-svg-id_entity-Entity_Source_MAP-2_entity-Reference-3_3" class="edge-thickness-normal edge-pattern-solid relationshipLine" style="undefined;;;undefined" data-edge="true" data-et="edge" data-id="id_entity-Entity_Source_MAP-2_entity-Reference-3_3" data-points="W3sieCI6NDQxLjkwNjI1LCJ5Ijo0OTYuMjV9LHsieCI6NDQxLjkwNjI1LCJ5Ijo1OTcuMjV9XQ==" data-look="classic" marker-start="url(#my-svg_er-oneOrMoreStart)" marker-end="url(#my-svg_er-zeroOrOneEnd)"/></g><style>#my-svg{font-family:"trebuchet ms",verdana,arial,sans-serif;font-size:16px;fill:#333;}@keyframes edge-animation-frame{from{stroke-dashoffset:0;}}@keyframes dash{to{stroke-dashoffset:0;}}#my-svg .edge-animation-slow{stroke-dasharray:9,5!important;stroke-dashoffset:900;animation:dash 50s linear infinite;stroke-linecap:round;}#my-svg .edge-animation-fast{stroke-dasharray:9,5!important;stroke-dashoffset:900;animation:dash 20s linear infinite;stroke-linecap:round;}#my-svg .error-icon{fill:hsl(210, 100%, 96.7647058824%);}#my-svg .error-text{fill:rgb(16.4999999998, 8.2499999999, 0);stroke:rgb(16.4999999998, 8.2499999999, 0);}#my-svg .edge-thickness-normal{stroke-width:1px;}#my-svg .edge-thickness-thick{stroke-width:3.5px;}#my-svg .edge-pattern-solid{stroke-dasharray:0;}#my-svg .edge-thickness-invisible{stroke-width:0;fill:none;}#my-svg .edge-pattern-dashed{stroke-dasharray:3;}#my-svg .edge-pattern-dotted{stroke-dasharray:2;}#my-svg .marker{fill:#e74b0f;stroke:#e74b0f;}#my-svg .marker.cross{stroke:#e74b0f;}#my-svg svg{font-family:"trebuchet ms",verdana,arial,sans-serif;font-size:16px;}#my-svg p{margin:0;}#my-svg .entityBox{fill:#ffead5;stroke:#fbb176;}#my-svg .relationshipLabelBox{fill:hsl(210, 100%, 96.7647058824%);opacity:0.7;background-color:hsl(210, 100%, 96.7647058824%);}#my-svg .relationshipLabelBox rect{opacity:0.5;}#my-svg .labelBkg{background-color:rgba(238.5000000002, 246.7500000001, 255, 0.5);}#my-svg .edgeLabel{background-color:hsl(-90, 100%, 91.7647058824%);}#my-svg .edgeLabel .label rect{fill:hsl(-90, 100%, 91.7647058824%);}#my-svg .edgeLabel .label text{fill:#333;}#my-svg .edgeLabel .label{fill:#fbb176;font-size:14px;}#my-svg .label{font-family:"trebuchet ms",verdana,arial,sans-serif;color:#333;}#my-svg .edge-pattern-dashed{stroke-dasharray:8,8;}#my-svg .node rect,#my-svg .node circle,#my-svg .node ellipse,#my-svg .node polygon{fill:#ffead5;stroke:#fbb176;stroke-width:1px;}#my-svg .relationshipLine{stroke:#e74b0f;stroke-width:1px;fill:none;}#my-svg .marker{fill:none!important;stroke:#e74b0f!important;stroke-width:1;}#my-svg [data-look=neo].labelBkg{background-color:rgba(238.5000000002, 246.7500000001, 255, 0.5);}#my-svg .node .neo-node{stroke:#fbb176;}#my-svg [data-look="neo"].node rect,#my-svg [data-look="neo"].cluster rect,#my-svg [data-look="neo"].node polygon{stroke:url(#my-svg-gradient);filter:drop-shadow( 1px 2px 2px rgba(185,185,185,1));}#my-svg [data-look="neo"].node path{stroke:url(#my-svg-gradient);stroke-width:1px;}#my-svg [data-look="neo"].node .outer-path{filter:drop-shadow( 1px 2px 2px rgba(185,185,185,1));}#my-svg [data-look="neo"].node .neo-line path{stroke:#fbb176;filter:none;}#my-svg [data-look="neo"].node circle{stroke:url(#my-svg-gradient);filter:drop-shadow( 1px 2px 2px rgba(185,185,185,1));}#my-svg [data-look="neo"].node circle .state-start{fill:#000000;}#my-svg [data-look="neo"].icon-shape .icon{fill:url(#my-svg-gradient);filter:drop-shadow( 1px 2px 2px rgba(185,185,185,1));}#my-svg [data-look="neo"].icon-shape .icon-neo path{stroke:url(#my-svg-gradient);filter:drop-shadow( 1px 2px 2px rgba(185,185,185,1));}#my-svg :root{--mermaid-font-family:"trebuchet ms",verdana,arial,sans-serif;}</style><g><defs><marker id="my-svg_er-onlyOneStart" class="marker onlyOne er" refX="0" refY="9" markerWidth="18" markerHeight="18" orient="auto"><path d="M9,0 L9,18 M15,0 L15,18"/></marker></defs><defs><marker id="my-svg_er-onlyOneEnd" class="marker onlyOne er" refX="18" refY="9" markerWidth="18" markerHeight="18" orient="auto"><path d="M3,0 L3,18 M9,0 L9,18"/></marker></defs><defs><marker id="my-svg_er-zeroOrOneStart" class="marker zeroOrOne er" refX="0" refY="9" markerWidth="30" markerHeight="18" orient="auto"><circle fill="white" cx="21" cy="9" r="6"/><path d="M9,0 L9,18"/></marker></defs><defs><marker id="my-svg_er-zeroOrOneEnd" class="marker zeroOrOne er" refX="30" refY="9" markerWidth="30" markerHeight="18" orient="auto"><circle fill="white" cx="9" cy="9" r="6"/><path d="M21,0 L21,18"/></marker></defs><defs><marker id="my-svg_er-oneOrMoreStart" class="marker oneOrMore er" refX="18" refY="18" markerWidth="45" markerHeight="36" orient="auto"><path d="M0,18 Q 18,0 36,18 Q 18,36 0,18 M42,9 L42,27"/></marker></defs><defs><marker id="my-svg_er-oneOrMoreEnd" class="marker oneOrMore er" refX="27" refY="18" markerWidth="45" markerHeight="36" orient="auto"><path d="M3,9 L3,27 M9,18 Q27,0 45,18 Q27,36 9,18"/></marker></defs><defs><marker id="my-svg_er-zeroOrMoreStart" class="marker zeroOrMore er" refX="18" refY="18" markerWidth="57" markerHeight="36" orient="auto"><circle fill="white" cx="48" cy="18" r="6"/><path d="M0,18 Q18,0 36,18 Q18,36 0,18"/></marker></defs><defs><marker id="my-svg_er-zeroOrMoreEnd" class="marker zeroOrMore er" refX="39" refY="18" markerWidth="57" markerHeight="36" orient="auto"><circle fill="white" cx="9" cy="18" r="6"/><path d="M21,18 Q39,0 57,18 Q39,36 21,18"/></marker></defs></g><defs><filter id="my-svg-drop-shadow" height="130%" width="130%"><feDropShadow dx="4" dy="4" stdDeviation="0" flood-opacity="0.06" flood-color="#000000"/></filter></defs><defs><filter id="my-svg-drop-shadow-small" height="150%" width="150%"><feDropShadow dx="2" dy="2" stdDeviation="0" flood-opacity="0.06" flood-color="#000000"/></filter></defs><linearGradient id="my-svg-gradient" gradientUnits="objectBoundingBox" x1="0%" y1="0%" x2="100%" y2="0%"><stop offset="0%" stop-color="#fbb176" stop-opacity="1"/><stop offset="100%" stop-color="hsl(-90, 60%, 81.7647058824%)" stop-opacity="1"/></linearGradient><g class="subgraphs"/><g class="nodes"><g class="node default" id="my-svg-entity-TaxonConceptMapping-0" data-look="classic" transform="translate(251.75, 161.625)"><g class="outer-path" style=""><path d="M-215.4453125 -149.625 L215.4453125 -149.625 L215.4453125 149.625 L-215.4453125 149.625" stroke="none" stroke-width="0" fill="#ffead5"/><path d="M-215.4453125 -149.625 C-56.18804331407409 -149.625, 103.06922587185181 -149.625, 215.4453125 -149.625 M-215.4453125 -149.625 C-115.63698095509145 -149.625, -15.82864941018289 -149.625, 215.4453125 -149.625 M215.4453125 -149.625 C215.4453125 -66.75810983872634, 215.4453125 16.108780322547318, 215.4453125 149.625 M215.4453125 -149.625 C215.4453125 -50.66767988583342, 215.4453125 48.289640228333155, 215.4453125 149.625 M215.4453125 149.625 C111.9820867512762 149.625, 8.518861002552399 149.625, -215.4453125 149.625 M215.4453125 149.625 C117.41432874787446 149.625, 19.383344995748928 149.625, -215.4453125 149.625 M-215.4453125 149.625 C-215.4453125 55.942686453600814, -215.4453125 -37.73962709279837, -215.4453125 -149.625 M-215.4453125 149.625 C-215.4453125 63.83911961286667, -215.4453125 -21.946760774266664, -215.4453125 -149.625" stroke="#fbb176" stroke-width="1.3" fill="none" stroke-dasharray="0 0"/></g><g style="" class="row-rect-odd"><path d="M-215.4453125 -106.875 L215.4453125 -106.875 L215.4453125 -64.125 L-215.4453125 -64.125" stroke="none" stroke-width="0" fill="hsl(30, 100%, 100%)"/><path d="M-215.4453125 -106.875 C-69.60236132711006 -106.875, 76.24058984577988 -106.875, 215.4453125 -106.875 M-215.4453125 -106.875 C-81.95450248812233 -106.875, 51.53630752375534 -106.875, 215.4453125 -106.875 M215.4453125 -106.875 C215.4453125 -94.4721240776906, 215.4453125 -82.06924815538119, 215.4453125 -64.125 M215.4453125 -106.875 C215.4453125 -90.00703974349447, 215.4453125 -73.13907948698895, 215.4453125 -64.125 M215.4453125 -64.125 C58.87871509461195 -64.125, -97.6878823107761 -64.125, -215.4453125 -64.125 M215.4453125 -64.125 C92.53513089903103 -64.125, -30.375050701937937 -64.125, -215.4453125 -64.125 M-215.4453125 -64.125 C-215.4453125 -75.71240951052454, -215.4453125 -87.29981902104906, -215.4453125 -106.875 M-215.4453125 -64.125 C-215.4453125 -73.0844803690464, -215.4453125 -82.04396073809282, -215.4453125 -106.875" stroke="#fbb176" stroke-width="1.3" fill="none" stroke-dasharray="0 0"/></g><g style="" class="row-rect-even"><path d="M-215.4453125 -64.125 L215.4453125 -64.125 L215.4453125 -21.375 L-215.4453125 -21.375" stroke="none" stroke-width="0" fill="hsl(30, 100%, 96.7647058824%)"/><path d="M-215.4453125 -64.125 C-48.660542703321795 -64.125, 118.12422709335641 -64.125, 215.4453125 -64.125 M-215.4453125 -64.125 C-88.71691936077701 -64.125, 38.011473778445975 -64.125, 215.4453125 -64.125 M215.4453125 -64.125 C215.4453125 -47.531214306883285, 215.4453125 -30.937428613766578, 215.4453125 -21.375 M215.4453125 -64.125 C215.4453125 -50.679490724954405, 215.4453125 -37.23398144990881, 215.4453125 -21.375 M215.4453125 -21.375 C60.226500212734265 -21.375, -94.99231207453147 -21.375, -215.4453125 -21.375 M215.4453125 -21.375 C59.53517206077623 -21.375, -96.37496837844753 -21.375, -215.4453125 -21.375 M-215.4453125 -21.375 C-215.4453125 -37.15245031098013, -215.4453125 -52.92990062196025, -215.4453125 -64.125 M-215.4453125 -21.375 C-215.4453125 -38.29909137617827, -215.4453125 -55.22318275235654, -215.4453125 -64.125" stroke="#fbb176" stroke-width="1.3" fill="none" stroke-dasharray="0 0"/></g><g style="" class="row-rect-odd"><path d="M-215.4453125 -21.375 L215.4453125 -21.375 L215.4453125 21.375 L-215.4453125 21.375" stroke="none" stroke-width="0" fill="hsl(30, 100%, 100%)"/><path d="M-215.4453125 -21.375 C-113.95724838849998 -21.375, -12.469184276999954 -21.375, 215.4453125 -21.375 M-215.4453125 -21.375 C-65.02513068984331 -21.375, 85.39505112031338 -21.375, 215.4453125 -21.375 M215.4453125 -21.375 C215.4453125 -8.8406478177623, 215.4453125 3.6937043644754013, 215.4453125 21.375 M215.4453125 -21.375 C215.4453125 -7.760455538308017, 215.4453125 5.854088923383966, 215.4453125 21.375 M215.4453125 21.375 C101.01985657160691 21.375, -13.405599356786183 21.375, -215.4453125 21.375 M215.4453125 21.375 C90.91790929654317 21.375, -33.609493906913656 21.375, -215.4453125 21.375 M-215.4453125 21.375 C-215.4453125 5.232987769144753, -215.4453125 -10.909024461710494, -215.4453125 -21.375 M-215.4453125 21.375 C-215.4453125 12.82044542840193, -215.4453125 4.2658908568038605, -215.4453125 -21.375" stroke="#fbb176" stroke-width="1.3" fill="none" stroke-dasharray="0 0"/></g><g style="" class="row-rect-even"><path d="M-215.4453125 21.375 L215.4453125 21.375 L215.4453125 64.125 L-215.4453125 64.125" stroke="none" stroke-width="0" fill="hsl(30, 100%, 96.7647058824%)"/><path d="M-215.4453125 21.375 C-52.59062910612582 21.375, 110.26405428774837 21.375, 215.4453125 21.375 M-215.4453125 21.375 C-50.56020960569617 21.375, 114.32489328860765 21.375, 215.4453125 21.375 M215.4453125 21.375 C215.4453125 32.86133607489721, 215.4453125 44.34767214979443, 215.4453125 64.125 M215.4453125 21.375 C215.4453125 33.6613310795088, 215.4453125 45.9476621590176, 215.4453125 64.125 M215.4453125 64.125 C61.22568580914589 64.125, -92.99394088170823 64.125, -215.4453125 64.125 M215.4453125 64.125 C47.23898181969409 64.125, -120.96734886061182 64.125, -215.4453125 64.125 M-215.4453125 64.125 C-215.4453125 53.04789223852647, -215.4453125 41.970784477052945, -215.4453125 21.375 M-215.4453125 64.125 C-215.4453125 53.588182016003344, -215.4453125 43.05136403200669, -215.4453125 21.375" stroke="#fbb176" stroke-width="1.3" fill="none" stroke-dasharray="0 0"/></g><g style="" class="row-rect-odd"><path d="M-215.4453125 64.125 L215.4453125 64.125 L215.4453125 106.875 L-215.4453125 106.875" stroke="none" stroke-width="0" fill="hsl(30, 100%, 100%)"/><path d="M-215.4453125 64.125 C-87.05212735208255 64.125, 41.3410577958349 64.125, 215.4453125 64.125 M-215.4453125 64.125 C-113.94491715872155 64.125, -12.444521817443103 64.125, 215.4453125 64.125 M215.4453125 64.125 C215.4453125 75.97614170558863, 215.4453125 87.82728341117726, 215.4453125 106.875 M215.4453125 64.125 C215.4453125 74.2211519011427, 215.4453125 84.31730380228541, 215.4453125 106.875 M215.4453125 106.875 C111.04191997169869 106.875, 6.638527443397379 106.875, -215.4453125 106.875 M215.4453125 106.875 C124.6090228224014 106.875, 33.7727331448028 106.875, -215.4453125 106.875 M-215.4453125 106.875 C-215.4453125 93.67216362246614, -215.4453125 80.46932724493227, -215.4453125 64.125 M-215.4453125 106.875 C-215.4453125 96.04126740854683, -215.4453125 85.20753481709367, -215.4453125 64.125" stroke="#fbb176" stroke-width="1.3" fill="none" stroke-dasharray="0 0"/></g><g style="" class="row-rect-even"><path d="M-215.4453125 106.875 L215.4453125 106.875 L215.4453125 149.625 L-215.4453125 149.625" stroke="none" stroke-width="0" fill="hsl(30, 100%, 96.7647058824%)"/><path d="M-215.4453125 106.875 C-69.41749704686649 106.875, 76.61031840626703 106.875, 215.4453125 106.875 M-215.4453125 106.875 C-119.62246740313824 106.875, -23.79962230627649 106.875, 215.4453125 106.875 M215.4453125 106.875 C215.4453125 123.30633104800587, 215.4453125 139.73766209601175, 215.4453125 149.625 M215.4453125 106.875 C215.4453125 117.28468796018711, 215.4453125 127.69437592037421, 215.4453125 149.625 M215.4453125 149.625 C96.35579889438557 149.625, -22.733714711228856 149.625, -215.4453125 149.625 M215.4453125 149.625 C91.79503714969518 149.625, -31.855238200609648 149.625, -215.4453125 149.625 M-215.4453125 149.625 C-215.4453125 140.03885971973588, -215.4453125 130.45271943947176, -215.4453125 106.875 M-215.4453125 149.625 C-215.4453125 140.2533989232646, -215.4453125 130.8817978465292, -215.4453125 106.875" stroke="#fbb176" stroke-width="1.3" fill="none" stroke-dasharray="0 0"/></g><a href="/vicflora-docs/resources/taxon-concept-mapping" target="_top"><g class="label name" transform="translate(-90.3359375, -140.25)" style=""><foreignObject width="180.671875" height="24"><div xmlns="http://www.w3.org/1999/xhtml" style="display: table-cell; white-space: nowrap; line-height: 1.5; max-width: 281px; text-align: start;"><span class="nodeLabel"><p style="color: #e74b0f; font-weight: bold;">TaxonConceptMapping</p></span></div></foreignObject></g></a><g class="label attribute-type" transform="translate(-202.9453125, -97.5)" style=""><foreignObject width="20.859375" height="24"><div xmlns="http://www.w3.org/1999/xhtml" style="display: table-cell; white-space: nowrap; line-height: 1.5; max-width: 120px; text-align: start;"><span class="nodeLabel"><p>int</p></span></div></foreignObject></g><g class="label attribute-name" transform="translate(-135.9921875, -97.5)" style=""><foreignObject width="14.609375" height="24"><div xmlns="http://www.w3.org/1999/xhtml" style="display: table-cell; white-space: nowrap; line-height: 1.5; max-width: 114px; text-align: start;"><span class="nodeLabel"><p>id</p></span></div></foreignObject></g><g class="label attribute-keys" transform="translate(94.3828125, -97.5)" style=""><foreignObject width="20.140625" height="24"><div xmlns="http://www.w3.org/1999/xhtml" style="display: table-cell; white-space: nowrap; line-height: 1.5; max-width: 121px; text-align: start;"><span class="nodeLabel"><p>PK</p></span></div></foreignObject></g><g class="label attribute-comment" transform="translate(139.5234375, -97.5)" style=""><foreignObject width="0" height="0"><div xmlns="http://www.w3.org/1999/xhtml" style="display: table-cell; white-space: nowrap; line-height: 1.5; max-width: 100px; text-align: start;"><span class="nodeLabel"></span></div></foreignObject></g><g class="label attribute-type" transform="translate(-202.9453125, -54.75)" style=""><foreignObject width="20.859375" height="24"><div xmlns="http://www.w3.org/1999/xhtml" style="display: table-cell; white-space: nowrap; line-height: 1.5; max-width: 120px; text-align: start;"><span class="nodeLabel"><p>int</p></span></div></foreignObject></g><g class="label attribute-name" transform="translate(-135.9921875, -54.75)" style=""><foreignObject width="205.375" height="24"><div xmlns="http://www.w3.org/1999/xhtml" style="display: table-cell; white-space: nowrap; line-height: 1.5; max-width: 305px; text-align: start;"><span class="nodeLabel"><p>subject_taxon_concept_id</p></span></div></foreignObject></g><g class="label attribute-keys" transform="translate(94.3828125, -54.75)" style=""><foreignObject width="19.703125" height="24"><div xmlns="http://www.w3.org/1999/xhtml" style="display: table-cell; white-space: nowrap; line-height: 1.5; max-width: 120px; text-align: start;"><span class="nodeLabel"><p>FK</p></span></div></foreignObject></g><g class="label attribute-comment" transform="translate(139.5234375, -54.75)" style=""><foreignObject width="0" height="0"><div xmlns="http://www.w3.org/1999/xhtml" style="display: table-cell; white-space: nowrap; line-height: 1.5; max-width: 100px; text-align: start;"><span class="nodeLabel"></span></div></foreignObject></g><g class="label attribute-type" transform="translate(-202.9453125, -12)" style=""><foreignObject width="20.859375" height="24"><div xmlns="http://www.w3.org/1999/xhtml" style="display: table-cell; white-space: nowrap; line-height: 1.5; max-width: 120px; text-align: start;"><span class="nodeLabel"><p>int</p></span></div></foreignObject></g><g class="label attribute-name" transform="translate(-135.9921875, -12)" style=""><foreignObject width="196.6875" height="24"><div xmlns="http://www.w3.org/1999/xhtml" style="display: table-cell; white-space: nowrap; line-height: 1.5; max-width: 297px; text-align: start;"><span class="nodeLabel"><p>object_taxon_concept_id</p></span></div></foreignObject></g><g class="label attribute-keys" transform="translate(94.3828125, -12)" style=""><foreignObject width="19.703125" height="24"><div xmlns="http://www.w3.org/1999/xhtml" style="display: table-cell; white-space: nowrap; line-height: 1.5; max-width: 120px; text-align: start;"><span class="nodeLabel"><p>FK</p></span></div></foreignObject></g><g class="label attribute-comment" transform="translate(139.5234375, -12)" style=""><foreignObject width="0" height="0"><div xmlns="http://www.w3.org/1999/xhtml" style="display: table-cell; white-space: nowrap; line-height: 1.5; max-width: 100px; text-align: start;"><span class="nodeLabel"></span></div></foreignObject></g><g class="label attribute-type" transform="translate(-202.9453125, 30.75)" style=""><foreignObject width="20.859375" height="24"><div xmlns="http://www.w3.org/1999/xhtml" style="display: table-cell; white-space: nowrap; line-height: 1.5; max-width: 120px; text-align: start;"><span class="nodeLabel"><p>int</p></span></div></foreignObject></g><g class="label attribute-name" transform="translate(-135.9921875, 30.75)" style=""><foreignObject width="162.015625" height="24"><div xmlns="http://www.w3.org/1999/xhtml" style="display: table-cell; white-space: nowrap; line-height: 1.5; max-width: 262px; text-align: start;"><span class="nodeLabel"><p>mapping_relation_id</p></span></div></foreignObject></g><g class="label attribute-keys" transform="translate(94.3828125, 30.75)" style=""><foreignObject width="19.703125" height="24"><div xmlns="http://www.w3.org/1999/xhtml" style="display: table-cell; white-space: nowrap; line-height: 1.5; max-width: 120px; text-align: start;"><span class="nodeLabel"><p>FK</p></span></div></foreignObject></g><g class="label attribute-comment" transform="translate(139.5234375, 30.75)" style=""><foreignObject width="0" height="0"><div xmlns="http://www.w3.org/1999/xhtml" style="display: table-cell; white-space: nowrap; line-height: 1.5; max-width: 100px; text-align: start;"><span class="nodeLabel"></span></div></foreignObject></g><g class="label attribute-type" transform="translate(-202.9453125, 73.5)" style=""><foreignObject width="41.953125" height="24"><div xmlns="http://www.w3.org/1999/xhtml" style="display: table-cell; white-space: nowrap; line-height: 1.5; max-width: 143px; text-align: start;"><span class="nodeLabel"><p>array</p></span></div></foreignObject></g><g class="label attribute-name" transform="translate(-135.9921875, 73.5)" style=""><foreignObject width="77.546875" height="24"><div xmlns="http://www.w3.org/1999/xhtml" style="display: table-cell; white-space: nowrap; line-height: 1.5; max-width: 178px; text-align: start;"><span class="nodeLabel"><p>metadata</p></span></div></foreignObject></g><g class="label attribute-keys" transform="translate(94.3828125, 73.5)" style=""><foreignObject width="0" height="0"><div xmlns="http://www.w3.org/1999/xhtml" style="display: table-cell; white-space: nowrap; line-height: 1.5; max-width: 100px; text-align: start;"><span class="nodeLabel"></span></div></foreignObject></g><g class="label attribute-comment" transform="translate(139.5234375, 73.5)" style=""><foreignObject width="63.421875" height="24"><div xmlns="http://www.w3.org/1999/xhtml" style="display: table-cell; white-space: nowrap; line-height: 1.5; max-width: 162px; text-align: start;"><span class="nodeLabel"><p>nullable</p></span></div></foreignObject></g><g class="label attribute-type" transform="translate(-202.9453125, 116.25)" style=""><foreignObject width="31.578125" height="24"><div xmlns="http://www.w3.org/1999/xhtml" style="display: table-cell; white-space: nowrap; line-height: 1.5; max-width: 131px; text-align: start;"><span class="nodeLabel"><p>text</p></span></div></foreignObject></g><g class="label attribute-name" transform="translate(-135.9921875, 116.25)" style=""><foreignObject width="65.640625" height="24"><div xmlns="http://www.w3.org/1999/xhtml" style="display: table-cell; white-space: nowrap; line-height: 1.5; max-width: 167px; text-align: start;"><span class="nodeLabel"><p>remarks</p></span></div></foreignObject></g><g class="label attribute-keys" transform="translate(94.3828125, 116.25)" style=""><foreignObject width="0" height="0"><div xmlns="http://www.w3.org/1999/xhtml" style="display: table-cell; white-space: nowrap; line-height: 1.5; max-width: 100px; text-align: start;"><span class="nodeLabel"></span></div></foreignObject></g><g class="label attribute-comment" transform="translate(139.5234375, 116.25)" style=""><foreignObject width="63.421875" height="24"><div xmlns="http://www.w3.org/1999/xhtml" style="display: table-cell; white-space: nowrap; line-height: 1.5; max-width: 162px; text-align: start;"><span class="nodeLabel"><p>nullable</p></span></div></foreignObject></g><g class="divider"><path d="M-215.4453125 -106.87505 L-215.4453125 -106.87495 L215.4453125 -106.87495 L215.4453125 -106.87505" stroke="none" stroke-width="0" fill="#ffead5" fill-rule="evenodd"/><path d="M-215.4453125 -106.87505 C-215.4453125 -106.87501268279806, -215.4453125 -106.87497536559613, -215.4453125 -106.87495 M-215.4453125 -106.87505 C-215.4453125 -106.87502593803512, -215.4453125 -106.87500187607023, -215.4453125 -106.87495 M-215.4453125 -106.87495 C-67.91389031934315 -106.87495, 79.6175318613137 -106.87495, 215.4453125 -106.87495 M-215.4453125 -106.87495 C-117.05377418596439 -106.87495, -18.66223587192877 -106.87495, 215.4453125 -106.87495 M215.4453125 -106.87495 C215.4453125 -106.87498045670822, 215.4453125 -106.87501091341645, 215.4453125 -106.87505 M215.4453125 -106.87495 C215.4453125 -106.87497374541564, 215.4453125 -106.87499749083129, 215.4453125 -106.87505 M215.4453125 -106.87505 C116.7111865117345 -106.87505, 17.977060523468992 -106.87505, -215.4453125 -106.87505 M215.4453125 -106.87505 C126.75661604911507 -106.87505, 38.067919598230134 -106.87505, -215.4453125 -106.87505" stroke="#fbb176" stroke-width="1.3" fill="none" stroke-dasharray="0 0"/></g><g class="divider"><path d="M-148.4922375 -106.875 L-148.4921375 -106.875 L-148.4921375 149.625 L-148.4922375 149.625" stroke="none" stroke-width="0" fill="#ffead5" fill-rule="evenodd"/><path d="M-148.4922375 -106.875 C-148.49219769971134 -106.875, -148.4921578994227 -106.875, -148.4921375 -106.875 M-148.4922375 -106.875 C-148.49221047578615 -106.875, -148.49218345157232 -106.875, -148.4921375 -106.875 M-148.4921375 -106.875 C-148.4921375 -30.275440578623773, -148.4921375 46.324118842752455, -148.4921375 149.625 M-148.4921375 -106.875 C-148.4921375 -39.021311153638734, -148.4921375 28.83237769272253, -148.4921375 149.625 M-148.4921375 149.625 C-148.49216266547265 149.625, -148.4921878309453 149.625, -148.4922375 149.625 M-148.4921375 149.625 C-148.4921591042011 149.625, -148.49218070840217 149.625, -148.4922375 149.625 M-148.4922375 149.625 C-148.4922375 68.44875027766808, -148.4922375 -12.727499444663835, -148.4922375 -106.875 M-148.4922375 149.625 C-148.4922375 56.97035041017884, -148.4922375 -35.68429917964232, -148.4922375 -106.875" stroke="#fbb176" stroke-width="1.3" fill="none" stroke-dasharray="0 0"/></g><g class="divider"><path d="M81.8827625 -106.875 L81.8828625 -106.875 L81.8828625 149.625 L81.8827625 149.625" stroke="none" stroke-width="0" fill="#ffead5" fill-rule="evenodd"/><path d="M81.8827625 -106.875 C81.88279964145707 -106.875, 81.88283678291413 -106.875, 81.8828625 -106.875 M81.8827625 -106.875 C81.88278603680605 -106.875, 81.88280957361209 -106.875, 81.8828625 -106.875 M81.8828625 -106.875 C81.8828625 -42.38765731744094, 81.8828625 22.09968536511812, 81.8828625 149.625 M81.8828625 -106.875 C81.8828625 -24.02617046790786, 81.8828625 58.82265906418428, 81.8828625 149.625 M81.8828625 149.625 C81.88283753102988 149.625, 81.88281256205974 149.625, 81.8827625 149.625 M81.8828625 149.625 C81.88283998698607 149.625, 81.88281747397212 149.625, 81.8827625 149.625 M81.8827625 149.625 C81.8827625 63.374299701346274, 81.8827625 -22.876400597307452, 81.8827625 -106.875 M81.8827625 149.625 C81.8827625 65.4094028613365, 81.8827625 -18.806194277326995, 81.8827625 -106.875" stroke="#fbb176" stroke-width="1.3" fill="none" stroke-dasharray="0 0"/></g><g class="divider"><path d="M127.0233875 -106.875 L127.0234875 -106.875 L127.0234875 149.625 L127.0233875 149.625" stroke="none" stroke-width="0" fill="#ffead5" fill-rule="evenodd"/><path d="M127.0233875 -106.875 C127.02341084355477 -106.875, 127.02343418710954 -106.875, 127.0234875 -106.875 M127.0233875 -106.875 C127.02342024850587 -106.875, 127.02345299701176 -106.875, 127.0234875 -106.875 M127.0234875 -106.875 C127.0234875 -54.05117039415928, 127.0234875 -1.227340788318557, 127.0234875 149.625 M127.0234875 -106.875 C127.0234875 -24.401124337481022, 127.0234875 58.072751325037956, 127.0234875 149.625 M127.0234875 149.625 C127.0234533893945 149.625, 127.023419278789 149.625, 127.0233875 149.625 M127.0234875 149.625 C127.02344936160017 149.625, 127.02341122320036 149.625, 127.0233875 149.625 M127.0233875 149.625 C127.0233875 87.72304899916247, 127.0233875 25.821097998324944, 127.0233875 -106.875 M127.0233875 149.625 C127.0233875 94.83427552308997, 127.0233875 40.04355104617994, 127.0233875 -106.875" stroke="#fbb176" stroke-width="1.3" fill="none" stroke-dasharray="0 0"/></g><g class="divider"><path d="M-215.4453125 -106.87505 L-215.4453125 -106.87495 L215.4453125 -106.87495 L215.4453125 -106.87505" stroke="none" stroke-width="0" fill="#ffead5" fill-rule="evenodd"/><path d="M-215.4453125 -106.87505 C-215.4453125 -106.87502910644167, -215.4453125 -106.87500821288333, -215.4453125 -106.87495 M-215.4453125 -106.87505 C-215.4453125 -106.87501165532207, -215.4453125 -106.87497331064414, -215.4453125 -106.87495 M-215.4453125 -106.87495 C-104.97467157012422 -106.87495, 5.4959693597515695 -106.87495, 215.4453125 -106.87495 M-215.4453125 -106.87495 C-59.6327759934575 -106.87495, 96.179760513085 -106.87495, 215.4453125 -106.87495 M215.4453125 -106.87495 C215.4453125 -106.8749733603455, 215.4453125 -106.87499672069102, 215.4453125 -106.87505 M215.4453125 -106.87495 C215.4453125 -106.87497813677848, 215.4453125 -106.87500627355695, 215.4453125 -106.87505 M215.4453125 -106.87505 C89.01700477884376 -106.87505, -37.41130294231249 -106.87505, -215.4453125 -106.87505 M215.4453125 -106.87505 C124.74289735675151 -106.87505, 34.040482213503026 -106.87505, -215.4453125 -106.87505" stroke="#fbb176" stroke-width="1.3" fill="none" stroke-dasharray="0 0"/></g></g><g class="node default" id="my-svg-entity-TaxonConcept-1" data-look="classic" transform="translate(111.8359375, 454.25)"><rect class="basic label-container" style="" x="-76.0078125" y="-42" width="152.015625" height="84"/><a href="/vicflora-docs/resources/taxon-concept" target="_top"><g class="label" style="" transform="translate(-56.0078125, -12)"><rect/><foreignObject width="112.015625" height="24"><div xmlns="http://www.w3.org/1999/xhtml" style="display: table-cell; white-space: nowrap; line-height: 1.5; max-width: 200px; text-align: center;"><span class="nodeLabel markdown-node-label"><p style="color: #e74b0f; font-weight: bold;">TaxonConcept</p></span></div></foreignObject></g></a></g><g class="node default" id="my-svg-entity-Entity_Source_MAP-2" data-look="classic" transform="translate(441.90625, 454.25)"><rect class="basic label-container" style="" x="-96.03125" y="-42" width="192.0625" height="84"/><a href="/vicflora-docs/resources/entity-source-map" target="_top"><g class="label" style="" transform="translate(-76.03125, -12)"><rect/><foreignObject width="152.0625" height="24"><div xmlns="http://www.w3.org/1999/xhtml" style="display: table-cell; white-space: nowrap; line-height: 1.5; max-width: 200px; text-align: center;"><span class="nodeLabel markdown-node-label"><p style="color: #e74b0f; font-weight: bold;">Entity_Source_MAP</p></span></div></foreignObject></g></a></g><g class="node default" id="my-svg-entity-Reference-3" data-look="classic" transform="translate(441.90625, 639.25)"><rect class="basic label-container" style="" x="-60.2890625" y="-42" width="120.578125" height="84"/><a href="/vicflora-docs/resources/reference" target="_top"><g class="label" style="" transform="translate(-40.2890625, -12)"><rect/><foreignObject width="80.578125" height="24"><div xmlns="http://www.w3.org/1999/xhtml" style="display: table-cell; white-space: nowrap; line-height: 1.5; max-width: 200px; text-align: center;"><span class="nodeLabel markdown-node-label"><p style="color: #e74b0f; font-weight: bold;">Reference</p></span></div></foreignObject></g></a></g></g><g class="edgeLabels"><g class="edgeLabel" transform="translate(86.375, 361.75)"><g class="label" data-id="id_entity-TaxonConceptMapping-0_entity-TaxonConcept-1_0" transform="translate(-74.375, -10.5)"><foreignObject width="148.75" height="21"><div xmlns="http://www.w3.org/1999/xhtml" class="labelBkg" style="display: table-cell; white-space: nowrap; line-height: 1.5; max-width: 200px; text-align: center;"><span class="edgeLabel"><p>subjectTaxonConcept</p></span></div></foreignObject></g></g><g class="edgeLabel" transform="translate(251.328125, 361.75)"><g class="label" data-id="id_entity-TaxonConceptMapping-0_entity-TaxonConcept-1_1" transform="translate(-70.578125, -10.5)"><foreignObject width="141.15625" height="21"><div xmlns="http://www.w3.org/1999/xhtml" class="labelBkg" style="display: table-cell; white-space: nowrap; line-height: 1.5; max-width: 200px; text-align: center;"><span class="edgeLabel"><p>objectTaxonConcept</p></span></div></foreignObject></g></g><g class="edgeLabel" transform="translate(441.90625, 361.75)"><g class="label" data-id="id_entity-TaxonConceptMapping-0_entity-Entity_Source_MAP-2_2" transform="translate(-100, -10.5)"><foreignObject width="200" height="21"><div xmlns="http://www.w3.org/1999/xhtml" class="labelBkg" style="display: table; white-space: break-spaces; line-height: 1.5; max-width: 200px; text-align: center; width: 200px;"><span class="edgeLabel"><p>morphs as 'provenanceable'</p></span></div></foreignObject></g></g><g class="edgeLabel" transform="translate(441.8359375, 546.75)"><g class="label" data-id="id_entity-Entity_Source_MAP-2_entity-Reference-3_3" transform="translate(-33.4296875, -10.5)"><foreignObject width="66.859375" height="21"><div xmlns="http://www.w3.org/1999/xhtml" class="labelBkg" style="display: table-cell; white-space: nowrap; line-height: 1.5; max-width: 200px; text-align: center;"><span class="edgeLabel"><p>reference</p></span></div></foreignObject></g></g></g></svg>