<svg xmlns="http://www.w3.org/2000/svg" viewBox="0 0 65.03 65.03" width="65" height="65">
  <path
      fill="oklch(0.671 0.2018 41.15)"
      d="M32.51,65.03c17.96,0,32.51-14.56,32.51-32.51S50.47,0,32.51,0,0,14.56,0,32.51s14.56,32.51,32.51,32.51"
  />
  <path
      fill="#FFFFFF"
      d="M46.96,18.15s-.36-.16-.39-.07c-.03,.09,.28,.4,.28,.4,0,0-.33-.09-.36-.02-.03,.08,.28,.35,.28,.35,0,0-.29-.02-.29,.08,0,.1,.38,.29,.38,.29,0,0-.24,.08-.22,.15,.01,.07,.36,.14,.36,.14,0,0-.22,.1-.2,.2,.02,.11,.38,.03,.38,.03,0,0-.19,.12-.16,.21,.02,.09,.32-.02,.32-.02,0,0-.15,.14-.09,.22,.06,.08,.37-.03,.37-.03,0,0-.23,.2-.2,.27,.04,.08,.26,.07,.37,.02,.04-.02-.24,.18-.19,.27,.03,.06,.37,.06,.37,.06,0,0-.28,.17-.26,.22,.04,.11,.37,.1,.37,.1-.37,.11-.76,.69-1.1,.94-.22,.16-.8,.47-1.04,.66-.09,.07-.55,.39-.53,.45,.02,.07,.26-.03,.26-.03,0,0-.44,.25-.38,.35,.05,.09,.25-.02,.25-.02,0,0-.26,.26-.22,.32,.05,.06,.27-.09,.36-.16,.14-.11,.63-.54,.63-.54,0,0-.23,.28-.13,.34,.1,.06,.54-.43,.54-.43,0,0-.04,.19,.07,.22,.16,.04,.4-.38,.4-.38-.03,.32,.23,.11,.31-.02,.06-.1,.22-.37,.3-.48,.03-.04,.15-.06,.3-.03,.11,.03,.48,.13,.43,.32-.01,.05-.02,.09,.03,.11,.02,.01,.09-.02,.1-.1,.01-.09,0-.18-.05-.24,.1,.05,.23,.14,.2,.25-.02,.05-.02,.09,.02,.11,.03,.02,.1-.02,.11-.1,.02-.1-.01-.18-.06-.25,.42,.03,.94-.13,1.11-.2,.19-.07,.38-.1,.55-.04,.17,.06,.33,.03,.4,0,.1-.04,.19,.01,.19,.01,.06,.11,0,.17,0,.17,.31,.1,.34-.27,.34-.27,0,0,.17-.12,.1-.41-.07-.29-.53-.45-.53-.45,.18-.16,.17-.19,.37-.23,.27-.05,.49-.14,.74-.26,.25-.12,.74-.31,.92-.39,.39-.17,.93-.83,.91-.88-.02-.05-.62,.37-.8,.47-.09,.05-.46,.2-.46,.2,.44-.35,.81-.73,.76-.8-.05-.08-.41,.24-.52,.31-.28,.19-.55,.34-.55,.34,.07-.08,.62-.71,.57-.76-.06-.04-.44,.25-.54,.33-.1,.08-.42,.28-.42,.28,0,0,.37-.51,.28-.58-.09-.07-.33,.24-.46,.38-.08,.09-.21,.2-.21,.2,0,0,0-.24-.1-.26-.1-.02-.29,.27-.29,.27,0,0-.02-.18-.14-.17-.11,0-.35,.33-.35,.33,0,0-.03-.23-.11-.2-.08,.03-.22,.32-.22,.32,0,0-.09-.2-.17-.15-.09,.05-.16,.26-.16,.26,0,0-.04-.18-.17-.12-.12,.06-.17,.29-.17,.29,0,0-.08-.18-.15-.15-.07,.03-.14,.24-.14,.24,0,0-.14-.01-.29-.17-.53-.56-1.02-2.31-1.04-2.4-.02-.09-.15-.66-.24-.63-.09,.03-.05,.22-.05,.35,.01,.23,.07,.52,.07,.52,0,0-.21-.53-.37-.88-.09-.19-.2-.37-.27-.35-.07,.03-.02,.25,.02,.41,.04,.21,.1,.43,.1,.43,0,0-.2-.37-.38-.61-.09-.12-.2-.25-.26-.24-.07,.01-.04,.19,.03,.33,.12,.22,.27,.52,.27,.52,0,0-.25-.28-.42-.47-.08-.09-.25-.3-.31-.27-.06,.03,.09,.37,.19,.52,.13,.19,.43,.68,.43,.68m-6.07,8.64c-.02-.14-.02-.38,.08-.4,0,0,.09-.05,.14-.01,0,.12,.19,.22,.37,.2-.01,.01-.03,.02-.04,.03-.2,.14-.38,.19-.56,.18m-23.9,3.99c.08-.14,.2-.23,.14-.46-.08-.3,1.06-.36,1.06-.36,.16,.22,.33,.34,.48,.39-.34,.11-.74,.25-1.15,.43-.05-.19-.58,.1-.53,0m-1.54,1.06c.08-.59,.24-.91,.53-.98,.28-.07,.36,.17,.31,.38-.02,.08,0,.14,.03,.16-.32,.2-.62,.42-.9,.67,0-.08,.02-.15,.03-.23m23.67,.04c-.06,.15-.13,.34-.2,.55-.94-3.33-1.79-4.85-2.93-6.59,.14-.2,.32-.52,.42-.72,.21-.05,.98-.31,1.26-1.12,.37-1.1-.24-2.4-.24-2.4,0,0-1.08,.71-1.46,1.72-.29,.77,.02,1.45,.12,1.65-.04,.08-.23,.42-.31,.54-.47-.71-.85-1.42-1.14-2.11,.13-.21,.27-.51,.36-.7,.21-.07,.96-.36,1.19-1.19,.31-1.12-.38-2.39-.38-2.39,0,0-1.04,.77-1.36,1.8-.24,.78,.1,1.45,.22,1.64-.06,.12-.13,.27-.2,.41-1.05-2.77-.78-5.16-.56-6.25,.23-.07,1.08-.4,1.47-1.29,.5-1.15,.17-2.64,.17-2.64,0,0-1.58,.61-2.16,1.83-.39,.81-.05,1.6,.11,1.88-.08,.36-.17,.87-.22,1.5-.17-.13-.38-.31-.55-.46,.04-.17,.21-1.07-.37-1.85-.71-.96-2.09-1.39-2.09-1.39,0,0-.25,1.59,.48,2.65,.54,.78,1.44,.82,1.69,.81,.21,.19,.58,.51,.82,.67-.05,.51-.07,3.61,1.7,6.59-.21-.06-.44-.13-.63-.19-.06-.25-.32-1.02-1.09-1.43-1.03-.55-2.23-.22-2.23-.22,0,0,.24,1.38,1.33,2.01,.91,.52,1.82,.02,1.88-.02,.12,.04,.86,.25,1,.28,.06,.09,1.35,1.99,1.95,3.34-.13-.04-.43-.14-.56-.19-.04-.18-.29-1.06-1.14-1.5-1.06-.56-2.49-.34-2.49-.34,0,0,.47,1.54,1.59,2.17,.84,.48,1.68,.1,1.88,0,.23,.09,.62,.24,.92,.33,.41,.96,1.27,3.31,1.36,4.75,.08,1.31-.6,2.94-1.4,2.99-.34,.02-.21-.36-.05-.72,.17-.08,.81-.45,.91-1.21,.13-1.03-.64-2.07-.64-2.07,0,0-.83,.82-.98,1.77-.11,.72,.27,1.27,.4,1.44-.45,1.32-.65,0-.68-.17-.12-.69-.32-1.37-.55-1.98,.14-.24,.31-.62,.4-.83,.2-.08,.93-.44,1.08-1.28,.21-1.13-.58-2.34-.58-2.34,0,0-.97,.86-1.2,1.9-.17,.79,.22,1.43,.35,1.62-.06,.13-.14,.32-.23,.5-.37-.87-.77-1.6-1.04-2.04,.07-.28,.18-1.07-.39-1.7-.83-.92-2.36-1.04-2.36-1.04,0,0,.09,1.38,.83,2.26,.54,.64,1.29,.74,1.57,.75,.41,.69,1.13,2.03,1.52,3.52-.18-.09-.41-.21-.62-.33,0-.16-.02-.99-.68-1.58-.81-.72-2.12-.84-2.12-.84,0,0,.08,1.46,.93,2.26,.59,.55,1.33,.47,1.6,.41,.14,.07,.88,.49,1,.53,.11,.35,.28,1.82,.01,2.42-.14-.07-.29-.15-.43-.23,0-.16-.02-.99-.68-1.58-.81-.72-2.12-.84-2.12-.84,0,0,.08,1.46,.93,2.26,.59,.55,1.33,.47,1.6,.41,.1,.04,.54,.21,.44,.52-.06,.2-.35,.44-.9,.17-2.32-1.15-2.97,.34-5.17-.42-.64-.22-.27-.78,0-.8,.16-.01,.38,0,.55,.05,.24,.07,.55,.13,.63-.06,.04-.11-.04-.18-.12-.23-.05-.04-.09-.07-.06-.13,.03-.05,.13-.02,.23,.02,.19,.07,.65,.19,.77-.14,.05-.15-.08-.22-.19-.23-.08,0-.13-.06-.11-.11,.02-.07,.11-.06,.22-.04,.41,.04,.54-.12,.58-.26,.05-.19-.11-.23-.21-.24-.11,0-.15-.07-.16-.12,0-.09,.06-.14,.18-.19,.26-.09,.29-.43,.18-.59-.11-.15-.47-.26-.63-.03-.09,.12-.14,.2-.26,.14-.07-.04-.07-.13-.05-.2,.04-.16-.04-.25-.17-.26-.34-.03-.43,.45-.44,.53-.02,.1-.04,.16-.09,.16-.08,0-.1-.08-.09-.16,.03-.12-.04-.24-.17-.25-.31,0-.38,.45-.37,.63,.01,.16,.02,.31-.04,.32-.06,.01-.1-.04-.11-.11-.02-.12-.12-.21-.23-.17-.24,.08-.23,.55-.2,.79,.01,.13,.07,.3-.12,.7-.05,.11-.16,.35-.22,.51-.23-.25-.35-.39-.45-1.04-.15-1.02,.14-2.06,.76-2.25,.18-.05,.34,0,.54,.04,.27,.07,.62,.13,.7-.09,.05-.12-.05-.2-.14-.26-.06-.04-.11-.08-.08-.15,.03-.06,.14-.03,.26,.02,.21,.08,.74,.2,.86-.17,.05-.17-.1-.25-.23-.26-.1,0-.15-.07-.13-.13,.02-.08,.12-.07,.24-.06,.47,.03,.61-.16,.64-.31,.05-.22-.13-.26-.25-.26-.13-.01-.17-.07-.18-.14-.01-.1,.07-.16,.2-.22,.29-.11,.32-.5,.19-.67-.13-.17-.54-.29-.72-.02-.09,.14-.15,.23-.28,.16-.08-.04-.08-.15-.07-.23,.03-.18-.05-.28-.19-.29-.38-.03-.47,.52-.48,.61-.02,.11-.04,.18-.1,.18-.09,0-.12-.08-.1-.17,.03-.14-.05-.27-.2-.27-.35,0-.42,.52-.4,.72,.02,.18,.04,.35-.04,.36-.06,.01-.11-.04-.13-.12-.02-.13-.14-.23-.26-.18-.26,.1-.24,.62-.21,.9,.02,.15,.02,.57-.17,1.04-.2,.5-.59,1.74-1.2,2.02-.26,.12-.55,0-.59-.77,0-.18,.04-.41,.16-.54,.11-.12,.25-.15,.42-.21,.23-.07,.52-.18,.49-.38-.02-.12-.13-.13-.22-.13-.06,0-.11-.01-.12-.08,0-.06,.09-.08,.2-.1,.19-.04,.64-.18,.56-.51-.03-.15-.18-.14-.28-.09-.07,.04-.14,.01-.15-.04-.02-.07,.06-.1,.16-.15,.36-.19,.38-.38,.34-.52-.06-.19-.21-.13-.3-.09-.1,.05-.16,.02-.2-.02-.06-.07-.02-.15,.06-.25,.16-.21,.01-.51-.16-.58-.17-.07-.53,.03-.54,.31,0,.15-.01,.24-.14,.25-.07,0-.13-.07-.15-.14-.05-.15-.16-.19-.27-.13-.3,.15-.12,.6-.09,.67,.03,.09,.05,.15,0,.18-.07,.04-.13,0-.15-.09-.04-.12-.16-.18-.27-.11-.26,.16-.08,.57,.02,.71,.1,.13,.18,.24,.14,.29-.04,.04-.1,.02-.15-.03-.08-.09-.21-.11-.27-.02-.15,.19,.1,.57,.24,.76,.08,.1,.23,.21,.27,.65,.06,.53,.18,.97,.26,1.23-.73-.24-1.31-1.74-1.24-2.96,.03-.45,.11-.95,.18-1.37,.21-1.05,.79-1.39,1.11-1.53,.19-.09,.43-.2,.63-.15,.18,.04,.3,.16,.45,.3,.21,.19,.48,.42,.66,.26,.1-.09,.05-.2,0-.29-.04-.06-.06-.12,0-.16,.05-.04,.14,.05,.22,.14,.15,.17,.55,.53,.84,.27,.13-.12,.04-.27-.07-.33-.08-.05-.1-.13-.05-.17,.06-.06,.14,0,.24,.07,.39,.25,.61,.16,.71,.04,.15-.17,0-.29-.09-.35-.11-.07-.11-.15-.09-.21,.04-.09,.14-.11,.28-.09,.3,.04,.52-.28,.49-.49-.03-.21-.33-.51-.62-.36-.15,.08-.25,.13-.33,0-.05-.07,0-.17,.05-.23,.12-.14,.09-.27-.03-.35-.32-.21-.67,.23-.72,.3-.07,.09-.12,.14-.18,.11-.08-.04-.06-.13,0-.2,.09-.11,.09-.26-.04-.34-.3-.17-.62,.25-.7,.44-.07,.17-.13,.32-.21,.3-.06-.02-.08-.09-.05-.17,.04-.13-.02-.27-.14-.28-.28-.04-.51,.43-.61,.68-.06,.14-.09,.33-.49,.64-.13,.11-.54,.42-.7,.54,.51-1.29,1.03-2.26,1.56-3.11,.26-.42,.92-.53,1.29-.37,.17,.08,.27,.22,.39,.39,.17,.23,.4,.51,.6,.39,.12-.07,.09-.19,.06-.29-.02-.07-.03-.13,.04-.16,.06-.03,.13,.07,.19,.18,.11,.2,.44,.64,.78,.43,.16-.1,.09-.26,0-.35-.07-.07-.07-.15-.02-.18,.07-.05,.14,.03,.23,.12,.34,.33,.57,.28,.7,.18,.18-.14,.06-.29-.02-.37-.09-.09-.09-.17-.05-.22,.06-.09,.16-.08,.3-.03,.29,.1,.57-.18,.58-.39,.01-.22-.23-.58-.54-.49-.17,.05-.27,.08-.33-.06-.03-.08,.03-.17,.1-.22,.15-.12,.14-.25,.04-.35-.28-.27-.71,.09-.78,.15-.08,.07-.15,.12-.2,.08-.07-.06-.04-.14,.04-.2,.12-.09,.14-.25,.03-.34-.27-.23-.67,.12-.78,.29-.1,.15-.2,.29-.27,.26-.06-.03-.06-.11-.02-.18,.07-.12,.04-.27-.08-.31-.27-.09-.6,.33-.75,.56-.08,.13-.18,.37-.63,.6-.1,.05-.42,.14-.42,.14,.3-.44,.6-.88,.87-1.28,1.17-1.74,1.55-2.89,1.81-3.22,.35-.42,.68-.48,.83-.53,.28-.11,.8-.34,.76-.65-.02-.14-.16-.2-.31-.16-.08,.02-.16,0-.18-.06-.02-.08,.15-.14,.33-.21,.21-.08,.67-.41,.5-.74-.07-.14-.24-.15-.36-.06-.08,.07-.17,.08-.22-.01-.03-.06,.03-.12,.13-.19,.08-.06,.57-.42,.35-.77-.08-.13-.22-.17-.37-.04-.07,.06-.18,.1-.26,.05-.13-.09-.07-.19,.02-.36,.17-.31-.15-.64-.38-.68-.23-.04-.59,.19-.55,.52,.02,.15,0,.27-.11,.3-.06,.02-.15,.01-.22-.11-.06-.11-.19-.27-.38-.11-.13,.11-.24,.34,.02,.78,.07,.12,.13,.21,.07,.26-.05,.04-.13,.03-.19-.06-.07-.12-.22-.23-.36-.09-.3,.3,.08,.75,.26,.92,.1,.09,.19,.18,.15,.24-.05,.06-.11,.04-.18,0-.1-.06-.22-.11-.32,0-.17,.19,.06,.5,.27,.73,.14,.16,.26,.3,.31,.49,.08,.29-1.06,2.41-1.42,2.94,0-.13,0-.26,0-.33,0-.52,.2-.75,.28-.88,.14-.24,.38-.72,.18-.92-.09-.09-.24-.05-.32,.06-.05,.07-.11,.1-.17,.06-.06-.04,.02-.19,.12-.35,.1-.18,.25-.69-.07-.84-.14-.06-.27,.03-.3,.17-.02,.09-.08,.16-.17,.12-.06-.03-.05-.11-.02-.21,.03-.09,.17-.64-.2-.77-.14-.05-.26,0-.3,.19-.02,.08-.07,.18-.16,.19-.15,0-.17-.1-.2-.27-.06-.32-.49-.38-.68-.28-.19,.1-.32,.48-.1,.7,.1,.1,.15,.2,.1,.29-.03,.05-.1,.1-.23,.05-.11-.04-.3-.08-.34,.14-.03,.16,.02,.39,.47,.56,.12,.04,.22,.07,.2,.15,0,.06-.08,.1-.18,.06-.12-.05-.3-.04-.32,.15-.04,.4,.5,.51,.73,.52,.13,0,.25,.02,.25,.09,0,.07-.06,.09-.13,.1-.11,.01-.23,.05-.24,.18-.02,.24,.34,.33,.62,.38,.2,.04,.37,.06,.52,.18,.16,.14,.23,.4,.27,.61,.02,.13,.02,.31,.02,.42-.16,.25-.33,.5-.5,.75-.43,.64-.87,1.29-1.31,2.06,0-.27,0-.69,.05-.82,.04-.15,.13-.29,.25-.4,.17-.17,.37-.39,.25-.55-.07-.09-.17-.05-.25-.02-.06,.03-.1,.04-.14-.01-.03-.05,.04-.11,.13-.18,.15-.12,.47-.44,.26-.7-.1-.12-.22-.04-.29,.05-.05,.07-.11,.07-.15,.04-.04-.05,0-.11,.07-.2,.23-.32,.16-.51,.06-.6-.14-.13-.24-.02-.3,.06-.06,.09-.13,.09-.18,.07-.08-.04-.09-.12-.06-.24,.05-.25-.22-.45-.4-.43-.18,.02-.44,.26-.33,.5,.06,.13,.1,.21,0,.28-.06,.04-.14,0-.19-.05-.11-.1-.22-.09-.29,.01-.19,.26,.16,.57,.22,.62,.07,.06,.12,.11,.09,.15-.04,.07-.11,.05-.17,0-.09-.08-.22-.09-.29,.02-.15,.25,.18,.53,.34,.61,.14,.07,.27,.13,.25,.19-.02,.05-.08,.06-.14,.04-.11-.04-.23,0-.25,.11-.04,.23,.34,.45,.55,.55,.11,.05,.28,.09,.52,.44,.2,.29,.09,1.04,0,1.22-.34,.72-.71,1.51-1.06,2.48-.06-.23-.12-.54-.07-.75,.03-.14,.13-.24,.23-.36,.15-.17,.32-.39,.2-.53-.07-.08-.16-.04-.23,0-.05,.03-.1,.05-.13,0-.03-.04,.04-.11,.11-.18,.14-.12,.42-.45,.2-.67-.1-.1-.21-.02-.27,.06-.04,.07-.1,.08-.14,.05-.05-.04,0-.11,.05-.19,.2-.32,.12-.49,.02-.57-.14-.12-.23,0-.28,.08-.05,.09-.12,.09-.16,.08-.08-.03-.09-.11-.08-.22,.03-.24-.23-.41-.4-.38-.17,.03-.4,.27-.28,.5,.07,.12,.11,.2,0,.26-.06,.04-.13,0-.19-.04-.12-.09-.22-.07-.28,.03-.16,.26,.19,.53,.25,.57,.07,.05,.12,.09,.09,.14-.03,.07-.1,.05-.16,0-.09-.07-.21-.07-.27,.04-.13,.25,.21,.49,.36,.55,.13,.05,.26,.1,.24,.16-.01,.05-.07,.06-.13,.04-.1-.03-.21,.02-.22,.12-.03,.22,.35,.4,.56,.48,.76,.29,.74,1.39,.63,1.69-.16,.47-.45,.79-.95,.72-.73-.1-1.14-1.65-1.11-2.64,.06-1.7,1.31-4,1.72-4.99,.35-.83,.77-2.12,1.04-3.16,.32-1.25,.46-1.4,.88-2.08,.12-.2,.28-.43,.5-.5,.19-.06,.37-.02,.58,.02,.3,.06,.69,.11,.76-.13,.04-.14-.06-.22-.16-.27-.07-.04-.12-.08-.09-.15,.03-.07,.15-.04,.28,0,.24,.07,.81,.18,.93-.23,.05-.19-.12-.27-.26-.27-.1,0-.16-.07-.15-.13,.02-.08,.13-.08,.26-.07,.51,0,.65-.2,.68-.37,.04-.24-.16-.27-.28-.27-.14,0-.19-.07-.2-.14-.02-.11,.07-.18,.21-.24,.31-.13,.32-.56,.17-.73-.15-.18-.6-.29-.78,.01-.1,.16-.15,.26-.3,.19-.08-.04-.1-.16-.09-.25,.03-.2-.07-.3-.22-.31-.42,0-.49,.59-.5,.69-.01,.12-.03,.2-.1,.21-.1,0-.13-.08-.12-.18,.02-.16-.07-.3-.23-.29-.38,.02-.43,.58-.4,.8,.03,.19,.06,.37-.02,.39-.07,.02-.12-.04-.14-.12-.04-.15-.17-.24-.29-.18-.28,.12-.23,.69-.18,.99,.03,.16,.11,.36-.08,.87-.06,.16-.28,.68-.38,.91,.11-1.09,0-2.15-.02-2.67-.02-.55,.13-.71,.2-.85,.14-.26,.37-.78,.15-.99-.1-.09-.25-.05-.33,.08-.05,.07-.12,.11-.18,.07-.07-.04,.02-.2,.11-.38,.1-.2,.24-.75-.12-.89-.15-.06-.28,.04-.31,.2-.02,.1-.08,.17-.17,.14-.06-.03-.05-.11-.03-.23,.02-.1,.15-.69-.25-.81-.15-.05-.27,.02-.31,.21-.02,.09-.07,.2-.16,.21-.16,.02-.18-.1-.22-.28-.07-.34-.53-.39-.73-.27-.2,.12-.32,.53-.08,.75,.11,.1,.17,.2,.12,.3-.03,.06-.1,.11-.24,.07-.12-.04-.32-.07-.36,.17-.03,.17,.04,.41,.53,.57,.13,.04,.23,.07,.22,.16,0,.06-.08,.11-.18,.07-.13-.04-.32-.02-.33,.17-.03,.42,.56,.52,.8,.52,.14,0,.27,.01,.27,.09,0,.08-.06,.1-.13,.12-.11,.02-.24,.06-.24,.21,0,.25,.37,.33,.68,.37,.5,.07,.69,.17,.82,.61,.11,.39,.14,2.31-.2,3.88-.04-.17-.14-.55-.19-.71-.14-.49-.05-.67-.01-.82,.07-.27,.16-.8-.09-.93-.11-.06-.24,.02-.29,.15-.03,.08-.08,.13-.14,.11-.07-.03-.03-.19,.01-.37,.05-.2,.04-.73-.31-.78-.15-.02-.25,.1-.24,.25,0,.1-.03,.18-.12,.16-.06,0-.07-.09-.08-.2,0-.09-.02-.66-.41-.68-.15,0-.24,.08-.23,.27,0,.08-.02,.19-.1,.22-.14,.05-.19-.05-.27-.2-.15-.29-.57-.23-.72-.07-.15,.15-.17,.55,.1,.7,.13,.07,.2,.14,.18,.24-.02,.06-.07,.12-.2,.11-.12,0-.31,0-.28,.23,.02,.16,.13,.37,.61,.4,.13,0,.23,0,.24,.09,0,.06-.05,.12-.15,.11-.13-.01-.29,.05-.26,.23,.07,.39,.62,.34,.85,.29,.12-.03,.24-.05,.26,.02,.02,.07-.03,.1-.1,.14-.1,.04-.2,.11-.17,.24,.05,.23,.41,.21,.7,.18,.2-.02,.37-.05,.55,.02,.19,.08,.34,.31,.42,.5,.23,.53,.22,.94,.19,1.12-.22,.79-.52,1.63-.93,2.51,0-.14-.03-.42-.02-.55,0-.43,.12-.56,.19-.67,.12-.2,.32-.61,.15-.78-.08-.08-.2-.05-.27,.05-.04,.05-.1,.08-.14,.05-.05-.04,.02-.16,.1-.3,.09-.15,.21-.58-.06-.7-.12-.05-.23,.02-.25,.15-.02,.08-.07,.14-.14,.1-.05-.02-.04-.09-.01-.18,.02-.07,.14-.54-.17-.65-.12-.04-.22,0-.25,.16-.02,.07-.06,.15-.13,.16-.13,0-.14-.08-.17-.23-.05-.27-.41-.32-.57-.23-.16,.09-.27,.4-.08,.59,.09,.09,.13,.16,.08,.24-.03,.05-.08,.08-.19,.04-.09-.03-.25-.07-.29,.12-.03,.13,.02,.33,.4,.47,.1,.04,.18,.06,.17,.13,0,.05-.07,.08-.15,.05-.1-.04-.25-.03-.27,.12-.03,.33,.42,.42,.62,.44,.11,0,.21,.02,.21,.08,0,.06-.05,.08-.11,.09-.09,.01-.19,.04-.2,.15-.01,.2,.28,.27,.52,.32,.17,.03,.31,.05,.44,.15,.14,.11,.2,.33,.22,.51,.06,.39,.11,.81-.24,1.09-.25,.19-.58,.23-.98-.05-.27-.19-1.4-1.28-1.04-2.7,.55-2.16-.24-4.38-.35-4.84-.12-.54,0-.72,.05-.88,.09-.28,.23-.84-.04-1-.12-.07-.26,0-.32,.14-.03,.08-.09,.13-.16,.1-.07-.03-.02-.2,.04-.39,.06-.21,.1-.78-.28-.85-.16-.03-.27,.09-.27,.25,0,.1-.04,.19-.14,.16-.07-.01-.07-.1-.07-.22,0-.1,.02-.7-.39-.75-.15-.02-.27,.07-.27,.27,0,.09-.03,.2-.12,.23-.15,.05-.2-.06-.27-.23-.13-.32-.6-.28-.77-.13-.17,.15-.22,.57,.06,.75,.13,.08,.21,.17,.17,.27-.02,.06-.08,.13-.22,.11-.12-.02-.33-.01-.32,.23,0,.17,.12,.4,.62,.46,.13,.02,.24,.02,.25,.11,0,.06-.06,.12-.17,.11-.14-.02-.32,.03-.29,.23,.05,.42,.64,.41,.88,.37,.13-.02,.26-.04,.28,.03,.02,.08-.04,.11-.11,.14-.11,.04-.22,.1-.2,.25,.04,.25,.43,.25,.73,.24,.78-.02,1.05,.48,1.12,.98,.3,1.97,.1,2.64-.35,4.02-.77,2.35,.74,2.97,.95,4.53,.36,2.59-.93,4.63-.78,5.36,.18,.88,1.88,.17,2.08,.7,.15,.41-.19,.77-.04,1.2,.15,.43,.94,.13,1.11,.47,.15,.29-.46,.64-.21,1.17,.25,.53,.77,.36,1.21,.84,.34,.37,.4,.97,.46,1.51,.08,.73,.33,1.05,.66,1.18,.69,.26,2.14-.41,2.59-.61,1.42-.62,3.38-1.42,5.53-.8-.84-.05-1.92-.08-3.14,.43-1.37,.58-2.08,1.29-3.43,1.69-.72,.21-1.51,.43-2.25-.1-.85-.59-.58-1.37-.99-1.65-.23-.15-.56,.48-1.04,.41-.42-.06-.72-.43-.98-.9l.32-.2c.14,.2,.37,.32,.63,.32,.43,0,.78-.35,.78-.79s-.35-.78-.78-.78-.78,.35-.78,.78c0,.08,.01,.15,.03,.22l-.33,.2c-.16-.33-.29-.66-.37-.91,.35-.13,.6-.46,.6-.86,0-.5-.41-.91-.91-.91s-.91,.41-.91,.91,.41,.91,.91,.92c.2,.58,.45,1.48-.01,1.64-.46,.16-1.1-.79-1.33-1.8-.25-1.07,0-1.96,0-1.96,.06,.02,.13,.02,.19,.02,.45,0,.82-.37,.82-.82s-.37-.82-.82-.82-.82,.37-.82,.82c0,.29,.15,.55,.38,.69l-.18,.64-.39-.22c.02-.06,.02-.12,.02-.17,0-.36-.29-.66-.66-.66s-.66,.29-.66,.66,.29,.65,.66,.65c.21,0,.39-.1,.51-.24l.44,.26c-.12,.38-.36,.84-.77,.85-.4,.01-.9-.22-1.11-1.15-.06-.28-.1-.54-.13-.81,.96-1.21,2.4-1.64,2.55-1.69,.19-.07,.17-.14-.06-.15-1.57-.06-2.24,.67-2.53,1.27-.06-.55,.16-2.12,.22-2.26,.17-.03,.33-.12,.44-.25l.36,.23c-.02,.07-.03,.13-.03,.21,0,.36,.29,.65,.65,.65s.65-.29,.65-.65-.29-.65-.65-.65c-.19,0-.36,.08-.48,.22l-.36-.23c.03-.08,.04-.16,.04-.25,0-.03,0-.06,0-.09l.74-.27c.14,.25,.41,.41,.71,.41,.46,0,.83-.37,.83-.83s-.37-.83-.83-.83-.83,.37-.83,.83c0,.06,0,.11,.02,.17l-.72,.26c-.12-.23-.37-.39-.65-.39-.41,0-.74,.33-.74,.74,0,.3,.18,.56,.45,.68-.07,.22-.33,1.83-.32,2.39-.29-.25-.79-.47-1.59-.6-.28-.04-.37,.03-.15,.13,.18,.08,1.64,.72,1.78,1.59,.05,.34-.06,.69-.33,.81-.69,.33-1.47-.36-1.79-1.7-.13-.53-.23-1.46,.26-2.41,.16,.39,.43,.69,.86,.68,.41,0,.7-.33,.69-.72,0-.32-.22-.57-.49-.6-.3-.03-.52,.18-.52,.42,0,.27,.25,.43,.39,.42,.14-.01,.16-.2,.04-.22-.12-.02-.18-.09-.18-.19,0-.1,.09-.18,.2-.17,.09,0,.25,.09,.28,.36,.02,.28-.24,.41-.39,.42-.12,0-.34,.03-.55-.4-.05-.11-.08-.23-.11-.36,.31-.45,.77-.89,1.44-1.29,.69-.41,1.61-.8,2.81-1.14,1-.28,.99-.3,.99-.46s-.24-.14-1.03,.01c-.06-.19-.46-.06-.52-.08-.18-.06-.35-.39-.35-.39,.13-.26,.3-.39,.42-.43,.05-.02,.2,.05,.33,.05,.18,0,.29-.06,.43-.05,.16,.02,.36,.05,.44-.07,.03-.05,0-.14-.09-.24-.04-.04-.14-.18-.31-.46-.2-.32-.58-.38-.58-.38,0,0-.1-.25-.27-.35,0,0-.27,.19-.3,.44,0,0-.25,.16-1.2,.15-.32,0-.9-.12-1.35,.06-1.18,.47-1.16,1.32-1.12,1.63,.03,.31,.1,.48,.02,.86-.21,.99-.19,1.32-.18,1.45,0,.07,0,.14,.02,.2-.27,.31-.49,.64-.64,1.02,0,0-.16-.23-.21-.77-.16-1.62,.48-2.81,.56-2.97,.1-.19,.04-.23-.14-.07-.68,.59-.88,1.23-.88,1.77-.12-.33-.26-.68-.41-1.04,.65-.64,1.15-1.35,1.54-2.09,.1,.04,.22,.06,.33,.06,.58,0,1.04-.47,1.04-1.04,0-.05,0-.1-.01-.15,1.29-.49,2.8-.29,4.02,.12,.22,.07,.25,0,.04-.16-.99-.77-1.84-.89-2.49-.79,.67-.52,1.28-1.29,1.55-2.4,.5-.01,.9-.42,.9-.92s-.41-.92-.92-.92-.92,.41-.92,.92c0,.36,.21,.67,.51,.82-.2,.82-.59,1.43-1.06,1.88l-.21-.66c.32-.14,.54-.45,.54-.82,0-.49-.4-.9-.9-.9s-.9,.4-.9,.9,.4,.9,.9,.9c.03,0,.06,0,.09,0l.25,.79c-.52,.43-1.09,.69-1.56,.85-.11-.17-.26-.31-.45-.39,.37-1.33,.47-2.6,.47-3.55,1.59-1.13,3.56-1.17,3.77-1.19,.25-.02,.26-.11-.02-.18-2.29-.63-3.35,.39-3.75,.98,0-.36-.03-.65-.05-.86,.26-.1,.45-.33,.5-.61l.85-.52c.16,.18,.39,.29,.65,.29,.48,0,.87-.39,.87-.87s-.39-.87-.87-.87-.87,.39-.87,.87c0,.13,.03,.25,.08,.35l-.71,.43c-.07-.39-.41-.68-.82-.68-.02,0-.03,0-.05,0l-.15-.73c.37-.14,.63-.5,.63-.92,0-.55-.44-.99-.99-.99s-.99,.44-.99,.99,.45,.99,.99,.99c.03,0,.07,0,.1,0l.15,.72c-.31,.12-.52,.42-.52,.77l-.83-.2s0-.06,0-.08c0-.43-.35-.78-.78-.78s-.78,.35-.78,.78,.35,.78,.78,.78c.31,0,.58-.18,.7-.44l.96,.23c.11,.3,.38,.52,.71,.54,.02,.25,.03,.6,.04,1.01-.39-.48-1.42-1.36-3.37-.62-.24,.09-.23,.17,0,.16,.18,0,1.91-.11,3.38,.76,0,.84-.06,1.85-.27,2.74-.11-.54-.3-1-.48-1.35,.16-.16,.26-.38,.26-.62,0-.48-.39-.87-.87-.87s-.87,.39-.87,.87,.39,.87,.87,.87c.1,0,.2-.02,.29-.05,.22,.43,.45,1.04,.5,1.74-.54,.03-.98,.49-.98,1.04,0,.32,.14,.61,.37,.8-.2,.37-.42,.74-.68,1.09,.16-.49,.16-1.19-.33-2.09-.1-.19-.16-.17-.13,.01,.02,.15,.31,1.55-.22,2.86-.13-.3-.27-.6-.42-.91,.17-.16,.28-.38,.28-.64,0-.48-.39-.86-.86-.86-.07,0-.13,0-.19,.02-.08-.15-.17-.3-.26-.44l.74-.79c.16,.11,.34,.17,.55,.17,.53,0,.96-.43,.96-.96s-.43-.96-.96-.96-.96,.43-.96,.96c0,.23,.08,.44,.21,.6l-.69,.74c-.08-.13-.16-.27-.25-.4,.16-1.37,1.03-2.45,1.12-2.56,.11-.15,.07-.19-.11-.07-1.02,.67-1.27,1.43-1.28,2l-.35-1.48,.81-.79c.11,.08,.24,.13,.39,.13,.36,0,.64-.29,.64-.64s-.29-.64-.64-.64-.64,.29-.64,.64c0,.11,.03,.22,.08,.31l-.7,.69-.22-.94c.37-.13,.64-.48,.64-.89,0-.52-.42-.94-.94-.94s-.94,.42-.94,.94,.42,.94,.94,.94c.01,0,.03,0,.04,0l.65,2.75-.8-.87c.11-.14,.17-.31,.17-.5,0-.46-.37-.83-.83-.83s-.83,.37-.83,.83,.37,.83,.83,.83c.18,0,.34-.05,.47-.15l.86,.93-2.41-.5s0-.08,0-.13c0-.53-.43-.96-.96-.96s-.96,.43-.96,.96,.43,.96,.96,.96c.39,0,.73-.24,.88-.58l1.37,.29c-.59,.07-1.26,.36-1.91,1.11-.17,.19-.13,.25,.07,.15,.16-.08,1.62-.92,3.29-.83,.11,.19,.22,.38,.32,.57l-.65,.12c-.12-.23-.37-.39-.65-.39-.41,0-.73,.33-.73,.73s.33,.73,.73,.73,.73-.33,.73-.73c0-.04,0-.07,0-.11l.69-.13c.06,.1,.11,.21,.16,.31-.19,.16-.31,.39-.31,.66,0,.48,.39,.86,.86,.86,.06,0,.12,0,.18-.02,.33,.73,.6,1.4,.81,1.99l-1.14,.1c-.07-.37-.39-.65-.79-.65-.44,0-.8,.36-.8,.8s.36,.8,.8,.8c.4,0,.74-.3,.79-.68l.44-.04-.05,.86c-.4,.04-.71,.37-.71,.78,0,.43,.35,.78,.78,.78s.78-.35,.78-.78c0-.37-.25-.67-.59-.76l.05-.9,.51-.05c.42,1.23,.57,2.04,.6,2.26,.12,.93-.64,1-1.82,.64-.6-.18-1.34-.65-1.71-1.74-.17-.49-.38-.91-.61-1.27l.29-.87c.06,.01,.12,.02,.18,.02,.46,0,.84-.37,.84-.84s-.37-.84-.84-.84-.84,.37-.84,.84c0,.31,.16,.57,.41,.72l-.23,.7c-.42-.56-.88-.96-1.27-1.22v-.63c.4-.06,.69-.39,.69-.79,0-.44-.36-.81-.81-.81s-.8,.36-.8,.81c0,.36,.24,.67,.58,.77v.44s-.93-.46-.93-.46c.03-.09,.05-.19,.05-.3,0-.54-.44-.97-.97-.97s-.98,.44-.98,.97,.44,.98,.98,.98c.3,0,.56-.13,.74-.34,0,0,1.22,.38,2.02,1.6l-.78,.04c-.11-.46-.52-.8-1.01-.8-.57,0-1.03,.46-1.03,1.03s.46,1.04,1.03,1.04c.54,0,.99-.41,1.03-.94l.96-.05c.29,.49,.42,.98,.75,2.07,.72,2.37,2.25,2.08,3.29,3.26,1.73,1.97,1.78,4.38,2.3,4.9,.64,.63,1.66-.9,2.12-.56,.35,.26,.27,.75,.63,1.03,.37,.27,.86-.41,1.19-.22,.28,.16-.03,.79,.47,1.09,.5,.3,.85-.13,1.47,.03,.61,.16,1.01,.8,1.45,1.24,.89,.9,1.53,.05,1.88-.46,.12-.17,.8-1.12,1.94-1.19,1.48-.1,3.3,.71,3.34,5.78,.02,2.25-.44,3.69-.44,3.69h5.17s-.46-1.44-.44-3.69c.05-5.06,1.86-5.88,3.34-5.78,1.14,.08,1.82,1.03,1.94,1.19,.35,.51,.99,1.36,1.88,.46,.44-.44,.84-1.09,1.45-1.24,.62-.16,.97,.27,1.47-.03,.51-.3,.19-.93,.48-1.09,.33-.18,.82,.5,1.19,.22,.37-.27,.28-.77,.63-1.03,.46-.34,1.48,1.2,2.12,.56,.53-.53,.58-2.94,2.3-4.9,1.04-1.18,2.57-.89,3.29-3.26,.16-.51,.27-.89,.37-1.2,.33-.14,.77-.27,1.11-.37,.23,.14,.58,.32,.91,.31,1.16-.06,1.85-.85,3.13-.88,0,0-1.99-.76-3.28-.39-.41,.12-.71,.42-.87,.62-.26,.07-.56,.16-.84,.26,.21-.49,.47-.85,1.06-1.53,.31,.05,.77,.09,1.11-.07,1.28-.59,1.69-1.79,3.12-2.41,0,0-2.58,.04-3.86,1.05-.42,.33-.62,.84-.7,1.13-.64,.49-1.4,1.3-1.83,2.59-.53,1.62-2.2,1.89-2.8,1.85-.56-.04-.84-.39,.05-.92,.29,0,.72-.07,1.08-.31,1.28-.85,2.07-3.16,2.07-3.16-.97,1.11-2.17,1.13-3.07,2.11-.29,.31-.38,.84-.41,1.14l-.49,.39c.14-1.3,.54-2.19,.89-3.06l1.15-.63c.31,.05,.79,.08,1.22-.11,1.49-.66,2.73-2.92,2.73-2.92-1.21,.97-2.47,.78-3.59,1.63-.37,.29-.57,.85-.64,1.14l-.65,.35c.13-.3,.26-.61,.39-.91,.27-.61,.53-1.23,.78-1.85l.98-.51c.29,.04,.94,.11,1.47-.17,1.58-.81,2.8-3.36,2.8-3.36-1.26,1.14-2.65,1.01-3.81,2.01-.34,.3-.52,.87-.59,1.19l-.65,.32c.36-.97,.65-2.24,.69-2.4,.27-.16,.73-.47,.9-.84,.67-1.42-.07-2.4,.7-3.96,0,0-1.94,1.55-2.3,3.33-.12,.59,.12,1.2,.24,1.47-.28,1.3-1.29,4.11-1.68,4.75-.07-.49-.07-1.18-.08-1.51,.2-.24,.5-.68,.53-1.11,.07-1.4-.8-2.31-.68-3.85,0,0-1.15,2.29-.85,3.88,.09,.51,.44,.91,.65,1.12,.03,.35,.03,1.41,.14,2.16-.64,1.51-1.2,2.96-1.36,4.44-.05,.53-.17,.97-.19,1.04-.43,1.55-1.48,2.42-2.09,1.98-.19-.13-.37-.38,.11-1.08,.19-.28,.31-.48,.31-.48,.25-.12,.65-.42,.86-.79,.75-1.24,.45-3.65,.45-3.65-.39,1.33-1.36,1.95-1.73,3.15-.13,.4,.02,.91,.12,1.16,0,0-.3,.46-.62,.77,0-.3,.28-2.26,.28-3.59l.76-1.36c.29-.12,.71-.35,.97-.75,.91-1.35,.75-3.93,.75-3.93-.51,1.47-1.67,1.98-2.16,3.3-.16,.44-.02,1.02,.07,1.31l-.39,.68c0-.43,0-.84-.07-1.24-.32-2.26,.58-4.35,.69-4.64,.3-.04,.73-.22,1.02-.52,1.01-1.05,1.19-3.34,1.19-3.34-.68,1.22-2.04,1.56-2.43,2.5-.22,.53-.17,.99-.15,1.23-.08,.17-.58,1.52-.68,2.04-.13-.31-.25-.49-.39-.84,.1-.28,.23-.76,.13-1.14-.36-1.28-1.42-1.83-1.79-3.25,0,0-.33,2.41,.42,3.74,.23,.41,.64,.66,.9,.79,.2,.49,.45,1.05,.64,1.34-.14,.7,.03,2.43,.07,2.77-.13-.18-.28-.39-.44-.62,.04-.3,.07-.78-.12-1.13-.62-1.16-1.76-1.48-2.41-2.78,0,0,.18,2.4,1.19,3.54,.31,.35,.75,.51,1.03,.58,.25,.36,.55,.79,.78,1.04,.02,.75-.01,1.55-.11,2.52-.11-.14-.22-.29-.33-.43,.04-.3,.07-.85-.15-1.23-.67-1.18-1.86-1.48-2.57-2.81,0,0,.25,2.48,1.33,3.63,.31,.33,.73,.48,1.02,.56,.2,.26,.46,.61,.64,.82-.08,.43-.11,1.16-.24,1.64-.4,1.44-1.25,2.49-1.88,2.4-.44-.07-.38-.46-.27-.74,.18-.05,.54-.26,.86-1.04,.63-1.5-.14-3.03-.14-3.03-.2,1.54-.97,1.33-1.19,2.72-.12,.74,.05,1.09,.19,1.24-.14,.37-.7,1.09-1.44,1.36-1.22,.45-1.82,.03-.96-.8,.27-.1,.68-.3,.99-.66,1.07-1.23,1.07-3.32,1.07-3.32-.68,1.4-1.52,1.39-2.17,2.64-.19,.36-.2,.83-.19,1.13-.14,.11-.52,.38-.87,.81-.46,.56-.62,1.58-1.57,2.04-1.14,.56-2.53-.23-3.37-.58-2.34-.97-4.12,.5-4.32,.64,.71-1.12,2.02-1.39,2.62-1.44,.57-.05,1.39-.04,2.75,.43,.92,.32,1.48,.39,1.84,.19,.3-.18,.44-.48,.53-.97,.1-.57,.11-1.23,.49-1.66,.43-.48,.96-.31,1.21-.84,.26-.53-.35-.88-.21-1.17,.17-.33,.96-.04,1.12-.47,.16-.43-.19-.8-.04-1.2,.2-.54,1.9,.18,2.08-.7,.15-.73-1.14-2.77-.78-5.36,.21-1.56,1.72-2.18,.95-4.53-.11-.34-.21-.69-.28-1.05,.17-.27,.42-.63,.52-.77,.22,.01,.99,0,1.58-.58,.77-.76,.97-2.06,.97-2.06,0,0-1.45-.01-2.3,.78-.62,.58-.54,1.39-.5,1.61-.06,.09-.2,.29-.34,.49-.3-1.9,.1-2.77,.12-2.82,0,0,1.19-.15,1.8-1.21,.67-1.17,.49-2.79,.49-2.79,0,0-1.76,.46-2.52,1.7-.56,.91-.18,1.88-.07,2.11-.35,.79-.77,2.51-.34,4.43,.25,1.11-.35,2.01-.76,2.45-.02-.04-.05-.09-.08-.13,.04-.08-.05-.12,0-.22,.09-.15,.42-.66,.18-.81,.15-.4-.19-.96-.59-.99-.15-.65-.96-.64-1.14-.03-.08,.07-.28,.05-.32,.14,.04,.06,.14,.05,.21,.07,.13,.05,.14,.04,.21,.12-.05,.39-.22,.98,0,1.37,.26,.46,.58,.49,.58,.49-.07,.08-.07,.48-.34,.26-.64-.51-1.21-2.1-1.45-2.92,.23-.13,.53-.42,.7-.6,.24,0,1.07-.08,1.54-.83,.64-1.02,.34-2.5,.34-2.5,0,0-1.27,.46-1.9,1.39-.48,.71-.33,1.49-.28,1.72-.15,.15-.35,.34-.51,.45-.26-.99-.4-1.96-.46-2.83,.27-.16,.6-.44,.78-.6,.22,0,1.28-.02,1.86-.89,.78-1.17,.48-2.9,.48-2.9,0,0-1.5,.49-2.26,1.55-.59,.83-.41,1.8-.36,2.01-.15,.13-.35,.3-.52,.42-.08-1.5,.04-2.63,.07-2.88,.26-.14,.92-.58,1.14-1.41,.3-1.16-.23-2.5-.23-2.5,0,0-1.39,.8-1.76,2.04-.26,.89,.24,1.59,.42,1.81-.03,.22-.13,1.1-.11,2.34-.16-.12-.33-.27-.47-.4,.04-.2,.18-.98-.32-1.67-.64-.88-1.88-1.28-1.88-1.28,0,0-.24,1.44,.41,2.41,.47,.69,1.25,.75,1.5,.75,.2,.18,.54,.49,.78,.63,.07,1.66,.33,4.19,2.23,7.78-.18-.05-.4-.14-.58-.21-.03-.18-.16-.91-.82-1.35-.84-.56-2.06-.5-2.06-.5,0,0,.26,1.33,1.14,1.96,.63,.45,1.33,.25,1.55,.17,.24,.1,.66,.26,.92,.3,.32,.8,.69,2.02,.71,2.63,.04,1.22-.32,2.51-1.1,2.53-.41,.01-.9-.23-.45-1.32,.23-.12,.83-.49,.94-1.25,.15-1.09-.65-2.21-.65-2.21,0,0-.89,.86-1.06,1.87-.14,.79,.3,1.39,.42,1.54"
  />
</svg>