<svg id="my-svg" width="100%" xmlns="http://www.w3.org/2000/svg" xmlns:xlink="http://www.w3.org/1999/xlink" class="erDiagram" style="max-width: 758.633px; background-color: white;" viewBox="4 4 758.6328125 793.25" role="graphics-document document" aria-roledescription="er"><g class="edges edgePaths"><path d="M152.1640625,268.5L152.1640625,434.375" id="my-svg-id_entity-ExternalIdentity-0_entity-ExternalIdentityAuthority_EXT-1_0" class="edge-thickness-normal edge-pattern-solid relationshipLine" style="undefined;;;undefined" data-edge="true" data-et="edge" data-id="id_entity-ExternalIdentity-0_entity-ExternalIdentityAuthority_EXT-1_0" data-points="W3sieCI6MTUyLjE2NDA2MjUsInkiOjI2OC41fSx7IngiOjE1Mi4xNjQwNjI1LCJ5Ijo0MzQuMzc1fV0=" data-look="classic" marker-start="url(#my-svg_er-oneOrMoreStart)" marker-end="url(#my-svg_er-onlyOneEnd)"/><path d="M152.1640625,518.375L152.1640625,705.25" id="my-svg-id_entity-ExternalIdentityAuthority_EXT-1_entity-Reference-2_1" class="edge-thickness-normal edge-pattern-solid relationshipLine" style="undefined;;;undefined" data-edge="true" data-et="edge" data-id="id_entity-ExternalIdentityAuthority_EXT-1_entity-Reference-2_1" data-points="W3sieCI6MTUyLjE2NDA2MjUsInkiOjUxOC4zNzV9LHsieCI6MTUyLjE2NDA2MjUsInkiOjcwNS4yNX1d" data-look="classic" marker-start="url(#my-svg_er-onlyOneStart)" marker-end="url(#my-svg_er-zeroOrOneEnd)"/><path d="M259.8411458333333,268.5L259.8411458333333,281.4289321881345Q259.8411458333333,288.5 266.9122136451988,288.5L517.6242446881345,288.5Q524.6953125,288.5 524.6953125,295.5710678118655L524.6953125,369.5" id="my-svg-id_entity-ExternalIdentity-0_entity-Entity_Identity_MAP-3_2" class="edge-thickness-normal edge-pattern-solid relationshipLine" style="undefined;;;undefined" data-edge="true" data-et="edge" data-id="id_entity-ExternalIdentity-0_entity-Entity_Identity_MAP-3_2" data-points="W3sieCI6MjU5Ljg0MTE0NTgzMzMzMzMsInkiOjI2OC41fSx7IngiOjI1OS44NDExNDU4MzMzMzMzLCJ5IjoyODguNX0seyJ4Ijo1MjQuNjk1MzEyNSwieSI6Mjg4LjV9LHsieCI6NTI0LjY5NTMxMjUsInkiOjM2OS41fV0=" data-look="classic" marker-start="url(#my-svg_er-onlyOneStart)" marker-end="url(#my-svg_er-oneOrMoreEnd)"/><path d="M450.0546875,583.25L450.0546875,596.1789321881345Q450.0546875,603.25 442.9836196881345,603.25L349.2351303118655,603.25Q342.1640625,603.25 342.1640625,610.3210678118655L342.1640625,705.25" id="my-svg-id_entity-Entity_Identity_MAP-3_entity-TaxonConcept-4_3" class="edge-thickness-normal edge-pattern-solid relationshipLine" style="undefined;;;undefined" data-edge="true" data-et="edge" data-id="id_entity-Entity_Identity_MAP-3_entity-TaxonConcept-4_3" data-points="W3sieCI6NDUwLjA1NDY4NzUsInkiOjU4My4yNX0seyJ4Ijo0NTAuMDU0Njg3NSwieSI6NjAzLjI1fSx7IngiOjM0Mi4xNjQwNjI1LCJ5Ijo2MDMuMjV9LHsieCI6MzQyLjE2NDA2MjUsInkiOjcwNS4yNX1d" data-look="classic" marker-start="url(#my-svg_er-zeroOrMoreStart)" marker-end="url(#my-svg_er-zeroOrOneEnd)"/><path d="M524.6953125,583.25L524.6953125,705.25" id="my-svg-id_entity-Entity_Identity_MAP-3_entity-TaxonName-5_4" class="edge-thickness-normal edge-pattern-solid relationshipLine" style="undefined;;;undefined" data-edge="true" data-et="edge" data-id="id_entity-Entity_Identity_MAP-3_entity-TaxonName-5_4" data-points="W3sieCI6NTI0LjY5NTMxMjUsInkiOjU4My4yNX0seyJ4Ijo1MjQuNjk1MzEyNSwieSI6NzA1LjI1fV0=" data-look="classic" marker-start="url(#my-svg_er-zeroOrMoreStart)" marker-end="url(#my-svg_er-zeroOrOneEnd)"/><path d="M599.3359375,583.25L599.3359375,596.1789321881345Q599.3359375,603.25 606.4070053118655,603.25L677.5929946881345,603.25Q684.6640625,603.25 684.6640625,610.3210678118655L684.6640625,705.25" id="my-svg-id_entity-Entity_Identity_MAP-3_entity-Agent-6_5" class="edge-thickness-normal edge-pattern-solid relationshipLine" style="undefined;;;undefined" data-edge="true" data-et="edge" data-id="id_entity-Entity_Identity_MAP-3_entity-Agent-6_5" data-points="W3sieCI6NTk5LjMzNTkzNzUsInkiOjU4My4yNX0seyJ4Ijo1OTkuMzM1OTM3NSwieSI6NjAzLjI1fSx7IngiOjY4NC42NjQwNjI1LCJ5Ijo2MDMuMjV9LHsieCI6Njg0LjY2NDA2MjUsInkiOjcwNS4yNX1d" data-look="classic" marker-start="url(#my-svg_er-zeroOrMoreStart)" marker-end="url(#my-svg_er-zeroOrOneEnd)"/></g><style>#my-svg{font-family:"trebuchet ms",verdana,arial,sans-serif;font-size:16px;fill:#333;}@keyframes edge-animation-frame{from{stroke-dashoffset:0;}}@keyframes dash{to{stroke-dashoffset:0;}}#my-svg .edge-animation-slow{stroke-dasharray:9,5!important;stroke-dashoffset:900;animation:dash 50s linear infinite;stroke-linecap:round;}#my-svg .edge-animation-fast{stroke-dasharray:9,5!important;stroke-dashoffset:900;animation:dash 20s linear infinite;stroke-linecap:round;}#my-svg .error-icon{fill:hsl(210, 100%, 96.7647058824%);}#my-svg .error-text{fill:rgb(16.4999999998, 8.2499999999, 0);stroke:rgb(16.4999999998, 8.2499999999, 0);}#my-svg .edge-thickness-normal{stroke-width:1px;}#my-svg .edge-thickness-thick{stroke-width:3.5px;}#my-svg .edge-pattern-solid{stroke-dasharray:0;}#my-svg .edge-thickness-invisible{stroke-width:0;fill:none;}#my-svg .edge-pattern-dashed{stroke-dasharray:3;}#my-svg .edge-pattern-dotted{stroke-dasharray:2;}#my-svg .marker{fill:#e74b0f;stroke:#e74b0f;}#my-svg .marker.cross{stroke:#e74b0f;}#my-svg svg{font-family:"trebuchet ms",verdana,arial,sans-serif;font-size:16px;}#my-svg p{margin:0;}#my-svg .entityBox{fill:#ffead5;stroke:#fbb176;}#my-svg .relationshipLabelBox{fill:hsl(210, 100%, 96.7647058824%);opacity:0.7;background-color:hsl(210, 100%, 96.7647058824%);}#my-svg .relationshipLabelBox rect{opacity:0.5;}#my-svg .labelBkg{background-color:rgba(238.5000000002, 246.7500000001, 255, 0.5);}#my-svg .edgeLabel{background-color:hsl(-90, 100%, 91.7647058824%);}#my-svg .edgeLabel .label rect{fill:hsl(-90, 100%, 91.7647058824%);}#my-svg .edgeLabel .label text{fill:#333;}#my-svg .edgeLabel .label{fill:#fbb176;font-size:14px;}#my-svg .label{font-family:"trebuchet ms",verdana,arial,sans-serif;color:#333;}#my-svg .edge-pattern-dashed{stroke-dasharray:8,8;}#my-svg .node rect,#my-svg .node circle,#my-svg .node ellipse,#my-svg .node polygon{fill:#ffead5;stroke:#fbb176;stroke-width:1px;}#my-svg .relationshipLine{stroke:#e74b0f;stroke-width:1px;fill:none;}#my-svg .marker{fill:none!important;stroke:#e74b0f!important;stroke-width:1;}#my-svg [data-look=neo].labelBkg{background-color:rgba(238.5000000002, 246.7500000001, 255, 0.5);}#my-svg .node .neo-node{stroke:#fbb176;}#my-svg [data-look="neo"].node rect,#my-svg [data-look="neo"].cluster rect,#my-svg [data-look="neo"].node polygon{stroke:url(#my-svg-gradient);filter:drop-shadow( 1px 2px 2px rgba(185,185,185,1));}#my-svg [data-look="neo"].node path{stroke:url(#my-svg-gradient);stroke-width:1px;}#my-svg [data-look="neo"].node .outer-path{filter:drop-shadow( 1px 2px 2px rgba(185,185,185,1));}#my-svg [data-look="neo"].node .neo-line path{stroke:#fbb176;filter:none;}#my-svg [data-look="neo"].node circle{stroke:url(#my-svg-gradient);filter:drop-shadow( 1px 2px 2px rgba(185,185,185,1));}#my-svg [data-look="neo"].node circle .state-start{fill:#000000;}#my-svg [data-look="neo"].icon-shape .icon{fill:url(#my-svg-gradient);filter:drop-shadow( 1px 2px 2px rgba(185,185,185,1));}#my-svg [data-look="neo"].icon-shape .icon-neo path{stroke:url(#my-svg-gradient);filter:drop-shadow( 1px 2px 2px rgba(185,185,185,1));}#my-svg :root{--mermaid-font-family:"trebuchet ms",verdana,arial,sans-serif;}</style><g><defs><marker id="my-svg_er-onlyOneStart" class="marker onlyOne er" refX="0" refY="9" markerWidth="18" markerHeight="18" orient="auto"><path d="M9,0 L9,18 M15,0 L15,18"/></marker></defs><defs><marker id="my-svg_er-onlyOneEnd" class="marker onlyOne er" refX="18" refY="9" markerWidth="18" markerHeight="18" orient="auto"><path d="M3,0 L3,18 M9,0 L9,18"/></marker></defs><defs><marker id="my-svg_er-zeroOrOneStart" class="marker zeroOrOne er" refX="0" refY="9" markerWidth="30" markerHeight="18" orient="auto"><circle fill="white" cx="21" cy="9" r="6"/><path d="M9,0 L9,18"/></marker></defs><defs><marker id="my-svg_er-zeroOrOneEnd" class="marker zeroOrOne er" refX="30" refY="9" markerWidth="30" markerHeight="18" orient="auto"><circle fill="white" cx="9" cy="9" r="6"/><path d="M21,0 L21,18"/></marker></defs><defs><marker id="my-svg_er-oneOrMoreStart" class="marker oneOrMore er" refX="18" refY="18" markerWidth="45" markerHeight="36" orient="auto"><path d="M0,18 Q 18,0 36,18 Q 18,36 0,18 M42,9 L42,27"/></marker></defs><defs><marker id="my-svg_er-oneOrMoreEnd" class="marker oneOrMore er" refX="27" refY="18" markerWidth="45" markerHeight="36" orient="auto"><path d="M3,9 L3,27 M9,18 Q27,0 45,18 Q27,36 9,18"/></marker></defs><defs><marker id="my-svg_er-zeroOrMoreStart" class="marker zeroOrMore er" refX="18" refY="18" markerWidth="57" markerHeight="36" orient="auto"><circle fill="white" cx="48" cy="18" r="6"/><path d="M0,18 Q18,0 36,18 Q18,36 0,18"/></marker></defs><defs><marker id="my-svg_er-zeroOrMoreEnd" class="marker zeroOrMore er" refX="39" refY="18" markerWidth="57" markerHeight="36" orient="auto"><circle fill="white" cx="9" cy="18" r="6"/><path d="M21,18 Q39,0 57,18 Q39,36 21,18"/></marker></defs></g><defs><filter id="my-svg-drop-shadow" height="130%" width="130%"><feDropShadow dx="4" dy="4" stdDeviation="0" flood-opacity="0.06" flood-color="#000000"/></filter></defs><defs><filter id="my-svg-drop-shadow-small" height="150%" width="150%"><feDropShadow dx="2" dy="2" stdDeviation="0" flood-opacity="0.06" flood-color="#000000"/></filter></defs><linearGradient id="my-svg-gradient" gradientUnits="objectBoundingBox" x1="0%" y1="0%" x2="100%" y2="0%"><stop offset="0%" stop-color="#fbb176" stop-opacity="1"/><stop offset="100%" stop-color="hsl(-90, 60%, 81.7647058824%)" stop-opacity="1"/></linearGradient><g class="subgraphs"/><g class="nodes"><g class="node default" id="my-svg-entity-ExternalIdentity-0" data-look="classic" transform="translate(206.00260416666669, 140.25)"><g class="outer-path" style=""><path d="M-161.515625 -128.25 L161.515625 -128.25 L161.515625 128.25 L-161.515625 128.25" stroke="none" stroke-width="0" fill="#ffead5"/><path d="M-161.515625 -128.25 C-87.50777491833846 -128.25, -13.499924836676911 -128.25, 161.515625 -128.25 M-161.515625 -128.25 C-63.04703469835036 -128.25, 35.42155560329928 -128.25, 161.515625 -128.25 M161.515625 -128.25 C161.515625 -41.029879726978564, 161.515625 46.19024054604287, 161.515625 128.25 M161.515625 -128.25 C161.515625 -44.881438013738034, 161.515625 38.48712397252393, 161.515625 128.25 M161.515625 128.25 C64.61897772754985 128.25, -32.277669544900306 128.25, -161.515625 128.25 M161.515625 128.25 C51.55120822147457 128.25, -58.413208557050865 128.25, -161.515625 128.25 M-161.515625 128.25 C-161.515625 48.52161263971719, -161.515625 -31.20677472056562, -161.515625 -128.25 M-161.515625 128.25 C-161.515625 74.1727065287551, -161.515625 20.095413057510214, -161.515625 -128.25" stroke="#fbb176" stroke-width="1.3" fill="none" stroke-dasharray="0 0"/></g><g style="" class="row-rect-odd"><path d="M-161.515625 -85.5 L161.515625 -85.5 L161.515625 -42.75 L-161.515625 -42.75" stroke="none" stroke-width="0" fill="hsl(30, 100%, 100%)"/><path d="M-161.515625 -85.5 C-56.872825110231204 -85.5, 47.76997477953759 -85.5, 161.515625 -85.5 M-161.515625 -85.5 C-95.6190282725887 -85.5, -29.722431545177386 -85.5, 161.515625 -85.5 M161.515625 -85.5 C161.515625 -71.18270580819207, 161.515625 -56.86541161638415, 161.515625 -42.75 M161.515625 -85.5 C161.515625 -74.623733834557, 161.515625 -63.747467669114, 161.515625 -42.75 M161.515625 -42.75 C66.41805306649296 -42.75, -28.67951886701408 -42.75, -161.515625 -42.75 M161.515625 -42.75 C33.56851899396466 -42.75, -94.37858701207068 -42.75, -161.515625 -42.75 M-161.515625 -42.75 C-161.515625 -58.92166799711717, -161.515625 -75.09333599423434, -161.515625 -85.5 M-161.515625 -42.75 C-161.515625 -51.76114885790174, -161.515625 -60.772297715803475, -161.515625 -85.5" stroke="#fbb176" stroke-width="1.3" fill="none" stroke-dasharray="0 0"/></g><g style="" class="row-rect-even"><path d="M-161.515625 -42.75 L161.515625 -42.75 L161.515625 0 L-161.515625 0" stroke="none" stroke-width="0" fill="hsl(30, 100%, 96.7647058824%)"/><path d="M-161.515625 -42.75 C-35.168896132510014 -42.75, 91.17783273497997 -42.75, 161.515625 -42.75 M-161.515625 -42.75 C-94.75418543280979 -42.75, -27.992745865619582 -42.75, 161.515625 -42.75 M161.515625 -42.75 C161.515625 -29.33286034578433, 161.515625 -15.915720691568659, 161.515625 0 M161.515625 -42.75 C161.515625 -27.427661886496825, 161.515625 -12.10532377299365, 161.515625 0 M161.515625 0 C51.1580743030367 0, -59.1994763939266 0, -161.515625 0 M161.515625 0 C75.14943889493671 0, -11.216747210126584 0, -161.515625 0 M-161.515625 0 C-161.515625 -17.031480788303032, -161.515625 -34.062961576606064, -161.515625 -42.75 M-161.515625 0 C-161.515625 -9.060295841951852, -161.515625 -18.120591683903704, -161.515625 -42.75" stroke="#fbb176" stroke-width="1.3" fill="none" stroke-dasharray="0 0"/></g><g style="" class="row-rect-odd"><path d="M-161.515625 0 L161.515625 0 L161.515625 42.75 L-161.515625 42.75" stroke="none" stroke-width="0" fill="hsl(30, 100%, 100%)"/><path d="M-161.515625 0 C-46.82960130305098 0, 67.85642239389804 0, 161.515625 0 M-161.515625 0 C-41.0390931401171 0, 79.4374387197658 0, 161.515625 0 M161.515625 0 C161.515625 11.423106242093086, 161.515625 22.84621248418617, 161.515625 42.75 M161.515625 0 C161.515625 14.781903400936825, 161.515625 29.56380680187365, 161.515625 42.75 M161.515625 42.75 C80.81775862395942 42.75, 0.11989224791884112 42.75, -161.515625 42.75 M161.515625 42.75 C44.29552892405343 42.75, -72.92456715189314 42.75, -161.515625 42.75 M-161.515625 42.75 C-161.515625 31.33893800499291, -161.515625 19.927876009985827, -161.515625 0 M-161.515625 42.75 C-161.515625 33.23640349292407, -161.515625 23.722806985848138, -161.515625 0" stroke="#fbb176" stroke-width="1.3" fill="none" stroke-dasharray="0 0"/></g><g style="" class="row-rect-even"><path d="M-161.515625 42.75 L161.515625 42.75 L161.515625 85.5 L-161.515625 85.5" stroke="none" stroke-width="0" fill="hsl(30, 100%, 96.7647058824%)"/><path d="M-161.515625 42.75 C-58.760556393616895 42.75, 43.99451221276621 42.75, 161.515625 42.75 M-161.515625 42.75 C-86.51668072047305 42.75, -11.517736440946095 42.75, 161.515625 42.75 M161.515625 42.75 C161.515625 53.139239476589395, 161.515625 63.52847895317879, 161.515625 85.5 M161.515625 42.75 C161.515625 53.60557635942186, 161.515625 64.46115271884372, 161.515625 85.5 M161.515625 85.5 C62.43113224820107 85.5, -36.65336050359787 85.5, -161.515625 85.5 M161.515625 85.5 C70.60778259291476 85.5, -20.30005981417048 85.5, -161.515625 85.5 M-161.515625 85.5 C-161.515625 73.73669512444516, -161.515625 61.97339024889031, -161.515625 42.75 M-161.515625 85.5 C-161.515625 70.55947993403092, -161.515625 55.61895986806184, -161.515625 42.75" stroke="#fbb176" stroke-width="1.3" fill="none" stroke-dasharray="0 0"/></g><g style="" class="row-rect-odd"><path d="M-161.515625 85.5 L161.515625 85.5 L161.515625 128.25 L-161.515625 128.25" stroke="none" stroke-width="0" fill="hsl(30, 100%, 100%)"/><path d="M-161.515625 85.5 C-46.56390718196032 85.5, 68.38781063607937 85.5, 161.515625 85.5 M-161.515625 85.5 C-40.42748289683891 85.5, 80.66065920632218 85.5, 161.515625 85.5 M161.515625 85.5 C161.515625 96.72958426896659, 161.515625 107.95916853793318, 161.515625 128.25 M161.515625 85.5 C161.515625 98.82246544214935, 161.515625 112.1449308842987, 161.515625 128.25 M161.515625 128.25 C82.86215348909518 128.25, 4.208681978190356 128.25, -161.515625 128.25 M161.515625 128.25 C94.852634871274 128.25, 28.189644742548012 128.25, -161.515625 128.25 M-161.515625 128.25 C-161.515625 114.86676325933662, -161.515625 101.48352651867324, -161.515625 85.5 M-161.515625 128.25 C-161.515625 115.14802264267803, -161.515625 102.04604528535606, -161.515625 85.5" stroke="#fbb176" stroke-width="1.3" fill="none" stroke-dasharray="0 0"/></g><a href="/vicflora-docs/resources/external-identity" target="_top"><g class="label name" transform="translate(-63.8515625, -118.875)" style=""><foreignObject width="127.703125" height="24"><div xmlns="http://www.w3.org/1999/xhtml" style="display: table-cell; white-space: nowrap; line-height: 1.5; max-width: 226px; text-align: start;"><span class="nodeLabel"><p style="color: #e74b0f; font-weight: bold;">ExternalIdentity</p></span></div></foreignObject></g></a><g class="label attribute-type" transform="translate(-149.015625, -76.125)" style=""><foreignObject width="20.859375" height="24"><div xmlns="http://www.w3.org/1999/xhtml" style="display: table-cell; white-space: nowrap; line-height: 1.5; max-width: 120px; text-align: start;"><span class="nodeLabel"><p>int</p></span></div></foreignObject></g><g class="label attribute-name" transform="translate(-37.703125, -76.125)" style=""><foreignObject width="14.609375" height="24"><div xmlns="http://www.w3.org/1999/xhtml" style="display: table-cell; white-space: nowrap; line-height: 1.5; max-width: 114px; text-align: start;"><span class="nodeLabel"><p>id</p></span></div></foreignObject></g><g class="label attribute-keys" transform="translate(128.875, -76.125)" style=""><foreignObject width="20.140625" height="24"><div xmlns="http://www.w3.org/1999/xhtml" style="display: table-cell; white-space: nowrap; line-height: 1.5; max-width: 121px; text-align: start;"><span class="nodeLabel"><p>PK</p></span></div></foreignObject></g><g class="label attribute-comment" transform="translate(174.015625, -76.125)" style=""><foreignObject width="0" height="0"><div xmlns="http://www.w3.org/1999/xhtml" style="display: table-cell; white-space: nowrap; line-height: 1.5; max-width: 100px; text-align: start;"><span class="nodeLabel"></span></div></foreignObject></g><g class="label attribute-type" transform="translate(-149.015625, -33.375)" style=""><foreignObject width="20.859375" height="24"><div xmlns="http://www.w3.org/1999/xhtml" style="display: table-cell; white-space: nowrap; line-height: 1.5; max-width: 120px; text-align: start;"><span class="nodeLabel"><p>int</p></span></div></foreignObject></g><g class="label attribute-name" transform="translate(-37.703125, -33.375)" style=""><foreignObject width="141.578125" height="24"><div xmlns="http://www.w3.org/1999/xhtml" style="display: table-cell; white-space: nowrap; line-height: 1.5; max-width: 242px; text-align: start;"><span class="nodeLabel"><p>source_system_id</p></span></div></foreignObject></g><g class="label attribute-keys" transform="translate(128.875, -33.375)" style=""><foreignObject width="19.703125" height="24"><div xmlns="http://www.w3.org/1999/xhtml" style="display: table-cell; white-space: nowrap; line-height: 1.5; max-width: 120px; text-align: start;"><span class="nodeLabel"><p>FK</p></span></div></foreignObject></g><g class="label attribute-comment" transform="translate(174.015625, -33.375)" style=""><foreignObject width="0" height="0"><div xmlns="http://www.w3.org/1999/xhtml" style="display: table-cell; white-space: nowrap; line-height: 1.5; max-width: 100px; text-align: start;"><span class="nodeLabel"></span></div></foreignObject></g><g class="label attribute-type" transform="translate(-149.015625, 9.375)" style=""><foreignObject width="45.9375" height="24"><div xmlns="http://www.w3.org/1999/xhtml" style="display: table-cell; white-space: nowrap; line-height: 1.5; max-width: 145px; text-align: start;"><span class="nodeLabel"><p>string</p></span></div></foreignObject></g><g class="label attribute-name" transform="translate(-37.703125, 9.375)" style=""><foreignObject width="88.4375" height="24"><div xmlns="http://www.w3.org/1999/xhtml" style="display: table-cell; white-space: nowrap; line-height: 1.5; max-width: 188px; text-align: start;"><span class="nodeLabel"><p>external_id</p></span></div></foreignObject></g><g class="label attribute-keys" transform="translate(128.875, 9.375)" style=""><foreignObject width="0" height="0"><div xmlns="http://www.w3.org/1999/xhtml" style="display: table-cell; white-space: nowrap; line-height: 1.5; max-width: 100px; text-align: start;"><span class="nodeLabel"></span></div></foreignObject></g><g class="label attribute-comment" transform="translate(174.015625, 9.375)" style=""><foreignObject width="0" height="0"><div xmlns="http://www.w3.org/1999/xhtml" style="display: table-cell; white-space: nowrap; line-height: 1.5; max-width: 100px; text-align: start;"><span class="nodeLabel"></span></div></foreignObject></g><g class="label attribute-type" transform="translate(-149.015625, 52.125)" style=""><foreignObject width="45.9375" height="24"><div xmlns="http://www.w3.org/1999/xhtml" style="display: table-cell; white-space: nowrap; line-height: 1.5; max-width: 145px; text-align: start;"><span class="nodeLabel"><p>string</p></span></div></foreignObject></g><g class="label attribute-name" transform="translate(-37.703125, 52.125)" style=""><foreignObject width="95" height="24"><div xmlns="http://www.w3.org/1999/xhtml" style="display: table-cell; white-space: nowrap; line-height: 1.5; max-width: 195px; text-align: start;"><span class="nodeLabel"><p>external_uri</p></span></div></foreignObject></g><g class="label attribute-keys" transform="translate(128.875, 52.125)" style=""><foreignObject width="0" height="0"><div xmlns="http://www.w3.org/1999/xhtml" style="display: table-cell; white-space: nowrap; line-height: 1.5; max-width: 100px; text-align: start;"><span class="nodeLabel"></span></div></foreignObject></g><g class="label attribute-comment" transform="translate(174.015625, 52.125)" style=""><foreignObject width="0" height="0"><div xmlns="http://www.w3.org/1999/xhtml" style="display: table-cell; white-space: nowrap; line-height: 1.5; max-width: 100px; text-align: start;"><span class="nodeLabel"></span></div></foreignObject></g><g class="label attribute-type" transform="translate(-149.015625, 94.875)" style=""><foreignObject width="86.3125" height="24"><div xmlns="http://www.w3.org/1999/xhtml" style="display: table-cell; white-space: nowrap; line-height: 1.5; max-width: 186px; text-align: start;"><span class="nodeLabel"><p>timestamp</p></span></div></foreignObject></g><g class="label attribute-name" transform="translate(-37.703125, 94.875)" style=""><foreignObject width="117.6875" height="24"><div xmlns="http://www.w3.org/1999/xhtml" style="display: table-cell; white-space: nowrap; line-height: 1.5; max-width: 218px; text-align: start;"><span class="nodeLabel"><p>last_synced_at</p></span></div></foreignObject></g><g class="label attribute-keys" transform="translate(128.875, 94.875)" style=""><foreignObject width="0" height="0"><div xmlns="http://www.w3.org/1999/xhtml" style="display: table-cell; white-space: nowrap; line-height: 1.5; max-width: 100px; text-align: start;"><span class="nodeLabel"></span></div></foreignObject></g><g class="label attribute-comment" transform="translate(174.015625, 94.875)" style=""><foreignObject width="0" height="0"><div xmlns="http://www.w3.org/1999/xhtml" style="display: table-cell; white-space: nowrap; line-height: 1.5; max-width: 100px; text-align: start;"><span class="nodeLabel"></span></div></foreignObject></g><g class="divider"><path d="M-161.515625 -85.50005 L-161.515625 -85.49995 L161.515625 -85.49995 L161.515625 -85.50005" stroke="none" stroke-width="0" fill="#ffead5" fill-rule="evenodd"/><path d="M-161.515625 -85.50005 C-161.515625 -85.5000203060869, -161.515625 -85.49999061217379, -161.515625 -85.49995 M-161.515625 -85.50005 C-161.515625 -85.5000262182467, -161.515625 -85.50000243649342, -161.515625 -85.49995 M-161.515625 -85.49995 C-91.50919387210935 -85.49995, -21.5027627442187 -85.49995, 161.515625 -85.49995 M-161.515625 -85.49995 C-85.66900898183285 -85.49995, -9.822392963665692 -85.49995, 161.515625 -85.49995 M161.515625 -85.49995 C161.515625 -85.49998351529479, 161.515625 -85.50001703058958, 161.515625 -85.50005 M161.515625 -85.49995 C161.515625 -85.49997245688296, 161.515625 -85.49999491376592, 161.515625 -85.50005 M161.515625 -85.50005 C75.18495271090309 -85.50005, -11.14571957819382 -85.50005, -161.515625 -85.50005 M161.515625 -85.50005 C62.053687390818794 -85.50005, -37.40825021836241 -85.50005, -161.515625 -85.50005" stroke="#fbb176" stroke-width="1.3" fill="none" stroke-dasharray="0 0"/></g><g class="divider"><path d="M-50.203175 -85.5 L-50.203075 -85.5 L-50.203075 128.25 L-50.203175 128.25" stroke="none" stroke-width="0" fill="#ffead5" fill-rule="evenodd"/><path d="M-50.203175 -85.5 C-50.20314144524654 -85.5, -50.20310789049307 -85.5, -50.203075 -85.5 M-50.203175 -85.5 C-50.20315195606988 -85.5, -50.20312891213976 -85.5, -50.203075 -85.5 M-50.203075 -85.5 C-50.203075 -23.83844125919184, -50.203075 37.82311748161632, -50.203075 128.25 M-50.203075 -85.5 C-50.203075 -8.589988419208495, -50.203075 68.32002316158301, -50.203075 128.25 M-50.203075 128.25 C-50.20311235506686 128.25, -50.203149710133715 128.25, -50.203175 128.25 M-50.203075 128.25 C-50.20309847094767 128.25, -50.20312194189535 128.25, -50.203175 128.25 M-50.203175 128.25 C-50.203175 85.19582447558741, -50.203175 42.14164895117483, -50.203175 -85.5 M-50.203175 128.25 C-50.203175 58.298956909043696, -50.203175 -11.652086181912608, -50.203175 -85.5" stroke="#fbb176" stroke-width="1.3" fill="none" stroke-dasharray="0 0"/></g><g class="divider"><path d="M116.37495 -85.5 L116.37505 -85.5 L116.37505 128.25 L116.37495 128.25" stroke="none" stroke-width="0" fill="#ffead5" fill-rule="evenodd"/><path d="M116.37495 -85.5 C116.37498558934237 -85.5, 116.37502117868475 -85.5, 116.37505 -85.5 M116.37495 -85.5 C116.37498144138827 -85.5, 116.37501288277653 -85.5, 116.37505 -85.5 M116.37505 -85.5 C116.37505 -41.44894935429882, 116.37505 2.602101291402363, 116.37505 128.25 M116.37505 -85.5 C116.37505 -19.84302397486293, 116.37505 45.81395205027414, 116.37505 128.25 M116.37505 128.25 C116.3750244174548 128.25, 116.37499883490958 128.25, 116.37495 128.25 M116.37505 128.25 C116.37502856817903 128.25, 116.37500713635806 128.25, 116.37495 128.25 M116.37495 128.25 C116.37495 47.05433627783711, 116.37495 -34.14132744432578, 116.37495 -85.5 M116.37495 128.25 C116.37495 74.9794459374378, 116.37495 21.708891874875604, 116.37495 -85.5" stroke="#fbb176" stroke-width="1.3" fill="none" stroke-dasharray="0 0"/></g><g class="divider"><path d="M-161.515625 -85.50005 L-161.515625 -85.49995 L161.515625 -85.49995 L161.515625 -85.50005" stroke="none" stroke-width="0" fill="#ffead5" fill-rule="evenodd"/><path d="M-161.515625 -85.50005 C-161.515625 -85.50002711351243, -161.515625 -85.50000422702486, -161.515625 -85.49995 M-161.515625 -85.50005 C-161.515625 -85.5000178398889, -161.515625 -85.49998567977781, -161.515625 -85.49995 M-161.515625 -85.49995 C-56.351317713143345 -85.49995, 48.81298957371331 -85.49995, 161.515625 -85.49995 M-161.515625 -85.49995 C-55.55166768487838 -85.49995, 50.41228963024324 -85.49995, 161.515625 -85.49995 M161.515625 -85.49995 C161.515625 -85.49997907811013, 161.515625 -85.50000815622028, 161.515625 -85.50005 M161.515625 -85.49995 C161.515625 -85.49998014042583, 161.515625 -85.50001028085167, 161.515625 -85.50005 M161.515625 -85.50005 C94.4641279723305 -85.50005, 27.412630944661004 -85.50005, -161.515625 -85.50005 M161.515625 -85.50005 C70.29626411086642 -85.50005, -20.923096778267166 -85.50005, -161.515625 -85.50005" stroke="#fbb176" stroke-width="1.3" fill="none" stroke-dasharray="0 0"/></g></g><g class="node default" id="my-svg-entity-ExternalIdentityAuthority_EXT-1" data-look="classic" transform="translate(152.1640625, 476.375)"><rect class="basic label-container" style="" x="-140.1640625" y="-42" width="280.328125" height="84"/><a href="/vicflora-docs/resources/external-identity-authority-ext" target="_top"><g class="label" style="" transform="translate(-120.1640625, -12)"><rect/><foreignObject width="240.328125" height="24"><div xmlns="http://www.w3.org/1999/xhtml" style="display: table; white-space: break-spaces; line-height: 1.5; max-width: 200px; text-align: center; width: 200px;"><span class="nodeLabel markdown-node-label"><p style="color: #e74b0f; font-weight: bold;">ExternalIdentityAuthority_EXT</p></span></div></foreignObject></g></a></g><g class="node default" id="my-svg-entity-Reference-2" data-look="classic" transform="translate(152.1640625, 747.25)"><rect class="basic label-container" style="" x="-60.2890625" y="-42" width="120.578125" height="84"/><a href="/vicflora-docs/resources/reference" target="_top"><g class="label" style="" transform="translate(-40.2890625, -12)"><rect/><foreignObject width="80.578125" height="24"><div xmlns="http://www.w3.org/1999/xhtml" style="display: table-cell; white-space: nowrap; line-height: 1.5; max-width: 200px; text-align: center;"><span class="nodeLabel markdown-node-label"><p style="color: #e74b0f; font-weight: bold;">Reference</p></span></div></foreignObject></g></a></g><g class="node default" id="my-svg-entity-Entity_Identity_MAP-3" data-look="classic" transform="translate(524.6953125, 476.375)"><g class="outer-path" style=""><path d="M-149.28125 -106.875 L149.28125 -106.875 L149.28125 106.875 L-149.28125 106.875" stroke="none" stroke-width="0" fill="#ffead5"/><path d="M-149.28125 -106.875 C-61.76627569897133 -106.875, 25.748698602057345 -106.875, 149.28125 -106.875 M-149.28125 -106.875 C-82.2877682345836 -106.875, -15.29428646916719 -106.875, 149.28125 -106.875 M149.28125 -106.875 C149.28125 -59.937260816012945, 149.28125 -12.999521632025889, 149.28125 106.875 M149.28125 -106.875 C149.28125 -53.11987643904548, 149.28125 0.6352471219090461, 149.28125 106.875 M149.28125 106.875 C35.348950064260904 106.875, -78.58334987147819 106.875, -149.28125 106.875 M149.28125 106.875 C41.68046680632705 106.875, -65.9203163873459 106.875, -149.28125 106.875 M-149.28125 106.875 C-149.28125 52.27695329094331, -149.28125 -2.321093418113378, -149.28125 -106.875 M-149.28125 106.875 C-149.28125 50.98898006580662, -149.28125 -4.897039868386756, -149.28125 -106.875" stroke="#fbb176" stroke-width="1.3" fill="none" stroke-dasharray="0 0"/></g><g style="" class="row-rect-odd"><path d="M-149.28125 -64.125 L149.28125 -64.125 L149.28125 -21.375 L-149.28125 -21.375" stroke="none" stroke-width="0" fill="hsl(30, 100%, 100%)"/><path d="M-149.28125 -64.125 C-82.14844213333046 -64.125, -15.015634266660925 -64.125, 149.28125 -64.125 M-149.28125 -64.125 C-33.93999309856527 -64.125, 81.40126380286947 -64.125, 149.28125 -64.125 M149.28125 -64.125 C149.28125 -47.67812151361379, 149.28125 -31.231243027227585, 149.28125 -21.375 M149.28125 -64.125 C149.28125 -49.11638505728753, 149.28125 -34.10777011457506, 149.28125 -21.375 M149.28125 -21.375 C59.32404163993823 -21.375, -30.63316672012354 -21.375, -149.28125 -21.375 M149.28125 -21.375 C52.48435247760615 -21.375, -44.3125450447877 -21.375, -149.28125 -21.375 M-149.28125 -21.375 C-149.28125 -36.61445849858232, -149.28125 -51.853916997164646, -149.28125 -64.125 M-149.28125 -21.375 C-149.28125 -34.634991911526306, -149.28125 -47.89498382305261, -149.28125 -64.125" stroke="#fbb176" stroke-width="1.3" fill="none" stroke-dasharray="0 0"/></g><g style="" class="row-rect-even"><path d="M-149.28125 -21.375 L149.28125 -21.375 L149.28125 21.375 L-149.28125 21.375" stroke="none" stroke-width="0" fill="hsl(30, 100%, 96.7647058824%)"/><path d="M-149.28125 -21.375 C-54.308021423646835 -21.375, 40.66520715270633 -21.375, 149.28125 -21.375 M-149.28125 -21.375 C-71.30356625041016 -21.375, 6.674117499179687 -21.375, 149.28125 -21.375 M149.28125 -21.375 C149.28125 -9.5002299543748, 149.28125 2.374540091250399, 149.28125 21.375 M149.28125 -21.375 C149.28125 -9.355816406088444, 149.28125 2.6633671878231127, 149.28125 21.375 M149.28125 21.375 C41.83422762310808 21.375, -65.61279475378385 21.375, -149.28125 21.375 M149.28125 21.375 C31.6765141021192 21.375, -85.9282217957616 21.375, -149.28125 21.375 M-149.28125 21.375 C-149.28125 10.145405911246737, -149.28125 -1.084188177506526, -149.28125 -21.375 M-149.28125 21.375 C-149.28125 10.224713996290784, -149.28125 -0.925572007418431, -149.28125 -21.375" stroke="#fbb176" stroke-width="1.3" fill="none" stroke-dasharray="0 0"/></g><g style="" class="row-rect-odd"><path d="M-149.28125 21.375 L149.28125 21.375 L149.28125 64.125 L-149.28125 64.125" stroke="none" stroke-width="0" fill="hsl(30, 100%, 100%)"/><path d="M-149.28125 21.375 C-43.81040571226744 21.375, 61.66043857546512 21.375, 149.28125 21.375 M-149.28125 21.375 C-46.646472217936946 21.375, 55.98830556412611 21.375, 149.28125 21.375 M149.28125 21.375 C149.28125 31.496935630015532, 149.28125 41.618871260031064, 149.28125 64.125 M149.28125 21.375 C149.28125 36.35813159967084, 149.28125 51.34126319934169, 149.28125 64.125 M149.28125 64.125 C35.094165550141526 64.125, -79.09291889971695 64.125, -149.28125 64.125 M149.28125 64.125 C83.7714321419734 64.125, 18.261614283946813 64.125, -149.28125 64.125 M-149.28125 64.125 C-149.28125 51.76181466837173, -149.28125 39.39862933674346, -149.28125 21.375 M-149.28125 64.125 C-149.28125 49.4885578835231, -149.28125 34.85211576704621, -149.28125 21.375" stroke="#fbb176" stroke-width="1.3" fill="none" stroke-dasharray="0 0"/></g><g style="" class="row-rect-even"><path d="M-149.28125 64.125 L149.28125 64.125 L149.28125 106.875 L-149.28125 106.875" stroke="none" stroke-width="0" fill="hsl(30, 100%, 96.7647058824%)"/><path d="M-149.28125 64.125 C-78.90806667367849 64.125, -8.534883347356981 64.125, 149.28125 64.125 M-149.28125 64.125 C-89.36934810670272 64.125, -29.457446213405447 64.125, 149.28125 64.125 M149.28125 64.125 C149.28125 79.76042466254177, 149.28125 95.39584932508353, 149.28125 106.875 M149.28125 64.125 C149.28125 78.57837988914203, 149.28125 93.03175977828406, 149.28125 106.875 M149.28125 106.875 C73.00643007266945 106.875, -3.268389854661109 106.875, -149.28125 106.875 M149.28125 106.875 C51.9590442784868 106.875, -45.3631614430264 106.875, -149.28125 106.875 M-149.28125 106.875 C-149.28125 96.58388564539707, -149.28125 86.29277129079415, -149.28125 64.125 M-149.28125 106.875 C-149.28125 93.82570559580029, -149.28125 80.77641119160057, -149.28125 64.125" stroke="#fbb176" stroke-width="1.3" fill="none" stroke-dasharray="0 0"/></g><a href="/vicflora-docs/resources/entity-identity-map" target="_top"><g class="label name" transform="translate(-79.21875, -97.5)" style=""><foreignObject width="158.4375" height="24"><div xmlns="http://www.w3.org/1999/xhtml" style="display: table-cell; white-space: nowrap; line-height: 1.5; max-width: 259px; text-align: start;"><span class="nodeLabel"><p style="color: #e74b0f; font-weight: bold;">Entity_Identity_MAP</p></span></div></foreignObject></g></a><g class="label attribute-type" transform="translate(-136.78125, -54.75)" style=""><foreignObject width="20.859375" height="24"><div xmlns="http://www.w3.org/1999/xhtml" style="display: table-cell; white-space: nowrap; line-height: 1.5; max-width: 120px; text-align: start;"><span class="nodeLabel"><p>int</p></span></div></foreignObject></g><g class="label attribute-name" transform="translate(-65.84375, -54.75)" style=""><foreignObject width="14.609375" height="24"><div xmlns="http://www.w3.org/1999/xhtml" style="display: table-cell; white-space: nowrap; line-height: 1.5; max-width: 114px; text-align: start;"><span class="nodeLabel"><p>id</p></span></div></foreignObject></g><g class="label attribute-keys" transform="translate(116.640625, -54.75)" style=""><foreignObject width="20.140625" height="24"><div xmlns="http://www.w3.org/1999/xhtml" style="display: table-cell; white-space: nowrap; line-height: 1.5; max-width: 121px; text-align: start;"><span class="nodeLabel"><p>PK</p></span></div></foreignObject></g><g class="label attribute-comment" transform="translate(161.78125, -54.75)" style=""><foreignObject width="0" height="0"><div xmlns="http://www.w3.org/1999/xhtml" style="display: table-cell; white-space: nowrap; line-height: 1.5; max-width: 100px; text-align: start;"><span class="nodeLabel"></span></div></foreignObject></g><g class="label attribute-type" transform="translate(-136.78125, -12)" style=""><foreignObject width="45.9375" height="24"><div xmlns="http://www.w3.org/1999/xhtml" style="display: table-cell; white-space: nowrap; line-height: 1.5; max-width: 145px; text-align: start;"><span class="nodeLabel"><p>string</p></span></div></foreignObject></g><g class="label attribute-name" transform="translate(-65.84375, -12)" style=""><foreignObject width="106.015625" height="24"><div xmlns="http://www.w3.org/1999/xhtml" style="display: table-cell; white-space: nowrap; line-height: 1.5; max-width: 206px; text-align: start;"><span class="nodeLabel"><p>linkable_type</p></span></div></foreignObject></g><g class="label attribute-keys" transform="translate(116.640625, -12)" style=""><foreignObject width="0" height="0"><div xmlns="http://www.w3.org/1999/xhtml" style="display: table-cell; white-space: nowrap; line-height: 1.5; max-width: 100px; text-align: start;"><span class="nodeLabel"></span></div></foreignObject></g><g class="label attribute-comment" transform="translate(161.78125, -12)" style=""><foreignObject width="0" height="0"><div xmlns="http://www.w3.org/1999/xhtml" style="display: table-cell; white-space: nowrap; line-height: 1.5; max-width: 100px; text-align: start;"><span class="nodeLabel"></span></div></foreignObject></g><g class="label attribute-type" transform="translate(-136.78125, 30.75)" style=""><foreignObject width="20.859375" height="24"><div xmlns="http://www.w3.org/1999/xhtml" style="display: table-cell; white-space: nowrap; line-height: 1.5; max-width: 120px; text-align: start;"><span class="nodeLabel"><p>int</p></span></div></foreignObject></g><g class="label attribute-name" transform="translate(-65.84375, 30.75)" style=""><foreignObject width="84.875" height="24"><div xmlns="http://www.w3.org/1999/xhtml" style="display: table-cell; white-space: nowrap; line-height: 1.5; max-width: 185px; text-align: start;"><span class="nodeLabel"><p>linkable_id</p></span></div></foreignObject></g><g class="label attribute-keys" transform="translate(116.640625, 30.75)" style=""><foreignObject width="0" height="0"><div xmlns="http://www.w3.org/1999/xhtml" style="display: table-cell; white-space: nowrap; line-height: 1.5; max-width: 100px; text-align: start;"><span class="nodeLabel"></span></div></foreignObject></g><g class="label attribute-comment" transform="translate(161.78125, 30.75)" style=""><foreignObject width="0" height="0"><div xmlns="http://www.w3.org/1999/xhtml" style="display: table-cell; white-space: nowrap; line-height: 1.5; max-width: 100px; text-align: start;"><span class="nodeLabel"></span></div></foreignObject></g><g class="label attribute-type" transform="translate(-136.78125, 73.5)" style=""><foreignObject width="20.859375" height="24"><div xmlns="http://www.w3.org/1999/xhtml" style="display: table-cell; white-space: nowrap; line-height: 1.5; max-width: 120px; text-align: start;"><span class="nodeLabel"><p>int</p></span></div></foreignObject></g><g class="label attribute-name" transform="translate(-65.84375, 73.5)" style=""><foreignObject width="157.484375" height="24"><div xmlns="http://www.w3.org/1999/xhtml" style="display: table-cell; white-space: nowrap; line-height: 1.5; max-width: 257px; text-align: start;"><span class="nodeLabel"><p>external_identity_id</p></span></div></foreignObject></g><g class="label attribute-keys" transform="translate(116.640625, 73.5)" style=""><foreignObject width="0" height="0"><div xmlns="http://www.w3.org/1999/xhtml" style="display: table-cell; white-space: nowrap; line-height: 1.5; max-width: 100px; text-align: start;"><span class="nodeLabel"></span></div></foreignObject></g><g class="label attribute-comment" transform="translate(161.78125, 73.5)" style=""><foreignObject width="0" height="0"><div xmlns="http://www.w3.org/1999/xhtml" style="display: table-cell; white-space: nowrap; line-height: 1.5; max-width: 100px; text-align: start;"><span class="nodeLabel"></span></div></foreignObject></g><g class="divider"><path d="M-149.28125 -64.12505 L-149.28125 -64.12495 L149.28125 -64.12495 L149.28125 -64.12505" stroke="none" stroke-width="0" fill="#ffead5" fill-rule="evenodd"/><path d="M-149.28125 -64.12505 C-149.28125 -64.12502700782163, -149.28125 -64.12500401564326, -149.28125 -64.12495 M-149.28125 -64.12505 C-149.28125 -64.1250252370722, -149.28125 -64.1250004741444, -149.28125 -64.12495 M-149.28125 -64.12495 C-48.48848410721307 -64.12495, 52.30428178557386 -64.12495, 149.28125 -64.12495 M-149.28125 -64.12495 C-47.58228223664753 -64.12495, 54.11668552670494 -64.12495, 149.28125 -64.12495 M149.28125 -64.12495 C149.28125 -64.12498907235299, 149.28125 -64.12502814470598, 149.28125 -64.12505 M149.28125 -64.12495 C149.28125 -64.1249850785706, 149.28125 -64.12502015714122, 149.28125 -64.12505 M149.28125 -64.12505 C62.21784013690694 -64.12505, -24.845569726186113 -64.12505, -149.28125 -64.12505 M149.28125 -64.12505 C40.30903272763389 -64.12505, -68.66318454473222 -64.12505, -149.28125 -64.12505" stroke="#fbb176" stroke-width="1.3" fill="none" stroke-dasharray="0 0"/></g><g class="divider"><path d="M-78.3438 -64.125 L-78.3437 -64.125 L-78.3437 106.875 L-78.3438 106.875" stroke="none" stroke-width="0" fill="#ffead5" fill-rule="evenodd"/><path d="M-78.3438 -64.125 C-78.34376717509598 -64.125, -78.34373435019197 -64.125, -78.3437 -64.125 M-78.3438 -64.125 C-78.34377323044295 -64.125, -78.3437464608859 -64.125, -78.3437 -64.125 M-78.3437 -64.125 C-78.3437 -14.361871284982236, -78.3437 35.40125743003553, -78.3437 106.875 M-78.3437 -64.125 C-78.3437 -0.43107740054116306, -78.3437 63.262845198917674, -78.3437 106.875 M-78.3437 106.875 C-78.34373410811115 106.875, -78.34376821622232 106.875, -78.3438 106.875 M-78.3437 106.875 C-78.34373163152206 106.875, -78.34376326304412 106.875, -78.3438 106.875 M-78.3438 106.875 C-78.3438 59.26576509055493, -78.3438 11.656530181109858, -78.3438 -64.125 M-78.3438 106.875 C-78.3438 52.731878880200505, -78.3438 -1.411242239598991, -78.3438 -64.125" stroke="#fbb176" stroke-width="1.3" fill="none" stroke-dasharray="0 0"/></g><g class="divider"><path d="M104.140575 -64.125 L104.140675 -64.125 L104.140675 106.875 L104.140575 106.875" stroke="none" stroke-width="0" fill="#ffead5" fill-rule="evenodd"/><path d="M104.140575 -64.125 C104.14061490314971 -64.125, 104.14065480629942 -64.125, 104.140675 -64.125 M104.140575 -64.125 C104.14060300491651 -64.125, 104.14063100983304 -64.125, 104.140675 -64.125 M104.140675 -64.125 C104.140675 -13.333966432457842, 104.140675 37.457067135084316, 104.140675 106.875 M104.140675 -64.125 C104.140675 -7.888224602385236, 104.140675 48.34855079522953, 104.140675 106.875 M104.140675 106.875 C104.14063618053693 106.875, 104.14059736107386 106.875, 104.140575 106.875 M104.140675 106.875 C104.14065427362634 106.875, 104.14063354725268 106.875, 104.140575 106.875 M104.140575 106.875 C104.140575 69.60172140337684, 104.140575 32.32844280675367, 104.140575 -64.125 M104.140575 106.875 C104.140575 58.18246619883043, 104.140575 9.489932397660866, 104.140575 -64.125" stroke="#fbb176" stroke-width="1.3" fill="none" stroke-dasharray="0 0"/></g><g class="divider"><path d="M-149.28125 -64.12505 L-149.28125 -64.12495 L149.28125 -64.12495 L149.28125 -64.12505" stroke="none" stroke-width="0" fill="#ffead5" fill-rule="evenodd"/><path d="M-149.28125 -64.12505 C-149.28125 -64.12502653452566, -149.28125 -64.1250030690513, -149.28125 -64.12495 M-149.28125 -64.12505 C-149.28125 -64.12501357440522, -149.28125 -64.12497714881043, -149.28125 -64.12495 M-149.28125 -64.12495 C-59.138930196669904 -64.12495, 31.003389606660193 -64.12495, 149.28125 -64.12495 M-149.28125 -64.12495 C-69.41155228819873 -64.12495, 10.45814542360253 -64.12495, 149.28125 -64.12495 M149.28125 -64.12495 C149.28125 -64.12498223754825, 149.28125 -64.12501447509652, 149.28125 -64.12505 M149.28125 -64.12495 C149.28125 -64.12497456443069, 149.28125 -64.12499912886139, 149.28125 -64.12505 M149.28125 -64.12505 C51.578550254546585 -64.12505, -46.12414949090683 -64.12505, -149.28125 -64.12505 M149.28125 -64.12505 C72.69252050557333 -64.12505, -3.8962089888533455 -64.12505, -149.28125 -64.12505" stroke="#fbb176" stroke-width="1.3" fill="none" stroke-dasharray="0 0"/></g></g><g class="node default" id="my-svg-entity-TaxonConcept-4" data-look="classic" transform="translate(342.1640625, 747.25)"><rect class="basic label-container" style="" x="-76.0078125" y="-42" width="152.015625" height="84"/><a href="/vicflora-docs/resources/taxon-concept" target="_top"><g class="label" style="" transform="translate(-56.0078125, -12)"><rect/><foreignObject width="112.015625" height="24"><div xmlns="http://www.w3.org/1999/xhtml" style="display: table-cell; white-space: nowrap; line-height: 1.5; max-width: 200px; text-align: center;"><span class="nodeLabel markdown-node-label"><p style="color: #e74b0f; font-weight: bold;">TaxonConcept</p></span></div></foreignObject></g></a></g><g class="node default" id="my-svg-entity-TaxonName-5" data-look="classic" transform="translate(524.6953125, 747.25)"><rect class="basic label-container" style="" x="-66.5234375" y="-42" width="133.046875" height="84"/><a href="/vicflora-docs/resources/taxon-name" target="_top"><g class="label" style="" transform="translate(-46.5234375, -12)"><rect/><foreignObject width="93.046875" height="24"><div xmlns="http://www.w3.org/1999/xhtml" style="display: table-cell; white-space: nowrap; line-height: 1.5; max-width: 200px; text-align: center;"><span class="nodeLabel markdown-node-label"><p style="color: #e74b0f; font-weight: bold;">TaxonName</p></span></div></foreignObject></g></a></g><g class="node default" id="my-svg-entity-Agent-6" data-look="classic" transform="translate(684.6640625, 747.25)"><rect class="basic label-container" style="" x="-50" y="-42" width="100" height="84"/><a href="/vicflora-docs/resources/agent" target="_top"><g class="label" style="" transform="translate(-23.6796875, -12)"><rect/><foreignObject width="47.359375" height="24"><div xmlns="http://www.w3.org/1999/xhtml" style="display: table-cell; white-space: nowrap; line-height: 1.5; max-width: 100px; text-align: center;"><span class="nodeLabel markdown-node-label"><p style="color: #e74b0f; font-weight: bold;">Agent</p></span></div></foreignObject></g></a></g></g><g class="edgeLabels"><g class="edgeLabel" transform="translate(152.1640625, 319)"><g class="label" data-id="id_entity-ExternalIdentity-0_entity-ExternalIdentityAuthority_EXT-1_0" transform="translate(-100, -10.5)"><foreignObject width="200" height="21"><div xmlns="http://www.w3.org/1999/xhtml" class="labelBkg" style="display: table; white-space: break-spaces; line-height: 1.5; max-width: 200px; text-align: center; width: 200px;"><span class="edgeLabel"><p>externalIdentityAuthority</p></span></div></foreignObject></g></g><g class="edgeLabel" transform="translate(152.1640625, 644.25)"><g class="label" data-id="id_entity-ExternalIdentityAuthority_EXT-1_entity-Reference-2_1" transform="translate(-100, -21)"><foreignObject width="200" height="42"><div xmlns="http://www.w3.org/1999/xhtml" class="labelBkg" style="display: table; white-space: break-spaces; line-height: 1.5; max-width: 200px; text-align: center; width: 200px;"><span class="edgeLabel"><p>reference / externalIdentityAuthority</p></span></div></foreignObject></g></g><g class="edgeLabel" transform="translate(524.328125, 319)"><g class="label" data-id="id_entity-ExternalIdentity-0_entity-Entity_Identity_MAP-3_2" transform="translate(-55.6328125, -10.5)"><foreignObject width="111.265625" height="21"><div xmlns="http://www.w3.org/1999/xhtml" class="labelBkg" style="display: table-cell; white-space: nowrap; line-height: 1.5; max-width: 200px; text-align: center;"><span class="edgeLabel"><p>externalIdentity</p></span></div></foreignObject></g></g><g class="edgeLabel" transform="translate(342.1484375, 644.25)"><g class="label" data-id="id_entity-Entity_Identity_MAP-3_entity-TaxonConcept-4_3" transform="translate(-69.984375, -10.5)"><foreignObject width="139.96875" height="21"><div xmlns="http://www.w3.org/1999/xhtml" class="labelBkg" style="display: table-cell; white-space: nowrap; line-height: 1.5; max-width: 200px; text-align: center;"><span class="edgeLabel"><p>morphs as 'linkable'</p></span></div></foreignObject></g></g><g class="edgeLabel" transform="translate(524.6796875, 644.25)"><g class="label" data-id="id_entity-Entity_Identity_MAP-3_entity-TaxonName-5_4" transform="translate(-69.984375, -10.5)"><foreignObject width="139.96875" height="21"><div xmlns="http://www.w3.org/1999/xhtml" class="labelBkg" style="display: table-cell; white-space: nowrap; line-height: 1.5; max-width: 200px; text-align: center;"><span class="edgeLabel"><p>morphs as 'linkable'</p></span></div></foreignObject></g></g><g class="edgeLabel" transform="translate(684.6484375, 644.25)"><g class="label" data-id="id_entity-Entity_Identity_MAP-3_entity-Agent-6_5" transform="translate(-69.984375, -10.5)"><foreignObject width="139.96875" height="21"><div xmlns="http://www.w3.org/1999/xhtml" class="labelBkg" style="display: table-cell; white-space: nowrap; line-height: 1.5; max-width: 200px; text-align: center;"><span class="edgeLabel"><p>morphs as 'linkable'</p></span></div></foreignObject></g></g></g></svg>