<svg id="my-svg" width="100%" xmlns="http://www.w3.org/2000/svg" xmlns:xlink="http://www.w3.org/1999/xlink" class="erDiagram" style="max-width: 446.875px; background-color: white;" viewBox="4 4 446.875 772.25" role="graphics-document document" aria-roledescription="er"><g class="edges edgePaths"><path d="M194.59635416666669,268.5L194.59635416666669,281.4289321881345Q194.59635416666669,288.5 187.5252863548012,288.5L78.65700531186548,288.5Q71.5859375,288.5 71.5859375,295.5710678118655L71.5859375,434.375" id="my-svg-id_entity-Flora-0_entity-TaxonTree-1_0" class="edge-thickness-normal edge-pattern-solid relationshipLine" style="undefined;;;undefined" data-edge="true" data-et="edge" data-id="id_entity-Flora-0_entity-TaxonTree-1_0" data-points="W3sieCI6MTk0LjU5NjM1NDE2NjY2NjY5LCJ5IjoyNjguNX0seyJ4IjoxOTQuNTk2MzU0MTY2NjY2NjksInkiOjI4OC41fSx7IngiOjcxLjU4NTkzNzUsInkiOjI4OC41fSx7IngiOjcxLjU4NTkzNzUsInkiOjQzNC4zNzV9XQ==" data-look="classic" marker-start="url(#my-svg_er-oneOrMoreStart)" marker-end="url(#my-svg_er-zeroOrOneEnd)"/><path d="M307.0234375,268.5L307.0234375,369.5" id="my-svg-id_entity-Flora-0_entity-Flora_TaxonTreeNode_MAP-2_1" class="edge-thickness-normal edge-pattern-solid relationshipLine" style="undefined;;;undefined" data-edge="true" data-et="edge" data-id="id_entity-Flora-0_entity-Flora_TaxonTreeNode_MAP-2_1" data-points="W3sieCI6MzA3LjAyMzQzNzUsInkiOjI2OC41fSx7IngiOjMwNy4wMjM0Mzc1LCJ5IjozNjkuNX1d" data-look="classic" marker-start="url(#my-svg_er-zeroOrOneStart)" marker-end="url(#my-svg_er-oneOrMoreEnd)"/><path d="M71.5859375,518.375L71.5859375,657.1789321881345Q71.5859375,664.25 78.65700531186548,664.25L246.30653635480118,664.25Q253.37760416666666,664.25 253.37760416666666,671.3210678118655L253.37760416666666,684.25" id="my-svg-id_entity-TaxonTree-1_entity-TaxonTreeNode-3_2" class="edge-thickness-normal edge-pattern-solid relationshipLine" style="undefined;;;undefined" data-edge="true" data-et="edge" data-id="id_entity-TaxonTree-1_entity-TaxonTreeNode-3_2" data-points="W3sieCI6NzEuNTg1OTM3NSwieSI6NTE4LjM3NX0seyJ4Ijo3MS41ODU5Mzc1LCJ5Ijo2NjQuMjV9LHsieCI6MjUzLjM3NzYwNDE2NjY2NjY2LCJ5Ijo2NjQuMjV9LHsieCI6MjUzLjM3NzYwNDE2NjY2NjY2LCJ5Ijo2ODQuMjV9XQ==" data-look="classic" marker-start="url(#my-svg_er-onlyOneStart)" marker-end="url(#my-svg_er-oneOrMoreEnd)"/><path d="M307.0234375,583.25L307.0234375,684.25" id="my-svg-id_entity-Flora_TaxonTreeNode_MAP-2_entity-TaxonTreeNode-3_3" class="edge-thickness-normal edge-pattern-solid relationshipLine" style="undefined;;;undefined" data-edge="true" data-et="edge" data-id="id_entity-Flora_TaxonTreeNode_MAP-2_entity-TaxonTreeNode-3_3" data-points="W3sieCI6MzA3LjAyMzQzNzUsInkiOjU4My4yNX0seyJ4IjozMDcuMDIzNDM3NSwieSI6Njg0LjI1fV0=" data-look="classic" marker-start="url(#my-svg_er-onlyOneStart)" marker-end="url(#my-svg_er-zeroOrOneEnd)"/></g><style>#my-svg{font-family:"trebuchet ms",verdana,arial,sans-serif;font-size:16px;fill:#333;}@keyframes edge-animation-frame{from{stroke-dashoffset:0;}}@keyframes dash{to{stroke-dashoffset:0;}}#my-svg .edge-animation-slow{stroke-dasharray:9,5!important;stroke-dashoffset:900;animation:dash 50s linear infinite;stroke-linecap:round;}#my-svg .edge-animation-fast{stroke-dasharray:9,5!important;stroke-dashoffset:900;animation:dash 20s linear infinite;stroke-linecap:round;}#my-svg .error-icon{fill:hsl(210, 100%, 96.7647058824%);}#my-svg .error-text{fill:rgb(16.4999999998, 8.2499999999, 0);stroke:rgb(16.4999999998, 8.2499999999, 0);}#my-svg .edge-thickness-normal{stroke-width:1px;}#my-svg .edge-thickness-thick{stroke-width:3.5px;}#my-svg .edge-pattern-solid{stroke-dasharray:0;}#my-svg .edge-thickness-invisible{stroke-width:0;fill:none;}#my-svg .edge-pattern-dashed{stroke-dasharray:3;}#my-svg .edge-pattern-dotted{stroke-dasharray:2;}#my-svg .marker{fill:#e74b0f;stroke:#e74b0f;}#my-svg .marker.cross{stroke:#e74b0f;}#my-svg svg{font-family:"trebuchet ms",verdana,arial,sans-serif;font-size:16px;}#my-svg p{margin:0;}#my-svg .entityBox{fill:#ffead5;stroke:#fbb176;}#my-svg .relationshipLabelBox{fill:hsl(210, 100%, 96.7647058824%);opacity:0.7;background-color:hsl(210, 100%, 96.7647058824%);}#my-svg .relationshipLabelBox rect{opacity:0.5;}#my-svg .labelBkg{background-color:rgba(238.5000000002, 246.7500000001, 255, 0.5);}#my-svg .edgeLabel{background-color:hsl(-90, 100%, 91.7647058824%);}#my-svg .edgeLabel .label rect{fill:hsl(-90, 100%, 91.7647058824%);}#my-svg .edgeLabel .label text{fill:#333;}#my-svg .edgeLabel .label{fill:#fbb176;font-size:14px;}#my-svg .label{font-family:"trebuchet ms",verdana,arial,sans-serif;color:#333;}#my-svg .edge-pattern-dashed{stroke-dasharray:8,8;}#my-svg .node rect,#my-svg .node circle,#my-svg .node ellipse,#my-svg .node polygon{fill:#ffead5;stroke:#fbb176;stroke-width:1px;}#my-svg .relationshipLine{stroke:#e74b0f;stroke-width:1px;fill:none;}#my-svg .marker{fill:none!important;stroke:#e74b0f!important;stroke-width:1;}#my-svg [data-look=neo].labelBkg{background-color:rgba(238.5000000002, 246.7500000001, 255, 0.5);}#my-svg .node .neo-node{stroke:#fbb176;}#my-svg [data-look="neo"].node rect,#my-svg [data-look="neo"].cluster rect,#my-svg [data-look="neo"].node polygon{stroke:url(#my-svg-gradient);filter:drop-shadow( 1px 2px 2px rgba(185,185,185,1));}#my-svg [data-look="neo"].node path{stroke:url(#my-svg-gradient);stroke-width:1px;}#my-svg [data-look="neo"].node .outer-path{filter:drop-shadow( 1px 2px 2px rgba(185,185,185,1));}#my-svg [data-look="neo"].node .neo-line path{stroke:#fbb176;filter:none;}#my-svg [data-look="neo"].node circle{stroke:url(#my-svg-gradient);filter:drop-shadow( 1px 2px 2px rgba(185,185,185,1));}#my-svg [data-look="neo"].node circle .state-start{fill:#000000;}#my-svg [data-look="neo"].icon-shape .icon{fill:url(#my-svg-gradient);filter:drop-shadow( 1px 2px 2px rgba(185,185,185,1));}#my-svg [data-look="neo"].icon-shape .icon-neo path{stroke:url(#my-svg-gradient);filter:drop-shadow( 1px 2px 2px rgba(185,185,185,1));}#my-svg :root{--mermaid-font-family:"trebuchet ms",verdana,arial,sans-serif;}</style><g><defs><marker id="my-svg_er-onlyOneStart" class="marker onlyOne er" refX="0" refY="9" markerWidth="18" markerHeight="18" orient="auto"><path d="M9,0 L9,18 M15,0 L15,18"/></marker></defs><defs><marker id="my-svg_er-onlyOneEnd" class="marker onlyOne er" refX="18" refY="9" markerWidth="18" markerHeight="18" orient="auto"><path d="M3,0 L3,18 M9,0 L9,18"/></marker></defs><defs><marker id="my-svg_er-zeroOrOneStart" class="marker zeroOrOne er" refX="0" refY="9" markerWidth="30" markerHeight="18" orient="auto"><circle fill="white" cx="21" cy="9" r="6"/><path d="M9,0 L9,18"/></marker></defs><defs><marker id="my-svg_er-zeroOrOneEnd" class="marker zeroOrOne er" refX="30" refY="9" markerWidth="30" markerHeight="18" orient="auto"><circle fill="white" cx="9" cy="9" r="6"/><path d="M21,0 L21,18"/></marker></defs><defs><marker id="my-svg_er-oneOrMoreStart" class="marker oneOrMore er" refX="18" refY="18" markerWidth="45" markerHeight="36" orient="auto"><path d="M0,18 Q 18,0 36,18 Q 18,36 0,18 M42,9 L42,27"/></marker></defs><defs><marker id="my-svg_er-oneOrMoreEnd" class="marker oneOrMore er" refX="27" refY="18" markerWidth="45" markerHeight="36" orient="auto"><path d="M3,9 L3,27 M9,18 Q27,0 45,18 Q27,36 9,18"/></marker></defs><defs><marker id="my-svg_er-zeroOrMoreStart" class="marker zeroOrMore er" refX="18" refY="18" markerWidth="57" markerHeight="36" orient="auto"><circle fill="white" cx="48" cy="18" r="6"/><path d="M0,18 Q18,0 36,18 Q18,36 0,18"/></marker></defs><defs><marker id="my-svg_er-zeroOrMoreEnd" class="marker zeroOrMore er" refX="39" refY="18" markerWidth="57" markerHeight="36" orient="auto"><circle fill="white" cx="9" cy="18" r="6"/><path d="M21,18 Q39,0 57,18 Q39,36 21,18"/></marker></defs></g><defs><filter id="my-svg-drop-shadow" height="130%" width="130%"><feDropShadow dx="4" dy="4" stdDeviation="0" flood-opacity="0.06" flood-color="#000000"/></filter></defs><defs><filter id="my-svg-drop-shadow-small" height="150%" width="150%"><feDropShadow dx="2" dy="2" stdDeviation="0" flood-opacity="0.06" flood-color="#000000"/></filter></defs><linearGradient id="my-svg-gradient" gradientUnits="objectBoundingBox" x1="0%" y1="0%" x2="100%" y2="0%"><stop offset="0%" stop-color="#fbb176" stop-opacity="1"/><stop offset="100%" stop-color="hsl(-90, 60%, 81.7647058824%)" stop-opacity="1"/></linearGradient><g class="subgraphs"/><g class="nodes"><g class="node default" id="my-svg-entity-Flora-0" data-look="classic" transform="translate(250.80989583333334, 140.25)"><g class="outer-path" style=""><path d="M-168.640625 -128.25 L168.640625 -128.25 L168.640625 128.25 L-168.640625 128.25" stroke="none" stroke-width="0" fill="#ffead5"/><path d="M-168.640625 -128.25 C-95.79066454446519 -128.25, -22.940704088930374 -128.25, 168.640625 -128.25 M-168.640625 -128.25 C-80.39567301866103 -128.25, 7.849278962677943 -128.25, 168.640625 -128.25 M168.640625 -128.25 C168.640625 -73.3497530528607, 168.640625 -18.449506105721397, 168.640625 128.25 M168.640625 -128.25 C168.640625 -55.78217714437899, 168.640625 16.685645711242017, 168.640625 128.25 M168.640625 128.25 C41.59073776732204 128.25, -85.45914946535592 128.25, -168.640625 128.25 M168.640625 128.25 C90.62133153464347 128.25, 12.602038069286948 128.25, -168.640625 128.25 M-168.640625 128.25 C-168.640625 47.553480187566876, -168.640625 -33.14303962486625, -168.640625 -128.25 M-168.640625 128.25 C-168.640625 32.68997060728735, -168.640625 -62.8700587854253, -168.640625 -128.25" stroke="#fbb176" stroke-width="1.3" fill="none" stroke-dasharray="0 0"/></g><g style="" class="row-rect-odd"><path d="M-168.640625 -85.5 L168.640625 -85.5 L168.640625 -42.75 L-168.640625 -42.75" stroke="none" stroke-width="0" fill="hsl(30, 100%, 100%)"/><path d="M-168.640625 -85.5 C-54.37751282822012 -85.5, 59.88559934355976 -85.5, 168.640625 -85.5 M-168.640625 -85.5 C-71.76595800091472 -85.5, 25.108708998170556 -85.5, 168.640625 -85.5 M168.640625 -85.5 C168.640625 -71.74729084435921, 168.640625 -57.99458168871843, 168.640625 -42.75 M168.640625 -85.5 C168.640625 -69.89565740526393, 168.640625 -54.29131481052786, 168.640625 -42.75 M168.640625 -42.75 C90.37731784483687 -42.75, 12.114010689673734 -42.75, -168.640625 -42.75 M168.640625 -42.75 C41.102914840446985 -42.75, -86.43479531910603 -42.75, -168.640625 -42.75 M-168.640625 -42.75 C-168.640625 -53.02069327099329, -168.640625 -63.29138654198658, -168.640625 -85.5 M-168.640625 -42.75 C-168.640625 -59.64749171420097, -168.640625 -76.54498342840193, -168.640625 -85.5" stroke="#fbb176" stroke-width="1.3" fill="none" stroke-dasharray="0 0"/></g><g style="" class="row-rect-even"><path d="M-168.640625 -42.75 L168.640625 -42.75 L168.640625 0 L-168.640625 0" stroke="none" stroke-width="0" fill="hsl(30, 100%, 96.7647058824%)"/><path d="M-168.640625 -42.75 C-100.31821017184778 -42.75, -31.995795343695562 -42.75, 168.640625 -42.75 M-168.640625 -42.75 C-92.52333970537352 -42.75, -16.406054410747032 -42.75, 168.640625 -42.75 M168.640625 -42.75 C168.640625 -29.052371115822496, 168.640625 -15.354742231644991, 168.640625 0 M168.640625 -42.75 C168.640625 -30.330148418435673, 168.640625 -17.910296836871346, 168.640625 0 M168.640625 0 C48.00532207051461 0, -72.62998085897078 0, -168.640625 0 M168.640625 0 C56.639470993714454 0, -55.36168301257109 0, -168.640625 0 M-168.640625 0 C-168.640625 -15.104564537322256, -168.640625 -30.209129074644512, -168.640625 -42.75 M-168.640625 0 C-168.640625 -16.080317567437874, -168.640625 -32.16063513487575, -168.640625 -42.75" stroke="#fbb176" stroke-width="1.3" fill="none" stroke-dasharray="0 0"/></g><g style="" class="row-rect-odd"><path d="M-168.640625 0 L168.640625 0 L168.640625 42.75 L-168.640625 42.75" stroke="none" stroke-width="0" fill="hsl(30, 100%, 100%)"/><path d="M-168.640625 0 C-98.81783042911393 0, -28.99503585822785 0, 168.640625 0 M-168.640625 0 C-76.36485254008696 0, 15.910919919826085 0, 168.640625 0 M168.640625 0 C168.640625 16.256862968754568, 168.640625 32.513725937509136, 168.640625 42.75 M168.640625 0 C168.640625 13.11092423717887, 168.640625 26.22184847435774, 168.640625 42.75 M168.640625 42.75 C54.93673789995813 42.75, -58.767149200083736 42.75, -168.640625 42.75 M168.640625 42.75 C49.9522312072707 42.75, -68.7361625854586 42.75, -168.640625 42.75 M-168.640625 42.75 C-168.640625 32.15278851382205, -168.640625 21.55557702764411, -168.640625 0 M-168.640625 42.75 C-168.640625 28.299912750664774, -168.640625 13.849825501329551, -168.640625 0" stroke="#fbb176" stroke-width="1.3" fill="none" stroke-dasharray="0 0"/></g><g style="" class="row-rect-even"><path d="M-168.640625 42.75 L168.640625 42.75 L168.640625 85.5 L-168.640625 85.5" stroke="none" stroke-width="0" fill="hsl(30, 100%, 96.7647058824%)"/><path d="M-168.640625 42.75 C-42.54382285493162 42.75, 83.55297929013676 42.75, 168.640625 42.75 M-168.640625 42.75 C-88.88895892939297 42.75, -9.13729285878594 42.75, 168.640625 42.75 M168.640625 42.75 C168.640625 51.36104261236646, 168.640625 59.972085224732915, 168.640625 85.5 M168.640625 42.75 C168.640625 59.693210891660314, 168.640625 76.63642178332063, 168.640625 85.5 M168.640625 85.5 C65.26127910937674 85.5, -38.11806678124651 85.5, -168.640625 85.5 M168.640625 85.5 C56.001184326012165 85.5, -56.63825634797567 85.5, -168.640625 85.5 M-168.640625 85.5 C-168.640625 73.8526487373126, -168.640625 62.205297474625226, -168.640625 42.75 M-168.640625 85.5 C-168.640625 73.6367459049419, -168.640625 61.77349180988381, -168.640625 42.75" stroke="#fbb176" stroke-width="1.3" fill="none" stroke-dasharray="0 0"/></g><g style="" class="row-rect-odd"><path d="M-168.640625 85.5 L168.640625 85.5 L168.640625 128.25 L-168.640625 128.25" stroke="none" stroke-width="0" fill="hsl(30, 100%, 100%)"/><path d="M-168.640625 85.5 C-86.79619709460042 85.5, -4.9517691892008315 85.5, 168.640625 85.5 M-168.640625 85.5 C-52.14446823661031 85.5, 64.35168852677938 85.5, 168.640625 85.5 M168.640625 85.5 C168.640625 99.53914815408828, 168.640625 113.57829630817658, 168.640625 128.25 M168.640625 85.5 C168.640625 101.21201270553742, 168.640625 116.92402541107482, 168.640625 128.25 M168.640625 128.25 C71.53995295467527 128.25, -25.560719090649457 128.25, -168.640625 128.25 M168.640625 128.25 C84.64398360953257 128.25, 0.6473422190651377 128.25, -168.640625 128.25 M-168.640625 128.25 C-168.640625 117.56809395899064, -168.640625 106.88618791798129, -168.640625 85.5 M-168.640625 128.25 C-168.640625 116.7727403245052, -168.640625 105.29548064901037, -168.640625 85.5" stroke="#fbb176" stroke-width="1.3" fill="none" stroke-dasharray="0 0"/></g><g class="label name" transform="translate(-19.9140625, -118.875)" style=""><foreignObject width="39.828125" height="24"><div xmlns="http://www.w3.org/1999/xhtml" style="display: table-cell; white-space: nowrap; line-height: 1.5; max-width: 140px; text-align: start;"><span class="nodeLabel"><p>Flora</p></span></div></foreignObject></g><g class="label attribute-type" transform="translate(-156.140625, -76.125)" style=""><foreignObject width="20.859375" height="24"><div xmlns="http://www.w3.org/1999/xhtml" style="display: table-cell; white-space: nowrap; line-height: 1.5; max-width: 120px; text-align: start;"><span class="nodeLabel"><p>int</p></span></div></foreignObject></g><g class="label attribute-name" transform="translate(-85.203125, -76.125)" style=""><foreignObject width="14.609375" height="24"><div xmlns="http://www.w3.org/1999/xhtml" style="display: table-cell; white-space: nowrap; line-height: 1.5; max-width: 114px; text-align: start;"><span class="nodeLabel"><p>id</p></span></div></foreignObject></g><g class="label attribute-keys" transform="translate(47.578125, -76.125)" style=""><foreignObject width="20.140625" height="24"><div xmlns="http://www.w3.org/1999/xhtml" style="display: table-cell; white-space: nowrap; line-height: 1.5; max-width: 121px; text-align: start;"><span class="nodeLabel"><p>PK</p></span></div></foreignObject></g><g class="label attribute-comment" transform="translate(92.71875, -76.125)" style=""><foreignObject width="0" height="0"><div xmlns="http://www.w3.org/1999/xhtml" style="display: table-cell; white-space: nowrap; line-height: 1.5; max-width: 100px; text-align: start;"><span class="nodeLabel"></span></div></foreignObject></g><g class="label attribute-type" transform="translate(-156.140625, -33.375)" style=""><foreignObject width="45.9375" height="24"><div xmlns="http://www.w3.org/1999/xhtml" style="display: table-cell; white-space: nowrap; line-height: 1.5; max-width: 145px; text-align: start;"><span class="nodeLabel"><p>string</p></span></div></foreignObject></g><g class="label attribute-name" transform="translate(-85.203125, -33.375)" style=""><foreignObject width="34.90625" height="24"><div xmlns="http://www.w3.org/1999/xhtml" style="display: table-cell; white-space: nowrap; line-height: 1.5; max-width: 134px; text-align: start;"><span class="nodeLabel"><p>guid</p></span></div></foreignObject></g><g class="label attribute-keys" transform="translate(47.578125, -33.375)" style=""><foreignObject width="0" height="0"><div xmlns="http://www.w3.org/1999/xhtml" style="display: table-cell; white-space: nowrap; line-height: 1.5; max-width: 100px; text-align: start;"><span class="nodeLabel"></span></div></foreignObject></g><g class="label attribute-comment" transform="translate(92.71875, -33.375)" style=""><foreignObject width="0" height="0"><div xmlns="http://www.w3.org/1999/xhtml" style="display: table-cell; white-space: nowrap; line-height: 1.5; max-width: 100px; text-align: start;"><span class="nodeLabel"></span></div></foreignObject></g><g class="label attribute-type" transform="translate(-156.140625, 9.375)" style=""><foreignObject width="45.9375" height="24"><div xmlns="http://www.w3.org/1999/xhtml" style="display: table-cell; white-space: nowrap; line-height: 1.5; max-width: 145px; text-align: start;"><span class="nodeLabel"><p>string</p></span></div></foreignObject></g><g class="label attribute-name" transform="translate(-85.203125, 9.375)" style=""><foreignObject width="45.375" height="24"><div xmlns="http://www.w3.org/1999/xhtml" style="display: table-cell; white-space: nowrap; line-height: 1.5; max-width: 146px; text-align: start;"><span class="nodeLabel"><p>name</p></span></div></foreignObject></g><g class="label attribute-keys" transform="translate(47.578125, 9.375)" style=""><foreignObject width="0" height="0"><div xmlns="http://www.w3.org/1999/xhtml" style="display: table-cell; white-space: nowrap; line-height: 1.5; max-width: 100px; text-align: start;"><span class="nodeLabel"></span></div></foreignObject></g><g class="label attribute-comment" transform="translate(92.71875, 9.375)" style=""><foreignObject width="0" height="0"><div xmlns="http://www.w3.org/1999/xhtml" style="display: table-cell; white-space: nowrap; line-height: 1.5; max-width: 100px; text-align: start;"><span class="nodeLabel"></span></div></foreignObject></g><g class="label attribute-type" transform="translate(-156.140625, 52.125)" style=""><foreignObject width="20.859375" height="24"><div xmlns="http://www.w3.org/1999/xhtml" style="display: table-cell; white-space: nowrap; line-height: 1.5; max-width: 120px; text-align: start;"><span class="nodeLabel"><p>int</p></span></div></foreignObject></g><g class="label attribute-name" transform="translate(-85.203125, 52.125)" style=""><foreignObject width="107.78125" height="24"><div xmlns="http://www.w3.org/1999/xhtml" style="display: table-cell; white-space: nowrap; line-height: 1.5; max-width: 208px; text-align: start;"><span class="nodeLabel"><p>taxon_tree_id</p></span></div></foreignObject></g><g class="label attribute-keys" transform="translate(47.578125, 52.125)" style=""><foreignObject width="19.703125" height="24"><div xmlns="http://www.w3.org/1999/xhtml" style="display: table-cell; white-space: nowrap; line-height: 1.5; max-width: 120px; text-align: start;"><span class="nodeLabel"><p>FK</p></span></div></foreignObject></g><g class="label attribute-comment" transform="translate(92.71875, 52.125)" style=""><foreignObject width="0" height="0"><div xmlns="http://www.w3.org/1999/xhtml" style="display: table-cell; white-space: nowrap; line-height: 1.5; max-width: 100px; text-align: start;"><span class="nodeLabel"></span></div></foreignObject></g><g class="label attribute-type" transform="translate(-156.140625, 94.875)" style=""><foreignObject width="42.875" height="24"><div xmlns="http://www.w3.org/1999/xhtml" style="display: table-cell; white-space: nowrap; line-height: 1.5; max-width: 143px; text-align: start;"><span class="nodeLabel"><p>jsonb</p></span></div></foreignObject></g><g class="label attribute-name" transform="translate(-85.203125, 94.875)" style=""><foreignObject width="77.546875" height="24"><div xmlns="http://www.w3.org/1999/xhtml" style="display: table-cell; white-space: nowrap; line-height: 1.5; max-width: 178px; text-align: start;"><span class="nodeLabel"><p>metadata</p></span></div></foreignObject></g><g class="label attribute-keys" transform="translate(47.578125, 94.875)" style=""><foreignObject width="0" height="0"><div xmlns="http://www.w3.org/1999/xhtml" style="display: table-cell; white-space: nowrap; line-height: 1.5; max-width: 100px; text-align: start;"><span class="nodeLabel"></span></div></foreignObject></g><g class="label attribute-comment" transform="translate(92.71875, 94.875)" style=""><foreignObject width="63.421875" height="24"><div xmlns="http://www.w3.org/1999/xhtml" style="display: table-cell; white-space: nowrap; line-height: 1.5; max-width: 162px; text-align: start;"><span class="nodeLabel"><p>nullable</p></span></div></foreignObject></g><g class="divider"><path d="M-168.640625 -85.50005 L-168.640625 -85.49995 L168.640625 -85.49995 L168.640625 -85.50005" stroke="none" stroke-width="0" fill="#ffead5" fill-rule="evenodd"/><path d="M-168.640625 -85.50005 C-168.640625 -85.50001616534016, -168.640625 -85.49998233068031, -168.640625 -85.49995 M-168.640625 -85.50005 C-168.640625 -85.50001656568263, -168.640625 -85.49998313136525, -168.640625 -85.49995 M-168.640625 -85.49995 C-43.17759338059197 -85.49995, 82.28543823881606 -85.49995, 168.640625 -85.49995 M-168.640625 -85.49995 C-49.58550632786452 -85.49995, 69.46961234427096 -85.49995, 168.640625 -85.49995 M168.640625 -85.49995 C168.640625 -85.49997609224076, 168.640625 -85.50000218448152, 168.640625 -85.50005 M168.640625 -85.49995 C168.640625 -85.49998863639608, 168.640625 -85.50002727279215, 168.640625 -85.50005 M168.640625 -85.50005 C53.504896939841814 -85.50005, -61.63083112031637 -85.50005, -168.640625 -85.50005 M168.640625 -85.50005 C99.30690535713195 -85.50005, 29.973185714263906 -85.50005, -168.640625 -85.50005" stroke="#fbb176" stroke-width="1.3" fill="none" stroke-dasharray="0 0"/></g><g class="divider"><path d="M-97.703175 -85.5 L-97.703075 -85.5 L-97.703075 128.25 L-97.703175 128.25" stroke="none" stroke-width="0" fill="#ffead5" fill-rule="evenodd"/><path d="M-97.703175 -85.5 C-97.70314681897364 -85.5, -97.70311863794727 -85.5, -97.703075 -85.5 M-97.703175 -85.5 C-97.70314862467937 -85.5, -97.70312224935874 -85.5, -97.703075 -85.5 M-97.703075 -85.5 C-97.703075 -20.91436133559307, -97.703075 43.67127732881386, -97.703075 128.25 M-97.703075 -85.5 C-97.703075 -6.575713948473606, -97.703075 72.34857210305279, -97.703075 128.25 M-97.703075 128.25 C-97.70310136161697 128.25, -97.70312772323395 128.25, -97.703175 128.25 M-97.703075 128.25 C-97.70311324146388 128.25, -97.70315148292777 128.25, -97.703175 128.25 M-97.703175 128.25 C-97.703175 79.04804751916924, -97.703175 29.84609503833849, -97.703175 -85.5 M-97.703175 128.25 C-97.703175 49.80481829332969, -97.703175 -28.640363413340623, -97.703175 -85.5" stroke="#fbb176" stroke-width="1.3" fill="none" stroke-dasharray="0 0"/></g><g class="divider"><path d="M35.078075 -85.5 L35.078175 -85.5 L35.078175 128.25 L35.078075 128.25" stroke="none" stroke-width="0" fill="#ffead5" fill-rule="evenodd"/><path d="M35.078075 -85.5 C35.078100787084004 -85.5, 35.078126574168 -85.5, 35.078175 -85.5 M35.078075 -85.5 C35.07809852480592 -85.5, 35.078122049611835 -85.5, 35.078175 -85.5 M35.078175 -85.5 C35.078175 -28.33359389623473, 35.078175 28.832812207530537, 35.078175 128.25 M35.078175 -85.5 C35.078175 -20.289614549363208, 35.078175 44.920770901273585, 35.078175 128.25 M35.078175 128.25 C35.078139009467094 128.25, 35.078103018934186 128.25, 35.078075 128.25 M35.078175 128.25 C35.07814345746369 128.25, 35.07811191492737 128.25, 35.078075 128.25 M35.078075 128.25 C35.078075 56.24287269550351, 35.078075 -15.764254608992985, 35.078075 -85.5 M35.078075 128.25 C35.078075 76.61415387076318, 35.078075 24.978307741526365, 35.078075 -85.5" stroke="#fbb176" stroke-width="1.3" fill="none" stroke-dasharray="0 0"/></g><g class="divider"><path d="M80.2187 -85.5 L80.2188 -85.5 L80.2188 128.25 L80.2187 128.25" stroke="none" stroke-width="0" fill="#ffead5" fill-rule="evenodd"/><path d="M80.2187 -85.5 C80.21872002500523 -85.5, 80.21874005001045 -85.5, 80.2188 -85.5 M80.2187 -85.5 C80.21873970603544 -85.5, 80.21877941207087 -85.5, 80.2188 -85.5 M80.2188 -85.5 C80.2188 -3.371205231240694, 80.2188 78.75758953751861, 80.2188 128.25 M80.2188 -85.5 C80.2188 -29.83339960750724, 80.2188 25.83320078498552, 80.2188 128.25 M80.2188 128.25 C80.21876220363468 128.25, 80.21872440726936 128.25, 80.2187 128.25 M80.2188 128.25 C80.21876448356784 128.25, 80.21872896713566 128.25, 80.2187 128.25 M80.2187 128.25 C80.2187 43.722148159637996, 80.2187 -40.80570368072401, 80.2187 -85.5 M80.2187 128.25 C80.2187 62.64376450466091, 80.2187 -2.9624709906781845, 80.2187 -85.5" stroke="#fbb176" stroke-width="1.3" fill="none" stroke-dasharray="0 0"/></g><g class="divider"><path d="M-168.640625 -85.50005 L-168.640625 -85.49995 L168.640625 -85.49995 L168.640625 -85.50005" stroke="none" stroke-width="0" fill="#ffead5" fill-rule="evenodd"/><path d="M-168.640625 -85.50005 C-168.640625 -85.50002759735308, -168.640625 -85.50000519470616, -168.640625 -85.49995 M-168.640625 -85.50005 C-168.640625 -85.50001257763357, -168.640625 -85.49997515526715, -168.640625 -85.49995 M-168.640625 -85.49995 C-92.06482908355507 -85.49995, -15.489033167110136 -85.49995, 168.640625 -85.49995 M-168.640625 -85.49995 C-52.65209646426307 -85.49995, 63.336432071473865 -85.49995, 168.640625 -85.49995 M168.640625 -85.49995 C168.640625 -85.49998727293229, 168.640625 -85.50002454586459, 168.640625 -85.50005 M168.640625 -85.49995 C168.640625 -85.49998421140079, 168.640625 -85.50001842280156, 168.640625 -85.50005 M168.640625 -85.50005 C83.14886662435202 -85.50005, -2.3428917512959515 -85.50005, -168.640625 -85.50005 M168.640625 -85.50005 C70.41420826055037 -85.50005, -27.812208478899265 -85.50005, -168.640625 -85.50005" stroke="#fbb176" stroke-width="1.3" fill="none" stroke-dasharray="0 0"/></g></g><g class="node default" id="my-svg-entity-TaxonTree-1" data-look="classic" transform="translate(71.5859375, 476.375)"><rect class="basic label-container" style="" x="-59.5859375" y="-42" width="119.171875" height="84"/><a href="/vicflora-docs/resources/taxon-tree" target="_top"><g class="label" style="" transform="translate(-39.5859375, -12)"><rect/><foreignObject width="79.171875" height="24"><div xmlns="http://www.w3.org/1999/xhtml" style="display: table-cell; white-space: nowrap; line-height: 1.5; max-width: 200px; text-align: center;"><span class="nodeLabel markdown-node-label"><p style="color: #e74b0f; font-weight: bold;">TaxonTree</p></span></div></foreignObject></g></a></g><g class="node default" id="my-svg-entity-Flora_TaxonTreeNode_MAP-2" data-look="classic" transform="translate(307.0234375, 476.375)"><g class="outer-path" style=""><path d="M-135.8515625 -106.875 L135.8515625 -106.875 L135.8515625 106.875 L-135.8515625 106.875" stroke="none" stroke-width="0" fill="#ffead5"/><path d="M-135.8515625 -106.875 C-41.64423744446016 -106.875, 52.56308761107968 -106.875, 135.8515625 -106.875 M-135.8515625 -106.875 C-55.71166610059677 -106.875, 24.428230298806454 -106.875, 135.8515625 -106.875 M135.8515625 -106.875 C135.8515625 -52.57128084531138, 135.8515625 1.732438309377244, 135.8515625 106.875 M135.8515625 -106.875 C135.8515625 -43.172907085171374, 135.8515625 20.52918582965725, 135.8515625 106.875 M135.8515625 106.875 C45.36869137651759 106.875, -45.11417974696482 106.875, -135.8515625 106.875 M135.8515625 106.875 C33.14493278645065 106.875, -69.5616969270987 106.875, -135.8515625 106.875 M-135.8515625 106.875 C-135.8515625 41.90586130701304, -135.8515625 -23.06327738597392, -135.8515625 -106.875 M-135.8515625 106.875 C-135.8515625 33.95135307755132, -135.8515625 -38.972293844897365, -135.8515625 -106.875" stroke="#fbb176" stroke-width="1.3" fill="none" stroke-dasharray="0 0"/></g><g style="" class="row-rect-odd"><path d="M-135.8515625 -64.125 L135.8515625 -64.125 L135.8515625 -21.375 L-135.8515625 -21.375" stroke="none" stroke-width="0" fill="hsl(30, 100%, 100%)"/><path d="M-135.8515625 -64.125 C-37.93442529178945 -64.125, 59.982711916421096 -64.125, 135.8515625 -64.125 M-135.8515625 -64.125 C-38.15036080391221 -64.125, 59.550840892175586 -64.125, 135.8515625 -64.125 M135.8515625 -64.125 C135.8515625 -50.18818591578804, 135.8515625 -36.25137183157607, 135.8515625 -21.375 M135.8515625 -64.125 C135.8515625 -54.905118539376076, 135.8515625 -45.685237078752145, 135.8515625 -21.375 M135.8515625 -21.375 C27.21849212629597 -21.375, -81.41457824740806 -21.375, -135.8515625 -21.375 M135.8515625 -21.375 C27.28585245371778 -21.375, -81.27985759256444 -21.375, -135.8515625 -21.375 M-135.8515625 -21.375 C-135.8515625 -33.86112742517629, -135.8515625 -46.34725485035259, -135.8515625 -64.125 M-135.8515625 -21.375 C-135.8515625 -30.921435409938518, -135.8515625 -40.467870819877035, -135.8515625 -64.125" stroke="#fbb176" stroke-width="1.3" fill="none" stroke-dasharray="0 0"/></g><g style="" class="row-rect-even"><path d="M-135.8515625 -21.375 L135.8515625 -21.375 L135.8515625 21.375 L-135.8515625 21.375" stroke="none" stroke-width="0" fill="hsl(30, 100%, 96.7647058824%)"/><path d="M-135.8515625 -21.375 C-60.02418360447383 -21.375, 15.803195291052333 -21.375, 135.8515625 -21.375 M-135.8515625 -21.375 C-68.33082628655805 -21.375, -0.8100900731161005 -21.375, 135.8515625 -21.375 M135.8515625 -21.375 C135.8515625 -5.681900409414871, 135.8515625 10.011199181170259, 135.8515625 21.375 M135.8515625 -21.375 C135.8515625 -10.909137331298002, 135.8515625 -0.44327466259600357, 135.8515625 21.375 M135.8515625 21.375 C57.76900579708118 21.375, -20.313550905837644 21.375, -135.8515625 21.375 M135.8515625 21.375 C35.34140811268246 21.375, -65.16874627463508 21.375, -135.8515625 21.375 M-135.8515625 21.375 C-135.8515625 11.427847346470609, -135.8515625 1.480694692941217, -135.8515625 -21.375 M-135.8515625 21.375 C-135.8515625 4.979888588730255, -135.8515625 -11.41522282253949, -135.8515625 -21.375" stroke="#fbb176" stroke-width="1.3" fill="none" stroke-dasharray="0 0"/></g><g style="" class="row-rect-odd"><path d="M-135.8515625 21.375 L135.8515625 21.375 L135.8515625 64.125 L-135.8515625 64.125" stroke="none" stroke-width="0" fill="hsl(30, 100%, 100%)"/><path d="M-135.8515625 21.375 C-44.357120688997384 21.375, 47.13732112200523 21.375, 135.8515625 21.375 M-135.8515625 21.375 C-59.67391772437985 21.375, 16.503727051240304 21.375, 135.8515625 21.375 M135.8515625 21.375 C135.8515625 31.90576133739434, 135.8515625 42.43652267478868, 135.8515625 64.125 M135.8515625 21.375 C135.8515625 38.234869275746554, 135.8515625 55.09473855149311, 135.8515625 64.125 M135.8515625 64.125 C50.72995349797269 64.125, -34.391655504054626 64.125, -135.8515625 64.125 M135.8515625 64.125 C47.270798260058285 64.125, -41.30996597988343 64.125, -135.8515625 64.125 M-135.8515625 64.125 C-135.8515625 49.540941717054245, -135.8515625 34.95688343410849, -135.8515625 21.375 M-135.8515625 64.125 C-135.8515625 52.115328974378826, -135.8515625 40.10565794875765, -135.8515625 21.375" stroke="#fbb176" stroke-width="1.3" fill="none" stroke-dasharray="0 0"/></g><g style="" class="row-rect-even"><path d="M-135.8515625 64.125 L135.8515625 64.125 L135.8515625 106.875 L-135.8515625 106.875" stroke="none" stroke-width="0" fill="hsl(30, 100%, 96.7647058824%)"/><path d="M-135.8515625 64.125 C-78.71393012550911 64.125, -21.57629775101823 64.125, 135.8515625 64.125 M-135.8515625 64.125 C-36.33262160903922 64.125, 63.186319281921556 64.125, 135.8515625 64.125 M135.8515625 64.125 C135.8515625 78.79690650516264, 135.8515625 93.46881301032528, 135.8515625 106.875 M135.8515625 64.125 C135.8515625 77.35204128096541, 135.8515625 90.5790825619308, 135.8515625 106.875 M135.8515625 106.875 C60.57684804793267 106.875, -14.697866404134658 106.875, -135.8515625 106.875 M135.8515625 106.875 C44.60270632629741 106.875, -46.646149847405184 106.875, -135.8515625 106.875 M-135.8515625 106.875 C-135.8515625 96.58237113892244, -135.8515625 86.2897422778449, -135.8515625 64.125 M-135.8515625 106.875 C-135.8515625 94.44340651954205, -135.8515625 82.01181303908409, -135.8515625 64.125" stroke="#fbb176" stroke-width="1.3" fill="none" stroke-dasharray="0 0"/></g><g class="label name" transform="translate(-105.578125, -97.5)" style=""><foreignObject width="211.15625" height="24"><div xmlns="http://www.w3.org/1999/xhtml" style="display: table-cell; white-space: nowrap; line-height: 1.5; max-width: 314px; text-align: start;"><span class="nodeLabel"><p>Flora_TaxonTreeNode_MAP</p></span></div></foreignObject></g><g class="label attribute-type" transform="translate(-123.3515625, -54.75)" style=""><foreignObject width="20.859375" height="24"><div xmlns="http://www.w3.org/1999/xhtml" style="display: table-cell; white-space: nowrap; line-height: 1.5; max-width: 120px; text-align: start;"><span class="nodeLabel"><p>int</p></span></div></foreignObject></g><g class="label attribute-name" transform="translate(-77.4921875, -54.75)" style=""><foreignObject width="14.609375" height="24"><div xmlns="http://www.w3.org/1999/xhtml" style="display: table-cell; white-space: nowrap; line-height: 1.5; max-width: 114px; text-align: start;"><span class="nodeLabel"><p>id</p></span></div></foreignObject></g><g class="label attribute-keys" transform="translate(103.2109375, -54.75)" style=""><foreignObject width="20.140625" height="24"><div xmlns="http://www.w3.org/1999/xhtml" style="display: table-cell; white-space: nowrap; line-height: 1.5; max-width: 121px; text-align: start;"><span class="nodeLabel"><p>PK</p></span></div></foreignObject></g><g class="label attribute-comment" transform="translate(148.3515625, -54.75)" style=""><foreignObject width="0" height="0"><div xmlns="http://www.w3.org/1999/xhtml" style="display: table-cell; white-space: nowrap; line-height: 1.5; max-width: 100px; text-align: start;"><span class="nodeLabel"></span></div></foreignObject></g><g class="label attribute-type" transform="translate(-123.3515625, -12)" style=""><foreignObject width="20.859375" height="24"><div xmlns="http://www.w3.org/1999/xhtml" style="display: table-cell; white-space: nowrap; line-height: 1.5; max-width: 120px; text-align: start;"><span class="nodeLabel"><p>int</p></span></div></foreignObject></g><g class="label attribute-name" transform="translate(-77.4921875, -12)" style=""><foreignObject width="58.859375" height="24"><div xmlns="http://www.w3.org/1999/xhtml" style="display: table-cell; white-space: nowrap; line-height: 1.5; max-width: 159px; text-align: start;"><span class="nodeLabel"><p>flora_id</p></span></div></foreignObject></g><g class="label attribute-keys" transform="translate(103.2109375, -12)" style=""><foreignObject width="19.703125" height="24"><div xmlns="http://www.w3.org/1999/xhtml" style="display: table-cell; white-space: nowrap; line-height: 1.5; max-width: 120px; text-align: start;"><span class="nodeLabel"><p>FK</p></span></div></foreignObject></g><g class="label attribute-comment" transform="translate(148.3515625, -12)" style=""><foreignObject width="0" height="0"><div xmlns="http://www.w3.org/1999/xhtml" style="display: table-cell; white-space: nowrap; line-height: 1.5; max-width: 100px; text-align: start;"><span class="nodeLabel"></span></div></foreignObject></g><g class="label attribute-type" transform="translate(-123.3515625, 30.75)" style=""><foreignObject width="20.859375" height="24"><div xmlns="http://www.w3.org/1999/xhtml" style="display: table-cell; white-space: nowrap; line-height: 1.5; max-width: 120px; text-align: start;"><span class="nodeLabel"><p>int</p></span></div></foreignObject></g><g class="label attribute-name" transform="translate(-77.4921875, 30.75)" style=""><foreignObject width="85.171875" height="24"><div xmlns="http://www.w3.org/1999/xhtml" style="display: table-cell; white-space: nowrap; line-height: 1.5; max-width: 186px; text-align: start;"><span class="nodeLabel"><p>taxon_tree</p></span></div></foreignObject></g><g class="label attribute-keys" transform="translate(103.2109375, 30.75)" style=""><foreignObject width="19.703125" height="24"><div xmlns="http://www.w3.org/1999/xhtml" style="display: table-cell; white-space: nowrap; line-height: 1.5; max-width: 120px; text-align: start;"><span class="nodeLabel"><p>FK</p></span></div></foreignObject></g><g class="label attribute-comment" transform="translate(148.3515625, 30.75)" style=""><foreignObject width="0" height="0"><div xmlns="http://www.w3.org/1999/xhtml" style="display: table-cell; white-space: nowrap; line-height: 1.5; max-width: 100px; text-align: start;"><span class="nodeLabel"></span></div></foreignObject></g><g class="label attribute-type" transform="translate(-123.3515625, 73.5)" style=""><foreignObject width="20.859375" height="24"><div xmlns="http://www.w3.org/1999/xhtml" style="display: table-cell; white-space: nowrap; line-height: 1.5; max-width: 120px; text-align: start;"><span class="nodeLabel"><p>int</p></span></div></foreignObject></g><g class="label attribute-name" transform="translate(-77.4921875, 73.5)" style=""><foreignObject width="155.703125" height="24"><div xmlns="http://www.w3.org/1999/xhtml" style="display: table-cell; white-space: nowrap; line-height: 1.5; max-width: 256px; text-align: start;"><span class="nodeLabel"><p>taxon_tree_node_id</p></span></div></foreignObject></g><g class="label attribute-keys" transform="translate(103.2109375, 73.5)" style=""><foreignObject width="19.703125" height="24"><div xmlns="http://www.w3.org/1999/xhtml" style="display: table-cell; white-space: nowrap; line-height: 1.5; max-width: 120px; text-align: start;"><span class="nodeLabel"><p>FK</p></span></div></foreignObject></g><g class="label attribute-comment" transform="translate(148.3515625, 73.5)" style=""><foreignObject width="0" height="0"><div xmlns="http://www.w3.org/1999/xhtml" style="display: table-cell; white-space: nowrap; line-height: 1.5; max-width: 100px; text-align: start;"><span class="nodeLabel"></span></div></foreignObject></g><g class="divider"><path d="M-135.8515625 -64.12505 L-135.8515625 -64.12495 L135.8515625 -64.12495 L135.8515625 -64.12505" stroke="none" stroke-width="0" fill="#ffead5" fill-rule="evenodd"/><path d="M-135.8515625 -64.12505 C-135.8515625 -64.12502101625125, -135.8515625 -64.12499203250252, -135.8515625 -64.12495 M-135.8515625 -64.12505 C-135.8515625 -64.12502659044249, -135.8515625 -64.12500318088496, -135.8515625 -64.12495 M-135.8515625 -64.12495 C-56.260490536188186 -64.12495, 23.330581427623628 -64.12495, 135.8515625 -64.12495 M-135.8515625 -64.12495 C-49.8666670381495 -64.12495, 36.118228423701 -64.12495, 135.8515625 -64.12495 M135.8515625 -64.12495 C135.8515625 -64.1249786620392, 135.8515625 -64.1250073240784, 135.8515625 -64.12505 M135.8515625 -64.12495 C135.8515625 -64.12497102777161, 135.8515625 -64.12499205554323, 135.8515625 -64.12505 M135.8515625 -64.12505 C74.56124104173938 -64.12505, 13.270919583478744 -64.12505, -135.8515625 -64.12505 M135.8515625 -64.12505 C31.066457072187063 -64.12505, -73.71864835562587 -64.12505, -135.8515625 -64.12505" stroke="#fbb176" stroke-width="1.3" fill="none" stroke-dasharray="0 0"/></g><g class="divider"><path d="M-89.9922375 -64.125 L-89.9921375 -64.125 L-89.9921375 106.875 L-89.9922375 106.875" stroke="none" stroke-width="0" fill="#ffead5" fill-rule="evenodd"/><path d="M-89.9922375 -64.125 C-89.99220484570783 -64.125, -89.99217219141566 -64.125, -89.9921375 -64.125 M-89.9922375 -64.125 C-89.9922028292573 -64.125, -89.99216815851459 -64.125, -89.9921375 -64.125 M-89.9921375 -64.125 C-89.9921375 -1.6918646384379272, -89.9921375 60.741270723124146, -89.9921375 106.875 M-89.9921375 -64.125 C-89.9921375 -20.603433395934495, -89.9921375 22.91813320813101, -89.9921375 106.875 M-89.9921375 106.875 C-89.99217008345735 106.875, -89.99220266691471 106.875, -89.9922375 106.875 M-89.9921375 106.875 C-89.99216291462078 106.875, -89.99218832924157 106.875, -89.9922375 106.875 M-89.9922375 106.875 C-89.9922375 72.2564465997902, -89.9922375 37.637893199580375, -89.9922375 -64.125 M-89.9922375 106.875 C-89.9922375 63.507360359100204, -89.9922375 20.139720718200408, -89.9922375 -64.125" stroke="#fbb176" stroke-width="1.3" fill="none" stroke-dasharray="0 0"/></g><g class="divider"><path d="M90.7108875 -64.125 L90.7109875 -64.125 L90.7109875 106.875 L90.7108875 106.875" stroke="none" stroke-width="0" fill="#ffead5" fill-rule="evenodd"/><path d="M90.7108875 -64.125 C90.7109091109422 -64.125, 90.71093072188441 -64.125, 90.7109875 -64.125 M90.7108875 -64.125 C90.710920937027 -64.125, 90.71095437405398 -64.125, 90.7109875 -64.125 M90.7109875 -64.125 C90.7109875 -3.0982569697224633, 90.7109875 57.92848606055507, 90.7109875 106.875 M90.7109875 -64.125 C90.7109875 2.3254869896874055, 90.7109875 68.77597397937481, 90.7109875 106.875 M90.7109875 106.875 C90.71096245599671 106.875, 90.71093741199343 106.875, 90.7108875 106.875 M90.7109875 106.875 C90.71096026532663 106.875, 90.71093303065327 106.875, 90.7108875 106.875 M90.7108875 106.875 C90.7108875 63.10544497007836, 90.7108875 19.33588994015672, 90.7108875 -64.125 M90.7108875 106.875 C90.7108875 41.79060811420045, 90.7108875 -23.293783771599095, 90.7108875 -64.125" stroke="#fbb176" stroke-width="1.3" fill="none" stroke-dasharray="0 0"/></g><g class="divider"><path d="M-135.8515625 -64.12505 L-135.8515625 -64.12495 L135.8515625 -64.12495 L135.8515625 -64.12505" stroke="none" stroke-width="0" fill="#ffead5" fill-rule="evenodd"/><path d="M-135.8515625 -64.12505 C-135.8515625 -64.12502879785089, -135.8515625 -64.12500759570179, -135.8515625 -64.12495 M-135.8515625 -64.12505 C-135.8515625 -64.12501122316216, -135.8515625 -64.1249724463243, -135.8515625 -64.12495 M-135.8515625 -64.12495 C-33.366121968825425 -64.12495, 69.11931856234915 -64.12495, 135.8515625 -64.12495 M-135.8515625 -64.12495 C-36.00360457128454 -64.12495, 63.84435335743092 -64.12495, 135.8515625 -64.12495 M135.8515625 -64.12495 C135.8515625 -64.12497870786834, 135.8515625 -64.12500741573668, 135.8515625 -64.12505 M135.8515625 -64.12495 C135.8515625 -64.12498703153032, 135.8515625 -64.12502406306065, 135.8515625 -64.12505 M135.8515625 -64.12505 C73.41895182101771 -64.12505, 10.986341142035414 -64.12505, -135.8515625 -64.12505 M135.8515625 -64.12505 C78.97885022803064 -64.12505, 22.10613795606129 -64.12505, -135.8515625 -64.12505" stroke="#fbb176" stroke-width="1.3" fill="none" stroke-dasharray="0 0"/></g></g><g class="node default" id="my-svg-entity-TaxonTreeNode-3" data-look="classic" transform="translate(280.2005208333333, 726.25)"><rect class="basic label-container" style="" x="-80.46875" y="-42" width="160.9375" height="84"/><a href="/vicflora-docs/resources/taxon-tree-node" target="_top"><g class="label" style="" transform="translate(-60.46875, -12)"><rect/><foreignObject width="120.9375" height="24"><div xmlns="http://www.w3.org/1999/xhtml" style="display: table-cell; white-space: nowrap; line-height: 1.5; max-width: 200px; text-align: center;"><span class="nodeLabel markdown-node-label"><p style="color: #e74b0f; font-weight: bold;">TaxonTreeNode</p></span></div></foreignObject></g></a></g></g><g class="edgeLabels"><g class="edgeLabel" transform="translate(71.3515625, 319)"><g class="label" data-id="id_entity-Flora-0_entity-TaxonTree-1_0" transform="translate(-34.265625, -10.5)"><foreignObject width="68.53125" height="21"><div xmlns="http://www.w3.org/1999/xhtml" class="labelBkg" style="display: table-cell; white-space: nowrap; line-height: 1.5; max-width: 200px; text-align: center;"><span class="edgeLabel"><p>taxonTree</p></span></div></foreignObject></g></g><g class="edgeLabel" transform="translate(306.8828125, 319)"><g class="label" data-id="id_entity-Flora-0_entity-Flora_TaxonTreeNode_MAP-2_1" transform="translate(-15.859375, -10.5)"><foreignObject width="31.71875" height="21"><div xmlns="http://www.w3.org/1999/xhtml" class="labelBkg" style="display: table-cell; white-space: nowrap; line-height: 1.5; max-width: 200px; text-align: center;"><span class="edgeLabel"><p>flora</p></span></div></foreignObject></g></g><g class="edgeLabel" transform="translate(71.3515625, 633.75)"><g class="label" data-id="id_entity-TaxonTree-1_entity-TaxonTreeNode-3_2" transform="translate(-34.265625, -10.5)"><foreignObject width="68.53125" height="21"><div xmlns="http://www.w3.org/1999/xhtml" class="labelBkg" style="display: table-cell; white-space: nowrap; line-height: 1.5; max-width: 200px; text-align: center;"><span class="edgeLabel"><p>taxonTree</p></span></div></foreignObject></g></g><g class="edgeLabel" transform="translate(306.5625, 633.75)"><g class="label" data-id="id_entity-Flora_TaxonTreeNode_MAP-2_entity-TaxonTreeNode-3_3" transform="translate(-52.5390625, -10.5)"><foreignObject width="105.078125" height="21"><div xmlns="http://www.w3.org/1999/xhtml" class="labelBkg" style="display: table-cell; white-space: nowrap; line-height: 1.5; max-width: 200px; text-align: center;"><span class="edgeLabel"><p>taxonTreeNode</p></span></div></foreignObject></g></g></g></svg>