<svg id="my-svg" width="100%" xmlns="http://www.w3.org/2000/svg" xmlns:xlink="http://www.w3.org/1999/xlink" class="erDiagram" style="max-width: 673.719px; background-color: white;" viewBox="4 4 673.71875 1162.25" role="graphics-document document" aria-roledescription="er"><g class="edges edgePaths"><path d="M200.97265625,96L200.97265625,197" id="my-svg-id_entity-Profile-0_entity-Profile_Specimen_MAP-1_0" class="edge-thickness-normal edge-pattern-solid relationshipLine" style="undefined;;;undefined" data-edge="true" data-et="edge" data-id="id_entity-Profile-0_entity-Profile_Specimen_MAP-1_0" data-points="W3sieCI6MjAwLjk3MjY1NjI1LCJ5Ijo5Nn0seyJ4IjoyMDAuOTcyNjU2MjUsInkiOjE5N31d" data-look="classic" marker-start="url(#my-svg_er-zeroOrOneStart)" marker-end="url(#my-svg_er-oneOrMoreEnd)"/><path d="M200.97265625,410.75L200.97265625,511.75" id="my-svg-id_entity-Profile_Specimen_MAP-1_entity-Specimen-2_1" class="edge-thickness-normal edge-pattern-solid relationshipLine" style="undefined;;;undefined" data-edge="true" data-et="edge" data-id="id_entity-Profile_Specimen_MAP-1_entity-Specimen-2_1" data-points="W3sieCI6MjAwLjk3MjY1NjI1LCJ5Ijo0MTAuNzV9LHsieCI6MjAwLjk3MjY1NjI1LCJ5Ijo1MTEuNzV9XQ==" data-look="classic" marker-start="url(#my-svg_er-zeroOrMoreStart)" marker-end="url(#my-svg_er-onlyOneEnd)"/><path d="M111.21875000000001,768.25L111.21875,889.25" id="my-svg-id_entity-Specimen-2_entity-Entity_Identity_MAP-3_2" class="edge-thickness-normal edge-pattern-solid relationshipLine" style="undefined;;;undefined" data-edge="true" data-et="edge" data-id="id_entity-Specimen-2_entity-Entity_Identity_MAP-3_2" data-points="W3sieCI6MTExLjIxODc1MDAwMDAwMDAxLCJ5Ijo3NjguMjV9LHsieCI6MTExLjIxODc1LCJ5Ijo4ODkuMjV9XQ==" data-look="classic" marker-start="url(#my-svg_er-zeroOrOneStart)" marker-end="url(#my-svg_er-oneOrMoreEnd)"/><path d="M111.21875,973.25L111.21875,1074.25" id="my-svg-id_entity-Entity_Identity_MAP-3_entity-ExternalIdentity-4_3" class="edge-thickness-normal edge-pattern-solid relationshipLine" style="undefined;;;undefined" data-edge="true" data-et="edge" data-id="id_entity-Entity_Identity_MAP-3_entity-ExternalIdentity-4_3" data-points="W3sieCI6MTExLjIxODc1LCJ5Ijo5NzMuMjV9LHsieCI6MTExLjIxODc1LCJ5IjoxMDc0LjI1fV0=" data-look="classic" marker-start="url(#my-svg_er-oneOrMoreStart)" marker-end="url(#my-svg_er-zeroOrOneEnd)"/><path d="M200.97265625,768.25L200.97265625,801.1789321881345Q200.97265625,808.25 208.04372406186548,808.25L339.3976821881345,808.25Q346.46875,808.25 346.46875,815.3210678118655L346.46875,889.25" id="my-svg-id_entity-Specimen-2_entity-Entity_Source_MAP-5_4" class="edge-thickness-normal edge-pattern-solid relationshipLine" style="undefined;;;undefined" data-edge="true" data-et="edge" data-id="id_entity-Specimen-2_entity-Entity_Source_MAP-5_4" data-points="W3sieCI6MjAwLjk3MjY1NjI1LCJ5Ijo3NjguMjV9LHsieCI6MjAwLjk3MjY1NjI1LCJ5Ijo4MDguMjV9LHsieCI6MzQ2LjQ2ODc1LCJ5Ijo4MDguMjV9LHsieCI6MzQ2LjQ2ODc1LCJ5Ijo4ODkuMjV9XQ==" data-look="classic" marker-start="url(#my-svg_er-zeroOrOneStart)" marker-end="url(#my-svg_er-oneOrMoreEnd)"/><path d="M346.46875,973.25L346.46875,1074.25" id="my-svg-id_entity-Entity_Source_MAP-5_entity-Reference-6_5" class="edge-thickness-normal edge-pattern-solid relationshipLine" style="undefined;;;undefined" data-edge="true" data-et="edge" data-id="id_entity-Entity_Source_MAP-5_entity-Reference-6_5" data-points="W3sieCI6MzQ2LjQ2ODc1LCJ5Ijo5NzMuMjV9LHsieCI6MzQ2LjQ2ODc1LCJ5IjoxMDc0LjI1fV0=" data-look="classic" marker-start="url(#my-svg_er-oneOrMoreStart)" marker-end="url(#my-svg_er-zeroOrOneEnd)"/><path d="M290.7265625,768.25L290.7265625,781.1789321881345Q290.7265625,788.25 297.7976303118655,788.25L569.0383071881345,788.25Q576.109375,788.25 576.109375,795.3210678118655L576.109375,889.25" id="my-svg-id_entity-Specimen-2_entity-Entity_Image_MAP-7_6" class="edge-thickness-normal edge-pattern-solid relationshipLine" style="undefined;;;undefined" data-edge="true" data-et="edge" data-id="id_entity-Specimen-2_entity-Entity_Image_MAP-7_6" data-points="W3sieCI6MjkwLjcyNjU2MjUsInkiOjc2OC4yNX0seyJ4IjoyOTAuNzI2NTYyNSwieSI6Nzg4LjI1fSx7IngiOjU3Ni4xMDkzNzUsInkiOjc4OC4yNX0seyJ4Ijo1NzYuMTA5Mzc1LCJ5Ijo4ODkuMjV9XQ==" data-look="classic" marker-start="url(#my-svg_er-zeroOrOneStart)" marker-end="url(#my-svg_er-oneOrMoreEnd)"/><path d="M576.109375,973.25L576.109375,1074.25" id="my-svg-id_entity-Entity_Image_MAP-7_entity-Image-8_7" class="edge-thickness-normal edge-pattern-solid relationshipLine" style="undefined;;;undefined" data-edge="true" data-et="edge" data-id="id_entity-Entity_Image_MAP-7_entity-Image-8_7" data-points="W3sieCI6NTc2LjEwOTM3NSwieSI6OTczLjI1fSx7IngiOjU3Ni4xMDkzNzUsInkiOjEwNzQuMjV9XQ==" data-look="classic" marker-start="url(#my-svg_er-oneOrMoreStart)" marker-end="url(#my-svg_er-onlyOneEnd)"/></g><style>#my-svg{font-family:"trebuchet ms",verdana,arial,sans-serif;font-size:16px;fill:#333;}@keyframes edge-animation-frame{from{stroke-dashoffset:0;}}@keyframes dash{to{stroke-dashoffset:0;}}#my-svg .edge-animation-slow{stroke-dasharray:9,5!important;stroke-dashoffset:900;animation:dash 50s linear infinite;stroke-linecap:round;}#my-svg .edge-animation-fast{stroke-dasharray:9,5!important;stroke-dashoffset:900;animation:dash 20s linear infinite;stroke-linecap:round;}#my-svg .error-icon{fill:hsl(210, 100%, 96.7647058824%);}#my-svg .error-text{fill:rgb(16.4999999998, 8.2499999999, 0);stroke:rgb(16.4999999998, 8.2499999999, 0);}#my-svg .edge-thickness-normal{stroke-width:1px;}#my-svg .edge-thickness-thick{stroke-width:3.5px;}#my-svg .edge-pattern-solid{stroke-dasharray:0;}#my-svg .edge-thickness-invisible{stroke-width:0;fill:none;}#my-svg .edge-pattern-dashed{stroke-dasharray:3;}#my-svg .edge-pattern-dotted{stroke-dasharray:2;}#my-svg .marker{fill:#e74b0f;stroke:#e74b0f;}#my-svg .marker.cross{stroke:#e74b0f;}#my-svg svg{font-family:"trebuchet ms",verdana,arial,sans-serif;font-size:16px;}#my-svg p{margin:0;}#my-svg .entityBox{fill:#ffead5;stroke:#fbb176;}#my-svg .relationshipLabelBox{fill:hsl(210, 100%, 96.7647058824%);opacity:0.7;background-color:hsl(210, 100%, 96.7647058824%);}#my-svg .relationshipLabelBox rect{opacity:0.5;}#my-svg .labelBkg{background-color:rgba(238.5000000002, 246.7500000001, 255, 0.5);}#my-svg .edgeLabel{background-color:hsl(-90, 100%, 91.7647058824%);}#my-svg .edgeLabel .label rect{fill:hsl(-90, 100%, 91.7647058824%);}#my-svg .edgeLabel .label text{fill:#333;}#my-svg .edgeLabel .label{fill:#fbb176;font-size:14px;}#my-svg .label{font-family:"trebuchet ms",verdana,arial,sans-serif;color:#333;}#my-svg .edge-pattern-dashed{stroke-dasharray:8,8;}#my-svg .node rect,#my-svg .node circle,#my-svg .node ellipse,#my-svg .node polygon{fill:#ffead5;stroke:#fbb176;stroke-width:1px;}#my-svg .relationshipLine{stroke:#e74b0f;stroke-width:1px;fill:none;}#my-svg .marker{fill:none!important;stroke:#e74b0f!important;stroke-width:1;}#my-svg [data-look=neo].labelBkg{background-color:rgba(238.5000000002, 246.7500000001, 255, 0.5);}#my-svg .node .neo-node{stroke:#fbb176;}#my-svg [data-look="neo"].node rect,#my-svg [data-look="neo"].cluster rect,#my-svg [data-look="neo"].node polygon{stroke:url(#my-svg-gradient);filter:drop-shadow( 1px 2px 2px rgba(185,185,185,1));}#my-svg [data-look="neo"].node path{stroke:url(#my-svg-gradient);stroke-width:1px;}#my-svg [data-look="neo"].node .outer-path{filter:drop-shadow( 1px 2px 2px rgba(185,185,185,1));}#my-svg [data-look="neo"].node .neo-line path{stroke:#fbb176;filter:none;}#my-svg [data-look="neo"].node circle{stroke:url(#my-svg-gradient);filter:drop-shadow( 1px 2px 2px rgba(185,185,185,1));}#my-svg [data-look="neo"].node circle .state-start{fill:#000000;}#my-svg [data-look="neo"].icon-shape .icon{fill:url(#my-svg-gradient);filter:drop-shadow( 1px 2px 2px rgba(185,185,185,1));}#my-svg [data-look="neo"].icon-shape .icon-neo path{stroke:url(#my-svg-gradient);filter:drop-shadow( 1px 2px 2px rgba(185,185,185,1));}#my-svg :root{--mermaid-font-family:"trebuchet ms",verdana,arial,sans-serif;}</style><g><defs><marker id="my-svg_er-onlyOneStart" class="marker onlyOne er" refX="0" refY="9" markerWidth="18" markerHeight="18" orient="auto"><path d="M9,0 L9,18 M15,0 L15,18"/></marker></defs><defs><marker id="my-svg_er-onlyOneEnd" class="marker onlyOne er" refX="18" refY="9" markerWidth="18" markerHeight="18" orient="auto"><path d="M3,0 L3,18 M9,0 L9,18"/></marker></defs><defs><marker id="my-svg_er-zeroOrOneStart" class="marker zeroOrOne er" refX="0" refY="9" markerWidth="30" markerHeight="18" orient="auto"><circle fill="white" cx="21" cy="9" r="6"/><path d="M9,0 L9,18"/></marker></defs><defs><marker id="my-svg_er-zeroOrOneEnd" class="marker zeroOrOne er" refX="30" refY="9" markerWidth="30" markerHeight="18" orient="auto"><circle fill="white" cx="9" cy="9" r="6"/><path d="M21,0 L21,18"/></marker></defs><defs><marker id="my-svg_er-oneOrMoreStart" class="marker oneOrMore er" refX="18" refY="18" markerWidth="45" markerHeight="36" orient="auto"><path d="M0,18 Q 18,0 36,18 Q 18,36 0,18 M42,9 L42,27"/></marker></defs><defs><marker id="my-svg_er-oneOrMoreEnd" class="marker oneOrMore er" refX="27" refY="18" markerWidth="45" markerHeight="36" orient="auto"><path d="M3,9 L3,27 M9,18 Q27,0 45,18 Q27,36 9,18"/></marker></defs><defs><marker id="my-svg_er-zeroOrMoreStart" class="marker zeroOrMore er" refX="18" refY="18" markerWidth="57" markerHeight="36" orient="auto"><circle fill="white" cx="48" cy="18" r="6"/><path d="M0,18 Q18,0 36,18 Q18,36 0,18"/></marker></defs><defs><marker id="my-svg_er-zeroOrMoreEnd" class="marker zeroOrMore er" refX="39" refY="18" markerWidth="57" markerHeight="36" orient="auto"><circle fill="white" cx="9" cy="18" r="6"/><path d="M21,18 Q39,0 57,18 Q39,36 21,18"/></marker></defs></g><defs><filter id="my-svg-drop-shadow" height="130%" width="130%"><feDropShadow dx="4" dy="4" stdDeviation="0" flood-opacity="0.06" flood-color="#000000"/></filter></defs><defs><filter id="my-svg-drop-shadow-small" height="150%" width="150%"><feDropShadow dx="2" dy="2" stdDeviation="0" flood-opacity="0.06" flood-color="#000000"/></filter></defs><linearGradient id="my-svg-gradient" gradientUnits="objectBoundingBox" x1="0%" y1="0%" x2="100%" y2="0%"><stop offset="0%" stop-color="#fbb176" stop-opacity="1"/><stop offset="100%" stop-color="hsl(-90, 60%, 81.7647058824%)" stop-opacity="1"/></linearGradient><g class="subgraphs"/><g class="nodes"><g class="node default" id="my-svg-entity-Profile-0" data-look="classic" transform="translate(200.97265625, 54)"><rect class="basic label-container" style="" x="-50" y="-42" width="100" height="84"/><a href="/vicflora-docs/resources/profile" target="_top"><g class="label" style="" transform="translate(-24.875, -12)"><rect/><foreignObject width="49.75" height="24"><div xmlns="http://www.w3.org/1999/xhtml" style="display: table-cell; white-space: nowrap; line-height: 1.5; max-width: 100px; text-align: center;"><span class="nodeLabel markdown-node-label"><p style="color: #e74b0f; font-weight: bold;">Profile</p></span></div></foreignObject></g></a></g><g class="node default" id="my-svg-entity-Profile_Specimen_MAP-1" data-look="classic" transform="translate(200.97265625, 303.875)"><g class="outer-path" style=""><path d="M-152.0859375 -106.875 L152.0859375 -106.875 L152.0859375 106.875 L-152.0859375 106.875" stroke="none" stroke-width="0" fill="#ffead5"/><path d="M-152.0859375 -106.875 C-60.59225465354626 -106.875, 30.901428192907474 -106.875, 152.0859375 -106.875 M-152.0859375 -106.875 C-77.85748763022764 -106.875, -3.629037760455276 -106.875, 152.0859375 -106.875 M152.0859375 -106.875 C152.0859375 -53.56581256531821, 152.0859375 -0.2566251306364222, 152.0859375 106.875 M152.0859375 -106.875 C152.0859375 -54.370473408957764, 152.0859375 -1.8659468179155283, 152.0859375 106.875 M152.0859375 106.875 C62.08896536538798 106.875, -27.908006769224045 106.875, -152.0859375 106.875 M152.0859375 106.875 C88.33503078388057 106.875, 24.584124067761124 106.875, -152.0859375 106.875 M-152.0859375 106.875 C-152.0859375 47.26044502651223, -152.0859375 -12.35410994697554, -152.0859375 -106.875 M-152.0859375 106.875 C-152.0859375 30.49836601196371, -152.0859375 -45.87826797607258, -152.0859375 -106.875" stroke="#fbb176" stroke-width="1.3" fill="none" stroke-dasharray="0 0"/></g><g style="" class="row-rect-odd"><path d="M-152.0859375 -64.125 L152.0859375 -64.125 L152.0859375 -21.375 L-152.0859375 -21.375" stroke="none" stroke-width="0" fill="hsl(30, 100%, 100%)"/><path d="M-152.0859375 -64.125 C-39.47719555038219 -64.125, 73.13154639923562 -64.125, 152.0859375 -64.125 M-152.0859375 -64.125 C-72.91090017399276 -64.125, 6.264137152014484 -64.125, 152.0859375 -64.125 M152.0859375 -64.125 C152.0859375 -47.26647450208533, 152.0859375 -30.40794900417066, 152.0859375 -21.375 M152.0859375 -64.125 C152.0859375 -48.68316805582745, 152.0859375 -33.2413361116549, 152.0859375 -21.375 M152.0859375 -21.375 C54.161806669609774 -21.375, -43.76232416078045 -21.375, -152.0859375 -21.375 M152.0859375 -21.375 C88.45191981183817 -21.375, 24.81790212367632 -21.375, -152.0859375 -21.375 M-152.0859375 -21.375 C-152.0859375 -32.42155177113461, -152.0859375 -43.46810354226922, -152.0859375 -64.125 M-152.0859375 -21.375 C-152.0859375 -31.104996996977825, -152.0859375 -40.83499399395565, -152.0859375 -64.125" stroke="#fbb176" stroke-width="1.3" fill="none" stroke-dasharray="0 0"/></g><g style="" class="row-rect-even"><path d="M-152.0859375 -21.375 L152.0859375 -21.375 L152.0859375 21.375 L-152.0859375 21.375" stroke="none" stroke-width="0" fill="hsl(30, 100%, 96.7647058824%)"/><path d="M-152.0859375 -21.375 C-37.207292367074956 -21.375, 77.67135276585009 -21.375, 152.0859375 -21.375 M-152.0859375 -21.375 C-65.19630121285714 -21.375, 21.693335074285727 -21.375, 152.0859375 -21.375 M152.0859375 -21.375 C152.0859375 -10.285057030869577, 152.0859375 0.8048859382608455, 152.0859375 21.375 M152.0859375 -21.375 C152.0859375 -6.2604366327816905, 152.0859375 8.854126734436619, 152.0859375 21.375 M152.0859375 21.375 C82.18934141250618 21.375, 12.292745325012362 21.375, -152.0859375 21.375 M152.0859375 21.375 C44.42471096391472 21.375, -63.23651557217056 21.375, -152.0859375 21.375 M-152.0859375 21.375 C-152.0859375 11.538622522197969, -152.0859375 1.7022450443959372, -152.0859375 -21.375 M-152.0859375 21.375 C-152.0859375 9.974982754470759, -152.0859375 -1.425034491058483, -152.0859375 -21.375" stroke="#fbb176" stroke-width="1.3" fill="none" stroke-dasharray="0 0"/></g><g style="" class="row-rect-odd"><path d="M-152.0859375 21.375 L152.0859375 21.375 L152.0859375 64.125 L-152.0859375 64.125" stroke="none" stroke-width="0" fill="hsl(30, 100%, 100%)"/><path d="M-152.0859375 21.375 C-81.35435487401517 21.375, -10.622772248030344 21.375, 152.0859375 21.375 M-152.0859375 21.375 C-72.86493032916806 21.375, 6.356076841663878 21.375, 152.0859375 21.375 M152.0859375 21.375 C152.0859375 35.162508344925214, 152.0859375 48.950016689850436, 152.0859375 64.125 M152.0859375 21.375 C152.0859375 35.277508286782535, 152.0859375 49.18001657356507, 152.0859375 64.125 M152.0859375 64.125 C36.34907170152239 64.125, -79.38779409695522 64.125, -152.0859375 64.125 M152.0859375 64.125 C71.73872306745295 64.125, -8.608491365094096 64.125, -152.0859375 64.125 M-152.0859375 64.125 C-152.0859375 50.27314175242764, -152.0859375 36.42128350485528, -152.0859375 21.375 M-152.0859375 64.125 C-152.0859375 53.062502820160645, -152.0859375 42.00000564032129, -152.0859375 21.375" stroke="#fbb176" stroke-width="1.3" fill="none" stroke-dasharray="0 0"/></g><g style="" class="row-rect-even"><path d="M-152.0859375 64.125 L152.0859375 64.125 L152.0859375 106.875 L-152.0859375 106.875" stroke="none" stroke-width="0" fill="hsl(30, 100%, 96.7647058824%)"/><path d="M-152.0859375 64.125 C-71.26609508461242 64.125, 9.553747330775167 64.125, 152.0859375 64.125 M-152.0859375 64.125 C-31.697319830257072 64.125, 88.69129783948586 64.125, 152.0859375 64.125 M152.0859375 64.125 C152.0859375 74.62453087984368, 152.0859375 85.12406175968735, 152.0859375 106.875 M152.0859375 64.125 C152.0859375 75.92873974531831, 152.0859375 87.73247949063662, 152.0859375 106.875 M152.0859375 106.875 C63.53163112303717 106.875, -25.022675253925655 106.875, -152.0859375 106.875 M152.0859375 106.875 C37.32984285577113 106.875, -77.42625178845773 106.875, -152.0859375 106.875 M-152.0859375 106.875 C-152.0859375 92.28329471948923, -152.0859375 77.69158943897847, -152.0859375 64.125 M-152.0859375 106.875 C-152.0859375 91.8370407439952, -152.0859375 76.79908148799039, -152.0859375 64.125" stroke="#fbb176" stroke-width="1.3" fill="none" stroke-dasharray="0 0"/></g><a href="/vicflora-docs/resources/profile-specimen-map" target="_top"><g class="label name" transform="translate(-89.5625, -97.5)" style=""><foreignObject width="179.125" height="24"><div xmlns="http://www.w3.org/1999/xhtml" style="display: table-cell; white-space: nowrap; line-height: 1.5; max-width: 281px; text-align: start;"><span class="nodeLabel"><p style="color: #e74b0f; font-weight: bold;">Profile_Specimen_MAP</p></span></div></foreignObject></g></a><g class="label attribute-type" transform="translate(-139.5859375, -54.75)" style=""><foreignObject width="20.859375" height="24"><div xmlns="http://www.w3.org/1999/xhtml" style="display: table-cell; white-space: nowrap; line-height: 1.5; max-width: 120px; text-align: start;"><span class="nodeLabel"><p>int</p></span></div></foreignObject></g><g class="label attribute-name" transform="translate(-93.7265625, -54.75)" style=""><foreignObject width="14.609375" height="24"><div xmlns="http://www.w3.org/1999/xhtml" style="display: table-cell; white-space: nowrap; line-height: 1.5; max-width: 114px; text-align: start;"><span class="nodeLabel"><p>id</p></span></div></foreignObject></g><g class="label attribute-keys" transform="translate(31.0234375, -54.75)" style=""><foreignObject width="20.140625" height="24"><div xmlns="http://www.w3.org/1999/xhtml" style="display: table-cell; white-space: nowrap; line-height: 1.5; max-width: 121px; text-align: start;"><span class="nodeLabel"><p>PK</p></span></div></foreignObject></g><g class="label attribute-comment" transform="translate(76.1640625, -54.75)" style=""><foreignObject width="0" height="0"><div xmlns="http://www.w3.org/1999/xhtml" style="display: table-cell; white-space: nowrap; line-height: 1.5; max-width: 100px; text-align: start;"><span class="nodeLabel"></span></div></foreignObject></g><g class="label attribute-type" transform="translate(-139.5859375, -12)" style=""><foreignObject width="20.859375" height="24"><div xmlns="http://www.w3.org/1999/xhtml" style="display: table-cell; white-space: nowrap; line-height: 1.5; max-width: 120px; text-align: start;"><span class="nodeLabel"><p>int</p></span></div></foreignObject></g><g class="label attribute-name" transform="translate(-93.7265625, -12)" style=""><foreignObject width="73.140625" height="24"><div xmlns="http://www.w3.org/1999/xhtml" style="display: table-cell; white-space: nowrap; line-height: 1.5; max-width: 173px; text-align: start;"><span class="nodeLabel"><p>profile_id</p></span></div></foreignObject></g><g class="label attribute-keys" transform="translate(31.0234375, -12)" style=""><foreignObject width="19.703125" height="24"><div xmlns="http://www.w3.org/1999/xhtml" style="display: table-cell; white-space: nowrap; line-height: 1.5; max-width: 120px; text-align: start;"><span class="nodeLabel"><p>FK</p></span></div></foreignObject></g><g class="label attribute-comment" transform="translate(76.1640625, -12)" style=""><foreignObject width="0" height="0"><div xmlns="http://www.w3.org/1999/xhtml" style="display: table-cell; white-space: nowrap; line-height: 1.5; max-width: 100px; text-align: start;"><span class="nodeLabel"></span></div></foreignObject></g><g class="label attribute-type" transform="translate(-139.5859375, 30.75)" style=""><foreignObject width="20.859375" height="24"><div xmlns="http://www.w3.org/1999/xhtml" style="display: table-cell; white-space: nowrap; line-height: 1.5; max-width: 120px; text-align: start;"><span class="nodeLabel"><p>int</p></span></div></foreignObject></g><g class="label attribute-name" transform="translate(-93.7265625, 30.75)" style=""><foreignObject width="99.75" height="24"><div xmlns="http://www.w3.org/1999/xhtml" style="display: table-cell; white-space: nowrap; line-height: 1.5; max-width: 200px; text-align: start;"><span class="nodeLabel"><p>specimen_id</p></span></div></foreignObject></g><g class="label attribute-keys" transform="translate(31.0234375, 30.75)" style=""><foreignObject width="19.703125" height="24"><div xmlns="http://www.w3.org/1999/xhtml" style="display: table-cell; white-space: nowrap; line-height: 1.5; max-width: 120px; text-align: start;"><span class="nodeLabel"><p>FK</p></span></div></foreignObject></g><g class="label attribute-comment" transform="translate(76.1640625, 30.75)" style=""><foreignObject width="0" height="0"><div xmlns="http://www.w3.org/1999/xhtml" style="display: table-cell; white-space: nowrap; line-height: 1.5; max-width: 100px; text-align: start;"><span class="nodeLabel"></span></div></foreignObject></g><g class="label attribute-type" transform="translate(-139.5859375, 73.5)" style=""><foreignObject width="20.859375" height="24"><div xmlns="http://www.w3.org/1999/xhtml" style="display: table-cell; white-space: nowrap; line-height: 1.5; max-width: 120px; text-align: start;"><span class="nodeLabel"><p>int</p></span></div></foreignObject></g><g class="label attribute-name" transform="translate(-93.7265625, 73.5)" style=""><foreignObject width="81.640625" height="24"><div xmlns="http://www.w3.org/1999/xhtml" style="display: table-cell; white-space: nowrap; line-height: 1.5; max-width: 183px; text-align: start;"><span class="nodeLabel"><p>sort_order</p></span></div></foreignObject></g><g class="label attribute-keys" transform="translate(31.0234375, 73.5)" style=""><foreignObject width="0" height="0"><div xmlns="http://www.w3.org/1999/xhtml" style="display: table-cell; white-space: nowrap; line-height: 1.5; max-width: 100px; text-align: start;"><span class="nodeLabel"></span></div></foreignObject></g><g class="label attribute-comment" transform="translate(76.1640625, 73.5)" style=""><foreignObject width="63.421875" height="24"><div xmlns="http://www.w3.org/1999/xhtml" style="display: table-cell; white-space: nowrap; line-height: 1.5; max-width: 162px; text-align: start;"><span class="nodeLabel"><p>nullable</p></span></div></foreignObject></g><g class="divider"><path d="M-152.0859375 -64.12505 L-152.0859375 -64.12495 L152.0859375 -64.12495 L152.0859375 -64.12505" stroke="none" stroke-width="0" fill="#ffead5" fill-rule="evenodd"/><path d="M-152.0859375 -64.12505 C-152.0859375 -64.12502281544756, -152.0859375 -64.12499563089513, -152.0859375 -64.12495 M-152.0859375 -64.12505 C-152.0859375 -64.12501740069575, -152.0859375 -64.1249848013915, -152.0859375 -64.12495 M-152.0859375 -64.12495 C-31.92337217630343 -64.12495, 88.23919314739314 -64.12495, 152.0859375 -64.12495 M-152.0859375 -64.12495 C-81.57558796187188 -64.12495, -11.06523842374375 -64.12495, 152.0859375 -64.12495 M152.0859375 -64.12495 C152.0859375 -64.1249717261678, 152.0859375 -64.1249934523356, 152.0859375 -64.12505 M152.0859375 -64.12495 C152.0859375 -64.12497852093732, 152.0859375 -64.12500704187464, 152.0859375 -64.12505 M152.0859375 -64.12505 C72.0436775393198 -64.12505, -7.998582421360396 -64.12505, -152.0859375 -64.12505 M152.0859375 -64.12505 C54.25032155146687 -64.12505, -43.585294397066264 -64.12505, -152.0859375 -64.12505" stroke="#fbb176" stroke-width="1.3" fill="none" stroke-dasharray="0 0"/></g><g class="divider"><path d="M-106.2266125 -64.125 L-106.2265125 -64.125 L-106.2265125 106.875 L-106.2266125 106.875" stroke="none" stroke-width="0" fill="#ffead5" fill-rule="evenodd"/><path d="M-106.2266125 -64.125 C-106.2265886554687 -64.125, -106.22656481093739 -64.125, -106.2265125 -64.125 M-106.2266125 -64.125 C-106.2265874424921 -64.125, -106.22656238498422 -64.125, -106.2265125 -64.125 M-106.2265125 -64.125 C-106.2265125 -23.01714298581843, -106.2265125 18.090714028363138, -106.2265125 106.875 M-106.2265125 -64.125 C-106.2265125 -0.3407506921286938, -106.2265125 63.44349861574261, -106.2265125 106.875 M-106.2265125 106.875 C-106.22655197666555 106.875, -106.22659145333108 106.875, -106.2266125 106.875 M-106.2265125 106.875 C-106.22654706822712 106.875, -106.22658163645424 106.875, -106.2266125 106.875 M-106.2266125 106.875 C-106.2266125 71.80368328816466, -106.2266125 36.732366576329326, -106.2266125 -64.125 M-106.2266125 106.875 C-106.2266125 46.967300932895306, -106.2266125 -12.940398134209389, -106.2266125 -64.125" stroke="#fbb176" stroke-width="1.3" fill="none" stroke-dasharray="0 0"/></g><g class="divider"><path d="M18.5233875 -64.125 L18.5234875 -64.125 L18.5234875 106.875 L18.5233875 106.875" stroke="none" stroke-width="0" fill="#ffead5" fill-rule="evenodd"/><path d="M18.5233875 -64.125 C18.523425087278042 -64.125, 18.52346267455609 -64.125, 18.5234875 -64.125 M18.5233875 -64.125 C18.52341789462908 -64.125, 18.523448289258162 -64.125, 18.5234875 -64.125 M18.5234875 -64.125 C18.5234875 -12.049162054677645, 18.5234875 40.02667589064471, 18.5234875 106.875 M18.5234875 -64.125 C18.5234875 -6.492371290828551, 18.5234875 51.1402574183429, 18.5234875 106.875 M18.5234875 106.875 C18.523457807971987 106.875, 18.523428115943975 106.875, 18.5233875 106.875 M18.5234875 106.875 C18.52345998664844 106.875, 18.523432473296875 106.875, 18.5233875 106.875 M18.5233875 106.875 C18.5233875 56.626009679278226, 18.5233875 6.377019358556453, 18.5233875 -64.125 M18.5233875 106.875 C18.5233875 72.16496928209096, 18.5233875 37.454938564181944, 18.5233875 -64.125" stroke="#fbb176" stroke-width="1.3" fill="none" stroke-dasharray="0 0"/></g><g class="divider"><path d="M63.6640125 -64.125 L63.6641125 -64.125 L63.6641125 106.875 L63.6640125 106.875" stroke="none" stroke-width="0" fill="#ffead5" fill-rule="evenodd"/><path d="M63.6640125 -64.125 C63.664052099378935 -64.125, 63.66409169875788 -64.125, 63.6641125 -64.125 M63.6640125 -64.125 C63.664038598721994 -64.125, 63.664064697444 -64.125, 63.6641125 -64.125 M63.6641125 -64.125 C63.6641125 -17.68113249035273, 63.6641125 28.76273501929454, 63.6641125 106.875 M63.6641125 -64.125 C63.6641125 -14.47017705554569, 63.6641125 35.18464588890862, 63.6641125 106.875 M63.6641125 106.875 C63.66407714996218 106.875, 63.66404179992436 106.875, 63.6640125 106.875 M63.6641125 106.875 C63.664087729765576 106.875, 63.664062959531144 106.875, 63.6640125 106.875 M63.6640125 106.875 C63.6640125 52.40917134528521, 63.6640125 -2.056657309429582, 63.6640125 -64.125 M63.6640125 106.875 C63.6640125 71.33248612001859, 63.6640125 35.78997224003717, 63.6640125 -64.125" stroke="#fbb176" stroke-width="1.3" fill="none" stroke-dasharray="0 0"/></g><g class="divider"><path d="M-152.0859375 -64.12505 L-152.0859375 -64.12495 L152.0859375 -64.12495 L152.0859375 -64.12505" stroke="none" stroke-width="0" fill="#ffead5" fill-rule="evenodd"/><path d="M-152.0859375 -64.12505 C-152.0859375 -64.12502187114283, -152.0859375 -64.12499374228565, -152.0859375 -64.12495 M-152.0859375 -64.12505 C-152.0859375 -64.1250239804694, -152.0859375 -64.12499796093879, -152.0859375 -64.12495 M-152.0859375 -64.12495 C-49.05896493870816 -64.12495, 53.968007622583684 -64.12495, 152.0859375 -64.12495 M-152.0859375 -64.12495 C-80.84189370854244 -64.12495, -9.597849917084886 -64.12495, 152.0859375 -64.12495 M152.0859375 -64.12495 C152.0859375 -64.1249778874673, 152.0859375 -64.12500577493458, 152.0859375 -64.12505 M152.0859375 -64.12495 C152.0859375 -64.12497299411541, 152.0859375 -64.12499598823084, 152.0859375 -64.12505 M152.0859375 -64.12505 C59.43819783637714 -64.12505, -33.209541827245715 -64.12505, -152.0859375 -64.12505 M152.0859375 -64.12505 C74.69479311035848 -64.12505, -2.69635127928305 -64.12505, -152.0859375 -64.12505" stroke="#fbb176" stroke-width="1.3" fill="none" stroke-dasharray="0 0"/></g></g><g class="node default" id="my-svg-entity-Specimen-2" data-look="classic" transform="translate(200.97265625, 640)"><g class="outer-path" style=""><path d="M-179.5078125 -128.25 L179.5078125 -128.25 L179.5078125 128.25 L-179.5078125 128.25" stroke="none" stroke-width="0" fill="#ffead5"/><path d="M-179.5078125 -128.25 C-38.34303955233892 -128.25, 102.82173339532216 -128.25, 179.5078125 -128.25 M-179.5078125 -128.25 C-74.70567813841782 -128.25, 30.096456223164353 -128.25, 179.5078125 -128.25 M179.5078125 -128.25 C179.5078125 -43.96026780796578, 179.5078125 40.329464384068444, 179.5078125 128.25 M179.5078125 -128.25 C179.5078125 -52.18954866157405, 179.5078125 23.870902676851898, 179.5078125 128.25 M179.5078125 128.25 C47.907615940163765 128.25, -83.69258061967247 128.25, -179.5078125 128.25 M179.5078125 128.25 C68.04255617708384 128.25, -43.42270014583232 128.25, -179.5078125 128.25 M-179.5078125 128.25 C-179.5078125 63.57063206360006, -179.5078125 -1.1087358727998833, -179.5078125 -128.25 M-179.5078125 128.25 C-179.5078125 31.99332788655221, -179.5078125 -64.26334422689558, -179.5078125 -128.25" stroke="#fbb176" stroke-width="1.3" fill="none" stroke-dasharray="0 0"/></g><g style="" class="row-rect-odd"><path d="M-179.5078125 -85.5 L179.5078125 -85.5 L179.5078125 -42.75 L-179.5078125 -42.75" stroke="none" stroke-width="0" fill="hsl(30, 100%, 100%)"/><path d="M-179.5078125 -85.5 C-55.80832403464248 -85.5, 67.89116443071504 -85.5, 179.5078125 -85.5 M-179.5078125 -85.5 C-86.39782329160978 -85.5, 6.712165916780435 -85.5, 179.5078125 -85.5 M179.5078125 -85.5 C179.5078125 -75.05071614223229, 179.5078125 -64.60143228446458, 179.5078125 -42.75 M179.5078125 -85.5 C179.5078125 -73.84272687917495, 179.5078125 -62.185453758349894, 179.5078125 -42.75 M179.5078125 -42.75 C78.93418017668026 -42.75, -21.639452146639485 -42.75, -179.5078125 -42.75 M179.5078125 -42.75 C55.873493030420306 -42.75, -67.76082643915939 -42.75, -179.5078125 -42.75 M-179.5078125 -42.75 C-179.5078125 -55.91768354630612, -179.5078125 -69.08536709261224, -179.5078125 -85.5 M-179.5078125 -42.75 C-179.5078125 -52.10361672441838, -179.5078125 -61.45723344883676, -179.5078125 -85.5" stroke="#fbb176" stroke-width="1.3" fill="none" stroke-dasharray="0 0"/></g><g style="" class="row-rect-even"><path d="M-179.5078125 -42.75 L179.5078125 -42.75 L179.5078125 0 L-179.5078125 0" stroke="none" stroke-width="0" fill="hsl(30, 100%, 96.7647058824%)"/><path d="M-179.5078125 -42.75 C-72.4211284006471 -42.75, 34.66555569870579 -42.75, 179.5078125 -42.75 M-179.5078125 -42.75 C-74.6035941872539 -42.75, 30.30062412549219 -42.75, 179.5078125 -42.75 M179.5078125 -42.75 C179.5078125 -29.01776947725781, 179.5078125 -15.285538954515623, 179.5078125 0 M179.5078125 -42.75 C179.5078125 -31.049500450692108, 179.5078125 -19.34900090138422, 179.5078125 0 M179.5078125 0 C81.48121920889626 0, -16.545374082207474 0, -179.5078125 0 M179.5078125 0 C68.43162304697378 0, -42.644566406052434 0, -179.5078125 0 M-179.5078125 0 C-179.5078125 -10.002065886688694, -179.5078125 -20.004131773377388, -179.5078125 -42.75 M-179.5078125 0 C-179.5078125 -9.600355717141584, -179.5078125 -19.200711434283168, -179.5078125 -42.75" stroke="#fbb176" stroke-width="1.3" fill="none" stroke-dasharray="0 0"/></g><g style="" class="row-rect-odd"><path d="M-179.5078125 0 L179.5078125 0 L179.5078125 42.75 L-179.5078125 42.75" stroke="none" stroke-width="0" fill="hsl(30, 100%, 100%)"/><path d="M-179.5078125 0 C-75.63278673869517 0, 28.242239022609652 0, 179.5078125 0 M-179.5078125 0 C-56.193296862440576 0, 67.12121877511885 0, 179.5078125 0 M179.5078125 0 C179.5078125 16.79611023370256, 179.5078125 33.59222046740512, 179.5078125 42.75 M179.5078125 0 C179.5078125 12.692610468065068, 179.5078125 25.385220936130136, 179.5078125 42.75 M179.5078125 42.75 C98.55245625309762 42.75, 17.597100006195234 42.75, -179.5078125 42.75 M179.5078125 42.75 C53.6841894143614 42.75, -72.1394336712772 42.75, -179.5078125 42.75 M-179.5078125 42.75 C-179.5078125 31.19639309788135, -179.5078125 19.642786195762703, -179.5078125 0 M-179.5078125 42.75 C-179.5078125 28.88394745997165, -179.5078125 15.017894919943306, -179.5078125 0" stroke="#fbb176" stroke-width="1.3" fill="none" stroke-dasharray="0 0"/></g><g style="" class="row-rect-even"><path d="M-179.5078125 42.75 L179.5078125 42.75 L179.5078125 85.5 L-179.5078125 85.5" stroke="none" stroke-width="0" fill="hsl(30, 100%, 96.7647058824%)"/><path d="M-179.5078125 42.75 C-63.05867618671414 42.75, 53.390460126571725 42.75, 179.5078125 42.75 M-179.5078125 42.75 C-81.85847651480564 42.75, 15.79085947038871 42.75, 179.5078125 42.75 M179.5078125 42.75 C179.5078125 53.59737635576427, 179.5078125 64.44475271152854, 179.5078125 85.5 M179.5078125 42.75 C179.5078125 54.647593099596655, 179.5078125 66.54518619919331, 179.5078125 85.5 M179.5078125 85.5 C96.58972746196548 85.5, 13.671642423930962 85.5, -179.5078125 85.5 M179.5078125 85.5 C41.78532965042396 85.5, -95.93715319915208 85.5, -179.5078125 85.5 M-179.5078125 85.5 C-179.5078125 71.51950660351177, -179.5078125 57.539013207023544, -179.5078125 42.75 M-179.5078125 85.5 C-179.5078125 71.1084120848011, -179.5078125 56.71682416960219, -179.5078125 42.75" stroke="#fbb176" stroke-width="1.3" fill="none" stroke-dasharray="0 0"/></g><g style="" class="row-rect-odd"><path d="M-179.5078125 85.5 L179.5078125 85.5 L179.5078125 128.25 L-179.5078125 128.25" stroke="none" stroke-width="0" fill="hsl(30, 100%, 100%)"/><path d="M-179.5078125 85.5 C-89.82196414151161 85.5, -0.1361157830232287 85.5, 179.5078125 85.5 M-179.5078125 85.5 C-99.39398920812086 85.5, -19.280165916241714 85.5, 179.5078125 85.5 M179.5078125 85.5 C179.5078125 99.14962447401595, 179.5078125 112.79924894803192, 179.5078125 128.25 M179.5078125 85.5 C179.5078125 98.1265413890714, 179.5078125 110.7530827781428, 179.5078125 128.25 M179.5078125 128.25 C101.81723168598012 128.25, 24.126650871960237 128.25, -179.5078125 128.25 M179.5078125 128.25 C47.4730282103973 128.25, -84.5617560792054 128.25, -179.5078125 128.25 M-179.5078125 128.25 C-179.5078125 112.79299767818513, -179.5078125 97.33599535637026, -179.5078125 85.5 M-179.5078125 128.25 C-179.5078125 118.74493158246261, -179.5078125 109.23986316492523, -179.5078125 85.5" stroke="#fbb176" stroke-width="1.3" fill="none" stroke-dasharray="0 0"/></g><a href="/vicflora-docs/resources/specimen" target="_top"><g class="label name" transform="translate(-39.484375, -118.875)" style=""><foreignObject width="78.96875" height="24"><div xmlns="http://www.w3.org/1999/xhtml" style="display: table-cell; white-space: nowrap; line-height: 1.5; max-width: 179px; text-align: start;"><span class="nodeLabel"><p style="color: #e74b0f; font-weight: bold;">Specimen</p></span></div></foreignObject></g></a><g class="label attribute-type" transform="translate(-167.0078125, -76.125)" style=""><foreignObject width="20.859375" height="24"><div xmlns="http://www.w3.org/1999/xhtml" style="display: table-cell; white-space: nowrap; line-height: 1.5; max-width: 120px; text-align: start;"><span class="nodeLabel"><p>int</p></span></div></foreignObject></g><g class="label attribute-name" transform="translate(-96.0703125, -76.125)" style=""><foreignObject width="14.609375" height="24"><div xmlns="http://www.w3.org/1999/xhtml" style="display: table-cell; white-space: nowrap; line-height: 1.5; max-width: 114px; text-align: start;"><span class="nodeLabel"><p>id</p></span></div></foreignObject></g><g class="label attribute-keys" transform="translate(58.4453125, -76.125)" style=""><foreignObject width="20.140625" height="24"><div xmlns="http://www.w3.org/1999/xhtml" style="display: table-cell; white-space: nowrap; line-height: 1.5; max-width: 121px; text-align: start;"><span class="nodeLabel"><p>PK</p></span></div></foreignObject></g><g class="label attribute-comment" transform="translate(103.5859375, -76.125)" style=""><foreignObject width="0" height="0"><div xmlns="http://www.w3.org/1999/xhtml" style="display: table-cell; white-space: nowrap; line-height: 1.5; max-width: 100px; text-align: start;"><span class="nodeLabel"></span></div></foreignObject></g><g class="label attribute-type" transform="translate(-167.0078125, -33.375)" style=""><foreignObject width="45.9375" height="24"><div xmlns="http://www.w3.org/1999/xhtml" style="display: table-cell; white-space: nowrap; line-height: 1.5; max-width: 145px; text-align: start;"><span class="nodeLabel"><p>string</p></span></div></foreignObject></g><g class="label attribute-name" transform="translate(-96.0703125, -33.375)" style=""><foreignObject width="127.296875" height="24"><div xmlns="http://www.w3.org/1999/xhtml" style="display: table-cell; white-space: nowrap; line-height: 1.5; max-width: 227px; text-align: start;"><span class="nodeLabel"><p>institution_code</p></span></div></foreignObject></g><g class="label attribute-keys" transform="translate(58.4453125, -33.375)" style=""><foreignObject width="0" height="0"><div xmlns="http://www.w3.org/1999/xhtml" style="display: table-cell; white-space: nowrap; line-height: 1.5; max-width: 100px; text-align: start;"><span class="nodeLabel"></span></div></foreignObject></g><g class="label attribute-comment" transform="translate(103.5859375, -33.375)" style=""><foreignObject width="63.421875" height="24"><div xmlns="http://www.w3.org/1999/xhtml" style="display: table-cell; white-space: nowrap; line-height: 1.5; max-width: 162px; text-align: start;"><span class="nodeLabel"><p>nullable</p></span></div></foreignObject></g><g class="label attribute-type" transform="translate(-167.0078125, 9.375)" style=""><foreignObject width="45.9375" height="24"><div xmlns="http://www.w3.org/1999/xhtml" style="display: table-cell; white-space: nowrap; line-height: 1.5; max-width: 145px; text-align: start;"><span class="nodeLabel"><p>string</p></span></div></foreignObject></g><g class="label attribute-name" transform="translate(-96.0703125, 9.375)" style=""><foreignObject width="123.359375" height="24"><div xmlns="http://www.w3.org/1999/xhtml" style="display: table-cell; white-space: nowrap; line-height: 1.5; max-width: 223px; text-align: start;"><span class="nodeLabel"><p>collection_code</p></span></div></foreignObject></g><g class="label attribute-keys" transform="translate(58.4453125, 9.375)" style=""><foreignObject width="0" height="0"><div xmlns="http://www.w3.org/1999/xhtml" style="display: table-cell; white-space: nowrap; line-height: 1.5; max-width: 100px; text-align: start;"><span class="nodeLabel"></span></div></foreignObject></g><g class="label attribute-comment" transform="translate(103.5859375, 9.375)" style=""><foreignObject width="63.421875" height="24"><div xmlns="http://www.w3.org/1999/xhtml" style="display: table-cell; white-space: nowrap; line-height: 1.5; max-width: 162px; text-align: start;"><span class="nodeLabel"><p>nullable</p></span></div></foreignObject></g><g class="label attribute-type" transform="translate(-167.0078125, 52.125)" style=""><foreignObject width="45.9375" height="24"><div xmlns="http://www.w3.org/1999/xhtml" style="display: table-cell; white-space: nowrap; line-height: 1.5; max-width: 145px; text-align: start;"><span class="nodeLabel"><p>string</p></span></div></foreignObject></g><g class="label attribute-name" transform="translate(-96.0703125, 52.125)" style=""><foreignObject width="129.515625" height="24"><div xmlns="http://www.w3.org/1999/xhtml" style="display: table-cell; white-space: nowrap; line-height: 1.5; max-width: 230px; text-align: start;"><span class="nodeLabel"><p>catalog_number</p></span></div></foreignObject></g><g class="label attribute-keys" transform="translate(58.4453125, 52.125)" style=""><foreignObject width="0" height="0"><div xmlns="http://www.w3.org/1999/xhtml" style="display: table-cell; white-space: nowrap; line-height: 1.5; max-width: 100px; text-align: start;"><span class="nodeLabel"></span></div></foreignObject></g><g class="label attribute-comment" transform="translate(103.5859375, 52.125)" style=""><foreignObject width="63.421875" height="24"><div xmlns="http://www.w3.org/1999/xhtml" style="display: table-cell; white-space: nowrap; line-height: 1.5; max-width: 162px; text-align: start;"><span class="nodeLabel"><p>nullable</p></span></div></foreignObject></g><g class="label attribute-type" transform="translate(-167.0078125, 94.875)" style=""><foreignObject width="42.875" height="24"><div xmlns="http://www.w3.org/1999/xhtml" style="display: table-cell; white-space: nowrap; line-height: 1.5; max-width: 143px; text-align: start;"><span class="nodeLabel"><p>jsonb</p></span></div></foreignObject></g><g class="label attribute-name" transform="translate(-96.0703125, 94.875)" style=""><foreignObject width="77.546875" height="24"><div xmlns="http://www.w3.org/1999/xhtml" style="display: table-cell; white-space: nowrap; line-height: 1.5; max-width: 178px; text-align: start;"><span class="nodeLabel"><p>metadata</p></span></div></foreignObject></g><g class="label attribute-keys" transform="translate(58.4453125, 94.875)" style=""><foreignObject width="0" height="0"><div xmlns="http://www.w3.org/1999/xhtml" style="display: table-cell; white-space: nowrap; line-height: 1.5; max-width: 100px; text-align: start;"><span class="nodeLabel"></span></div></foreignObject></g><g class="label attribute-comment" transform="translate(103.5859375, 94.875)" style=""><foreignObject width="63.421875" height="24"><div xmlns="http://www.w3.org/1999/xhtml" style="display: table-cell; white-space: nowrap; line-height: 1.5; max-width: 162px; text-align: start;"><span class="nodeLabel"><p>nullable</p></span></div></foreignObject></g><g class="divider"><path d="M-179.5078125 -85.50005 L-179.5078125 -85.49995 L179.5078125 -85.49995 L179.5078125 -85.50005" stroke="none" stroke-width="0" fill="#ffead5" fill-rule="evenodd"/><path d="M-179.5078125 -85.50005 C-179.5078125 -85.50002174643636, -179.5078125 -85.4999934928727, -179.5078125 -85.49995 M-179.5078125 -85.50005 C-179.5078125 -85.50002257170199, -179.5078125 -85.49999514340396, -179.5078125 -85.49995 M-179.5078125 -85.49995 C-79.33004619927935 -85.49995, 20.847720101441297 -85.49995, 179.5078125 -85.49995 M-179.5078125 -85.49995 C-73.25777346072697 -85.49995, 32.99226557854607 -85.49995, 179.5078125 -85.49995 M179.5078125 -85.49995 C179.5078125 -85.4999708639794, 179.5078125 -85.49999172795879, 179.5078125 -85.50005 M179.5078125 -85.49995 C179.5078125 -85.49997678447104, 179.5078125 -85.50000356894209, 179.5078125 -85.50005 M179.5078125 -85.50005 C36.777993571807 -85.50005, -105.951825356386 -85.50005, -179.5078125 -85.50005 M179.5078125 -85.50005 C86.8619759872023 -85.50005, -5.783860525595401 -85.50005, -179.5078125 -85.50005" stroke="#fbb176" stroke-width="1.3" fill="none" stroke-dasharray="0 0"/></g><g class="divider"><path d="M-108.5703625 -85.5 L-108.5702625 -85.5 L-108.5702625 128.25 L-108.5703625 128.25" stroke="none" stroke-width="0" fill="#ffead5" fill-rule="evenodd"/><path d="M-108.5703625 -85.5 C-108.5703423353551 -85.5, -108.57032217071018 -85.5, -108.5702625 -85.5 M-108.5703625 -85.5 C-108.57033399417104 -85.5, -108.57030548834207 -85.5, -108.5702625 -85.5 M-108.5702625 -85.5 C-108.5702625 -17.213797679192922, -108.5702625 51.072404641614156, -108.5702625 128.25 M-108.5702625 -85.5 C-108.5702625 -34.70855537823728, -108.5702625 16.082889243525443, -108.5702625 128.25 M-108.5702625 128.25 C-108.57028429279835 128.25, -108.57030608559668 128.25, -108.5703625 128.25 M-108.5702625 128.25 C-108.5703003167411 128.25, -108.5703381334822 128.25, -108.5703625 128.25 M-108.5703625 128.25 C-108.5703625 78.5615377208095, -108.5703625 28.87307544161898, -108.5703625 -85.5 M-108.5703625 128.25 C-108.5703625 46.851065058598024, -108.5703625 -34.54786988280395, -108.5703625 -85.5" stroke="#fbb176" stroke-width="1.3" fill="none" stroke-dasharray="0 0"/></g><g class="divider"><path d="M45.9452625 -85.5 L45.9453625 -85.5 L45.9453625 128.25 L45.9452625 128.25" stroke="none" stroke-width="0" fill="#ffead5" fill-rule="evenodd"/><path d="M45.9452625 -85.5 C45.94528649963498 -85.5, 45.945310499269965 -85.5, 45.9453625 -85.5 M45.9452625 -85.5 C45.94529665044687 -85.5, 45.94533080089375 -85.5, 45.9453625 -85.5 M45.9453625 -85.5 C45.9453625 -29.59927902859367, 45.9453625 26.30144194281266, 45.9453625 128.25 M45.9453625 -85.5 C45.9453625 -7.295438588948002, 45.9453625 70.909122822104, 45.9453625 128.25 M45.9453625 128.25 C45.94534244030574 128.25, 45.94532238061148 128.25, 45.9452625 128.25 M45.9453625 128.25 C45.9453271419731 128.25, 45.945291783946196 128.25, 45.9452625 128.25 M45.9452625 128.25 C45.9452625 48.73507940939747, 45.9452625 -30.779841181205057, 45.9452625 -85.5 M45.9452625 128.25 C45.9452625 59.31950678021363, 45.9452625 -9.610986439572741, 45.9452625 -85.5" stroke="#fbb176" stroke-width="1.3" fill="none" stroke-dasharray="0 0"/></g><g class="divider"><path d="M91.0858875 -85.5 L91.0859875 -85.5 L91.0859875 128.25 L91.0858875 128.25" stroke="none" stroke-width="0" fill="#ffead5" fill-rule="evenodd"/><path d="M91.0858875 -85.5 C91.08592631367732 -85.5, 91.08596512735465 -85.5, 91.0859875 -85.5 M91.0858875 -85.5 C91.0859088087128 -85.5, 91.08593011742559 -85.5, 91.0859875 -85.5 M91.0859875 -85.5 C91.0859875 -0.6882372204097607, 91.0859875 84.12352555918048, 91.0859875 128.25 M91.0859875 -85.5 C91.0859875 -8.3033047376842, 91.0859875 68.8933905246316, 91.0859875 128.25 M91.0859875 128.25 C91.08595183766127 128.25, 91.08591617532254 128.25, 91.0858875 128.25 M91.0859875 128.25 C91.08595277289756 128.25, 91.08591804579511 128.25, 91.0858875 128.25 M91.0858875 128.25 C91.0858875 84.32988954185863, 91.0858875 40.40977908371727, 91.0858875 -85.5 M91.0858875 128.25 C91.0858875 75.97499446401413, 91.0858875 23.69998892802826, 91.0858875 -85.5" stroke="#fbb176" stroke-width="1.3" fill="none" stroke-dasharray="0 0"/></g><g class="divider"><path d="M-179.5078125 -85.50005 L-179.5078125 -85.49995 L179.5078125 -85.49995 L179.5078125 -85.50005" stroke="none" stroke-width="0" fill="#ffead5" fill-rule="evenodd"/><path d="M-179.5078125 -85.50005 C-179.5078125 -85.50002991597276, -179.5078125 -85.5000098319455, -179.5078125 -85.49995 M-179.5078125 -85.50005 C-179.5078125 -85.5000283549325, -179.5078125 -85.500006709865, -179.5078125 -85.49995 M-179.5078125 -85.49995 C-36.60669976760056 -85.49995, 106.29441296479888 -85.49995, 179.5078125 -85.49995 M-179.5078125 -85.49995 C-71.45452175929185 -85.49995, 36.5987689814163 -85.49995, 179.5078125 -85.49995 M179.5078125 -85.49995 C179.5078125 -85.49998293513568, 179.5078125 -85.50001587027137, 179.5078125 -85.50005 M179.5078125 -85.49995 C179.5078125 -85.4999718302164, 179.5078125 -85.49999366043278, 179.5078125 -85.50005 M179.5078125 -85.50005 C41.14206902161763 -85.50005, -97.22367445676474 -85.50005, -179.5078125 -85.50005 M179.5078125 -85.50005 C62.71385985664078 -85.50005, -54.08009278671844 -85.50005, -179.5078125 -85.50005" stroke="#fbb176" stroke-width="1.3" fill="none" stroke-dasharray="0 0"/></g></g><g class="node default" id="my-svg-entity-Entity_Identity_MAP-3" data-look="classic" transform="translate(111.21875, 931.25)"><rect class="basic label-container" style="" x="-99.21875" y="-42" width="198.4375" height="84"/><a href="/vicflora-docs/resources/entity-identity-map" target="_top"><g class="label" style="" transform="translate(-79.21875, -12)"><rect/><foreignObject width="158.4375" height="24"><div xmlns="http://www.w3.org/1999/xhtml" style="display: table-cell; white-space: nowrap; line-height: 1.5; max-width: 200px; text-align: center;"><span class="nodeLabel markdown-node-label"><p style="color: #e74b0f; font-weight: bold;">Entity_Identity_MAP</p></span></div></foreignObject></g></a></g><g class="node default" id="my-svg-entity-ExternalIdentity-4" data-look="classic" transform="translate(111.21875, 1116.25)"><rect class="basic label-container" style="" x="-83.8515625" y="-42" width="167.703125" height="84"/><a href="/vicflora-docs/resources/external-identity" target="_top"><g class="label" style="" transform="translate(-63.8515625, -12)"><rect/><foreignObject width="127.703125" height="24"><div xmlns="http://www.w3.org/1999/xhtml" style="display: table-cell; white-space: nowrap; line-height: 1.5; max-width: 200px; text-align: center;"><span class="nodeLabel markdown-node-label"><p style="color: #e74b0f; font-weight: bold;">ExternalIdentity</p></span></div></foreignObject></g></a></g><g class="node default" id="my-svg-entity-Entity_Source_MAP-5" data-look="classic" transform="translate(346.46875, 931.25)"><rect class="basic label-container" style="" x="-96.03125" y="-42" width="192.0625" height="84"/><a href="/vicflora-docs/resources/entity-source-map" target="_top"><g class="label" style="" transform="translate(-76.03125, -12)"><rect/><foreignObject width="152.0625" height="24"><div xmlns="http://www.w3.org/1999/xhtml" style="display: table-cell; white-space: nowrap; line-height: 1.5; max-width: 200px; text-align: center;"><span class="nodeLabel markdown-node-label"><p style="color: #e74b0f; font-weight: bold;">Entity_Source_MAP</p></span></div></foreignObject></g></a></g><g class="node default" id="my-svg-entity-Reference-6" data-look="classic" transform="translate(346.46875, 1116.25)"><rect class="basic label-container" style="" x="-60.2890625" y="-42" width="120.578125" height="84"/><a href="/vicflora-docs/resources/reference" target="_top"><g class="label" style="" transform="translate(-40.2890625, -12)"><rect/><foreignObject width="80.578125" height="24"><div xmlns="http://www.w3.org/1999/xhtml" style="display: table-cell; white-space: nowrap; line-height: 1.5; max-width: 200px; text-align: center;"><span class="nodeLabel markdown-node-label"><p style="color: #e74b0f; font-weight: bold;">Reference</p></span></div></foreignObject></g></a></g><g class="node default" id="my-svg-entity-Entity_Image_MAP-7" data-look="classic" transform="translate(576.109375, 931.25)"><rect class="basic label-container" style="" x="-93.609375" y="-42" width="187.21875" height="84"/><a href="/vicflora-docs/resources/entity-image-map" target="_top"><g class="label" style="" transform="translate(-73.609375, -12)"><rect/><foreignObject width="147.21875" height="24"><div xmlns="http://www.w3.org/1999/xhtml" style="display: table-cell; white-space: nowrap; line-height: 1.5; max-width: 200px; text-align: center;"><span class="nodeLabel markdown-node-label"><p style="color: #e74b0f; font-weight: bold;">Entity_Image_MAP</p></span></div></foreignObject></g></a></g><g class="node default" id="my-svg-entity-Image-8" data-look="classic" transform="translate(576.109375, 1116.25)"><rect class="basic label-container" style="" x="-50" y="-42" width="100" height="84"/><a href="/vicflora-docs/resources/image" target="_top"><g class="label" style="" transform="translate(-25.0546875, -12)"><rect/><foreignObject width="50.109375" height="24"><div xmlns="http://www.w3.org/1999/xhtml" style="display: table-cell; white-space: nowrap; line-height: 1.5; max-width: 100px; text-align: center;"><span class="nodeLabel markdown-node-label"><p style="color: #e74b0f; font-weight: bold;">Image</p></span></div></foreignObject></g></a></g></g><g class="edgeLabels"><g class="edgeLabel" transform="translate(200.58984375, 146.5)"><g class="label" data-id="id_entity-Profile-0_entity-Profile_Specimen_MAP-1_0" transform="translate(-22.1171875, -10.5)"><foreignObject width="44.234375" height="21"><div xmlns="http://www.w3.org/1999/xhtml" class="labelBkg" style="display: table-cell; white-space: nowrap; line-height: 1.5; max-width: 200px; text-align: center;"><span class="edgeLabel"><p>profile</p></span></div></foreignObject></g></g><g class="edgeLabel" transform="translate(200.73046875, 461.25)"><g class="label" data-id="id_entity-Profile_Specimen_MAP-1_entity-Specimen-2_1" transform="translate(-33.7578125, -10.5)"><foreignObject width="67.515625" height="21"><div xmlns="http://www.w3.org/1999/xhtml" class="labelBkg" style="display: table-cell; white-space: nowrap; line-height: 1.5; max-width: 200px; text-align: center;"><span class="edgeLabel"><p>specimen</p></span></div></foreignObject></g></g><g class="edgeLabel" transform="translate(111.203125, 838.75)"><g class="label" data-id="id_entity-Specimen-2_entity-Entity_Identity_MAP-3_2" transform="translate(-69.984375, -10.5)"><foreignObject width="139.96875" height="21"><div xmlns="http://www.w3.org/1999/xhtml" class="labelBkg" style="display: table-cell; white-space: nowrap; line-height: 1.5; max-width: 200px; text-align: center;"><span class="edgeLabel"><p>morphs as 'linkable'</p></span></div></foreignObject></g></g><g class="edgeLabel" transform="translate(110.8515625, 1023.75)"><g class="label" data-id="id_entity-Entity_Identity_MAP-3_entity-ExternalIdentity-4_3" transform="translate(-55.6328125, -10.5)"><foreignObject width="111.265625" height="21"><div xmlns="http://www.w3.org/1999/xhtml" class="labelBkg" style="display: table-cell; white-space: nowrap; line-height: 1.5; max-width: 200px; text-align: center;"><span class="edgeLabel"><p>externalIdentity</p></span></div></foreignObject></g></g><g class="edgeLabel" transform="translate(346.46875, 838.75)"><g class="label" data-id="id_entity-Specimen-2_entity-Entity_Source_MAP-5_4" transform="translate(-100, -10.5)"><foreignObject width="200" height="21"><div xmlns="http://www.w3.org/1999/xhtml" class="labelBkg" style="display: table; white-space: break-spaces; line-height: 1.5; max-width: 200px; text-align: center; width: 200px;"><span class="edgeLabel"><p>morphs as 'prvenanceable'</p></span></div></foreignObject></g></g><g class="edgeLabel" transform="translate(346.3984375, 1023.75)"><g class="label" data-id="id_entity-Entity_Source_MAP-5_entity-Reference-6_5" transform="translate(-33.4296875, -10.5)"><foreignObject width="66.859375" height="21"><div xmlns="http://www.w3.org/1999/xhtml" class="labelBkg" style="display: table-cell; white-space: nowrap; line-height: 1.5; max-width: 200px; text-align: center;"><span class="edgeLabel"><p>reference</p></span></div></foreignObject></g></g><g class="edgeLabel" transform="translate(576.0703125, 838.75)"><g class="label" data-id="id_entity-Specimen-2_entity-Entity_Image_MAP-7_6" transform="translate(-79.4609375, -10.5)"><foreignObject width="158.921875" height="21"><div xmlns="http://www.w3.org/1999/xhtml" class="labelBkg" style="display: table-cell; white-space: nowrap; line-height: 1.5; max-width: 200px; text-align: center;"><span class="edgeLabel"><p>morphs as 'depictable'</p></span></div></foreignObject></g></g><g class="edgeLabel" transform="translate(575.9140625, 1023.75)"><g class="label" data-id="id_entity-Entity_Image_MAP-7_entity-Image-8_7" transform="translate(-21.8046875, -10.5)"><foreignObject width="43.609375" height="21"><div xmlns="http://www.w3.org/1999/xhtml" class="labelBkg" style="display: table-cell; white-space: nowrap; line-height: 1.5; max-width: 200px; text-align: center;"><span class="edgeLabel"><p>image</p></span></div></foreignObject></g></g></g></svg>