<svg id="my-svg" width="100%" xmlns="http://www.w3.org/2000/svg" xmlns:xlink="http://www.w3.org/1999/xlink" class="erDiagram" style="max-width: 374.594px; background-color: white;" viewBox="4 4 374.59375 715.5" role="graphics-document document" aria-roledescription="er"><g class="edges edgePaths"><path d="M191.296875,225.75L191.296875,326.75" id="my-svg-id_entity-ControlledVocabulary-0_entity-ControlledTerm-1_0" class="edge-thickness-normal edge-pattern-solid relationshipLine" style="undefined;;;undefined" data-edge="true" data-et="edge" data-id="id_entity-ControlledVocabulary-0_entity-ControlledTerm-1_0" data-points="W3sieCI6MTkxLjI5Njg3NSwieSI6MjI1Ljc1fSx7IngiOjE5MS4yOTY4NzUsInkiOjMyNi43NX1d" data-look="classic" marker-start="url(#my-svg_er-onlyOneStart)" marker-end="url(#my-svg_er-oneOrMoreEnd)"/></g><style>#my-svg{font-family:"trebuchet ms",verdana,arial,sans-serif;font-size:16px;fill:#333;}@keyframes edge-animation-frame{from{stroke-dashoffset:0;}}@keyframes dash{to{stroke-dashoffset:0;}}#my-svg .edge-animation-slow{stroke-dasharray:9,5!important;stroke-dashoffset:900;animation:dash 50s linear infinite;stroke-linecap:round;}#my-svg .edge-animation-fast{stroke-dasharray:9,5!important;stroke-dashoffset:900;animation:dash 20s linear infinite;stroke-linecap:round;}#my-svg .error-icon{fill:hsl(210, 100%, 96.7647058824%);}#my-svg .error-text{fill:rgb(16.4999999998, 8.2499999999, 0);stroke:rgb(16.4999999998, 8.2499999999, 0);}#my-svg .edge-thickness-normal{stroke-width:1px;}#my-svg .edge-thickness-thick{stroke-width:3.5px;}#my-svg .edge-pattern-solid{stroke-dasharray:0;}#my-svg .edge-thickness-invisible{stroke-width:0;fill:none;}#my-svg .edge-pattern-dashed{stroke-dasharray:3;}#my-svg .edge-pattern-dotted{stroke-dasharray:2;}#my-svg .marker{fill:#e74b0f;stroke:#e74b0f;}#my-svg .marker.cross{stroke:#e74b0f;}#my-svg svg{font-family:"trebuchet ms",verdana,arial,sans-serif;font-size:16px;}#my-svg p{margin:0;}#my-svg .entityBox{fill:#ffead5;stroke:#fbb176;}#my-svg .relationshipLabelBox{fill:hsl(210, 100%, 96.7647058824%);opacity:0.7;background-color:hsl(210, 100%, 96.7647058824%);}#my-svg .relationshipLabelBox rect{opacity:0.5;}#my-svg .labelBkg{background-color:rgba(238.5000000002, 246.7500000001, 255, 0.5);}#my-svg .edgeLabel{background-color:hsl(-90, 100%, 91.7647058824%);}#my-svg .edgeLabel .label rect{fill:hsl(-90, 100%, 91.7647058824%);}#my-svg .edgeLabel .label text{fill:#333;}#my-svg .edgeLabel .label{fill:#fbb176;font-size:14px;}#my-svg .label{font-family:"trebuchet ms",verdana,arial,sans-serif;color:#333;}#my-svg .edge-pattern-dashed{stroke-dasharray:8,8;}#my-svg .node rect,#my-svg .node circle,#my-svg .node ellipse,#my-svg .node polygon{fill:#ffead5;stroke:#fbb176;stroke-width:1px;}#my-svg .relationshipLine{stroke:#e74b0f;stroke-width:1px;fill:none;}#my-svg .marker{fill:none!important;stroke:#e74b0f!important;stroke-width:1;}#my-svg [data-look=neo].labelBkg{background-color:rgba(238.5000000002, 246.7500000001, 255, 0.5);}#my-svg .node .neo-node{stroke:#fbb176;}#my-svg [data-look="neo"].node rect,#my-svg [data-look="neo"].cluster rect,#my-svg [data-look="neo"].node polygon{stroke:url(#my-svg-gradient);filter:drop-shadow( 1px 2px 2px rgba(185,185,185,1));}#my-svg [data-look="neo"].node path{stroke:url(#my-svg-gradient);stroke-width:1px;}#my-svg [data-look="neo"].node .outer-path{filter:drop-shadow( 1px 2px 2px rgba(185,185,185,1));}#my-svg [data-look="neo"].node .neo-line path{stroke:#fbb176;filter:none;}#my-svg [data-look="neo"].node circle{stroke:url(#my-svg-gradient);filter:drop-shadow( 1px 2px 2px rgba(185,185,185,1));}#my-svg [data-look="neo"].node circle .state-start{fill:#000000;}#my-svg [data-look="neo"].icon-shape .icon{fill:url(#my-svg-gradient);filter:drop-shadow( 1px 2px 2px rgba(185,185,185,1));}#my-svg [data-look="neo"].icon-shape .icon-neo path{stroke:url(#my-svg-gradient);filter:drop-shadow( 1px 2px 2px rgba(185,185,185,1));}#my-svg :root{--mermaid-font-family:"trebuchet ms",verdana,arial,sans-serif;}</style><g><defs><marker id="my-svg_er-onlyOneStart" class="marker onlyOne er" refX="0" refY="9" markerWidth="18" markerHeight="18" orient="auto"><path d="M9,0 L9,18 M15,0 L15,18"/></marker></defs><defs><marker id="my-svg_er-onlyOneEnd" class="marker onlyOne er" refX="18" refY="9" markerWidth="18" markerHeight="18" orient="auto"><path d="M3,0 L3,18 M9,0 L9,18"/></marker></defs><defs><marker id="my-svg_er-zeroOrOneStart" class="marker zeroOrOne er" refX="0" refY="9" markerWidth="30" markerHeight="18" orient="auto"><circle fill="white" cx="21" cy="9" r="6"/><path d="M9,0 L9,18"/></marker></defs><defs><marker id="my-svg_er-zeroOrOneEnd" class="marker zeroOrOne er" refX="30" refY="9" markerWidth="30" markerHeight="18" orient="auto"><circle fill="white" cx="9" cy="9" r="6"/><path d="M21,0 L21,18"/></marker></defs><defs><marker id="my-svg_er-oneOrMoreStart" class="marker oneOrMore er" refX="18" refY="18" markerWidth="45" markerHeight="36" orient="auto"><path d="M0,18 Q 18,0 36,18 Q 18,36 0,18 M42,9 L42,27"/></marker></defs><defs><marker id="my-svg_er-oneOrMoreEnd" class="marker oneOrMore er" refX="27" refY="18" markerWidth="45" markerHeight="36" orient="auto"><path d="M3,9 L3,27 M9,18 Q27,0 45,18 Q27,36 9,18"/></marker></defs><defs><marker id="my-svg_er-zeroOrMoreStart" class="marker zeroOrMore er" refX="18" refY="18" markerWidth="57" markerHeight="36" orient="auto"><circle fill="white" cx="48" cy="18" r="6"/><path d="M0,18 Q18,0 36,18 Q18,36 0,18"/></marker></defs><defs><marker id="my-svg_er-zeroOrMoreEnd" class="marker zeroOrMore er" refX="39" refY="18" markerWidth="57" markerHeight="36" orient="auto"><circle fill="white" cx="9" cy="18" r="6"/><path d="M21,18 Q39,0 57,18 Q39,36 21,18"/></marker></defs></g><defs><filter id="my-svg-drop-shadow" height="130%" width="130%"><feDropShadow dx="4" dy="4" stdDeviation="0" flood-opacity="0.06" flood-color="#000000"/></filter></defs><defs><filter id="my-svg-drop-shadow-small" height="150%" width="150%"><feDropShadow dx="2" dy="2" stdDeviation="0" flood-opacity="0.06" flood-color="#000000"/></filter></defs><linearGradient id="my-svg-gradient" gradientUnits="objectBoundingBox" x1="0%" y1="0%" x2="100%" y2="0%"><stop offset="0%" stop-color="#fbb176" stop-opacity="1"/><stop offset="100%" stop-color="hsl(-90, 60%, 81.7647058824%)" stop-opacity="1"/></linearGradient><g class="subgraphs"/><g class="nodes"><g class="node default" id="my-svg-entity-ControlledVocabulary-0" data-look="classic" transform="translate(191.296875, 118.875)"><g class="outer-path" style=""><path d="M-110.484375 -106.875 L110.484375 -106.875 L110.484375 106.875 L-110.484375 106.875" stroke="none" stroke-width="0" fill="#ffead5"/><path d="M-110.484375 -106.875 C-55.09664539985968 -106.875, 0.2910842002806362 -106.875, 110.484375 -106.875 M-110.484375 -106.875 C-47.35769424459857 -106.875, 15.768986510802861 -106.875, 110.484375 -106.875 M110.484375 -106.875 C110.484375 -49.065670524661186, 110.484375 8.743658950677627, 110.484375 106.875 M110.484375 -106.875 C110.484375 -52.286482246576455, 110.484375 2.3020355068470906, 110.484375 106.875 M110.484375 106.875 C30.623854879839328 106.875, -49.236665240321344 106.875, -110.484375 106.875 M110.484375 106.875 C41.97214210243638 106.875, -26.54009079512724 106.875, -110.484375 106.875 M-110.484375 106.875 C-110.484375 44.53287571019287, -110.484375 -17.809248579614263, -110.484375 -106.875 M-110.484375 106.875 C-110.484375 26.498478819202504, -110.484375 -53.87804236159499, -110.484375 -106.875" stroke="#fbb176" stroke-width="1.3" fill="none" stroke-dasharray="0 0"/></g><g style="" class="row-rect-odd"><path d="M-110.484375 -64.125 L110.484375 -64.125 L110.484375 -21.375 L-110.484375 -21.375" stroke="none" stroke-width="0" fill="hsl(30, 100%, 100%)"/><path d="M-110.484375 -64.125 C-30.04859126947376 -64.125, 50.38719246105248 -64.125, 110.484375 -64.125 M-110.484375 -64.125 C-32.71862232522973 -64.125, 45.04713034954054 -64.125, 110.484375 -64.125 M110.484375 -64.125 C110.484375 -51.047558091665785, 110.484375 -37.97011618333157, 110.484375 -21.375 M110.484375 -64.125 C110.484375 -54.703458849622464, 110.484375 -45.28191769924492, 110.484375 -21.375 M110.484375 -21.375 C23.883995504953674 -21.375, -62.71638399009265 -21.375, -110.484375 -21.375 M110.484375 -21.375 C42.47354728882712 -21.375, -25.53728042234576 -21.375, -110.484375 -21.375 M-110.484375 -21.375 C-110.484375 -37.552539916467055, -110.484375 -53.730079832934116, -110.484375 -64.125 M-110.484375 -21.375 C-110.484375 -37.98113646103312, -110.484375 -54.58727292206623, -110.484375 -64.125" stroke="#fbb176" stroke-width="1.3" fill="none" stroke-dasharray="0 0"/></g><g style="" class="row-rect-even"><path d="M-110.484375 -21.375 L110.484375 -21.375 L110.484375 21.375 L-110.484375 21.375" stroke="none" stroke-width="0" fill="hsl(30, 100%, 96.7647058824%)"/><path d="M-110.484375 -21.375 C-32.651340286310116 -21.375, 45.18169442737977 -21.375, 110.484375 -21.375 M-110.484375 -21.375 C-34.768684662544544 -21.375, 40.94700567491091 -21.375, 110.484375 -21.375 M110.484375 -21.375 C110.484375 -8.712580578887895, 110.484375 3.94983884222421, 110.484375 21.375 M110.484375 -21.375 C110.484375 -5.169427157178095, 110.484375 11.03614568564381, 110.484375 21.375 M110.484375 21.375 C48.85757210351607 21.375, -12.76923079296786 21.375, -110.484375 21.375 M110.484375 21.375 C59.708583419356785 21.375, 8.93279183871357 21.375, -110.484375 21.375 M-110.484375 21.375 C-110.484375 10.838570904361287, -110.484375 0.302141808722574, -110.484375 -21.375 M-110.484375 21.375 C-110.484375 6.8163515283048834, -110.484375 -7.742296943390233, -110.484375 -21.375" stroke="#fbb176" stroke-width="1.3" fill="none" stroke-dasharray="0 0"/></g><g style="" class="row-rect-odd"><path d="M-110.484375 21.375 L110.484375 21.375 L110.484375 64.125 L-110.484375 64.125" stroke="none" stroke-width="0" fill="hsl(30, 100%, 100%)"/><path d="M-110.484375 21.375 C-31.267978202090248 21.375, 47.948418595819504 21.375, 110.484375 21.375 M-110.484375 21.375 C-36.19411549753532 21.375, 38.09614400492936 21.375, 110.484375 21.375 M110.484375 21.375 C110.484375 36.245690260528676, 110.484375 51.11638052105736, 110.484375 64.125 M110.484375 21.375 C110.484375 33.13592304419304, 110.484375 44.896846088386084, 110.484375 64.125 M110.484375 64.125 C28.32560754699982 64.125, -53.83315990600036 64.125, -110.484375 64.125 M110.484375 64.125 C48.454632553654825 64.125, -13.57510989269035 64.125, -110.484375 64.125 M-110.484375 64.125 C-110.484375 50.57748313738452, -110.484375 37.02996627476904, -110.484375 21.375 M-110.484375 64.125 C-110.484375 50.0730064106221, -110.484375 36.0210128212442, -110.484375 21.375" stroke="#fbb176" stroke-width="1.3" fill="none" stroke-dasharray="0 0"/></g><g style="" class="row-rect-even"><path d="M-110.484375 64.125 L110.484375 64.125 L110.484375 106.875 L-110.484375 106.875" stroke="none" stroke-width="0" fill="hsl(30, 100%, 96.7647058824%)"/><path d="M-110.484375 64.125 C-29.498115621238497 64.125, 51.488143757523005 64.125, 110.484375 64.125 M-110.484375 64.125 C-47.11271653475758 64.125, 16.258941930484838 64.125, 110.484375 64.125 M110.484375 64.125 C110.484375 74.14908941316025, 110.484375 84.17317882632051, 110.484375 106.875 M110.484375 64.125 C110.484375 78.6177131861002, 110.484375 93.1104263722004, 110.484375 106.875 M110.484375 106.875 C64.4385495086294 106.875, 18.392724017258786 106.875, -110.484375 106.875 M110.484375 106.875 C48.40453608662538 106.875, -13.675302826749245 106.875, -110.484375 106.875 M-110.484375 106.875 C-110.484375 98.10999177825525, -110.484375 89.34498355651048, -110.484375 64.125 M-110.484375 106.875 C-110.484375 91.46511538115985, -110.484375 76.05523076231968, -110.484375 64.125" stroke="#fbb176" stroke-width="1.3" fill="none" stroke-dasharray="0 0"/></g><a href="/vicflora-docs/resources/controlled-vocabulary" target="_top"><g class="label name" transform="translate(-85.484375, -97.5)" style=""><foreignObject width="170.96875" height="24"><div xmlns="http://www.w3.org/1999/xhtml" style="display: table-cell; white-space: nowrap; line-height: 1.5; max-width: 271px; text-align: start;"><span class="nodeLabel"><p style="color: #e74b0f; font-weight: bold;">ControlledVocabulary</p></span></div></foreignObject></g></a><g class="label attribute-type" transform="translate(-97.984375, -54.75)" style=""><foreignObject width="20.859375" height="24"><div xmlns="http://www.w3.org/1999/xhtml" style="display: table-cell; white-space: nowrap; line-height: 1.5; max-width: 120px; text-align: start;"><span class="nodeLabel"><p>int</p></span></div></foreignObject></g><g class="label attribute-name" transform="translate(-13.317708333333329, -54.75)" style=""><foreignObject width="14.609375" height="24"><div xmlns="http://www.w3.org/1999/xhtml" style="display: table-cell; white-space: nowrap; line-height: 1.5; max-width: 114px; text-align: start;"><span class="nodeLabel"><p>id</p></span></div></foreignObject></g><g class="label attribute-keys" transform="translate(64.11458333333334, -54.75)" style=""><foreignObject width="20.140625" height="24"><div xmlns="http://www.w3.org/1999/xhtml" style="display: table-cell; white-space: nowrap; line-height: 1.5; max-width: 121px; text-align: start;"><span class="nodeLabel"><p>PK</p></span></div></foreignObject></g><g class="label attribute-comment" transform="translate(122.984375, -54.75)" style=""><foreignObject width="0" height="0"><div xmlns="http://www.w3.org/1999/xhtml" style="display: table-cell; white-space: nowrap; line-height: 1.5; max-width: 100px; text-align: start;"><span class="nodeLabel"></span></div></foreignObject></g><g class="label attribute-type" transform="translate(-97.984375, -12)" style=""><foreignObject width="45.9375" height="24"><div xmlns="http://www.w3.org/1999/xhtml" style="display: table-cell; white-space: nowrap; line-height: 1.5; max-width: 145px; text-align: start;"><span class="nodeLabel"><p>string</p></span></div></foreignObject></g><g class="label attribute-name" transform="translate(-13.317708333333329, -12)" style=""><foreignObject width="38.703125" height="24"><div xmlns="http://www.w3.org/1999/xhtml" style="display: table-cell; white-space: nowrap; line-height: 1.5; max-width: 138px; text-align: start;"><span class="nodeLabel"><p>label</p></span></div></foreignObject></g><g class="label attribute-keys" transform="translate(64.11458333333334, -12)" style=""><foreignObject width="0" height="0"><div xmlns="http://www.w3.org/1999/xhtml" style="display: table-cell; white-space: nowrap; line-height: 1.5; max-width: 100px; text-align: start;"><span class="nodeLabel"></span></div></foreignObject></g><g class="label attribute-comment" transform="translate(122.984375, -12)" style=""><foreignObject width="0" height="0"><div xmlns="http://www.w3.org/1999/xhtml" style="display: table-cell; white-space: nowrap; line-height: 1.5; max-width: 100px; text-align: start;"><span class="nodeLabel"></span></div></foreignObject></g><g class="label attribute-type" transform="translate(-97.984375, 30.75)" style=""><foreignObject width="45.9375" height="24"><div xmlns="http://www.w3.org/1999/xhtml" style="display: table-cell; white-space: nowrap; line-height: 1.5; max-width: 145px; text-align: start;"><span class="nodeLabel"><p>string</p></span></div></foreignObject></g><g class="label attribute-name" transform="translate(-13.317708333333329, 30.75)" style=""><foreignObject width="38.59375" height="24"><div xmlns="http://www.w3.org/1999/xhtml" style="display: table-cell; white-space: nowrap; line-height: 1.5; max-width: 139px; text-align: start;"><span class="nodeLabel"><p>code</p></span></div></foreignObject></g><g class="label attribute-keys" transform="translate(64.11458333333334, 30.75)" style=""><foreignObject width="0" height="0"><div xmlns="http://www.w3.org/1999/xhtml" style="display: table-cell; white-space: nowrap; line-height: 1.5; max-width: 100px; text-align: start;"><span class="nodeLabel"></span></div></foreignObject></g><g class="label attribute-comment" transform="translate(122.984375, 30.75)" style=""><foreignObject width="0" height="0"><div xmlns="http://www.w3.org/1999/xhtml" style="display: table-cell; white-space: nowrap; line-height: 1.5; max-width: 100px; text-align: start;"><span class="nodeLabel"></span></div></foreignObject></g><g class="label attribute-type" transform="translate(-97.984375, 73.5)" style=""><foreignObject width="45.9375" height="24"><div xmlns="http://www.w3.org/1999/xhtml" style="display: table-cell; white-space: nowrap; line-height: 1.5; max-width: 145px; text-align: start;"><span class="nodeLabel"><p>string</p></span></div></foreignObject></g><g class="label attribute-name" transform="translate(-13.317708333333329, 73.5)" style=""><foreignObject width="15.46875" height="24"><div xmlns="http://www.w3.org/1999/xhtml" style="display: table-cell; white-space: nowrap; line-height: 1.5; max-width: 115px; text-align: start;"><span class="nodeLabel"><p>iri</p></span></div></foreignObject></g><g class="label attribute-keys" transform="translate(64.11458333333334, 73.5)" style=""><foreignObject width="0" height="0"><div xmlns="http://www.w3.org/1999/xhtml" style="display: table-cell; white-space: nowrap; line-height: 1.5; max-width: 100px; text-align: start;"><span class="nodeLabel"></span></div></foreignObject></g><g class="label attribute-comment" transform="translate(122.984375, 73.5)" style=""><foreignObject width="0" height="0"><div xmlns="http://www.w3.org/1999/xhtml" style="display: table-cell; white-space: nowrap; line-height: 1.5; max-width: 100px; text-align: start;"><span class="nodeLabel"></span></div></foreignObject></g><g class="divider"><path d="M-110.484375 -64.12505 L-110.484375 -64.12495 L110.484375 -64.12495 L110.484375 -64.12505" stroke="none" stroke-width="0" fill="#ffead5" fill-rule="evenodd"/><path d="M-110.484375 -64.12505 C-110.484375 -64.12501500193648, -110.484375 -64.12498000387296, -110.484375 -64.12495 M-110.484375 -64.12505 C-110.484375 -64.12502672731186, -110.484375 -64.12500345462372, -110.484375 -64.12495 M-110.484375 -64.12495 C-31.969837978918363 -64.12495, 46.54469904216327 -64.12495, 110.484375 -64.12495 M-110.484375 -64.12495 C-51.47902678569757 -64.12495, 7.526321428604859 -64.12495, 110.484375 -64.12495 M110.484375 -64.12495 C110.484375 -64.12498720104485, 110.484375 -64.12502440208971, 110.484375 -64.12505 M110.484375 -64.12495 C110.484375 -64.12497959155873, 110.484375 -64.12500918311747, 110.484375 -64.12505 M110.484375 -64.12505 C39.4203399769694 -64.12505, -31.643695046061197 -64.12505, -110.484375 -64.12505 M110.484375 -64.12505 C54.29466444501937 -64.12505, -1.8950461099612568 -64.12505, -110.484375 -64.12505" stroke="#fbb176" stroke-width="1.3" fill="none" stroke-dasharray="0 0"/></g><g class="divider"><path d="M-25.81775833333333 -64.125 L-25.817658333333327 -64.125 L-25.817658333333327 106.875 L-25.81775833333333 106.875" stroke="none" stroke-width="0" fill="#ffead5" fill-rule="evenodd"/><path d="M-25.81775833333333 -64.125 C-25.81773803591558 -64.125, -25.817717738497826 -64.125, -25.817658333333327 -64.125 M-25.81775833333333 -64.125 C-25.817727348559824 -64.125, -25.817696363786315 -64.125, -25.817658333333327 -64.125 M-25.817658333333327 -64.125 C-25.817658333333327 -22.74723983094656, -25.817658333333327 18.630520338106876, -25.817658333333327 106.875 M-25.817658333333327 -64.125 C-25.817658333333327 -19.889432981409207, -25.817658333333327 24.346134037181585, -25.817658333333327 106.875 M-25.817658333333327 106.875 C-25.817695143595095 106.875, -25.817731953856864 106.875, -25.81775833333333 106.875 M-25.817658333333327 106.875 C-25.81769447959282 106.875, -25.817730625852313 106.875, -25.81775833333333 106.875 M-25.81775833333333 106.875 C-25.81775833333333 67.07160562054179, -25.81775833333333 27.268211241083563, -25.81775833333333 -64.125 M-25.81775833333333 106.875 C-25.81775833333333 38.692454095496956, -25.81775833333333 -29.49009180900609, -25.81775833333333 -64.125" stroke="#fbb176" stroke-width="1.3" fill="none" stroke-dasharray="0 0"/></g><g class="divider"><path d="M51.61453333333334 -64.125 L51.614633333333344 -64.125 L51.614633333333344 106.875 L51.61453333333334 106.875" stroke="none" stroke-width="0" fill="#ffead5" fill-rule="evenodd"/><path d="M51.61453333333334 -64.125 C51.61456095907786 -64.125, 51.61458858482239 -64.125, 51.614633333333344 -64.125 M51.61453333333334 -64.125 C51.61457316297427 -64.125, 51.6146129926152 -64.125, 51.614633333333344 -64.125 M51.614633333333344 -64.125 C51.614633333333344 -17.347275844398084, 51.614633333333344 29.430448311203833, 51.614633333333344 106.875 M51.614633333333344 -64.125 C51.614633333333344 3.8115979146746213, 51.614633333333344 71.74819582934924, 51.614633333333344 106.875 M51.614633333333344 106.875 C51.61460616405966 106.875, 51.614578994785965 106.875, 51.61453333333334 106.875 M51.614633333333344 106.875 C51.61461075095067 106.875, 51.61458816856799 106.875, 51.61453333333334 106.875 M51.61453333333334 106.875 C51.61453333333334 64.31019166685218, 51.61453333333334 21.745383333704368, 51.61453333333334 -64.125 M51.61453333333334 106.875 C51.61453333333334 41.12975945469505, 51.61453333333334 -24.615481090609904, 51.61453333333334 -64.125" stroke="#fbb176" stroke-width="1.3" fill="none" stroke-dasharray="0 0"/></g><g class="divider"><path d="M-110.484375 -64.12505 L-110.484375 -64.12495 L110.484375 -64.12495 L110.484375 -64.12505" stroke="none" stroke-width="0" fill="#ffead5" fill-rule="evenodd"/><path d="M-110.484375 -64.12505 C-110.484375 -64.12501121414317, -110.484375 -64.12497242828634, -110.484375 -64.12495 M-110.484375 -64.12505 C-110.484375 -64.12501137983655, -110.484375 -64.12497275967311, -110.484375 -64.12495 M-110.484375 -64.12495 C-66.00232103486704 -64.12495, -21.520267069734075 -64.12495, 110.484375 -64.12495 M-110.484375 -64.12495 C-45.804873953804716 -64.12495, 18.87462709239057 -64.12495, 110.484375 -64.12495 M110.484375 -64.12495 C110.484375 -64.12497860661972, 110.484375 -64.12500721323944, 110.484375 -64.12505 M110.484375 -64.12495 C110.484375 -64.1249719599649, 110.484375 -64.1249939199298, 110.484375 -64.12505 M110.484375 -64.12505 C55.66594289595252 -64.12505, 0.8475107919050373 -64.12505, -110.484375 -64.12505 M110.484375 -64.12505 C37.01443496494099 -64.12505, -36.45550507011802 -64.12505, -110.484375 -64.12505" stroke="#fbb176" stroke-width="1.3" fill="none" stroke-dasharray="0 0"/></g></g><g class="node default" id="my-svg-entity-ControlledTerm-1" data-look="classic" transform="translate(191.296875, 519.125)"><g class="outer-path" style=""><path d="M-179.296875 -192.375 L179.296875 -192.375 L179.296875 192.375 L-179.296875 192.375" stroke="none" stroke-width="0" fill="#ffead5"/><path d="M-179.296875 -192.375 C-61.6770801759661 -192.375, 55.942714648067806 -192.375, 179.296875 -192.375 M-179.296875 -192.375 C-85.25263361804114 -192.375, 8.79160776391771 -192.375, 179.296875 -192.375 M179.296875 -192.375 C179.296875 -84.4276062378034, 179.296875 23.519787524393195, 179.296875 192.375 M179.296875 -192.375 C179.296875 -63.58418312749916, 179.296875 65.20663374500168, 179.296875 192.375 M179.296875 192.375 C83.18452841893199 192.375, -12.92781816213602 192.375, -179.296875 192.375 M179.296875 192.375 C51.16219480533812 192.375, -76.97248538932377 192.375, -179.296875 192.375 M-179.296875 192.375 C-179.296875 58.35357276048731, -179.296875 -75.66785447902538, -179.296875 -192.375 M-179.296875 192.375 C-179.296875 94.50793918535585, -179.296875 -3.359121629288296, -179.296875 -192.375" stroke="#fbb176" stroke-width="1.3" fill="none" stroke-dasharray="0 0"/></g><g style="" class="row-rect-odd"><path d="M-179.296875 -149.625 L179.296875 -149.625 L179.296875 -106.875 L-179.296875 -106.875" stroke="none" stroke-width="0" fill="hsl(30, 100%, 100%)"/><path d="M-179.296875 -149.625 C-104.69418382358731 -149.625, -30.09149264717462 -149.625, 179.296875 -149.625 M-179.296875 -149.625 C-92.07126406289427 -149.625, -4.8456531257885445 -149.625, 179.296875 -149.625 M179.296875 -149.625 C179.296875 -138.96500839665384, 179.296875 -128.30501679330771, 179.296875 -106.875 M179.296875 -149.625 C179.296875 -136.4027994132067, 179.296875 -123.18059882641342, 179.296875 -106.875 M179.296875 -106.875 C62.48557733963672 -106.875, -54.32572032072656 -106.875, -179.296875 -106.875 M179.296875 -106.875 C100.10599603462475 -106.875, 20.915117069249504 -106.875, -179.296875 -106.875 M-179.296875 -106.875 C-179.296875 -121.45877016160352, -179.296875 -136.04254032320705, -179.296875 -149.625 M-179.296875 -106.875 C-179.296875 -123.38184502725426, -179.296875 -139.88869005450852, -179.296875 -149.625" stroke="#fbb176" stroke-width="1.3" fill="none" stroke-dasharray="0 0"/></g><g style="" class="row-rect-even"><path d="M-179.296875 -106.875 L179.296875 -106.875 L179.296875 -64.125 L-179.296875 -64.125" stroke="none" stroke-width="0" fill="hsl(30, 100%, 96.7647058824%)"/><path d="M-179.296875 -106.875 C-64.07822995430442 -106.875, 51.14041509139116 -106.875, 179.296875 -106.875 M-179.296875 -106.875 C-50.5005029584938 -106.875, 78.2958690830124 -106.875, 179.296875 -106.875 M179.296875 -106.875 C179.296875 -95.04325717085229, 179.296875 -83.21151434170457, 179.296875 -64.125 M179.296875 -106.875 C179.296875 -94.06700169939792, 179.296875 -81.25900339879584, 179.296875 -64.125 M179.296875 -64.125 C77.69600149782548 -64.125, -23.904872004349045 -64.125, -179.296875 -64.125 M179.296875 -64.125 C50.74297294015628 -64.125, -77.81092911968744 -64.125, -179.296875 -64.125 M-179.296875 -64.125 C-179.296875 -76.26073987518886, -179.296875 -88.39647975037774, -179.296875 -106.875 M-179.296875 -64.125 C-179.296875 -75.61196883155318, -179.296875 -87.09893766310638, -179.296875 -106.875" stroke="#fbb176" stroke-width="1.3" fill="none" stroke-dasharray="0 0"/></g><g style="" class="row-rect-odd"><path d="M-179.296875 -64.125 L179.296875 -64.125 L179.296875 -21.375 L-179.296875 -21.375" stroke="none" stroke-width="0" fill="hsl(30, 100%, 100%)"/><path d="M-179.296875 -64.125 C-88.82657816642265 -64.125, 1.643718667154701 -64.125, 179.296875 -64.125 M-179.296875 -64.125 C-50.80590568641094 -64.125, 77.68506362717812 -64.125, 179.296875 -64.125 M179.296875 -64.125 C179.296875 -55.34465497712942, 179.296875 -46.564309954258846, 179.296875 -21.375 M179.296875 -64.125 C179.296875 -50.15210303998674, 179.296875 -36.179206079973476, 179.296875 -21.375 M179.296875 -21.375 C70.85096092081963 -21.375, -37.59495315836074 -21.375, -179.296875 -21.375 M179.296875 -21.375 C50.00375275633459 -21.375, -79.28936948733082 -21.375, -179.296875 -21.375 M-179.296875 -21.375 C-179.296875 -36.280699087089786, -179.296875 -51.18639817417957, -179.296875 -64.125 M-179.296875 -21.375 C-179.296875 -30.80454730654787, -179.296875 -40.23409461309574, -179.296875 -64.125" stroke="#fbb176" stroke-width="1.3" fill="none" stroke-dasharray="0 0"/></g><g style="" class="row-rect-even"><path d="M-179.296875 -21.375 L179.296875 -21.375 L179.296875 21.375 L-179.296875 21.375" stroke="none" stroke-width="0" fill="hsl(30, 100%, 96.7647058824%)"/><path d="M-179.296875 -21.375 C-101.69262587297075 -21.375, -24.088376745941503 -21.375, 179.296875 -21.375 M-179.296875 -21.375 C-56.619565665736204 -21.375, 66.05774366852759 -21.375, 179.296875 -21.375 M179.296875 -21.375 C179.296875 -7.701362151170729, 179.296875 5.972275697658542, 179.296875 21.375 M179.296875 -21.375 C179.296875 -9.933496174371733, 179.296875 1.5080076512565341, 179.296875 21.375 M179.296875 21.375 C38.47345186566906 21.375, -102.34997126866188 21.375, -179.296875 21.375 M179.296875 21.375 C63.065702854535914 21.375, -53.16546929092817 21.375, -179.296875 21.375 M-179.296875 21.375 C-179.296875 4.330796239652152, -179.296875 -12.713407520695696, -179.296875 -21.375 M-179.296875 21.375 C-179.296875 11.13274711908672, -179.296875 0.8904942381734386, -179.296875 -21.375" stroke="#fbb176" stroke-width="1.3" fill="none" stroke-dasharray="0 0"/></g><g style="" class="row-rect-odd"><path d="M-179.296875 21.375 L179.296875 21.375 L179.296875 64.125 L-179.296875 64.125" stroke="none" stroke-width="0" fill="hsl(30, 100%, 100%)"/><path d="M-179.296875 21.375 C-66.65123844261203 21.375, 45.99439811477595 21.375, 179.296875 21.375 M-179.296875 21.375 C-78.31966622950543 21.375, 22.65754254098914 21.375, 179.296875 21.375 M179.296875 21.375 C179.296875 37.539008744969834, 179.296875 53.70301748993966, 179.296875 64.125 M179.296875 21.375 C179.296875 29.96609016498612, 179.296875 38.55718032997224, 179.296875 64.125 M179.296875 64.125 C52.5149565151894 64.125, -74.2669619696212 64.125, -179.296875 64.125 M179.296875 64.125 C55.56130971063314 64.125, -68.17425557873372 64.125, -179.296875 64.125 M-179.296875 64.125 C-179.296875 47.529889600356526, -179.296875 30.934779200713052, -179.296875 21.375 M-179.296875 64.125 C-179.296875 52.79953396308407, -179.296875 41.474067926168146, -179.296875 21.375" stroke="#fbb176" stroke-width="1.3" fill="none" stroke-dasharray="0 0"/></g><g style="" class="row-rect-even"><path d="M-179.296875 64.125 L179.296875 64.125 L179.296875 106.875 L-179.296875 106.875" stroke="none" stroke-width="0" fill="hsl(30, 100%, 96.7647058824%)"/><path d="M-179.296875 64.125 C-69.11985991067823 64.125, 41.05715517864354 64.125, 179.296875 64.125 M-179.296875 64.125 C-63.179692257351405 64.125, 52.93749048529719 64.125, 179.296875 64.125 M179.296875 64.125 C179.296875 73.30286978606895, 179.296875 82.4807395721379, 179.296875 106.875 M179.296875 64.125 C179.296875 77.87819232446452, 179.296875 91.63138464892904, 179.296875 106.875 M179.296875 106.875 C38.50749303315743 106.875, -102.28188893368514 106.875, -179.296875 106.875 M179.296875 106.875 C74.06744227995436 106.875, -31.161990440091273 106.875, -179.296875 106.875 M-179.296875 106.875 C-179.296875 97.45510665240663, -179.296875 88.03521330481325, -179.296875 64.125 M-179.296875 106.875 C-179.296875 94.13270771778471, -179.296875 81.39041543556944, -179.296875 64.125" stroke="#fbb176" stroke-width="1.3" fill="none" stroke-dasharray="0 0"/></g><g style="" class="row-rect-odd"><path d="M-179.296875 106.875 L179.296875 106.875 L179.296875 149.625 L-179.296875 149.625" stroke="none" stroke-width="0" fill="hsl(30, 100%, 100%)"/><path d="M-179.296875 106.875 C-71.57262828627418 106.875, 36.15161842745164 106.875, 179.296875 106.875 M-179.296875 106.875 C-101.94055143058345 106.875, -24.58422786116691 106.875, 179.296875 106.875 M179.296875 106.875 C179.296875 120.57744635073912, 179.296875 134.27989270147825, 179.296875 149.625 M179.296875 106.875 C179.296875 121.51112903705788, 179.296875 136.14725807411577, 179.296875 149.625 M179.296875 149.625 C68.95084057002133 149.625, -41.395193859957345 149.625, -179.296875 149.625 M179.296875 149.625 C69.19064721152138 149.625, -40.91558057695724 149.625, -179.296875 149.625 M-179.296875 149.625 C-179.296875 139.87274485226547, -179.296875 130.12048970453094, -179.296875 106.875 M-179.296875 149.625 C-179.296875 134.9081153411243, -179.296875 120.19123068224857, -179.296875 106.875" stroke="#fbb176" stroke-width="1.3" fill="none" stroke-dasharray="0 0"/></g><g style="" class="row-rect-even"><path d="M-179.296875 149.625 L179.296875 149.625 L179.296875 192.375 L-179.296875 192.375" stroke="none" stroke-width="0" fill="hsl(30, 100%, 96.7647058824%)"/><path d="M-179.296875 149.625 C-106.44769678536105 149.625, -33.59851857072209 149.625, 179.296875 149.625 M-179.296875 149.625 C-81.21844385818792 149.625, 16.85998728362415 149.625, 179.296875 149.625 M179.296875 149.625 C179.296875 162.248131044317, 179.296875 174.871262088634, 179.296875 192.375 M179.296875 149.625 C179.296875 159.05597063568985, 179.296875 168.48694127137972, 179.296875 192.375 M179.296875 192.375 C81.79595341167555 192.375, -15.70496817664889 192.375, -179.296875 192.375 M179.296875 192.375 C65.62993168396761 192.375, -48.037011632064775 192.375, -179.296875 192.375 M-179.296875 192.375 C-179.296875 180.03221597420549, -179.296875 167.689431948411, -179.296875 149.625 M-179.296875 192.375 C-179.296875 176.85158940973855, -179.296875 161.3281788194771, -179.296875 149.625" stroke="#fbb176" stroke-width="1.3" fill="none" stroke-dasharray="0 0"/></g><a href="/vicflora-docs/resources/controlled-term" target="_top"><g class="label name" transform="translate(-60.53125, -183)" style=""><foreignObject width="121.0625" height="24"><div xmlns="http://www.w3.org/1999/xhtml" style="display: table-cell; white-space: nowrap; line-height: 1.5; max-width: 222px; text-align: start;"><span class="nodeLabel"><p style="color: #e74b0f; font-weight: bold;">ControlledTerm</p></span></div></foreignObject></g></a><g class="label attribute-type" transform="translate(-166.796875, -140.25)" style=""><foreignObject width="20.859375" height="24"><div xmlns="http://www.w3.org/1999/xhtml" style="display: table-cell; white-space: nowrap; line-height: 1.5; max-width: 120px; text-align: start;"><span class="nodeLabel"><p>int</p></span></div></foreignObject></g><g class="label attribute-name" transform="translate(-77.828125, -140.25)" style=""><foreignObject width="14.609375" height="24"><div xmlns="http://www.w3.org/1999/xhtml" style="display: table-cell; white-space: nowrap; line-height: 1.5; max-width: 114px; text-align: start;"><span class="nodeLabel"><p>id</p></span></div></foreignObject></g><g class="label attribute-keys" transform="translate(58.234375, -140.25)" style=""><foreignObject width="20.140625" height="24"><div xmlns="http://www.w3.org/1999/xhtml" style="display: table-cell; white-space: nowrap; line-height: 1.5; max-width: 121px; text-align: start;"><span class="nodeLabel"><p>PK</p></span></div></foreignObject></g><g class="label attribute-comment" transform="translate(103.375, -140.25)" style=""><foreignObject width="0" height="0"><div xmlns="http://www.w3.org/1999/xhtml" style="display: table-cell; white-space: nowrap; line-height: 1.5; max-width: 100px; text-align: start;"><span class="nodeLabel"></span></div></foreignObject></g><g class="label attribute-type" transform="translate(-166.796875, -97.5)" style=""><foreignObject width="20.859375" height="24"><div xmlns="http://www.w3.org/1999/xhtml" style="display: table-cell; white-space: nowrap; line-height: 1.5; max-width: 120px; text-align: start;"><span class="nodeLabel"><p>int</p></span></div></foreignObject></g><g class="label attribute-name" transform="translate(-77.828125, -97.5)" style=""><foreignObject width="111.0625" height="24"><div xmlns="http://www.w3.org/1999/xhtml" style="display: table-cell; white-space: nowrap; line-height: 1.5; max-width: 211px; text-align: start;"><span class="nodeLabel"><p>vocabulary_id</p></span></div></foreignObject></g><g class="label attribute-keys" transform="translate(58.234375, -97.5)" style=""><foreignObject width="19.703125" height="24"><div xmlns="http://www.w3.org/1999/xhtml" style="display: table-cell; white-space: nowrap; line-height: 1.5; max-width: 120px; text-align: start;"><span class="nodeLabel"><p>FK</p></span></div></foreignObject></g><g class="label attribute-comment" transform="translate(103.375, -97.5)" style=""><foreignObject width="0" height="0"><div xmlns="http://www.w3.org/1999/xhtml" style="display: table-cell; white-space: nowrap; line-height: 1.5; max-width: 100px; text-align: start;"><span class="nodeLabel"></span></div></foreignObject></g><g class="label attribute-type" transform="translate(-166.796875, -54.75)" style=""><foreignObject width="45.9375" height="24"><div xmlns="http://www.w3.org/1999/xhtml" style="display: table-cell; white-space: nowrap; line-height: 1.5; max-width: 145px; text-align: start;"><span class="nodeLabel"><p>string</p></span></div></foreignObject></g><g class="label attribute-name" transform="translate(-77.828125, -54.75)" style=""><foreignObject width="38.703125" height="24"><div xmlns="http://www.w3.org/1999/xhtml" style="display: table-cell; white-space: nowrap; line-height: 1.5; max-width: 138px; text-align: start;"><span class="nodeLabel"><p>label</p></span></div></foreignObject></g><g class="label attribute-keys" transform="translate(58.234375, -54.75)" style=""><foreignObject width="0" height="0"><div xmlns="http://www.w3.org/1999/xhtml" style="display: table-cell; white-space: nowrap; line-height: 1.5; max-width: 100px; text-align: start;"><span class="nodeLabel"></span></div></foreignObject></g><g class="label attribute-comment" transform="translate(103.375, -54.75)" style=""><foreignObject width="0" height="0"><div xmlns="http://www.w3.org/1999/xhtml" style="display: table-cell; white-space: nowrap; line-height: 1.5; max-width: 100px; text-align: start;"><span class="nodeLabel"></span></div></foreignObject></g><g class="label attribute-type" transform="translate(-166.796875, -12)" style=""><foreignObject width="45.9375" height="24"><div xmlns="http://www.w3.org/1999/xhtml" style="display: table-cell; white-space: nowrap; line-height: 1.5; max-width: 145px; text-align: start;"><span class="nodeLabel"><p>string</p></span></div></foreignObject></g><g class="label attribute-name" transform="translate(-77.828125, -12)" style=""><foreignObject width="38.59375" height="24"><div xmlns="http://www.w3.org/1999/xhtml" style="display: table-cell; white-space: nowrap; line-height: 1.5; max-width: 139px; text-align: start;"><span class="nodeLabel"><p>code</p></span></div></foreignObject></g><g class="label attribute-keys" transform="translate(58.234375, -12)" style=""><foreignObject width="0" height="0"><div xmlns="http://www.w3.org/1999/xhtml" style="display: table-cell; white-space: nowrap; line-height: 1.5; max-width: 100px; text-align: start;"><span class="nodeLabel"></span></div></foreignObject></g><g class="label attribute-comment" transform="translate(103.375, -12)" style=""><foreignObject width="0" height="0"><div xmlns="http://www.w3.org/1999/xhtml" style="display: table-cell; white-space: nowrap; line-height: 1.5; max-width: 100px; text-align: start;"><span class="nodeLabel"></span></div></foreignObject></g><g class="label attribute-type" transform="translate(-166.796875, 30.75)" style=""><foreignObject width="45.9375" height="24"><div xmlns="http://www.w3.org/1999/xhtml" style="display: table-cell; white-space: nowrap; line-height: 1.5; max-width: 145px; text-align: start;"><span class="nodeLabel"><p>string</p></span></div></foreignObject></g><g class="label attribute-name" transform="translate(-77.828125, 30.75)" style=""><foreignObject width="15.46875" height="24"><div xmlns="http://www.w3.org/1999/xhtml" style="display: table-cell; white-space: nowrap; line-height: 1.5; max-width: 115px; text-align: start;"><span class="nodeLabel"><p>iri</p></span></div></foreignObject></g><g class="label attribute-keys" transform="translate(58.234375, 30.75)" style=""><foreignObject width="0" height="0"><div xmlns="http://www.w3.org/1999/xhtml" style="display: table-cell; white-space: nowrap; line-height: 1.5; max-width: 100px; text-align: start;"><span class="nodeLabel"></span></div></foreignObject></g><g class="label attribute-comment" transform="translate(103.375, 30.75)" style=""><foreignObject width="0" height="0"><div xmlns="http://www.w3.org/1999/xhtml" style="display: table-cell; white-space: nowrap; line-height: 1.5; max-width: 100px; text-align: start;"><span class="nodeLabel"></span></div></foreignObject></g><g class="label attribute-type" transform="translate(-166.796875, 73.5)" style=""><foreignObject width="20.859375" height="24"><div xmlns="http://www.w3.org/1999/xhtml" style="display: table-cell; white-space: nowrap; line-height: 1.5; max-width: 120px; text-align: start;"><span class="nodeLabel"><p>int</p></span></div></foreignObject></g><g class="label attribute-name" transform="translate(-77.828125, 73.5)" style=""><foreignObject width="81.640625" height="24"><div xmlns="http://www.w3.org/1999/xhtml" style="display: table-cell; white-space: nowrap; line-height: 1.5; max-width: 183px; text-align: start;"><span class="nodeLabel"><p>sort_order</p></span></div></foreignObject></g><g class="label attribute-keys" transform="translate(58.234375, 73.5)" style=""><foreignObject width="0" height="0"><div xmlns="http://www.w3.org/1999/xhtml" style="display: table-cell; white-space: nowrap; line-height: 1.5; max-width: 100px; text-align: start;"><span class="nodeLabel"></span></div></foreignObject></g><g class="label attribute-comment" transform="translate(103.375, 73.5)" style=""><foreignObject width="63.421875" height="24"><div xmlns="http://www.w3.org/1999/xhtml" style="display: table-cell; white-space: nowrap; line-height: 1.5; max-width: 162px; text-align: start;"><span class="nodeLabel"><p>nullable</p></span></div></foreignObject></g><g class="label attribute-type" transform="translate(-166.796875, 116.25)" style=""><foreignObject width="63.96875" height="24"><div xmlns="http://www.w3.org/1999/xhtml" style="display: table-cell; white-space: nowrap; line-height: 1.5; max-width: 164px; text-align: start;"><span class="nodeLabel"><p>boolean</p></span></div></foreignObject></g><g class="label attribute-name" transform="translate(-77.828125, 116.25)" style=""><foreignObject width="69.421875" height="24"><div xmlns="http://www.w3.org/1999/xhtml" style="display: table-cell; white-space: nowrap; line-height: 1.5; max-width: 169px; text-align: start;"><span class="nodeLabel"><p>is_active</p></span></div></foreignObject></g><g class="label attribute-keys" transform="translate(58.234375, 116.25)" style=""><foreignObject width="0" height="0"><div xmlns="http://www.w3.org/1999/xhtml" style="display: table-cell; white-space: nowrap; line-height: 1.5; max-width: 100px; text-align: start;"><span class="nodeLabel"></span></div></foreignObject></g><g class="label attribute-comment" transform="translate(103.375, 116.25)" style=""><foreignObject width="0" height="0"><div xmlns="http://www.w3.org/1999/xhtml" style="display: table-cell; white-space: nowrap; line-height: 1.5; max-width: 100px; text-align: start;"><span class="nodeLabel"></span></div></foreignObject></g><g class="label attribute-type" transform="translate(-166.796875, 159)" style=""><foreignObject width="42.875" height="24"><div xmlns="http://www.w3.org/1999/xhtml" style="display: table-cell; white-space: nowrap; line-height: 1.5; max-width: 143px; text-align: start;"><span class="nodeLabel"><p>jsonb</p></span></div></foreignObject></g><g class="label attribute-name" transform="translate(-77.828125, 159)" style=""><foreignObject width="77.546875" height="24"><div xmlns="http://www.w3.org/1999/xhtml" style="display: table-cell; white-space: nowrap; line-height: 1.5; max-width: 178px; text-align: start;"><span class="nodeLabel"><p>metadata</p></span></div></foreignObject></g><g class="label attribute-keys" transform="translate(58.234375, 159)" style=""><foreignObject width="0" height="0"><div xmlns="http://www.w3.org/1999/xhtml" style="display: table-cell; white-space: nowrap; line-height: 1.5; max-width: 100px; text-align: start;"><span class="nodeLabel"></span></div></foreignObject></g><g class="label attribute-comment" transform="translate(103.375, 159)" style=""><foreignObject width="63.421875" height="24"><div xmlns="http://www.w3.org/1999/xhtml" style="display: table-cell; white-space: nowrap; line-height: 1.5; max-width: 162px; text-align: start;"><span class="nodeLabel"><p>nullable</p></span></div></foreignObject></g><g class="divider"><path d="M-179.296875 -149.62505 L-179.296875 -149.62495 L179.296875 -149.62495 L179.296875 -149.62505" stroke="none" stroke-width="0" fill="#ffead5" fill-rule="evenodd"/><path d="M-179.296875 -149.62505 C-179.296875 -149.62501317213676, -179.296875 -149.62497634427353, -179.296875 -149.62495 M-179.296875 -149.62505 C-179.296875 -149.62502066941468, -179.296875 -149.62499133882935, -179.296875 -149.62495 M-179.296875 -149.62495 C-63.18757034134269 -149.62495, 52.921734317314616 -149.62495, 179.296875 -149.62495 M-179.296875 -149.62495 C-53.06574705045773 -149.62495, 73.16538089908454 -149.62495, 179.296875 -149.62495 M179.296875 -149.62495 C179.296875 -149.62498802181693, 179.296875 -149.62502604363382, 179.296875 -149.62505 M179.296875 -149.62495 C179.296875 -149.62497989787906, 179.296875 -149.62500979575807, 179.296875 -149.62505 M179.296875 -149.62505 C106.07520789549831 -149.62505, 32.85354079099662 -149.62505, -179.296875 -149.62505 M179.296875 -149.62505 C46.80014391228485 -149.62505, -85.6965871754303 -149.62505, -179.296875 -149.62505" stroke="#fbb176" stroke-width="1.3" fill="none" stroke-dasharray="0 0"/></g><g class="divider"><path d="M-90.328175 -149.625 L-90.328075 -149.625 L-90.328075 192.375 L-90.328175 192.375" stroke="none" stroke-width="0" fill="#ffead5" fill-rule="evenodd"/><path d="M-90.328175 -149.625 C-90.32815089938993 -149.625, -90.32812679877985 -149.625, -90.328075 -149.625 M-90.328175 -149.625 C-90.32815351924438 -149.625, -90.32813203848877 -149.625, -90.328075 -149.625 M-90.328075 -149.625 C-90.328075 -32.412708103910916, -90.328075 84.79958379217817, -90.328075 192.375 M-90.328075 -149.625 C-90.328075 -80.42233600175113, -90.328075 -11.219672003502268, -90.328075 192.375 M-90.328075 192.375 C-90.32811238746208 192.375, -90.32814977492417 192.375, -90.328175 192.375 M-90.328075 192.375 C-90.3281126666479 192.375, -90.32815033329581 192.375, -90.328175 192.375 M-90.328175 192.375 C-90.328175 70.28535588667648, -90.328175 -51.80428822664703, -90.328175 -149.625 M-90.328175 192.375 C-90.328175 113.19255612131117, -90.328175 34.01011224262234, -90.328175 -149.625" stroke="#fbb176" stroke-width="1.3" fill="none" stroke-dasharray="0 0"/></g><g class="divider"><path d="M45.734325 -149.625 L45.734425 -149.625 L45.734425 192.375 L45.734325 192.375" stroke="none" stroke-width="0" fill="#ffead5" fill-rule="evenodd"/><path d="M45.734325 -149.625 C45.73435474125098 -149.625, 45.73438448250196 -149.625, 45.734425 -149.625 M45.734325 -149.625 C45.73436474988962 -149.625, 45.734404499779245 -149.625, 45.734425 -149.625 M45.734425 -149.625 C45.734425 -47.04635892460662, 45.734425 55.532282150786756, 45.734425 192.375 M45.734425 -149.625 C45.734425 -71.66586897037087, 45.734425 6.293262059258268, 45.734425 192.375 M45.734425 192.375 C45.73438821110708 192.375, 45.734351422214154 192.375, 45.734325 192.375 M45.734425 192.375 C45.734404172710896 192.375, 45.7343833454218 192.375, 45.734325 192.375 M45.734325 192.375 C45.734325 120.57915852336367, 45.734325 48.78331704672735, 45.734325 -149.625 M45.734325 192.375 C45.734325 107.886697458176, 45.734325 23.398394916352004, 45.734325 -149.625" stroke="#fbb176" stroke-width="1.3" fill="none" stroke-dasharray="0 0"/></g><g class="divider"><path d="M90.87495 -149.625 L90.87505 -149.625 L90.87505 192.375 L90.87495 192.375" stroke="none" stroke-width="0" fill="#ffead5" fill-rule="evenodd"/><path d="M90.87495 -149.625 C90.87498196594568 -149.625, 90.87501393189136 -149.625, 90.87505 -149.625 M90.87495 -149.625 C90.87497370860353 -149.625, 90.87499741720708 -149.625, 90.87505 -149.625 M90.87505 -149.625 C90.87505 -63.88664307658583, 90.87505 21.851713846828346, 90.87505 192.375 M90.87505 -149.625 C90.87505 -21.025018199441092, 90.87505 107.57496360111782, 90.87505 192.375 M90.87505 192.375 C90.87502314630686 192.375, 90.87499629261372 192.375, 90.87495 192.375 M90.87505 192.375 C90.87501256461971 192.375, 90.87497512923943 192.375, 90.87495 192.375 M90.87495 192.375 C90.87495 115.86507778592618, 90.87495 39.35515557185235, 90.87495 -149.625 M90.87495 192.375 C90.87495 113.65658503044486, 90.87495 34.93817006088972, 90.87495 -149.625" stroke="#fbb176" stroke-width="1.3" fill="none" stroke-dasharray="0 0"/></g><g class="divider"><path d="M-179.296875 -149.62505 L-179.296875 -149.62495 L179.296875 -149.62495 L179.296875 -149.62505" stroke="none" stroke-width="0" fill="#ffead5" fill-rule="evenodd"/><path d="M-179.296875 -149.62505 C-179.296875 -149.6250199804107, -179.296875 -149.62498996082147, -179.296875 -149.62495 M-179.296875 -149.62505 C-179.296875 -149.62502147202088, -179.296875 -149.6249929440418, -179.296875 -149.62495 M-179.296875 -149.62495 C-53.722491910997775 -149.62495, 71.85189117800445 -149.62495, 179.296875 -149.62495 M-179.296875 -149.62495 C-82.43431068727301 -149.62495, 14.428253625453976 -149.62495, 179.296875 -149.62495 M179.296875 -149.62495 C179.296875 -149.62497865439124, 179.296875 -149.62500730878244, 179.296875 -149.62505 M179.296875 -149.62495 C179.296875 -149.6249714216624, 179.296875 -149.62499284332478, 179.296875 -149.62505 M179.296875 -149.62505 C69.35401899608628 -149.62505, -40.588837007827436 -149.62505, -179.296875 -149.62505 M179.296875 -149.62505 C77.3507920713436 -149.62505, -24.59529085731279 -149.62505, -179.296875 -149.62505" stroke="#fbb176" stroke-width="1.3" fill="none" stroke-dasharray="0 0"/></g></g></g><g class="edgeLabels"><g class="edgeLabel" transform="translate(190.9296875, 276.25)"><g class="label" data-id="id_entity-ControlledVocabulary-0_entity-ControlledTerm-1_0" transform="translate(-29.6328125, -10.5)"><foreignObject width="59.265625" height="21"><div xmlns="http://www.w3.org/1999/xhtml" class="labelBkg" style="display: table-cell; white-space: nowrap; line-height: 1.5; max-width: 200px; text-align: center;"><span class="edgeLabel"><p>contains</p></span></div></foreignObject></g></g></g></svg>