<svg id="my-svg" width="100%" xmlns="http://www.w3.org/2000/svg" xmlns:xlink="http://www.w3.org/1999/xlink" class="erDiagram" style="max-width: 445.188px; background-color: white;" viewBox="4 4 445.1875 813.5" role="graphics-document document" aria-roledescription="er"><g class="edges edgePaths"><path d="M226.59375,96L226.59375,197" id="my-svg-id_entity-TraitDataset-0_entity-TraitRule-1_0" class="edge-thickness-normal edge-pattern-solid relationshipLine" style="undefined;;;undefined" data-edge="true" data-et="edge" data-id="id_entity-TraitDataset-0_entity-TraitRule-1_0" data-points="W3sieCI6MjI2LjU5Mzc1LCJ5Ijo5Nn0seyJ4IjoyMjYuNTkzNzUsInkiOjE5N31d" data-look="classic" marker-start="url(#my-svg_er-zeroOrOneStart)" marker-end="url(#my-svg_er-zeroOrMoreEnd)"/><path d="M119.296875,624.5L119.296875,725.5" id="my-svg-id_entity-TraitRule-1_entity-Trait-2_1" class="edge-thickness-normal edge-pattern-solid relationshipLine" style="undefined;;;undefined" data-edge="true" data-et="edge" data-id="id_entity-TraitRule-1_entity-Trait-2_1" data-points="W3sieCI6MTE5LjI5Njg3NSwieSI6NjI0LjV9LHsieCI6MTE5LjI5Njg3NSwieSI6NzI1LjV9XQ==" data-look="classic" marker-start="url(#my-svg_er-zeroOrMoreStart)" marker-end="url(#my-svg_er-onlyOneEnd)"/><path d="M226.59375,624.5L226.59375,698.4289321881345Q226.59375,705.5 219.52268218813452,705.5L159.7012761451988,705.5Q152.63020833333331,705.5 152.63020833333331,712.5710678118655L152.63020833333331,725.5" id="my-svg-id_entity-TraitRule-1_entity-Trait-2_2" class="edge-thickness-normal edge-pattern-solid relationshipLine" style="undefined;;;undefined" data-edge="true" data-et="edge" data-id="id_entity-TraitRule-1_entity-Trait-2_2" data-points="W3sieCI6MjI2LjU5Mzc1LCJ5Ijo2MjQuNX0seyJ4IjoyMjYuNTkzNzUsInkiOjcwNS41fSx7IngiOjE1Mi42MzAyMDgzMzMzMzMzMSwieSI6NzA1LjV9LHsieCI6MTUyLjYzMDIwODMzMzMzMzMxLCJ5Ijo3MjUuNX1d" data-look="classic" marker-start="url(#my-svg_er-zeroOrMoreStart)" marker-end="url(#my-svg_er-onlyOneEnd)"/><path d="M333.890625,624.5L333.890625,725.5" id="my-svg-id_entity-TraitRule-1_entity-TraitState-3_3" class="edge-thickness-normal edge-pattern-solid relationshipLine" style="undefined;;;undefined" data-edge="true" data-et="edge" data-id="id_entity-TraitRule-1_entity-TraitState-3_3" data-points="W3sieCI6MzMzLjg5MDYyNSwieSI6NjI0LjV9LHsieCI6MzMzLjg5MDYyNSwieSI6NzI1LjV9XQ==" data-look="classic" marker-start="url(#my-svg_er-zeroOrMoreStart)" marker-end="url(#my-svg_er-onlyOneEnd)"/></g><style>#my-svg{font-family:"trebuchet ms",verdana,arial,sans-serif;font-size:16px;fill:#333;}@keyframes edge-animation-frame{from{stroke-dashoffset:0;}}@keyframes dash{to{stroke-dashoffset:0;}}#my-svg .edge-animation-slow{stroke-dasharray:9,5!important;stroke-dashoffset:900;animation:dash 50s linear infinite;stroke-linecap:round;}#my-svg .edge-animation-fast{stroke-dasharray:9,5!important;stroke-dashoffset:900;animation:dash 20s linear infinite;stroke-linecap:round;}#my-svg .error-icon{fill:hsl(210, 100%, 96.7647058824%);}#my-svg .error-text{fill:rgb(16.4999999998, 8.2499999999, 0);stroke:rgb(16.4999999998, 8.2499999999, 0);}#my-svg .edge-thickness-normal{stroke-width:1px;}#my-svg .edge-thickness-thick{stroke-width:3.5px;}#my-svg .edge-pattern-solid{stroke-dasharray:0;}#my-svg .edge-thickness-invisible{stroke-width:0;fill:none;}#my-svg .edge-pattern-dashed{stroke-dasharray:3;}#my-svg .edge-pattern-dotted{stroke-dasharray:2;}#my-svg .marker{fill:#e74b0f;stroke:#e74b0f;}#my-svg .marker.cross{stroke:#e74b0f;}#my-svg svg{font-family:"trebuchet ms",verdana,arial,sans-serif;font-size:16px;}#my-svg p{margin:0;}#my-svg .entityBox{fill:#ffead5;stroke:#fbb176;}#my-svg .relationshipLabelBox{fill:hsl(210, 100%, 96.7647058824%);opacity:0.7;background-color:hsl(210, 100%, 96.7647058824%);}#my-svg .relationshipLabelBox rect{opacity:0.5;}#my-svg .labelBkg{background-color:rgba(238.5000000002, 246.7500000001, 255, 0.5);}#my-svg .edgeLabel{background-color:hsl(-90, 100%, 91.7647058824%);}#my-svg .edgeLabel .label rect{fill:hsl(-90, 100%, 91.7647058824%);}#my-svg .edgeLabel .label text{fill:#333;}#my-svg .edgeLabel .label{fill:#fbb176;font-size:14px;}#my-svg .label{font-family:"trebuchet ms",verdana,arial,sans-serif;color:#333;}#my-svg .edge-pattern-dashed{stroke-dasharray:8,8;}#my-svg .node rect,#my-svg .node circle,#my-svg .node ellipse,#my-svg .node polygon{fill:#ffead5;stroke:#fbb176;stroke-width:1px;}#my-svg .relationshipLine{stroke:#e74b0f;stroke-width:1px;fill:none;}#my-svg .marker{fill:none!important;stroke:#e74b0f!important;stroke-width:1;}#my-svg [data-look=neo].labelBkg{background-color:rgba(238.5000000002, 246.7500000001, 255, 0.5);}#my-svg .node .neo-node{stroke:#fbb176;}#my-svg [data-look="neo"].node rect,#my-svg [data-look="neo"].cluster rect,#my-svg [data-look="neo"].node polygon{stroke:url(#my-svg-gradient);filter:drop-shadow( 1px 2px 2px rgba(185,185,185,1));}#my-svg [data-look="neo"].node path{stroke:url(#my-svg-gradient);stroke-width:1px;}#my-svg [data-look="neo"].node .outer-path{filter:drop-shadow( 1px 2px 2px rgba(185,185,185,1));}#my-svg [data-look="neo"].node .neo-line path{stroke:#fbb176;filter:none;}#my-svg [data-look="neo"].node circle{stroke:url(#my-svg-gradient);filter:drop-shadow( 1px 2px 2px rgba(185,185,185,1));}#my-svg [data-look="neo"].node circle .state-start{fill:#000000;}#my-svg [data-look="neo"].icon-shape .icon{fill:url(#my-svg-gradient);filter:drop-shadow( 1px 2px 2px rgba(185,185,185,1));}#my-svg [data-look="neo"].icon-shape .icon-neo path{stroke:url(#my-svg-gradient);filter:drop-shadow( 1px 2px 2px rgba(185,185,185,1));}#my-svg :root{--mermaid-font-family:"trebuchet ms",verdana,arial,sans-serif;}</style><g><defs><marker id="my-svg_er-onlyOneStart" class="marker onlyOne er" refX="0" refY="9" markerWidth="18" markerHeight="18" orient="auto"><path d="M9,0 L9,18 M15,0 L15,18"/></marker></defs><defs><marker id="my-svg_er-onlyOneEnd" class="marker onlyOne er" refX="18" refY="9" markerWidth="18" markerHeight="18" orient="auto"><path d="M3,0 L3,18 M9,0 L9,18"/></marker></defs><defs><marker id="my-svg_er-zeroOrOneStart" class="marker zeroOrOne er" refX="0" refY="9" markerWidth="30" markerHeight="18" orient="auto"><circle fill="white" cx="21" cy="9" r="6"/><path d="M9,0 L9,18"/></marker></defs><defs><marker id="my-svg_er-zeroOrOneEnd" class="marker zeroOrOne er" refX="30" refY="9" markerWidth="30" markerHeight="18" orient="auto"><circle fill="white" cx="9" cy="9" r="6"/><path d="M21,0 L21,18"/></marker></defs><defs><marker id="my-svg_er-oneOrMoreStart" class="marker oneOrMore er" refX="18" refY="18" markerWidth="45" markerHeight="36" orient="auto"><path d="M0,18 Q 18,0 36,18 Q 18,36 0,18 M42,9 L42,27"/></marker></defs><defs><marker id="my-svg_er-oneOrMoreEnd" class="marker oneOrMore er" refX="27" refY="18" markerWidth="45" markerHeight="36" orient="auto"><path d="M3,9 L3,27 M9,18 Q27,0 45,18 Q27,36 9,18"/></marker></defs><defs><marker id="my-svg_er-zeroOrMoreStart" class="marker zeroOrMore er" refX="18" refY="18" markerWidth="57" markerHeight="36" orient="auto"><circle fill="white" cx="48" cy="18" r="6"/><path d="M0,18 Q18,0 36,18 Q18,36 0,18"/></marker></defs><defs><marker id="my-svg_er-zeroOrMoreEnd" class="marker zeroOrMore er" refX="39" refY="18" markerWidth="57" markerHeight="36" orient="auto"><circle fill="white" cx="9" cy="18" r="6"/><path d="M21,18 Q39,0 57,18 Q39,36 21,18"/></marker></defs></g><defs><filter id="my-svg-drop-shadow" height="130%" width="130%"><feDropShadow dx="4" dy="4" stdDeviation="0" flood-opacity="0.06" flood-color="#000000"/></filter></defs><defs><filter id="my-svg-drop-shadow-small" height="150%" width="150%"><feDropShadow dx="2" dy="2" stdDeviation="0" flood-opacity="0.06" flood-color="#000000"/></filter></defs><linearGradient id="my-svg-gradient" gradientUnits="objectBoundingBox" x1="0%" y1="0%" x2="100%" y2="0%"><stop offset="0%" stop-color="#fbb176" stop-opacity="1"/><stop offset="100%" stop-color="hsl(-90, 60%, 81.7647058824%)" stop-opacity="1"/></linearGradient><g class="subgraphs"/><g class="nodes"><g class="node default" id="my-svg-entity-TraitDataset-0" data-look="classic" transform="translate(226.59375, 54)"><rect class="basic label-container" style="" x="-68.59375" y="-42" width="137.1875" height="84"/><g class="label" style="" transform="translate(-48.59375, -12)"><rect/><foreignObject width="97.1875" height="24"><div xmlns="http://www.w3.org/1999/xhtml" style="display: table-cell; white-space: nowrap; line-height: 1.5; max-width: 200px; text-align: center;"><span class="nodeLabel markdown-node-label"><p>TraitDataset</p></span></div></foreignObject></g></g><g class="node default" id="my-svg-entity-TraitRule-1" data-look="classic" transform="translate(226.59375, 410.75)"><g class="outer-path" style=""><path d="M-214.59375 -213.75 L214.59375 -213.75 L214.59375 213.75 L-214.59375 213.75" stroke="none" stroke-width="0" fill="#ffead5"/><path d="M-214.59375 -213.75 C-102.30017434758214 -213.75, 9.993401304835714 -213.75, 214.59375 -213.75 M-214.59375 -213.75 C-96.70524741512796 -213.75, 21.183255169744086 -213.75, 214.59375 -213.75 M214.59375 -213.75 C214.59375 -69.97867152471488, 214.59375 73.79265695057023, 214.59375 213.75 M214.59375 -213.75 C214.59375 -79.81128921383896, 214.59375 54.12742157232208, 214.59375 213.75 M214.59375 213.75 C94.479114555929 213.75, -25.635520888141997 213.75, -214.59375 213.75 M214.59375 213.75 C118.62505460593358 213.75, 22.65635921186717 213.75, -214.59375 213.75 M-214.59375 213.75 C-214.59375 76.78628484475743, -214.59375 -60.177430310485136, -214.59375 -213.75 M-214.59375 213.75 C-214.59375 110.60990185520173, -214.59375 7.469803710403454, -214.59375 -213.75" stroke="#fbb176" stroke-width="1.3" fill="none" stroke-dasharray="0 0"/></g><g style="" class="row-rect-odd"><path d="M-214.59375 -171 L214.59375 -171 L214.59375 -128.25 L-214.59375 -128.25" stroke="none" stroke-width="0" fill="hsl(30, 100%, 100%)"/><path d="M-214.59375 -171 C-75.87806763749978 -171, 62.837614725000435 -171, 214.59375 -171 M-214.59375 -171 C-108.80365399014678 -171, -3.0135579802935695 -171, 214.59375 -171 M214.59375 -171 C214.59375 -154.98197475555955, 214.59375 -138.96394951111913, 214.59375 -128.25 M214.59375 -171 C214.59375 -158.3466421186565, 214.59375 -145.69328423731298, 214.59375 -128.25 M214.59375 -128.25 C61.22039080009239 -128.25, -92.15296839981522 -128.25, -214.59375 -128.25 M214.59375 -128.25 C58.49555550548476 -128.25, -97.60263898903048 -128.25, -214.59375 -128.25 M-214.59375 -128.25 C-214.59375 -138.9212630585758, -214.59375 -149.59252611715158, -214.59375 -171 M-214.59375 -128.25 C-214.59375 -144.35900024935128, -214.59375 -160.4680004987026, -214.59375 -171" stroke="#fbb176" stroke-width="1.3" fill="none" stroke-dasharray="0 0"/></g><g style="" class="row-rect-even"><path d="M-214.59375 -128.25 L214.59375 -128.25 L214.59375 -85.5 L-214.59375 -85.5" stroke="none" stroke-width="0" fill="hsl(30, 100%, 96.7647058824%)"/><path d="M-214.59375 -128.25 C-69.95256595731695 -128.25, 74.6886180853661 -128.25, 214.59375 -128.25 M-214.59375 -128.25 C-44.493171538338515 -128.25, 125.60740692332297 -128.25, 214.59375 -128.25 M214.59375 -128.25 C214.59375 -111.26575303219049, 214.59375 -94.28150606438098, 214.59375 -85.5 M214.59375 -128.25 C214.59375 -117.25949395683702, 214.59375 -106.26898791367405, 214.59375 -85.5 M214.59375 -85.5 C76.56341161554161 -85.5, -61.46692676891678 -85.5, -214.59375 -85.5 M214.59375 -85.5 C76.58154959734276 -85.5, -61.430650805314485 -85.5, -214.59375 -85.5 M-214.59375 -85.5 C-214.59375 -101.04375127783806, -214.59375 -116.58750255567611, -214.59375 -128.25 M-214.59375 -85.5 C-214.59375 -100.44412441925066, -214.59375 -115.3882488385013, -214.59375 -128.25" stroke="#fbb176" stroke-width="1.3" fill="none" stroke-dasharray="0 0"/></g><g style="" class="row-rect-odd"><path d="M-214.59375 -85.5 L214.59375 -85.5 L214.59375 -42.75 L-214.59375 -42.75" stroke="none" stroke-width="0" fill="hsl(30, 100%, 100%)"/><path d="M-214.59375 -85.5 C-111.7658440268075 -85.5, -8.937938053615 -85.5, 214.59375 -85.5 M-214.59375 -85.5 C-67.203972978638 -85.5, 80.18580404272399 -85.5, 214.59375 -85.5 M214.59375 -85.5 C214.59375 -76.69707661235876, 214.59375 -67.89415322471751, 214.59375 -42.75 M214.59375 -85.5 C214.59375 -74.41704340222793, 214.59375 -63.334086804455865, 214.59375 -42.75 M214.59375 -42.75 C60.29572562464554 -42.75, -94.00229875070892 -42.75, -214.59375 -42.75 M214.59375 -42.75 C53.176721441610454 -42.75, -108.24030711677909 -42.75, -214.59375 -42.75 M-214.59375 -42.75 C-214.59375 -52.68252780293648, -214.59375 -62.61505560587295, -214.59375 -85.5 M-214.59375 -42.75 C-214.59375 -56.81651477775775, -214.59375 -70.8830295555155, -214.59375 -85.5" stroke="#fbb176" stroke-width="1.3" fill="none" stroke-dasharray="0 0"/></g><g style="" class="row-rect-even"><path d="M-214.59375 -42.75 L214.59375 -42.75 L214.59375 0 L-214.59375 0" stroke="none" stroke-width="0" fill="hsl(30, 100%, 96.7647058824%)"/><path d="M-214.59375 -42.75 C-106.26945419833777 -42.75, 2.054841603324462 -42.75, 214.59375 -42.75 M-214.59375 -42.75 C-115.54094552744013 -42.75, -16.48814105488026 -42.75, 214.59375 -42.75 M214.59375 -42.75 C214.59375 -33.00655218059846, 214.59375 -23.263104361196923, 214.59375 0 M214.59375 -42.75 C214.59375 -32.52231313496877, 214.59375 -22.29462626993753, 214.59375 0 M214.59375 0 C112.3659355520006 0, 10.138121104001186 0, -214.59375 0 M214.59375 0 C88.22945097524074 0, -38.134848049518524 0, -214.59375 0 M-214.59375 0 C-214.59375 -14.125865726470897, -214.59375 -28.251731452941794, -214.59375 -42.75 M-214.59375 0 C-214.59375 -10.114701557291887, -214.59375 -20.229403114583775, -214.59375 -42.75" stroke="#fbb176" stroke-width="1.3" fill="none" stroke-dasharray="0 0"/></g><g style="" class="row-rect-odd"><path d="M-214.59375 0 L214.59375 0 L214.59375 42.75 L-214.59375 42.75" stroke="none" stroke-width="0" fill="hsl(30, 100%, 100%)"/><path d="M-214.59375 0 C-43.20418677238487 0, 128.18537645523026 0, 214.59375 0 M-214.59375 0 C-106.84381193570492 0, 0.9061261285901594 0, 214.59375 0 M214.59375 0 C214.59375 13.524143465271194, 214.59375 27.04828693054239, 214.59375 42.75 M214.59375 0 C214.59375 11.556036537198425, 214.59375 23.11207307439685, 214.59375 42.75 M214.59375 42.75 C116.20395976054601 42.75, 17.814169521092026 42.75, -214.59375 42.75 M214.59375 42.75 C111.73157229559085 42.75, 8.869394591181702 42.75, -214.59375 42.75 M-214.59375 42.75 C-214.59375 33.654328813658175, -214.59375 24.55865762731635, -214.59375 0 M-214.59375 42.75 C-214.59375 26.849084999118343, -214.59375 10.948169998236686, -214.59375 0" stroke="#fbb176" stroke-width="1.3" fill="none" stroke-dasharray="0 0"/></g><g style="" class="row-rect-even"><path d="M-214.59375 42.75 L214.59375 42.75 L214.59375 85.5 L-214.59375 85.5" stroke="none" stroke-width="0" fill="hsl(30, 100%, 96.7647058824%)"/><path d="M-214.59375 42.75 C-99.03633026666783 42.75, 16.521089466664336 42.75, 214.59375 42.75 M-214.59375 42.75 C-107.63178393971508 42.75, -0.6698178794301555 42.75, 214.59375 42.75 M214.59375 42.75 C214.59375 52.790572805424645, 214.59375 62.83114561084928, 214.59375 85.5 M214.59375 42.75 C214.59375 53.091901055904614, 214.59375 63.43380211180922, 214.59375 85.5 M214.59375 85.5 C100.59183804486129 85.5, -13.410073910277418 85.5, -214.59375 85.5 M214.59375 85.5 C59.64957933959943 85.5, -95.29459132080115 85.5, -214.59375 85.5 M-214.59375 85.5 C-214.59375 71.40421908825796, -214.59375 57.30843817651593, -214.59375 42.75 M-214.59375 85.5 C-214.59375 71.47183556541945, -214.59375 57.44367113083891, -214.59375 42.75" stroke="#fbb176" stroke-width="1.3" fill="none" stroke-dasharray="0 0"/></g><g style="" class="row-rect-odd"><path d="M-214.59375 85.5 L214.59375 85.5 L214.59375 128.25 L-214.59375 128.25" stroke="none" stroke-width="0" fill="hsl(30, 100%, 100%)"/><path d="M-214.59375 85.5 C-66.01564618724609 85.5, 82.56245762550782 85.5, 214.59375 85.5 M-214.59375 85.5 C-121.0279352311884 85.5, -27.462120462376788 85.5, 214.59375 85.5 M214.59375 85.5 C214.59375 94.95191035754839, 214.59375 104.40382071509677, 214.59375 128.25 M214.59375 85.5 C214.59375 100.67176162470778, 214.59375 115.84352324941557, 214.59375 128.25 M214.59375 128.25 C92.63795150962378 128.25, -29.31784698075245 128.25, -214.59375 128.25 M214.59375 128.25 C96.30091261502584 128.25, -21.991924769948326 128.25, -214.59375 128.25 M-214.59375 128.25 C-214.59375 116.61688781483483, -214.59375 104.98377562966967, -214.59375 85.5 M-214.59375 128.25 C-214.59375 117.46537829851437, -214.59375 106.68075659702872, -214.59375 85.5" stroke="#fbb176" stroke-width="1.3" fill="none" stroke-dasharray="0 0"/></g><g style="" class="row-rect-even"><path d="M-214.59375 128.25 L214.59375 128.25 L214.59375 171 L-214.59375 171" stroke="none" stroke-width="0" fill="hsl(30, 100%, 96.7647058824%)"/><path d="M-214.59375 128.25 C-60.2836863748241 128.25, 94.0263772503518 128.25, 214.59375 128.25 M-214.59375 128.25 C-125.73297487877399 128.25, -36.872199757547975 128.25, 214.59375 128.25 M214.59375 128.25 C214.59375 143.74508329204778, 214.59375 159.2401665840956, 214.59375 171 M214.59375 128.25 C214.59375 141.7954041211537, 214.59375 155.3408082423074, 214.59375 171 M214.59375 171 C53.56885837037308 171, -107.45603325925384 171, -214.59375 171 M214.59375 171 C85.41463761108616 171, -43.76447477782767 171, -214.59375 171 M-214.59375 171 C-214.59375 161.2827053329895, -214.59375 151.56541066597902, -214.59375 128.25 M-214.59375 171 C-214.59375 155.09618798257162, -214.59375 139.19237596514327, -214.59375 128.25" stroke="#fbb176" stroke-width="1.3" fill="none" stroke-dasharray="0 0"/></g><g style="" class="row-rect-odd"><path d="M-214.59375 171 L214.59375 171 L214.59375 213.75 L-214.59375 213.75" stroke="none" stroke-width="0" fill="hsl(30, 100%, 100%)"/><path d="M-214.59375 171 C-117.29979080338205 171, -20.005831606764104 171, 214.59375 171 M-214.59375 171 C-84.9629792052796 171, 44.66779158944081 171, 214.59375 171 M214.59375 171 C214.59375 180.19270575869734, 214.59375 189.38541151739466, 214.59375 213.75 M214.59375 171 C214.59375 180.12950642646837, 214.59375 189.25901285293673, 214.59375 213.75 M214.59375 213.75 C69.76827705276762 213.75, -75.05719589446477 213.75, -214.59375 213.75 M214.59375 213.75 C127.43830550122463 213.75, 40.282861002449266 213.75, -214.59375 213.75 M-214.59375 213.75 C-214.59375 202.23458481462438, -214.59375 190.71916962924874, -214.59375 171 M-214.59375 213.75 C-214.59375 198.20831042948691, -214.59375 182.66662085897383, -214.59375 171" stroke="#fbb176" stroke-width="1.3" fill="none" stroke-dasharray="0 0"/></g><g class="label name" transform="translate(-34.6796875, -204.375)" style=""><foreignObject width="69.359375" height="24"><div xmlns="http://www.w3.org/1999/xhtml" style="display: table-cell; white-space: nowrap; line-height: 1.5; max-width: 170px; text-align: start;"><span class="nodeLabel"><p>TraitRule</p></span></div></foreignObject></g><g class="label attribute-type" transform="translate(-202.09375, -161.625)" style=""><foreignObject width="20.859375" height="24"><div xmlns="http://www.w3.org/1999/xhtml" style="display: table-cell; white-space: nowrap; line-height: 1.5; max-width: 120px; text-align: start;"><span class="nodeLabel"><p>int</p></span></div></foreignObject></g><g class="label attribute-name" transform="translate(-131.15625, -161.625)" style=""><foreignObject width="14.609375" height="24"><div xmlns="http://www.w3.org/1999/xhtml" style="display: table-cell; white-space: nowrap; line-height: 1.5; max-width: 114px; text-align: start;"><span class="nodeLabel"><p>id</p></span></div></foreignObject></g><g class="label attribute-keys" transform="translate(19.015625, -161.625)" style=""><foreignObject width="20.140625" height="24"><div xmlns="http://www.w3.org/1999/xhtml" style="display: table-cell; white-space: nowrap; line-height: 1.5; max-width: 121px; text-align: start;"><span class="nodeLabel"><p>PK</p></span></div></foreignObject></g><g class="label attribute-comment" transform="translate(64.15625, -161.625)" style=""><foreignObject width="0" height="0"><div xmlns="http://www.w3.org/1999/xhtml" style="display: table-cell; white-space: nowrap; line-height: 1.5; max-width: 100px; text-align: start;"><span class="nodeLabel"></span></div></foreignObject></g><g class="label attribute-type" transform="translate(-202.09375, -118.875)" style=""><foreignObject width="34.890625" height="24"><div xmlns="http://www.w3.org/1999/xhtml" style="display: table-cell; white-space: nowrap; line-height: 1.5; max-width: 134px; text-align: start;"><span class="nodeLabel"><p>uuid</p></span></div></foreignObject></g><g class="label attribute-name" transform="translate(-131.15625, -118.875)" style=""><foreignObject width="34.90625" height="24"><div xmlns="http://www.w3.org/1999/xhtml" style="display: table-cell; white-space: nowrap; line-height: 1.5; max-width: 134px; text-align: start;"><span class="nodeLabel"><p>guid</p></span></div></foreignObject></g><g class="label attribute-keys" transform="translate(19.015625, -118.875)" style=""><foreignObject width="0" height="0"><div xmlns="http://www.w3.org/1999/xhtml" style="display: table-cell; white-space: nowrap; line-height: 1.5; max-width: 100px; text-align: start;"><span class="nodeLabel"></span></div></foreignObject></g><g class="label attribute-comment" transform="translate(64.15625, -118.875)" style=""><foreignObject width="0" height="0"><div xmlns="http://www.w3.org/1999/xhtml" style="display: table-cell; white-space: nowrap; line-height: 1.5; max-width: 100px; text-align: start;"><span class="nodeLabel"></span></div></foreignObject></g><g class="label attribute-type" transform="translate(-202.09375, -76.125)" style=""><foreignObject width="20.859375" height="24"><div xmlns="http://www.w3.org/1999/xhtml" style="display: table-cell; white-space: nowrap; line-height: 1.5; max-width: 120px; text-align: start;"><span class="nodeLabel"><p>int</p></span></div></foreignObject></g><g class="label attribute-name" transform="translate(-131.15625, -76.125)" style=""><foreignObject width="83.09375" height="24"><div xmlns="http://www.w3.org/1999/xhtml" style="display: table-cell; white-space: nowrap; line-height: 1.5; max-width: 183px; text-align: start;"><span class="nodeLabel"><p>dataset_id</p></span></div></foreignObject></g><g class="label attribute-keys" transform="translate(19.015625, -76.125)" style=""><foreignObject width="19.703125" height="24"><div xmlns="http://www.w3.org/1999/xhtml" style="display: table-cell; white-space: nowrap; line-height: 1.5; max-width: 120px; text-align: start;"><span class="nodeLabel"><p>FK</p></span></div></foreignObject></g><g class="label attribute-comment" transform="translate(64.15625, -76.125)" style=""><foreignObject width="63.421875" height="24"><div xmlns="http://www.w3.org/1999/xhtml" style="display: table-cell; white-space: nowrap; line-height: 1.5; max-width: 162px; text-align: start;"><span class="nodeLabel"><p>nullable</p></span></div></foreignObject></g><g class="label attribute-type" transform="translate(-202.09375, -33.375)" style=""><foreignObject width="20.859375" height="24"><div xmlns="http://www.w3.org/1999/xhtml" style="display: table-cell; white-space: nowrap; line-height: 1.5; max-width: 120px; text-align: start;"><span class="nodeLabel"><p>int</p></span></div></foreignObject></g><g class="label attribute-name" transform="translate(-131.15625, -33.375)" style=""><foreignObject width="118.015625" height="24"><div xmlns="http://www.w3.org/1999/xhtml" style="display: table-cell; white-space: nowrap; line-height: 1.5; max-width: 218px; text-align: start;"><span class="nodeLabel"><p>trigger_trait_id</p></span></div></foreignObject></g><g class="label attribute-keys" transform="translate(19.015625, -33.375)" style=""><foreignObject width="19.703125" height="24"><div xmlns="http://www.w3.org/1999/xhtml" style="display: table-cell; white-space: nowrap; line-height: 1.5; max-width: 120px; text-align: start;"><span class="nodeLabel"><p>FK</p></span></div></foreignObject></g><g class="label attribute-comment" transform="translate(64.15625, -33.375)" style=""><foreignObject width="0" height="0"><div xmlns="http://www.w3.org/1999/xhtml" style="display: table-cell; white-space: nowrap; line-height: 1.5; max-width: 100px; text-align: start;"><span class="nodeLabel"></span></div></foreignObject></g><g class="label attribute-type" transform="translate(-202.09375, 9.375)" style=""><foreignObject width="20.859375" height="24"><div xmlns="http://www.w3.org/1999/xhtml" style="display: table-cell; white-space: nowrap; line-height: 1.5; max-width: 120px; text-align: start;"><span class="nodeLabel"><p>int</p></span></div></foreignObject></g><g class="label attribute-name" transform="translate(-131.15625, 9.375)" style=""><foreignObject width="125.171875" height="24"><div xmlns="http://www.w3.org/1999/xhtml" style="display: table-cell; white-space: nowrap; line-height: 1.5; max-width: 225px; text-align: start;"><span class="nodeLabel"><p>trigger_state_id</p></span></div></foreignObject></g><g class="label attribute-keys" transform="translate(19.015625, 9.375)" style=""><foreignObject width="19.703125" height="24"><div xmlns="http://www.w3.org/1999/xhtml" style="display: table-cell; white-space: nowrap; line-height: 1.5; max-width: 120px; text-align: start;"><span class="nodeLabel"><p>FK</p></span></div></foreignObject></g><g class="label attribute-comment" transform="translate(64.15625, 9.375)" style=""><foreignObject width="0" height="0"><div xmlns="http://www.w3.org/1999/xhtml" style="display: table-cell; white-space: nowrap; line-height: 1.5; max-width: 100px; text-align: start;"><span class="nodeLabel"></span></div></foreignObject></g><g class="label attribute-type" transform="translate(-202.09375, 52.125)" style=""><foreignObject width="20.859375" height="24"><div xmlns="http://www.w3.org/1999/xhtml" style="display: table-cell; white-space: nowrap; line-height: 1.5; max-width: 120px; text-align: start;"><span class="nodeLabel"><p>int</p></span></div></foreignObject></g><g class="label attribute-name" transform="translate(-131.15625, 52.125)" style=""><foreignObject width="112.625" height="24"><div xmlns="http://www.w3.org/1999/xhtml" style="display: table-cell; white-space: nowrap; line-height: 1.5; max-width: 213px; text-align: start;"><span class="nodeLabel"><p>target_trait_id</p></span></div></foreignObject></g><g class="label attribute-keys" transform="translate(19.015625, 52.125)" style=""><foreignObject width="19.703125" height="24"><div xmlns="http://www.w3.org/1999/xhtml" style="display: table-cell; white-space: nowrap; line-height: 1.5; max-width: 120px; text-align: start;"><span class="nodeLabel"><p>FK</p></span></div></foreignObject></g><g class="label attribute-comment" transform="translate(64.15625, 52.125)" style=""><foreignObject width="0" height="0"><div xmlns="http://www.w3.org/1999/xhtml" style="display: table-cell; white-space: nowrap; line-height: 1.5; max-width: 100px; text-align: start;"><span class="nodeLabel"></span></div></foreignObject></g><g class="label attribute-type" transform="translate(-202.09375, 94.875)" style=""><foreignObject width="45.9375" height="24"><div xmlns="http://www.w3.org/1999/xhtml" style="display: table-cell; white-space: nowrap; line-height: 1.5; max-width: 145px; text-align: start;"><span class="nodeLabel"><p>string</p></span></div></foreignObject></g><g class="label attribute-name" transform="translate(-131.15625, 94.875)" style=""><foreignObject width="71.859375" height="24"><div xmlns="http://www.w3.org/1999/xhtml" style="display: table-cell; white-space: nowrap; line-height: 1.5; max-width: 172px; text-align: start;"><span class="nodeLabel"><p>action_id</p></span></div></foreignObject></g><g class="label attribute-keys" transform="translate(19.015625, 94.875)" style=""><foreignObject width="19.703125" height="24"><div xmlns="http://www.w3.org/1999/xhtml" style="display: table-cell; white-space: nowrap; line-height: 1.5; max-width: 120px; text-align: start;"><span class="nodeLabel"><p>FK</p></span></div></foreignObject></g><g class="label attribute-comment" transform="translate(64.15625, 94.875)" style=""><foreignObject width="136.859375" height="24"><div xmlns="http://www.w3.org/1999/xhtml" style="display: table-cell; white-space: nowrap; line-height: 1.5; max-width: 236px; text-align: start;"><span class="nodeLabel"><p>ENABLE/DISABLE</p></span></div></foreignObject></g><g class="label attribute-type" transform="translate(-202.09375, 137.625)" style=""><foreignObject width="45.9375" height="24"><div xmlns="http://www.w3.org/1999/xhtml" style="display: table-cell; white-space: nowrap; line-height: 1.5; max-width: 145px; text-align: start;"><span class="nodeLabel"><p>string</p></span></div></foreignObject></g><g class="label attribute-name" transform="translate(-131.15625, 137.625)" style=""><foreignObject width="60.234375" height="24"><div xmlns="http://www.w3.org/1999/xhtml" style="display: table-cell; white-space: nowrap; line-height: 1.5; max-width: 160px; text-align: start;"><span class="nodeLabel"><p>logic_id</p></span></div></foreignObject></g><g class="label attribute-keys" transform="translate(19.015625, 137.625)" style=""><foreignObject width="19.703125" height="24"><div xmlns="http://www.w3.org/1999/xhtml" style="display: table-cell; white-space: nowrap; line-height: 1.5; max-width: 120px; text-align: start;"><span class="nodeLabel"><p>FK</p></span></div></foreignObject></g><g class="label attribute-comment" transform="translate(64.15625, 137.625)" style=""><foreignObject width="137.9375" height="24"><div xmlns="http://www.w3.org/1999/xhtml" style="display: table-cell; white-space: nowrap; line-height: 1.5; max-width: 236px; text-align: start;"><span class="nodeLabel"><p>nullable, AND/OR</p></span></div></foreignObject></g><g class="label attribute-type" transform="translate(-202.09375, 180.375)" style=""><foreignObject width="42.875" height="24"><div xmlns="http://www.w3.org/1999/xhtml" style="display: table-cell; white-space: nowrap; line-height: 1.5; max-width: 143px; text-align: start;"><span class="nodeLabel"><p>jsonb</p></span></div></foreignObject></g><g class="label attribute-name" transform="translate(-131.15625, 180.375)" style=""><foreignObject width="77.546875" height="24"><div xmlns="http://www.w3.org/1999/xhtml" style="display: table-cell; white-space: nowrap; line-height: 1.5; max-width: 178px; text-align: start;"><span class="nodeLabel"><p>metadata</p></span></div></foreignObject></g><g class="label attribute-keys" transform="translate(19.015625, 180.375)" style=""><foreignObject width="0" height="0"><div xmlns="http://www.w3.org/1999/xhtml" style="display: table-cell; white-space: nowrap; line-height: 1.5; max-width: 100px; text-align: start;"><span class="nodeLabel"></span></div></foreignObject></g><g class="label attribute-comment" transform="translate(64.15625, 180.375)" style=""><foreignObject width="63.421875" height="24"><div xmlns="http://www.w3.org/1999/xhtml" style="display: table-cell; white-space: nowrap; line-height: 1.5; max-width: 162px; text-align: start;"><span class="nodeLabel"><p>nullable</p></span></div></foreignObject></g><g class="divider"><path d="M-214.59375 -171.00005 L-214.59375 -170.99995 L214.59375 -170.99995 L214.59375 -171.00005" stroke="none" stroke-width="0" fill="#ffead5" fill-rule="evenodd"/><path d="M-214.59375 -171.00005 C-214.59375 -171.00001104265525, -214.59375 -170.99997208531053, -214.59375 -170.99995 M-214.59375 -171.00005 C-214.59375 -171.00002221318286, -214.59375 -170.99999442636576, -214.59375 -170.99995 M-214.59375 -170.99995 C-70.58964767981365 -170.99995, 73.4144546403727 -170.99995, 214.59375 -170.99995 M-214.59375 -170.99995 C-93.12572874289958 -170.99995, 28.342292514200835 -170.99995, 214.59375 -170.99995 M214.59375 -170.99995 C214.59375 -170.9999715618556, 214.59375 -170.99999312371116, 214.59375 -171.00005 M214.59375 -170.99995 C214.59375 -170.99997850265953, 214.59375 -171.00000700531905, 214.59375 -171.00005 M214.59375 -171.00005 C48.240634102440396 -171.00005, -118.11248179511921 -171.00005, -214.59375 -171.00005 M214.59375 -171.00005 C100.632742326125 -171.00005, -13.328265347750005 -171.00005, -214.59375 -171.00005" stroke="#fbb176" stroke-width="1.3" fill="none" stroke-dasharray="0 0"/></g><g class="divider"><path d="M-143.6563 -171 L-143.6562 -171 L-143.6562 213.75 L-143.6563 213.75" stroke="none" stroke-width="0" fill="#ffead5" fill-rule="evenodd"/><path d="M-143.6563 -171 C-143.65627916562602 -171, -143.65625833125208 -171, -143.6562 -171 M-143.6563 -171 C-143.65627369126898 -171, -143.656247382538 -171, -143.6562 -171 M-143.6562 -171 C-143.6562 -87.25116836949344, -143.6562 -3.502336738986884, -143.6562 213.75 M-143.6562 -171 C-143.6562 -57.374844726090416, -143.6562 56.25031054781917, -143.6562 213.75 M-143.6562 213.75 C-143.65622096460217 213.75, -143.65624192920433 213.75, -143.6563 213.75 M-143.6562 213.75 C-143.65623847956178 213.75, -143.65627695912357 213.75, -143.6563 213.75 M-143.6563 213.75 C-143.6563 131.39226426898534, -143.6563 49.03452853797069, -143.6563 -171 M-143.6563 213.75 C-143.6563 60.8004314737843, -143.6563 -92.1491370524314, -143.6563 -171" stroke="#fbb176" stroke-width="1.3" fill="none" stroke-dasharray="0 0"/></g><g class="divider"><path d="M6.515575 -171 L6.515675 -171 L6.515675 213.75 L6.515575 213.75" stroke="none" stroke-width="0" fill="#ffead5" fill-rule="evenodd"/><path d="M6.515575 -171 C6.5156059029327755 -171, 6.515636805865551 -171, 6.515675 -171 M6.515575 -171 C6.515608285312865 -171, 6.51564157062573 -171, 6.515675 -171 M6.515675 -171 C6.515675 -24.924767108363966, 6.515675 121.15046578327207, 6.515675 213.75 M6.515675 -171 C6.515675 -76.26771859034706, 6.515675 18.464562819305883, 6.515675 213.75 M6.515675 213.75 C6.515653953908973 213.75, 6.5156329078179445 213.75, 6.515575 213.75 M6.515675 213.75 C6.515653521975151 213.75, 6.515632043950301 213.75, 6.515575 213.75 M6.515575 213.75 C6.515575 128.29295241388638, 6.515575 42.835904827772765, 6.515575 -171 M6.515575 213.75 C6.515575 100.20778213443266, 6.515575 -13.334435731134676, 6.515575 -171" stroke="#fbb176" stroke-width="1.3" fill="none" stroke-dasharray="0 0"/></g><g class="divider"><path d="M51.6562 -171 L51.6563 -171 L51.6563 213.75 L51.6562 213.75" stroke="none" stroke-width="0" fill="#ffead5" fill-rule="evenodd"/><path d="M51.6562 -171 C51.65622187508201 -171, 51.656243750164016 -171, 51.6563 -171 M51.6562 -171 C51.656231868778775 -171, 51.65626373755755 -171, 51.6563 -171 M51.6563 -171 C51.6563 -24.855054173403033, 51.6563 121.28989165319393, 51.6563 213.75 M51.6563 -171 C51.6563 -31.54992282826862, 51.6563 107.90015434346276, 51.6563 213.75 M51.6563 213.75 C51.65626538914782 213.75, 51.656230778295644 213.75, 51.6562 213.75 M51.6563 213.75 C51.656268088412034 213.75, 51.65623617682406 213.75, 51.6562 213.75 M51.6562 213.75 C51.6562 119.99653003738462, 51.6562 26.243060074769232, 51.6562 -171 M51.6562 213.75 C51.6562 108.39963800307623, 51.6562 3.0492760061524677, 51.6562 -171" stroke="#fbb176" stroke-width="1.3" fill="none" stroke-dasharray="0 0"/></g><g class="divider"><path d="M-214.59375 -171.00005 L-214.59375 -170.99995 L214.59375 -170.99995 L214.59375 -171.00005" stroke="none" stroke-width="0" fill="#ffead5" fill-rule="evenodd"/><path d="M-214.59375 -171.00005 C-214.59375 -171.00002002833304, -214.59375 -170.9999900566661, -214.59375 -170.99995 M-214.59375 -171.00005 C-214.59375 -171.00001201819836, -214.59375 -170.99997403639674, -214.59375 -170.99995 M-214.59375 -170.99995 C-108.7929314746866 -170.99995, -2.992112949373194 -170.99995, 214.59375 -170.99995 M-214.59375 -170.99995 C-66.14869011830726 -170.99995, 82.29636976338548 -170.99995, 214.59375 -170.99995 M214.59375 -170.99995 C214.59375 -170.99998528128907, 214.59375 -171.00002056257816, 214.59375 -171.00005 M214.59375 -170.99995 C214.59375 -170.99997059390958, 214.59375 -170.99999118781915, 214.59375 -171.00005 M214.59375 -171.00005 C44.472835216686235 -171.00005, -125.64807956662753 -171.00005, -214.59375 -171.00005 M214.59375 -171.00005 C105.34817073680354 -171.00005, -3.8974085263929226 -171.00005, -214.59375 -171.00005" stroke="#fbb176" stroke-width="1.3" fill="none" stroke-dasharray="0 0"/></g></g><g class="node default" id="my-svg-entity-Trait-2" data-look="classic" transform="translate(135.96354166666666, 767.5)"><rect class="basic label-container" style="" x="-50" y="-42" width="100" height="84"/><g class="label" style="" transform="translate(-17.265625, -12)"><rect/><foreignObject width="34.53125" height="24"><div xmlns="http://www.w3.org/1999/xhtml" style="display: table-cell; white-space: nowrap; line-height: 1.5; max-width: 100px; text-align: center;"><span class="nodeLabel markdown-node-label"><p>Trait</p></span></div></foreignObject></g></g><g class="node default" id="my-svg-entity-TraitState-3" data-look="classic" transform="translate(333.890625, 767.5)"><rect class="basic label-container" style="" x="-58.4375" y="-42" width="116.875" height="84"/><g class="label" style="" transform="translate(-38.4375, -12)"><rect/><foreignObject width="76.875" height="24"><div xmlns="http://www.w3.org/1999/xhtml" style="display: table-cell; white-space: nowrap; line-height: 1.5; max-width: 200px; text-align: center;"><span class="nodeLabel markdown-node-label"><p>TraitState</p></span></div></foreignObject></g></g></g><g class="edgeLabels"><g class="edgeLabel" transform="translate(226.5625, 146.5)"><g class="label" data-id="id_entity-TraitDataset-0_entity-TraitRule-1_0" transform="translate(-26.46875, -10.5)"><foreignObject width="52.9375" height="21"><div xmlns="http://www.w3.org/1999/xhtml" class="labelBkg" style="display: table-cell; white-space: nowrap; line-height: 1.5; max-width: 200px; text-align: center;"><span class="edgeLabel"><p>dataset</p></span></div></foreignObject></g></g><g class="edgeLabel" transform="translate(119.046875, 675)"><g class="label" data-id="id_entity-TraitRule-1_entity-Trait-2_1" transform="translate(-38.75, -10.5)"><foreignObject width="77.5" height="21"><div xmlns="http://www.w3.org/1999/xhtml" class="labelBkg" style="display: table-cell; white-space: nowrap; line-height: 1.5; max-width: 200px; text-align: center;"><span class="edgeLabel"><p>triggerTrait</p></span></div></foreignObject></g></g><g class="edgeLabel" transform="translate(226.484375, 675)"><g class="label" data-id="id_entity-TraitRule-1_entity-Trait-2_2" transform="translate(-36.390625, -10.5)"><foreignObject width="72.78125" height="21"><div xmlns="http://www.w3.org/1999/xhtml" class="labelBkg" style="display: table-cell; white-space: nowrap; line-height: 1.5; max-width: 200px; text-align: center;"><span class="edgeLabel"><p>targetTrait</p></span></div></foreignObject></g></g><g class="edgeLabel" transform="translate(333.5625, 675)"><g class="label" data-id="id_entity-TraitRule-1_entity-TraitState-3_3" transform="translate(-42.171875, -10.5)"><foreignObject width="84.34375" height="21"><div xmlns="http://www.w3.org/1999/xhtml" class="labelBkg" style="display: table-cell; white-space: nowrap; line-height: 1.5; max-width: 200px; text-align: center;"><span class="edgeLabel"><p>triggerState</p></span></div></foreignObject></g></g></g></svg>